<?xml version="1.0" encoding="utf-8"?>
<!-- Generator: Adobe Illustrator 25.4.1, SVG Export Plug-In . SVG Version: 6.00 Build 0)  -->
<svg version="1.1" id="Capa_1" xmlns="http://www.w3.org/2000/svg" xmlns:xlink="http://www.w3.org/1999/xlink" x="0px" y="0px"
	 viewBox="0 0 36.6 19.8" style="enable-background:new 0 0 36.6 19.8;" xml:space="preserve">
<style type="text/css">
	.st0{display:none;}
	.st1{display:inline;}
	.st2{fill:#1E1B0D;}
	.st3{display:inline;fill:#1F1B0E;}
	.st4{fill:#F0CF36;stroke:#1F1C10;stroke-miterlimit:10;}
	.st5{fill:none;stroke:#1E1B0D;stroke-width:1.6333;stroke-miterlimit:10;}
</style>
<g id="Capa_1_00000145739889996590692100000011638186954384388481_" class="st0">
	<g class="st1">
		<g>
			<g>
				<path class="st2" d="M2.8,32.4v-4.3H2.7l0.1-1h1.8c0.5,0,0.8,0.1,1,0.2c0.2,0.2,0.3,0.4,0.3,0.8v1c0,0.2,0,0.3-0.1,0.4
					C6,29.7,6.1,30,6.1,30.3v1c0,0.4-0.1,0.7-0.3,0.8c-0.2,0.2-0.6,0.2-1,0.2C4.7,32.4,2.8,32.4,2.8,32.4z M4.6,29.3
					C4.6,29.3,4.6,29.2,4.6,29.3l0.1-1.1c0,0,0,0-0.1,0H4.1v1.1L4.6,29.3L4.6,29.3z M4.8,30.3C4.8,30.3,4.8,30.3,4.8,30.3l-0.7,0
					v1.1h0.7c0,0,0.1,0,0.1,0V30.3z"/>
				<path class="st2" d="M10,31.3c0,0.4-0.1,0.7-0.3,0.8c-0.2,0.2-0.5,0.2-1,0.2H8.2c-0.5,0-0.8-0.1-1-0.2C7,32,6.9,31.7,6.9,31.3
					v-3.2H6.7l0.1-1h1.3v4.3c0,0,0,0,0,0h0.5c0,0,0,0,0,0v-4.3H10V31.3z"/>
				<path class="st2" d="M10.9,32.4v-4.3h-0.2l0.1-1h1.3v4.3h1.8l-0.1,1h-1.7v0L10.9,32.4L10.9,32.4z"/>
				<path class="st2" d="M14.8,32.4v-4.3h-0.2l0.1-1H16v4.3h1.8l-0.1,1H16v0L14.8,32.4L14.8,32.4z"/>
				<path class="st2" d="M21.6,31.3c0,0.4-0.1,0.7-0.3,0.8c-0.2,0.2-0.5,0.2-1,0.2h-0.4c-0.5,0-0.8-0.1-1-0.2
					c-0.2-0.2-0.3-0.4-0.3-0.8v-3.2c0-0.4,0.1-0.7,0.3-0.8s0.5-0.2,1-0.2h0.4c0.5,0,0.8,0.1,1,0.2s0.3,0.4,0.3,0.8V31.3z M19.8,28.1
					C19.8,28.1,19.7,28.1,19.8,28.1l0,3.3c0,0,0,0,0,0h0.5c0,0,0,0,0,0v-3.3c0,0,0,0,0,0H19.8z"/>
				<path class="st2" d="M25.4,30.2v1.2c0,0.4-0.1,0.7-0.3,0.8c-0.2,0.2-0.5,0.2-1,0.2h-0.4c-0.5,0-0.8-0.1-1-0.2
					c-0.2-0.2-0.3-0.4-0.3-0.8v-3.2c0-0.4,0.1-0.7,0.3-0.8c0.2-0.2,0.5-0.2,1-0.2H24c0.5,0,0.8,0.1,1,0.2s0.3,0.4,0.3,0.8v1.1
					l-1.2,0v-1.2c0,0,0,0,0,0h-0.5c0,0,0,0,0,0v3.3c0,0,0,0,0,0h0.5c0,0,0,0,0,0v-1.2C24.1,30.2,25.4,30.2,25.4,30.2z"/>
				<path class="st2" d="M26.2,32.4v-4.3h-0.2l0.1-1h1.3v1.4l0.8-1.4h1.2l-1.3,2.2l1.4,3.1h-1.2l-1-2.1v2.1H26.2z"/>
			</g>
		</g>
		<g>
			<g>
				<path class="st2" d="M10.1,26.1v-2.7H10l0.1-0.6h1.1c0.3,0,0.5,0,0.6,0.2c0.1,0.1,0.2,0.3,0.2,0.5v0.6c0,0.1,0,0.2,0,0.2
					c0.1,0.1,0.1,0.3,0.1,0.5v0.6c0,0.2-0.1,0.4-0.2,0.5c-0.1,0.1-0.3,0.2-0.6,0.2L10.1,26.1L10.1,26.1z M11.2,24.1
					C11.2,24.1,11.2,24.1,11.2,24.1l0-0.7c0,0,0,0,0,0h-0.3v0.7C10.9,24.1,11.2,24.1,11.2,24.1z M11.3,24.8
					C11.3,24.8,11.3,24.8,11.3,24.8l-0.5,0v0.7h0.4c0,0,0,0,0,0V24.8z"/>
				<path class="st2" d="M12.6,26.1v-2.7h-0.1l0.1-0.6h0.8v2.7h1.1l0,0.6h-1l0,0H12.6z"/>
				<path class="st2" d="M14.9,26.1l0.5-2.7h-0.1l0.1-0.6h1.3l0.6,3.3h-0.8l-0.1-0.5h-0.6l-0.1,0.5H14.9z M15.9,25h0.4l-0.2-1.2
					L15.9,25z"/>
				<path class="st2" d="M19.5,24.7v0.7c0,0.2-0.1,0.4-0.2,0.5c-0.1,0.1-0.3,0.2-0.6,0.2h-0.2c-0.3,0-0.5,0-0.6-0.2
					c-0.1-0.1-0.2-0.3-0.2-0.5v-2c0-0.2,0.1-0.4,0.2-0.5c0.1-0.1,0.3-0.2,0.6-0.2h0.2c0.3,0,0.5,0,0.6,0.2c0.1,0.1,0.2,0.3,0.2,0.5
					v0.7l-0.8,0v-0.7c0,0,0,0,0,0h-0.3c0,0,0,0,0,0v2.1c0,0,0,0,0,0h0.3c0,0,0,0,0,0v-0.8L19.5,24.7L19.5,24.7z"/>
				<path class="st2" d="M20.1,26.1v-2.7H20l0.1-0.6h0.8v0.9l0.5-0.9h0.7l-0.8,1.4l0.9,1.9h-0.7l-0.6-1.3v1.3L20.1,26.1L20.1,26.1z"
					/>
			</g>
		</g>
	</g>
	<polygon class="st3" points="24.3,-14.3 7.3,-14.3 -2.1,-4.6 -2.1,-3.3 -2.1,11.4 7.2,20.7 24.2,20.7 34.1,11.4 34.1,11.3 
		34.2,-4.6 	"/>
	<g class="st1">
		<polygon class="st4" points="17.8,19.1 14.1,19.1 12.6,4.1 -4,-4.8 -4,-6.4 -0.5,-10.9 0.6,-10.9 0,-6.8 7.2,-4 25,-4 32.1,-6.6 
			31.5,-10.8 32.7,-10.8 36.1,-6.4 36.1,-4.8 19.4,4.1 		"/>
		<polygon class="st4" points="27,1.6 19.4,4.9 18,19.1 20.5,19.1 23.1,19.1 		"/>
		<polygon class="st4" points="5,1.6 12.5,4.9 14,19.1 11.5,19.1 9,19.1 		"/>
	</g>
</g>
<g id="Capa_2_00000063627610040390545490000004025238367394330297_">
	<g>
		<path class="st5" d="M9.6,10.2L0.8,2.3V18L9.6,10.2z"/>
		<polygon class="st2" points="18.4,17.5 3.7,10.2 18.4,2.8 31.7,2.8 31.7,10.2 31.7,17.5 		"/>
	</g>
</g>
</svg>
