<?xml version="1.0" encoding="UTF-8"?><svg id="Capa_1" xmlns="http://www.w3.org/2000/svg" xmlns:xlink="http://www.w3.org/1999/xlink" viewBox="0 0 1920 1631.91"><defs><style>.cls-1{fill:#232323;}.cls-2{clip-path:url(#clippath);}.cls-3{fill:none;}</style><clipPath id="clippath"><polygon class="cls-3" points="1919.85 1882.66 -2 1903.96 -2 -32.46 1919.85 -13.05 1919.85 1882.66"/></clipPath></defs><g class="cls-2"><g><polygon class="cls-1" points="2053.55 297.5 2053.55 228.79 1873.93 -2.58 1849.96 -2.58 1882.28 225.05 1461.73 377.54 453.67 380.34 28.19 215.83 63.87 -9.53 39.01 -9.53 -143.92 228.86 -144.93 297.65 781.47 793.11 864.57 1624.94 1034.32 1624.94 1118.23 794.79 2053.55 297.5"/><polygon class="cls-1" points="1164.18 872.19 1089.12 1624.94 1331.71 1624.94 1534.43 708.58 1164.18 872.19"/><polygon class="cls-1" points="811.78 1624.94 735.86 872.11 371.85 708.97 578.32 1624.94 811.78 1624.94"/></g></g></svg>