<?xml version="1.0" encoding="utf-8"?>
<!-- Generator: Adobe Illustrator 27.0.0, SVG Export Plug-In . SVG Version: 6.00 Build 0)  -->
<svg version="1.1" id="Capa_1" xmlns="http://www.w3.org/2000/svg" xmlns:xlink="http://www.w3.org/1999/xlink" x="0px" y="0px"
	 viewBox="0 0 26 132" style="enable-background:new 0 0 26 132;" xml:space="preserve">
<style type="text/css">
	.st0{enable-background:new    ;}
	.st1{fill:#F0EFE8;}
</style>
<g>
	<g class="st0">
		<path class="st1" d="M14.9,121.5h7.2c0.9,0,1.7,0.3,2.3,0.9c0.6,0.6,0.9,1.3,0.9,2.3v2.4c0,0.9-0.3,1.7-0.9,2.3
			c-0.6,0.6-1.3,0.9-2.3,0.9H4.6c-0.9,0-1.7-0.3-2.3-0.9c-0.6-0.6-0.9-1.3-0.9-2.3v-2.4c0-0.9,0.3-1.7,0.9-2.3
			c0.6-0.6,1.3-0.9,2.3-0.9h7.5l-0.3,3.2h-7c-0.1,0-0.2,0.1-0.2,0.2v2c0,0.1,0.1,0.2,0.2,0.2H22c0.1,0,0.2-0.1,0.2-0.2v-2
			c0-0.1-0.1-0.2-0.2-0.2h-7V121.5z"/>
	</g>
	<g class="st0">
		<path class="st1" d="M22.1,117.3H11.3c-0.9,0-1.7-0.3-2.3-0.9c-0.6-0.6-0.9-1.3-0.9-2.3v-2.4c0-0.9,0.3-1.7,0.9-2.3
			c0.6-0.6,1.3-0.9,2.3-0.9h10.8c0.9,0,1.7,0.3,2.3,0.9c0.6,0.6,0.9,1.3,0.9,2.3v2.4c0,0.9-0.3,1.7-0.9,2.3
			C23.8,117,23.1,117.3,22.1,117.3z M11.5,111.7c-0.1,0-0.2,0.1-0.2,0.2v2c0,0.1,0.1,0.2,0.2,0.2H22c0.1,0,0.2-0.1,0.2-0.2v-2
			c0-0.1,0-0.2-0.1-0.2H11.5z"/>
	</g>
	<g class="st0">
		<path class="st1" d="M25.1,104.1H11.5v0.8l-3.1-0.3v-3.7h1.3L8.4,100v-0.9c0-1,0.3-1.9,0.9-2.5c0.6-0.6,1.3-0.9,2.2-0.9H22v-0.8
			l3.1,0.3v3.7H11.6c-0.1,0-0.2,0.1-0.2,0.2v1.8h13.7V104.1z"/>
	</g>
	<g class="st0">
		<path class="st1" d="M22,85.7h3.1v1.9c0,0.9-0.3,1.7-0.9,2.3c-0.6,0.6-1.3,0.9-2.3,0.9H11.5v1.4L8.4,92v-1.1H4.8v0.8l-3.1-0.3
			v-3.8h6.7v-1.9l3.1,0.3v1.6H22V85.7z"/>
	</g>
	<g class="st0">
		<path class="st1" d="M25.1,78.8c0,1-0.3,1.9-0.9,2.5c-0.6,0.6-1.3,0.9-2.2,0.9H11.5c-0.9,0-1.7-0.3-2.2-0.9
			c-0.6-0.6-0.9-1.4-0.9-2.5v-0.1c0-0.6,0.1-1.1,0.4-1.6H8.4v-3.2H22v-0.5l3.1-0.3v4h-1.3l1.3,0.8V78.8z M11.5,78.8
			c0,0.1,0.1,0.2,0.2,0.2h10.2C22,79,22,79,22,78.8v-1.8H11.5V78.8z"/>
	</g>
	<g class="st0">
		<path class="st1" d="M22.1,69.7H11.3c-0.9,0-1.7-0.3-2.3-0.9c-0.6-0.6-0.9-1.3-0.9-2.3v-2.4c0-0.9,0.3-1.7,0.9-2.3
			s1.3-0.9,2.3-0.9h4.4l-0.3,3.2h-3.9c-0.1,0-0.2,0.1-0.2,0.2v2c0,0.1,0.1,0.2,0.2,0.2H22c0.1,0,0.2-0.1,0.2-0.2v-2
			c0-0.1,0-0.2-0.1-0.2h-3.9V61h4c0.9,0,1.7,0.3,2.3,0.9c0.6,0.6,0.9,1.3,0.9,2.3v2.4c0,0.9-0.3,1.7-0.9,2.3
			C23.8,69.4,23.1,69.7,22.1,69.7z"/>
	</g>
	<g class="st0">
		<path class="st1" d="M22,50.8h3.1v1.9c0,0.9-0.3,1.7-0.9,2.3c-0.6,0.6-1.3,0.9-2.3,0.9H11.5v1.4L8.4,57v-1.1H4.8v0.8l-3.1-0.3
			v-3.8h6.7v-1.9l3.1,0.3v1.6H22V50.8z"/>
	</g>
	<g class="st0">
		<path class="st1" d="M22.1,47.3H11.3c-0.9,0-1.7-0.3-2.3-0.9c-0.6-0.6-0.9-1.3-0.9-2.3v-2.4c0-0.9,0.3-1.7,0.9-2.3
			s1.3-0.9,2.3-0.9h10.8c0.9,0,1.7,0.3,2.3,0.9c0.6,0.6,0.9,1.3,0.9,2.3v2.4c0,0.9-0.3,1.7-0.9,2.3C23.8,47,23.1,47.3,22.1,47.3z
			 M11.5,41.8c-0.1,0-0.2,0.1-0.2,0.2v2c0,0.1,0.1,0.2,0.2,0.2H22c0.1,0,0.2-0.1,0.2-0.2v-2c0-0.1,0-0.2-0.1-0.2H11.5z"/>
	</g>
	<path class="st1" d="M14.1,26.5l-9.6-5.8V1.4l9.6,5.8l9.6-5.8v19.4C23.7,20.7,14.1,26.5,14.1,26.5z M6.1,19.9l8,4.9l8-4.9V4.1
		l-8,4.9l-8-4.9C6.1,4.1,6.1,19.9,6.1,19.9z"/>
</g>
</svg>
