<?xml version="1.0" encoding="UTF-8"?><svg id="Capa_1" xmlns="http://www.w3.org/2000/svg" viewBox="0 0 60.23 63.01"><defs><style>.cls-1,.cls-2{fill:#241d16;}.cls-3{fill:#829c76;}.cls-2{stroke:#829c76;stroke-miterlimit:10;stroke-width:.99px;}</style></defs><rect class="cls-3" x=".11" y=".09" width="60.08" height="62.88" rx="3.37" ry="3.37"/><g><path class="cls-1" d="M18.29,55.74v-6.1h-.25l.18-1.43h2.51c.67,0,1.16,.12,1.45,.36,.29,.24,.44,.63,.44,1.18v1.41c0,.22-.02,.41-.07,.57,.22,.24,.33,.6,.33,1.08v1.4c0,.54-.15,.94-.44,1.18-.29,.24-.78,.36-1.45,.36h-2.7Zm2.48-4.47s.07-.02,.07-.05v-1.52s-.02-.05-.07-.05h-.7v1.62h.7Zm.33,1.48s-.02-.05-.07-.05h-.96v1.61h.96s.07-.02,.07-.05v-1.51Z"/><path class="cls-1" d="M26.27,55.74v-6.1h-.25l.18-1.43h2.51c.67,0,1.16,.12,1.45,.36,.29,.24,.44,.63,.44,1.18v1.41c0,.22-.02,.41-.07,.57,.22,.24,.33,.6,.33,1.08v1.4c0,.54-.15,.94-.44,1.18-.29,.24-.78,.36-1.45,.36h-2.7Zm2.48-4.47s.07-.02,.07-.05v-1.52s-.02-.05-.07-.05h-.7v1.62h.7Zm.33,1.48s-.02-.05-.07-.05h-.96v1.61h.96s.07-.02,.07-.05v-1.51Z"/><path class="cls-1" d="M36.15,52.62v1.67c0,.54-.15,.94-.44,1.18s-.78,.36-1.45,.36h-.58c-.67,0-1.16-.12-1.45-.36s-.44-.63-.44-1.18v-4.63c0-.55,.15-.95,.44-1.18s.78-.36,1.45-.36h.58c.67,0,1.16,.12,1.45,.36s.44,.63,.44,1.18v1.62h-1.79v-1.68s-.02-.05-.07-.05h-.66s-.07,.02-.07,.05v4.73s.02,.05,.07,.05h.66s.07-.02,.07-.05v-1.72h1.79Z"/><path class="cls-1" d="M37.39,55.74v-6.1h-.25l.18-1.43h1.85v1.97l1.13-1.97h1.71l-1.8,3.14,2.03,4.39h-1.71l-1.36-2.95v2.95h-1.79Z"/><rect class="cls-1" x="23.79" y="51.27" width="1.4" height="1.4"/></g><g><polygon class="cls-2" points="32.25 43.24 27.84 43.24 26.09 25.79 6.82 15.48 6.85 13.59 10.89 8.32 12.23 8.32 11.46 13.17 19.84 16.41 40.6 16.35 48.87 13.35 48.18 8.46 49.49 8.46 53.47 13.59 53.47 15.48 34.01 25.82 32.25 43.24"/><polygon class="cls-2" points="42.89 22.88 34.04 26.78 32.4 43.24 35.36 43.24 38.38 43.24 42.89 22.88"/><polygon class="cls-2" points="17.35 22.88 26.07 26.78 27.73 43.24 24.88 43.24 21.94 43.24 17.35 22.88"/></g></svg>