<?xml version="1.0" encoding="UTF-8"?><svg id="Capa_1" xmlns="http://www.w3.org/2000/svg" viewBox="0 0 40.16 40.04"><defs><style>.cls-1{fill:#241d16;}.cls-2{fill:#f0efe8;}</style></defs><path class="cls-1" d="M40.16-.08V40.06H.03V.03L9.03-.08h31.13Z"/><g><path class="cls-2" d="M25.43,12.46c-.66,0-1.2,.54-1.2,1.2s.54,1.2,1.2,1.2,1.2-.54,1.2-1.2-.54-1.2-1.2-1.2Z"/><path class="cls-2" d="M20.09,13.86c-2.84,0-5.13,2.3-5.13,5.13s2.3,5.14,5.13,5.14,5.14-2.3,5.14-5.14-2.3-5.13-5.14-5.13Zm0,8.47c-1.84,0-3.33-1.49-3.33-3.33s1.49-3.33,3.33-3.33,3.33,1.49,3.33,3.33-1.49,3.33-3.33,3.33Z"/><path class="cls-2" d="M24.22,9.05c-1.07-.05-1.41-.06-4.12-.06s-3.06,.01-4.12,.06c-3.63,.17-5.65,2.18-5.82,5.82-.05,1.07-.06,1.41-.06,4.12s.01,3.06,.06,4.12c.17,3.63,2.18,5.65,5.82,5.82,1.07,.05,1.41,.06,4.12,.06s3.06-.01,4.12-.06c3.63-.17,5.65-2.18,5.82-5.82,.05-1.07,.06-1.41,.06-4.12s-.01-3.06-.06-4.12c-.16-3.63-2.18-5.65-5.82-5.82Zm4.02,13.98c-.12,2.69-1.39,3.98-4.1,4.1-1.05,.05-1.37,.06-4.04,.06s-2.99,0-4.04-.06c-2.72-.12-3.98-1.42-4.1-4.1-.05-1.06-.06-1.37-.06-4.04s.01-2.99,.06-4.04c.12-2.69,1.39-3.98,4.1-4.1,1.05-.05,1.37-.06,4.04-.06s2.99,.01,4.04,.06c2.71,.12,3.98,1.41,4.1,4.1,.05,1.05,.06,1.37,.06,4.04s0,2.99-.06,4.04Z"/></g></svg>