<?xml version="1.0" encoding="utf-8"?>
<!-- Generator: Adobe Illustrator 27.0.0, SVG Export Plug-In . SVG Version: 6.00 Build 0)  -->
<svg version="1.1" id="Capa_1" xmlns="http://www.w3.org/2000/svg" xmlns:xlink="http://www.w3.org/1999/xlink" x="0px" y="0px"
	 viewBox="0 0 26 140" style="enable-background:new 0 0 26 140;" xml:space="preserve">
<style type="text/css">
	.st0{enable-background:new    ;}
	.st1{fill:#F0EFE8;}
</style>
<g>
	<g class="st0">
		<path class="st1" d="M1.6,132.2V129h23.5v3.2l-14.4,3.7h14.4v3.2H4.7v0.5l-3.1-0.3v-3.5l14.9-3.7L1.6,132.2z"/>
		<path class="st1" d="M22.1,125H11.3c-0.9,0-1.7-0.3-2.3-0.9c-0.6-0.6-0.9-1.3-0.9-2.3v-2.4c0-0.9,0.3-1.7,0.9-2.3
			c0.6-0.6,1.3-0.9,2.3-0.9h10.8c0.9,0,1.7,0.3,2.3,0.9c0.6,0.6,0.9,1.3,0.9,2.3v2.4c0,0.9-0.3,1.7-0.9,2.3
			C23.8,124.7,23,125,22.1,125z M11.5,119.4c-0.1,0-0.2,0.1-0.2,0.2v2c0,0.1,0.1,0.2,0.2,0.2h10.5c0.1,0,0.2-0.1,0.2-0.2v-2
			c0-0.1,0-0.2-0.1-0.2H11.5z"/>
		<path class="st1" d="M19.8,112.2l0.3-3.2h1.6c0.1,0,0.2-0.1,0.2-0.2v-1.3c0-0.1-0.1-0.2-0.2-0.2h-3.1l-1.3,3
			c-0.2,0.4-0.4,0.8-0.7,1.2c-0.3,0.4-0.9,0.7-1.6,0.7h-3.7c-0.9,0-1.7-0.3-2.3-0.9c-0.6-0.6-0.9-1.3-0.9-2.3v-1.7
			c0-0.9,0.3-1.7,0.9-2.3c0.6-0.6,1.3-0.9,2.3-0.9h2.1l-0.3,3.2h-1.6c-0.1,0-0.2,0.1-0.2,0.2v1.3c0,0.1,0.1,0.2,0.2,0.2h3.1l1.3-3
			c0.2-0.4,0.4-0.8,0.7-1.2c0.3-0.4,0.9-0.7,1.6-0.7H22c0.9,0,1.7,0.3,2.3,0.9c0.6,0.6,0.9,1.3,0.9,2.3v1.7c0,0.9-0.3,1.7-0.9,2.3
			c-0.6,0.6-1.3,0.9-2.3,0.9H19.8z"/>
	</g>
	<g class="st0">
		<path class="st1" d="M22.1,100.1H11.3c-0.9,0-1.7-0.3-2.3-0.9c-0.6-0.6-0.9-1.3-0.9-2.3v-2.4c0-0.9,0.3-1.7,0.9-2.3
			c0.6-0.6,1.3-0.9,2.3-0.9h10.8c0.9,0,1.7,0.3,2.3,0.9c0.6,0.6,0.9,1.3,0.9,2.3V97c0,0.9-0.3,1.7-0.9,2.3
			C23.8,99.8,23,100.1,22.1,100.1z M11.5,94.6c-0.1,0-0.2,0.1-0.2,0.2v2c0,0.1,0.1,0.2,0.2,0.2h10.5c0.1,0,0.2-0.1,0.2-0.2v-2
			c0-0.1,0-0.2-0.1-0.2H11.5z"/>
	</g>
	<g class="st0">
		<path class="st1" d="M22,81.4h3.1v1.9c0,0.9-0.3,1.7-0.9,2.3c-0.6,0.6-1.3,0.9-2.3,0.9H11.4v1.4l-3.1-0.3v-1.1H4.7v0.8l-3.1-0.3
			v-3.8h6.7v-1.9l3.1,0.3v1.6H22V81.4z"/>
		<path class="st1" d="M8.3,74.1h1.5l-1.5-0.9v-2.2h3.3v3.2h13.5v3.2H11.4V78l-3.1-0.3V74.1z"/>
		<path class="st1" d="M22.1,67.2H11.3c-0.9,0-1.7-0.3-2.3-0.9c-0.6-0.6-0.9-1.3-0.9-2.3v-2.4c0-0.9,0.3-1.7,0.9-2.3
			s1.3-0.9,2.3-0.9h10.8c0.9,0,1.7,0.3,2.3,0.9c0.6,0.6,0.9,1.3,0.9,2.3v2.4c0,0.9-0.3,1.7-0.9,2.3C23.8,66.9,23,67.2,22.1,67.2z
			 M11.5,61.7c-0.1,0-0.2,0.1-0.2,0.2v2c0,0.1,0.1,0.2,0.2,0.2h10.5c0.1,0,0.2-0.1,0.2-0.2v-2c0-0.1,0-0.2-0.1-0.2H11.5z"/>
		<path class="st1" d="M19.8,54.5l0.3-3.2h1.6c0.1,0,0.2-0.1,0.2-0.2v-1.3c0-0.1-0.1-0.2-0.2-0.2h-3.1l-1.3,3
			c-0.2,0.4-0.4,0.8-0.7,1.2c-0.3,0.4-0.9,0.7-1.6,0.7h-3.7c-0.9,0-1.7-0.3-2.3-0.9c-0.6-0.6-0.9-1.3-0.9-2.3v-1.7
			c0-0.9,0.3-1.7,0.9-2.3s1.3-0.9,2.3-0.9h2.1l-0.3,3.2h-1.6c-0.1,0-0.2,0.1-0.2,0.2v1.3c0,0.1,0.1,0.2,0.2,0.2h3.1l1.3-3
			c0.2-0.4,0.4-0.8,0.7-1.2c0.3-0.4,0.9-0.7,1.6-0.7H22c0.9,0,1.7,0.3,2.3,0.9s0.9,1.3,0.9,2.3v1.7c0,0.9-0.3,1.7-0.9,2.3
			c-0.6,0.6-1.3,0.9-2.3,0.9H19.8z"/>
	</g>
	<path class="st1" d="M14.1,28.2l-9.6-5.8V3.1l9.6,5.8l9.6-5.8v19.4L14.1,28.2L14.1,28.2z M6.1,21.6l8,4.9l8-4.9V5.8l-8,4.9l-8-4.9
		V21.6z"/>
</g>
</svg>
