<?xml version="1.0" encoding="utf-8"?>
<!-- Generator: Adobe Illustrator 27.0.0, SVG Export Plug-In . SVG Version: 6.00 Build 0)  -->
<svg version="1.1" id="Capa_1" xmlns="http://www.w3.org/2000/svg" xmlns:xlink="http://www.w3.org/1999/xlink" x="0px" y="0px"
	 viewBox="0 0 139.1 52.1" style="enable-background:new 0 0 139.1 52.1;" xml:space="preserve">
<style type="text/css">
	.st0{fill:#241D16;}
	.st1{fill:#FFCB00;}
	.st2{fill:#FFCB00;stroke:#241D16;stroke-width:0.82;stroke-miterlimit:10;}
	.st3{enable-background:new    ;}
	.st4{fill:#B2B1B1;}
</style>
<g>
	<g>
		<polygon class="st0" points="47,37.5 5.1,37.5 0.4,32.9 0.4,5.1 5.2,0.3 47,0.3 		"/>
		<polygon class="st1" points="134.1,37.5 47,37.5 47,0.3 133.9,0.3 138.7,5.1 138.7,32.9 		"/>
		<g>
			<path class="st0" d="M52.1,32.8V20h-0.5l0.4-3h5.3c1.4,0,2.4,0.2,3,0.8c0.6,0.5,0.9,1.3,0.9,2.5v3c0,0.5,0,0.9-0.1,1.2
				c0.5,0.5,0.7,1.2,0.7,2.3v2.9c0,1.1-0.3,2-0.9,2.5c-0.6,0.5-1.6,0.8-3,0.8L52.1,32.8L52.1,32.8z M57.3,23.4c0.1,0,0.1,0,0.1-0.1
				v-3.2c0-0.1,0-0.1-0.1-0.1h-1.5v3.4C55.9,23.4,57.3,23.4,57.3,23.4z M58,26.5c0-0.1,0-0.1-0.1-0.1h-2v3.4h2c0.1,0,0.1,0,0.1-0.1
				V26.5L58,26.5z"/>
			<path class="st0" d="M73.5,29.7c0,1.1-0.3,2-0.9,2.5c-0.6,0.5-1.6,0.8-3.1,0.8h-1.5c-1.4,0-2.4-0.2-3-0.8
				c-0.6-0.5-0.9-1.3-0.9-2.5V20h-0.5l0.4-3h3.9v12.8c0,0.1,0.1,0.1,0.1,0.1h1.7c0.1,0,0.1,0,0.1-0.1V17h3.8L73.5,29.7L73.5,29.7z"
				/>
			<path class="st0" d="M76.2,32.8V20h-0.5l0.4-3h3.9v12.8h5.3l-0.2,3h-5v0L76.2,32.8L76.2,32.8z"/>
			<path class="st0" d="M87.8,32.8V20h-0.5l0.4-3h3.9v12.8h5.3l-0.2,3h-5v0L87.8,32.8L87.8,32.8z"/>
			<path class="st0" d="M108,29.7c0,1.1-0.3,2-0.9,2.5c-0.6,0.5-1.6,0.8-3,0.8h-1.2c-1.4,0-2.4-0.2-3.1-0.8s-0.9-1.3-0.9-2.5v-9.5
				c0-1.2,0.3-2,0.9-2.5c0.6-0.5,1.6-0.8,3.1-0.8h1.2c1.4,0,2.4,0.2,3,0.8s0.9,1.3,0.9,2.5V29.7z M102.8,19.9c-0.1,0-0.1,0-0.1,0.1
				v9.8c0,0.1,0.1,0.1,0.1,0.1h1.4c0.1,0,0.1,0,0.1-0.1V20c0-0.1-0.1-0.1-0.1-0.1H102.8z"/>
			<path class="st0" d="M119.4,26.3v3.5c0,1.1-0.3,2-0.9,2.5c-0.6,0.5-1.6,0.8-3,0.8h-1.2c-1.4,0-2.4-0.2-3.1-0.8
				c-0.6-0.5-0.9-1.3-0.9-2.5v-9.7c0-1.2,0.3-2,0.9-2.5s1.6-0.8,3.1-0.8h1.2c1.4,0,2.4,0.2,3,0.8s0.9,1.3,0.9,2.5v3.4h-3.8V20
				c0-0.1-0.1-0.1-0.1-0.1h-1.4c-0.1,0-0.1,0-0.1,0.1v9.9c0,0.1,0.1,0.1,0.1,0.1h1.4c0.1,0,0.1,0,0.1-0.1v-3.6L119.4,26.3
				L119.4,26.3z"/>
			<path class="st0" d="M122,32.8V20h-0.5l0.4-3h3.9v4.1l2.4-4.1h3.6l-3.8,6.6l4.3,9.2h-3.6l-2.9-6.2v6.2L122,32.8L122,32.8z"/>
		</g>
		<g>
			<path class="st0" d="M52.1,14.2V7.1h-0.3L52,5.4H55c0.8,0,1.3,0.1,1.7,0.4s0.5,0.7,0.5,1.4v1.7c0,0.2,0,0.5-0.1,0.7
				c0.3,0.3,0.4,0.7,0.4,1.3v1.6c0,0.6-0.2,1.1-0.5,1.4s-0.9,0.4-1.7,0.4L52.1,14.2L52.1,14.2z M55,9C55.1,9,55.1,9,55,9l0.1-1.8
				c0,0,0-0.1-0.1-0.1h-0.8V9L55,9L55,9z M55.4,10.7C55.4,10.7,55.4,10.7,55.4,10.7l-1.2-0.1v1.9h1.1c0,0,0.1,0,0.1-0.1V10.7
				L55.4,10.7z"/>
			<path class="st0" d="M58.9,14.2V7.1h-0.3l0.2-1.7h2.2v7.1h2.9l-0.1,1.7h-2.8L58.9,14.2L58.9,14.2z"/>
			<path class="st0" d="M65,14.2l1.3-7.1H66l0.2-1.7h3.6l1.6,8.8h-2.1L69,13h-1.7l-0.2,1.3L65,14.2L65,14.2z M67.6,11.3h1.1
				l-0.6-3.1L67.6,11.3L67.6,11.3z"/>
			<path class="st0" d="M77.4,10.6v1.9c0,0.6-0.2,1.1-0.5,1.4c-0.3,0.3-0.9,0.4-1.7,0.4h-0.7c-0.8,0-1.3-0.1-1.7-0.4
				c-0.3-0.3-0.5-0.7-0.5-1.4V7.1c0-0.7,0.2-1.1,0.5-1.4c0.3-0.3,0.9-0.4,1.7-0.4h0.7c0.8,0,1.3,0.1,1.7,0.4
				c0.3,0.3,0.5,0.7,0.5,1.4V9h-2.1V7.1c0,0,0-0.1-0.1-0.1h-0.8c-0.1,0-0.1,0-0.1,0.1v5.5c0,0,0,0.1,0.1,0.1h0.8
				c0.1,0,0.1,0,0.1-0.1v-2H77.4z"/>
			<path class="st0" d="M78.9,14.2V7.1h-0.3l0.2-1.7H81v2.3l1.3-2.3h2l-2.1,3.7l2.4,5.1h-2L81,10.8v3.4L78.9,14.2L78.9,14.2z"/>
		</g>
		<g>
			<polygon class="st2" points="25.4,33.4 21.8,33.4 20.3,18.9 4.4,10.4 4.4,8.8 7.8,4.5 8.9,4.5 8.2,8.5 15.2,11.2 32.3,11.1
				39.2,8.6 38.6,4.6 39.7,4.6 43,8.8 43,10.4 26.9,19 			"/>
			<polygon class="st2" points="34.2,16.5 26.9,19.8 25.6,33.4 28,33.4 30.5,33.4 			"/>
			<polygon class="st2" points="13.1,16.5 20.3,19.8 21.7,33.4 19.3,33.4 16.9,33.4 			"/>
		</g>
	</g>
	<g class="st3">
		<path class="st4" d="M4,50.4c-0.4,0-0.8-0.1-1.1-0.2C2.6,50,2.3,49.8,2,49.6c-0.3-0.3-0.5-0.6-0.6-0.9c-0.1-0.3-0.2-0.7-0.2-1.1
			s0.1-0.8,0.2-1.1c0.1-0.3,0.3-0.6,0.6-0.9c0.3-0.3,0.6-0.5,0.9-0.6s0.7-0.2,1.1-0.2s0.8,0.1,1.1,0.2s0.6,0.3,0.9,0.6
			c0.3,0.3,0.5,0.6,0.6,0.9c0.1,0.3,0.2,0.7,0.2,1.1s-0.1,0.8-0.2,1.1c-0.1,0.3-0.3,0.6-0.6,0.9c-0.3,0.3-0.6,0.5-0.9,0.6
			C4.8,50.3,4.4,50.4,4,50.4z M4,49.8c0.4,0,0.7-0.1,1-0.2c0.3-0.1,0.5-0.3,0.7-0.5c0.2-0.2,0.3-0.5,0.4-0.7
			c0.1-0.3,0.1-0.6,0.1-0.8c0-0.4-0.1-0.7-0.2-1.1c-0.2-0.4-0.4-0.6-0.7-0.9C5,45.4,4.5,45.3,4,45.3c-0.4,0-0.7,0.1-1,0.2
			c-0.3,0.1-0.5,0.3-0.7,0.5S2,46.4,1.9,46.7c-0.1,0.3-0.1,0.6-0.1,0.8c0,0.4,0.1,0.7,0.2,1.1s0.4,0.6,0.7,0.9S3.5,49.8,4,49.8z
			 M4,49.4c-0.3,0-0.5-0.1-0.7-0.2c-0.1-0.2-0.2-0.4-0.2-0.6v-2c0-0.3,0.1-0.5,0.2-0.7c0.1-0.2,0.4-0.3,0.7-0.3
			c0.3,0,0.5,0.1,0.7,0.2c0.1,0.1,0.2,0.4,0.2,0.7V47H4.4v-0.5c0-0.2,0-0.3-0.1-0.4c-0.1,0-0.1-0.1-0.2-0.1s-0.2,0-0.3,0.1
			c-0.1,0-0.1,0.2-0.1,0.3v2.1c0,0.2,0,0.2,0.1,0.3C3.8,48.9,3.9,49,4,49s0.2,0,0.2-0.1c0.1,0,0.1-0.1,0.1-0.3V48h0.6v0.6
			c0,0.3-0.1,0.5-0.2,0.6C4.6,49.4,4.4,49.4,4,49.4z"/>
		<path class="st4" d="M11.5,51.3v-0.4c0-0.3,0-0.6,0.1-0.8c0-0.2,0.1-0.5,0.2-0.8c0.1-0.3,0.3-0.6,0.5-0.9l0.7-1.2
			c0.1-0.1,0.1-0.2,0.2-0.4s0.1-0.3,0.1-0.4c0-0.1,0-0.3,0-0.4s0-0.3,0-0.4c0-0.4,0-0.6,0-0.8s-0.1-0.3-0.1-0.4
			c-0.1-0.1-0.2-0.1-0.3-0.1c-0.1,0-0.2,0-0.3,0.1c-0.1,0.1-0.1,0.2-0.2,0.4c0,0.2-0.1,0.5-0.1,0.9v1h-0.9v-0.5c0-0.6,0-1,0.1-1.4
			c0.1-0.4,0.2-0.7,0.4-0.9c0.2-0.2,0.5-0.3,1-0.3c0.3,0,0.6,0.1,0.8,0.3c0.2,0.2,0.3,0.4,0.4,0.7c0.1,0.3,0.1,0.7,0.1,1.1
			c0,0.3,0,0.5,0,0.7c0,0.2-0.1,0.4-0.2,0.6s-0.2,0.4-0.3,0.6L13,48.9c-0.2,0.3-0.3,0.5-0.4,0.7s-0.1,0.3-0.2,0.5s0,0.3,0,0.5h1.7
			v0.7H11.5z"/>
		<path class="st4" d="M17.1,51.4c-0.4,0-0.7-0.1-0.9-0.3c-0.2-0.2-0.3-0.4-0.4-0.7c0-0.3-0.1-0.7-0.1-1.2v-3.7c0-0.4,0-0.8,0.1-1.1
			c0.1-0.3,0.2-0.5,0.4-0.7c0.2-0.2,0.5-0.2,0.9-0.2c0.4,0,0.7,0.1,0.9,0.2c0.2,0.2,0.3,0.4,0.3,0.7c0,0.3,0.1,0.7,0.1,1.1v3.7
			c0,0.3,0,0.6,0,0.9c0,0.3-0.1,0.5-0.1,0.7c-0.1,0.2-0.2,0.3-0.4,0.4C17.6,51.3,17.4,51.4,17.1,51.4z M17.1,50.6c0.1,0,0.2,0,0.2,0
			c0.1,0,0.1-0.1,0.1-0.2c0-0.1,0.1-0.2,0.1-0.4c0-0.2,0-0.4,0-0.8v-3.7c0-0.4,0-0.7-0.1-0.8c0-0.2-0.1-0.3-0.1-0.3
			c-0.1,0-0.2-0.1-0.3-0.1c-0.1,0-0.2,0-0.3,0.1c-0.1,0-0.1,0.1-0.2,0.3s-0.1,0.4-0.1,0.8v3.7c0,0.3,0,0.6,0,0.8
			c0,0.2,0,0.3,0.1,0.4c0,0.1,0.1,0.1,0.1,0.2C16.9,50.6,17,50.6,17.1,50.6z"/>
		<path class="st4" d="M20.4,51.3v-0.4c0-0.3,0-0.6,0.1-0.8c0-0.2,0.1-0.5,0.2-0.8c0.1-0.3,0.3-0.6,0.5-0.9l0.7-1.2
			c0.1-0.1,0.1-0.2,0.2-0.4s0.1-0.3,0.1-0.4c0-0.1,0-0.3,0-0.4s0-0.3,0-0.4c0-0.4,0-0.6,0-0.8s-0.1-0.3-0.1-0.4
			c-0.1-0.1-0.2-0.1-0.3-0.1c-0.1,0-0.2,0-0.3,0.1c-0.1,0.1-0.1,0.2-0.2,0.4c0,0.2-0.1,0.5-0.1,0.9v1h-0.9v-0.5c0-0.6,0-1,0.1-1.4
			c0.1-0.4,0.2-0.7,0.4-0.9c0.2-0.2,0.5-0.3,1-0.3c0.3,0,0.6,0.1,0.8,0.3c0.2,0.2,0.3,0.4,0.4,0.7c0.1,0.3,0.1,0.7,0.1,1.1
			c0,0.3,0,0.5,0,0.7c0,0.2-0.1,0.4-0.2,0.6s-0.2,0.4-0.3,0.6l-0.7,1.3c-0.2,0.3-0.3,0.5-0.4,0.7s-0.1,0.3-0.2,0.5s0,0.3,0,0.5h1.7
			v0.7H20.4z"/>
		<path class="st4" d="M25.9,51.4c-0.5,0-0.9-0.2-1.1-0.5s-0.3-0.9-0.3-1.6v-0.4h0.8v0.4c0,0.3,0,0.6,0,0.8c0,0.2,0.1,0.3,0.2,0.4
			c0.1,0.1,0.2,0.1,0.4,0.1c0.2,0,0.3,0,0.4-0.1c0.1-0.1,0.1-0.3,0.2-0.5c0-0.2,0-0.5,0-0.8c0-0.4,0-0.7-0.1-0.9s-0.1-0.4-0.2-0.5
			c-0.1-0.1-0.3-0.1-0.5-0.1h-0.2v-0.7h0.2c0.2,0,0.3,0,0.5-0.1c0.1-0.1,0.2-0.2,0.2-0.4c0-0.2,0.1-0.5,0.1-0.9c0-0.3,0-0.6-0.1-0.8
			c0-0.2-0.1-0.3-0.2-0.4c-0.1-0.1-0.2-0.1-0.3-0.1c-0.1,0-0.2,0-0.3,0.1c-0.1,0.1-0.1,0.2-0.2,0.4c0,0.2-0.1,0.4-0.1,0.8v0.2h-0.9
			v-0.2c0-0.7,0.1-1.2,0.3-1.5c0.2-0.3,0.6-0.5,1.1-0.5c0.5,0,0.9,0.2,1.1,0.5c0.2,0.3,0.3,0.8,0.3,1.5c0,0.4-0.1,0.8-0.2,1.1
			s-0.3,0.5-0.6,0.6c0.2,0.1,0.3,0.2,0.5,0.4c0.1,0.2,0.2,0.4,0.3,0.7c0.1,0.3,0.1,0.5,0.1,0.8c0,0.7-0.1,1.3-0.3,1.6
			C26.8,51.2,26.4,51.4,25.9,51.4z"/>
		<path class="st4" d="M31.9,51.3v-7.6h1.4c0.4,0,0.7,0.1,0.9,0.2s0.4,0.3,0.5,0.6s0.1,0.6,0.1,1v0.2c0,0.4,0,0.8-0.1,1
			c-0.1,0.3-0.2,0.5-0.5,0.6c0.2,0.1,0.3,0.2,0.4,0.4s0.2,0.4,0.2,0.6s0.1,0.5,0.1,0.8v0.2c0,0.5-0.1,0.9-0.1,1.2
			c-0.1,0.3-0.2,0.5-0.5,0.7s-0.5,0.2-0.9,0.2H31.9z M32.8,46.8h0.5c0.1,0,0.2,0,0.3,0c0.1,0,0.1-0.1,0.2-0.2s0.1-0.2,0.1-0.4
			c0-0.2,0-0.4,0-0.7v-0.2c0-0.3,0-0.5-0.1-0.6c0-0.1-0.1-0.2-0.2-0.3c-0.1,0-0.2-0.1-0.4-0.1h-0.4V46.8z M32.8,50.6h0.6
			c0.2,0,0.3,0,0.4-0.1s0.2-0.2,0.2-0.4c0-0.2,0.1-0.5,0.1-0.9v-0.3c0-0.5,0-0.8-0.1-1c-0.1-0.2-0.2-0.3-0.5-0.3h-0.6V50.6z"/>
		<path class="st4" d="M36.6,51.3v-7.6h0.9v6.9h1.4v0.7H36.6z"/>
		<path class="st4" d="M40,51.3l1.2-7.6h1.1l1.3,7.6h-0.8l-0.2-1.5H41l-0.2,1.5H40z M41.1,49.1h1.2l-0.6-4h0L41.1,49.1z"/>
		<path class="st4" d="M46.4,51.4c-0.4,0-0.7-0.1-0.9-0.3c-0.2-0.2-0.4-0.4-0.5-0.8C45,50,44.9,49.5,44.9,49v-3.2
			c0-0.3,0-0.6,0.1-0.9s0.1-0.5,0.2-0.7c0.1-0.2,0.3-0.4,0.5-0.5s0.5-0.2,0.8-0.2c0.3,0,0.5,0.1,0.7,0.2c0.2,0.1,0.3,0.3,0.4,0.5
			c0.1,0.2,0.2,0.4,0.2,0.7c0,0.3,0.1,0.6,0.1,0.9v0.8H47v-0.9c0-0.5,0-0.8-0.1-1.1c-0.1-0.2-0.2-0.4-0.5-0.4
			c-0.3,0-0.4,0.1-0.5,0.4c-0.1,0.2-0.1,0.6-0.1,1.1v3.3c0,0.4,0,0.7,0,0.9c0,0.2,0.1,0.4,0.2,0.5s0.2,0.2,0.4,0.2
			c0.2,0,0.4-0.1,0.5-0.4C47,50,47,49.6,47,49.1v-0.8h0.9V49c0,0.5,0,0.9-0.1,1.3s-0.2,0.6-0.5,0.8S46.8,51.4,46.4,51.4z"/>
		<path class="st4" d="M49.7,51.3v-7.6h0.9v3.6l1.4-3.6h0.9l-1.4,3.8l1.5,3.9H52l-1.4-3.7v3.7H49.7z"/>
		<path class="st4" d="M54.1,48v-0.6h2V48H54.1z"/>
		<path class="st4" d="M58.1,51.3v-7.6h1.4c0.4,0,0.7,0.1,0.9,0.2s0.4,0.3,0.5,0.6s0.1,0.6,0.1,1v0.2c0,0.4,0,0.8-0.1,1
			c-0.1,0.3-0.2,0.5-0.5,0.6c0.2,0.1,0.3,0.2,0.4,0.4s0.2,0.4,0.2,0.6s0.1,0.5,0.1,0.8v0.2c0,0.5-0.1,0.9-0.1,1.2
			c-0.1,0.3-0.2,0.5-0.5,0.7s-0.5,0.2-0.9,0.2H58.1z M59,46.8h0.5c0.1,0,0.2,0,0.3,0c0.1,0,0.1-0.1,0.2-0.2s0.1-0.2,0.1-0.4
			c0-0.2,0-0.4,0-0.7v-0.2c0-0.3,0-0.5-0.1-0.6c0-0.1-0.1-0.2-0.2-0.3c-0.1,0-0.2-0.1-0.4-0.1H59V46.8z M59,50.6h0.6
			c0.2,0,0.3,0,0.4-0.1s0.2-0.2,0.2-0.4c0-0.2,0.1-0.5,0.1-0.9v-0.3c0-0.5,0-0.8-0.1-1c-0.1-0.2-0.2-0.3-0.5-0.3H59V50.6z"/>
		<path class="st4" d="M64.3,51.4c-0.4,0-0.7-0.1-0.9-0.2c-0.2-0.1-0.4-0.4-0.5-0.7c-0.1-0.3-0.1-0.7-0.1-1.2v-5.7h0.9v5.7
			c0,0.3,0,0.5,0,0.7c0,0.2,0.1,0.3,0.2,0.5c0.1,0.1,0.2,0.2,0.4,0.2c0.2,0,0.3-0.1,0.4-0.2c0.1-0.1,0.1-0.3,0.2-0.5
			c0-0.2,0-0.4,0-0.7v-5.7h0.9v5.7c0,0.5,0,0.8-0.1,1.2c-0.1,0.3-0.2,0.5-0.5,0.7C65,51.3,64.7,51.4,64.3,51.4z"/>
		<path class="st4" d="M67.7,51.3v-7.6h0.9v6.9H70v0.7H67.7z"/>
	</g>
	<g class="st3">
		<path class="st4" d="M71.4,51.3v-7.6h0.9v6.9h1.4v0.7H71.4z"/>
	</g>
	<g class="st3">
		<path class="st4" d="M76.5,51.4c-0.4,0-0.7-0.1-0.9-0.3s-0.4-0.4-0.5-0.8c-0.1-0.3-0.1-0.8-0.1-1.3v-3.4c0-0.4,0-0.8,0.1-1.1
			c0.1-0.3,0.2-0.6,0.5-0.8c0.2-0.2,0.5-0.3,0.9-0.3c0.3,0,0.6,0.1,0.8,0.2s0.3,0.2,0.5,0.4c0.1,0.2,0.2,0.4,0.2,0.7
			c0,0.3,0.1,0.6,0.1,0.9v3.4c0,0.5,0,0.9-0.1,1.3c-0.1,0.3-0.2,0.6-0.5,0.8S76.8,51.4,76.5,51.4z M76.5,50.6c0.2,0,0.3,0,0.4-0.1
			c0.1-0.1,0.1-0.3,0.2-0.5c0-0.2,0-0.5,0-0.9v-3.4c0-0.5,0-0.8-0.1-1c-0.1-0.2-0.2-0.3-0.5-0.3c-0.3,0-0.4,0.1-0.5,0.3
			c-0.1,0.2-0.1,0.6-0.1,1v3.4c0,0.4,0,0.7,0,0.9c0,0.2,0.1,0.4,0.2,0.5C76.2,50.6,76.3,50.6,76.5,50.6z"/>
		<path class="st4" d="M81.3,51.4c-0.4,0-0.7-0.1-0.9-0.3c-0.2-0.2-0.4-0.4-0.5-0.8c-0.1-0.4-0.1-0.8-0.1-1.3v-3.2
			c0-0.3,0-0.6,0.1-0.9c0-0.3,0.1-0.5,0.2-0.7c0.1-0.2,0.3-0.4,0.5-0.5c0.2-0.1,0.5-0.2,0.8-0.2c0.3,0,0.5,0.1,0.7,0.2
			s0.3,0.3,0.4,0.5c0.1,0.2,0.2,0.4,0.2,0.7c0,0.3,0.1,0.6,0.1,0.9v0.8h-0.9v-0.9c0-0.5,0-0.8-0.1-1.1s-0.2-0.4-0.5-0.4
			c-0.3,0-0.4,0.1-0.5,0.4c-0.1,0.2-0.1,0.6-0.1,1.1v3.3c0,0.4,0,0.7,0,0.9c0,0.2,0.1,0.4,0.2,0.5c0.1,0.1,0.2,0.2,0.4,0.2
			c0.2,0,0.4-0.1,0.5-0.4c0.1-0.2,0.1-0.6,0.1-1.2v-0.8h0.9V49c0,0.5,0,0.9-0.1,1.3c-0.1,0.3-0.2,0.6-0.5,0.8
			C81.9,51.3,81.6,51.4,81.3,51.4z"/>
		<path class="st4" d="M84.5,51.3v-7.6h0.9v3.6l1.4-3.6h0.9l-1.4,3.8l1.5,3.9h-0.9l-1.4-3.7v3.7H84.5z"/>
	</g>
</g>
</svg>
