<?xml version="1.0" encoding="UTF-8"?><svg id="Capa_1" xmlns="http://www.w3.org/2000/svg" viewBox="0 0 787.53 759.35"><defs><style>.cls-1{fill:#fff;}.cls-2{fill:#828282;}</style></defs><path class="cls-2" d="M193.83,107.66c18.26,13.86,14.59,14.9,53.78,49.3,31.18,27.37,36.75,29.28,40.97,30.73,29.1,10.03,16.26,2.51,44.92,7.6,23.42,4.16,21.35,20.96,74.9,58.9,22.91,16.23,35.05,21.49,48.66,20.49,17.39-1.28,20.45-11.57,35.85-14.08,34.86-5.69,34.28-2.03,76.19,46.74,28.82,33.53,19.97,55.31,48.66,75.55,10.41,7.34,11.1,4.43,35.85,18.57,35.02,20,40.06,30.63,49.94,28.81,4.67-.86,70.96-67.61,82.44-82.45l-34.42-9.74s-63.9-34.5-114.6-67.86c-74.86-49.27-61.31-56.84-114.6-87.07-56.22-31.89-66.07-20.51-131.88-58.26-28.99-16.63-59.98-37.71-86.43-55.7C252.26,33.94,201.7,11.6,175.34,1.05c-6.37-2.55-20.38,6.44-46.71,35.47-1.49,1.64-55.27,23.17-61.65,29.55-13.07,13.07,92.87,15.8,126.84,41.59Z"/><path class="cls-1" d="M107.2,109.74c7.42,3.79,14.82,7.64,22.29,11.33,2,.99,4.28,1.37,6.36,2.22,1.22,.5,2.5,1.15,3.39,2.08,3.87,4.01,7.73,8.03,11.36,12.25,8.57,9.95,18.29,18.74,27.78,27.76,.21,.2,.48,.34,.77,.55,.6-.3,1.18-.6,2.07-1.04-.26,1.29,.19,2.05,.75,2.95,2.29,3.72,5.8,6.19,8.87,9.11,3.05,2.91,6.2,5.71,9.32,8.55,5.45,4.97,10.82,10.03,16.4,14.85,6.09,5.26,12.49,10.17,18.54,15.48,3.6,3.17,6.85,6.76,10.14,10.27,4.68,5,9.13,10.22,13.93,15.1,3.37,3.43,7.15,6.45,10.76,9.64,2.37,2.09,4.76,4.17,7.15,6.23,.57,.49,1.16,.98,1.8,1.34,6.38,3.55,12.77,7.07,19.17,10.59,.32,.18,.68,.3,1.27,.55,.4-.71,.88-1.36,1.16-2.08,.76-1.96,1.51-3.94,2.13-5.95,.52-1.7,1.39-3.1,2.6-4.4,14.47-15.63,28.91-31.29,43.35-46.95,2.55-2.76,5.09-5.53,7.77-8.44,.85,.39,1.69,.68,2.45,1.12,2.66,1.56,5.29,3.16,7.93,4.76,.26,.15,.52,.33,.71,.56,2.53,3.15,5.89,5.6,7.83,9.25,1.4,2.62,3.28,4.86,5.59,6.72,1.33,1.07,2.22,2.42,2.89,3.96,1.36,3.1,2.79,6.17,4.16,9.27,.38,.85,.85,1.48,1.75,1.92,.75,.37,1.43,1.09,1.89,1.81,.69,1.07,1.55,1.79,2.75,2.19,1.86,.62,3.47,1.53,4.89,3.05,1.78,1.91,4.08,3.31,5.99,5.1,3.08,2.88,6.01,5.91,9.03,8.85,.75,.73,1.58,1.4,2.45,1.97,3.28,2.14,6.51,4.36,9.92,6.28,4.17,2.35,7.16,5.94,10.45,9.23,7.77,7.78,15.49,15.6,23.24,23.39,.21,.21,.46,.38,.91,.74,.72-.75,1.43-1.48,2.14-2.21,1.37-1.42,1.46-1.44,3.32-.67,.28,.12,.56,.22,.83,.36,1.62,.88,1.8,1.34,1.12,3.06-.94,2.38-1.92,4.74-2.88,7.11-.19,.48-.36,.97-.61,1.65,1.74,.77,3.42,1.52,5.41,2.4,.28-4.42,2.4-8,3.79-11.9,.52,.03,.93-.06,1.23,.08,2.5,1.18,4.99,2.4,7.48,3.63,1.61,.8,3.15,1.77,4.8,2.44,4.39,1.79,8.79,3.55,13.26,5.13,2.76,.97,5.61,1.73,8.48,2.32,4.07,.83,7.65,2.62,11.02,4.95,2.6,1.8,5.14,3.69,7.81,5.38,1.7,1.08,3.54,2,5.41,2.77,6.05,2.46,11.62,5.66,16.39,10.15,.98,.92,2.1,1.42,3.4,1.6,1.89,.27,3.6,.98,5.27,1.91,4.34,2.41,8.74,4.72,13.09,7.12,.91,.5,1.79,1.12,2.54,1.83,6.72,6.37,13.4,12.78,20.11,19.16,.65,.62,1.42,1.1,2.16,1.62,6.53,4.67,13.9,7.79,21.06,11.29,5.41,2.64,10.84,5.24,16.25,7.89,.64,.31,1.21,.79,2.08,1.36-9.59,10.74-18.99,21.28-28.5,31.94,1.53,2.25,3.11,4.35,4.45,6.59,1.94,3.25,4.62,5.51,7.89,7.45,4.28,2.55,8.55,4.66,13.65,4.59,4.71-.06,8.55,1.83,11.71,5.25,.56,.6,1.28,1.04,2.05,1.66-.49,.34-.94,.65-1.47,1.02-1.81-1.51-3.58-2.91-5.26-4.41-.83-.74-1.72-1.11-2.82-1.24-3.29-.37-6.58-.73-9.85-1.25-1.3-.21-2.63-.65-3.78-1.27-2.85-1.54-5.64-3.18-8.37-4.91-1.05-.66-2.02-1.57-2.76-2.56-1.76-2.34-3.48-4.74-5.01-7.24-2.86-4.66-7.32-7.74-11.12-11.46-1.08-1.06-2.45-1.16-3.97-.47-3.15,1.43-6.38,2.69-9.6,3.96-.97,.38-2.01,.7-3.04,.79-5.62,.53-11.24,.96-16.86,1.49-1.35,.13-2.49-.15-3.64-.82-11.04-6.34-22.58-11.67-34.21-16.85-2.51-1.12-4.75-2.87-7.06-4.42-4.32-2.88-8.59-5.84-12.91-8.72-.73-.48-1.6-.94-2.44-1.01-2.92-.27-5.86-.34-8.79-.53-.89-.06-1.59,.09-2.12,.9-4.78,7.29-11.2,13.17-16.93,19.65-.59,.67-1.18,1.35-1.97,2.25,6.96,6.64,13.94,13.12,20.99,19.52,7.01,6.37,14.19,12.56,21.52,19.03-3.44,4.23-7.19,8.09-10.78,12.1-3.61,4.04-7.23,8.06-10.82,12.05,1.07,1.83,38.42,37.19,40.9,38.72,.84-.89,1.76-1.77,2.56-2.75,.77-.93,1.61-1.22,2.78-.89,4.63,1.3,9.29,2.52,13.9,3.88,.88,.26,1.74,.88,2.41,1.53,8.64,8.5,17.25,17.03,25.85,25.57,7.64,7.59,15.27,15.18,22.87,22.81,1.93,1.93,4.07,3.26,6.87,3.44,1.87,.12,3.75,.3,5.61,.56,1.17,.16,2.03-.17,2.79-1.04,.84-.95,1.76-1.83,2.72-2.82-2.23-3.61-4.36-7.14-6.59-10.62-.78-1.22-1.05-2.36-.78-3.81,.5-2.66,.87-5.35,1.09-8.04,.14-1.69,.83-2.99,1.94-4.17,3.76-4.01,7.5-8.03,11.24-12.05,2.56-2.75,5.11-5.53,7.67-8.28,.42-.45,.91-.84,1.37-1.26,.15,.12,.29,.25,.44,.37-.46,.61-.88,1.27-1.4,1.83-6.13,6.62-12.26,13.26-18.44,19.83-1.14,1.21-1.82,2.46-1.98,4.14-.24,2.54-.65,5.07-1.05,7.59-.2,1.25-.04,2.3,.68,3.4,2.1,3.21,4.08,6.5,6.09,9.77,.27,.44,.48,.91,.74,1.42-.44,.5-.81,.96-1.22,1.39-8.88,9-17.77,18-26.66,27-9.95,10.07-19.9,20.12-29.84,30.2-6.03,6.11-12.03,12.24-18.03,18.37-.63,.64-1.26,1.31-1.75,2.06-3.7,5.58-7.36,11.19-11.03,16.79-.24,.36-.39,.79-.65,1.33,.72,.51,1.38,.99,2.06,1.44,3.69,2.47,7.35,4.98,11.09,7.37,2.93,1.87,5.62,4.01,8.1,6.44,6.18,6.05,12.39,12.08,18.6,18.11,3.13,3.04,6.27,6.07,9.44,9.08,.48,.46,1.06,.83,1.65,1.16,8.11,4.46,16.2,8.96,24.36,13.31,3.57,1.9,6.45,4.66,9.67,7.01,1.14,.83,2.32,1.72,3.63,2.21,2.67,1,4.96,2.52,6.94,4.5,2.09,2.09,4.5,3.39,7.43,3.92,2.42,.44,4.8,1.15,7.32,1.77-.15,1.09-.6,1.55-1.63,1.3-3.29-.8-6.58-1.58-9.85-2.44-.62-.16-1.18-.64-1.71-1.05-.94-.75-1.86-1.53-2.74-2.35-1.84-1.71-3.9-3.02-6.26-3.91-1.1-.42-2.23-1-3.1-1.78-5.11-4.54-10.92-7.96-16.92-11.13-5.45-2.89-10.79-6-16.27-8.81-2.62-1.35-4.6-3.37-6.64-5.34-8.24-7.93-16.42-15.93-24.62-23.91-2.38-2.31-4.9-4.42-7.7-6.22-13.15-8.49-26.29-16.99-39.37-25.6-2.17-1.43-4.03-3.37-5.95-5.16-6.26-5.86-12.48-11.77-18.72-17.65-7.11-6.71-14.24-13.41-21.34-20.14-1.12-1.06-2.36-1.76-3.89-2.08-3.16-.68-6.28-1.54-9.43-2.25-1.52-.34-2.79-1.02-3.92-2.08-4.11-3.87-8.25-7.69-12.37-11.55-.54-.51-1.08-1.07-1.47-1.7-4.11-6.63-9.59-12.16-14.6-18.06-5.31-6.25-10.77-12.37-16.03-18.66-1.63-1.95-2.9-4.21-4.26-6.37-2.33-3.69-4.72-7.35-6.87-11.15-2.18-3.86-4.16-7.84-6.12-11.82-3.47-7.02-6.84-14.08-10.3-21.1-.39-.79-.99-1.51-1.64-2.11-8.01-7.42-16.03-14.82-24.07-22.2-6.03-5.54-12.08-11.06-18.13-16.58-.81-.74-1.69-1.4-2.46-2.03-2.59,2.51-5.08,4.69-7.31,7.12-9.93,10.8-19.8,21.68-29.68,32.53-3.75,4.12-7.46,8.28-11.24,12.36-.88,.95-1.25,1.87-1.18,3.2,.54,9.62,1.01,19.24,1.45,28.86,.06,1.33,.43,2.45,1.18,3.55,4.57,6.72,9.13,13.46,13.61,20.24,.9,1.36,1.64,2.88,2.13,4.43,2.68,8.46,5.25,16.96,7.91,25.43,.45,1.42,1.11,2.78,1.76,4.13,2.02,4.2,4.23,8.33,6.09,12.6,1.47,3.37,2.63,6.87,3.75,10.38,4.55,14.34,9.02,28.71,13.55,43.06,.44,1.39,.62,2.75,.45,4.21-1.12,9.41-2.18,18.83-3.28,28.24-1.04,8.81-2.1,17.63-3.18,26.43-.13,1.04-.36,2.09-.72,3.06-3.84,10.29-7.72,20.56-11.57,30.85-.42,1.12-.7,2.29-1.03,3.44-.2,.7-.19,.71-1.49,.84-.53-1.45-.03-2.78,.47-4.12,3.79-10.15,7.6-20.29,11.33-30.46,.56-1.53,.91-3.17,1.11-4.79,1.21-9.55,2.37-19.11,3.5-28.67,.95-8.07,1.83-16.14,2.75-24.21,.19-1.66,.04-3.26-.47-4.89-4.87-15.51-9.62-31.05-14.55-46.54-.95-2.99-2.32-5.89-3.81-8.66-4.28-7.94-7.09-16.41-9.58-25.03-1.46-5.06-3.03-10.09-4.65-15.11-.41-1.27-1.07-2.49-1.81-3.6-4.62-6.96-9.27-13.91-13.99-20.8-1.04-1.51-1.45-3.06-1.52-4.84-.32-8.65-.69-17.29-1.05-25.94-.01-.28-.09-.55-.18-1.11-.55,.48-.94,.77-1.26,1.13-3.66,4.1-7.13,8.38-11,12.27-5.48,5.5-10.12,11.71-15.32,17.45-2.06,2.27-4.43,4.29-6.79,6.28-6.99,5.89-13.02,12.72-19.09,19.5-9.29,10.37-18.33,20.96-27.74,31.22-6.62,7.21-12.76,14.81-18.94,22.37-1.65,2.02-2.5,4.46-3.09,6.94-1,4.17-1.88,8.37-2.75,12.57-.27,1.3-.85,2.37-1.75,3.33-4.68,5-9.33,10.02-14,15.04-3.64,3.91-7.28,7.82-10.91,11.74-.5,.54-.95,1.14-1.35,1.61,4.51,9.03,8.96,17.89,13.37,26.77,4.19,8.42,8.35,16.86,12.51,25.3,1.34,2.72,1.03,5.64,.5,8.41-1.37,7.24-2.99,14.43-4.52,21.64-.31,1.46-.64,2.91-.96,4.33-1.35,.11-1.6-.44-1.37-1.48,.76-3.53,1.47-7.08,2.22-10.61,.99-4.63,2.16-9.24,2.94-13.9,.54-3.25,.38-6.42-1.24-9.62-7.77-15.3-15.32-30.71-22.96-46.07-.52-1.06-1.17-2.05-1.85-3.23-.64,.59-1.18,.91-1.48,1.39-1.42,2.25-3.44,2.25-5.7,1.74-2.45-.56-4.81-.64-7.22,.55-4.58,2.26-9.34,4.19-13.92,6.46-3.1,1.54-5.96,1.59-9.03,0-2.6-1.35-5.34-2.41-8.04-3.56-.61-.26-1.29-.54-1.93-.52-6.84,.17-13.69,.37-20.53,.63-1.19,.04-2.39,.26-3.54,.58-15.01,4.14-30.01,8.31-45.01,12.46-.88,.24-2,.79-2.22-1.11,2.25-.64,4.52-1.31,6.8-1.95,13.41-3.71,26.82-7.44,40.24-11.1,1.58-.43,3.26-.62,4.9-.68,6.24-.23,12.48-.41,18.73-.48,1.3-.01,2.67,.36,3.89,.85,3.07,1.24,6.07,2.64,9.09,4,1.38,.62,2.77,.7,4.15,.07,5.96-2.71,11.91-5.43,17.85-8.17,.47-.22,.88-.55,1.52-.95-.46-1.11-.87-2.21-1.35-3.28-2.42-5.43-4.88-10.84-7.25-16.28-.47-1.08-.74-2.29-.87-3.47-.5-4.41-.88-8.84-1.38-13.25-.12-1.1-.37-2.25-.83-3.24-9.28-19.75-18.6-39.48-27.91-59.21-1.73-3.67-3.42-7.37-5.23-11.01-.59-1.18-1.45-2.27-2.34-3.27-4-4.5-8.23-8.8-12.03-13.46-3.56-4.37-6.6-9.16-10.05-13.62-1.93-2.49-4.2-4.71-6.38-7-6.17-6.49-12.38-12.95-18.56-19.43-2.75-2.89-5.5-5.78-8.21-8.71-1.35-1.46-2.8-2.17-4.81-1.31-1.37,.59-2.84,.95-4.4,1.46-.23-.52-.42-.95-.7-1.58,2.02-.74,3.9-1.43,6.01-2.21-1.86-2.23-3.53-4.25-5.21-6.26-1.64-1.96-3.27-3.94-4.93-5.88-1.71-2-3.48-3.95-5.19-5.96-1.63-1.91-3.45-3.69-4.98-5.95,1.65-.37,2.37,.48,3.13,1.33,4.49,5.07,8.99,10.13,13.51,15.18,2,2.24,4.07,4.42,5.84,6.34,3.92-.32,7.49-.72,11.07-.88,5.91-.27,11.61-1.63,17.3-3.04,2.91-.72,5.82-1.56,8.56-2.74,3.05-1.32,6.17-1.79,9.42-1.82,7.23-.05,14.46-.24,21.68-.1,2.58,.05,5.18,.82,7.72,1.43,10.02,2.42,20.03,4.85,30.01,7.4,2.92,.75,5.8,.51,9.11,.56-.39-1.06-.66-1.88-.98-2.68-3.88-9.63-7.82-19.24-11.61-28.91-1.01-2.58-1.69-5.3-2.36-8-3.68-14.9-7.25-29.83-11-44.71-.97-3.86-2.34-7.63-3.76-11.35-2.19-5.74-3.44-11.68-4.33-17.72-1.96-13.35-5.2-26.41-8.61-39.44-1.09-4.15-2.14-8.31-3.14-12.48-.24-1-.29-2.09-.2-3.12,.41-4.57,.79-9.15,1.39-13.7,.46-3.49,.1-6.87-.51-10.3-.95-5.33-1.78-10.68-2.44-16.05-.32-2.6-.12-5.26-.18-7.9-.01-.57-.12-1.14-.23-2.07-1.13,.68-2.02,1.17-2.87,1.72-15.07,9.68-30.13,19.38-45.2,29.06-4.24,2.73-8.48,5.46-12.76,8.13-5.54,3.47-11.11,6.89-16.68,10.32-.58,.36-1.22,.63-1.83,.95-.09-.17-.18-.35-.27-.52,6.19-3.89,12.39-7.75,18.56-11.67,6.17-3.91,12.3-7.87,18.45-11.8,6.22-3.97,12.45-7.92,18.66-11.9,6.14-3.93,12.26-7.89,18.53-11.92-1.24-2.93-2.41-5.66-3.6-8.47,.77-.49,1.38-.88,2.08-1.33-.57-1.36-1.12-2.66-1.77-4.21,3.25-2.08,6.45-4.13,9.95-6.37-2.01-2.49-3.91-4.85-5.89-7.31-2.52,1.55-4.86,3-7.42,4.58-.7-1.15-1.33-2.14-1.93-3.16-.99-1.69-1.95-3.39-2.95-5.08-.48-.81-.77-1.83-1.98-1.96-.23-.02-.46-.37-.62-.61-1.35-2.07-2.69-4.16-4.01-6.21,.64-1.04,2.03-1.26,1.99-2.71-.01-.38,1-.78,1.53-1.2,1-.79,2.37-1.13,2.86-2.65-.5,.22-1.06,.35-1.49,.67-.96,.71-1.92,.75-2.97,.27-.34-.16-.74-.2-1.06-.38-2.01-1.13-3.81-1.07-5.41,.78-.67,.77-1.55,.87-2.46,.38-2.16-1.15-3.98-.58-5.71,.99-.88,.8-1.94,1.39-3.13,2.22-.9-1.32-1.71-2.52-2.62-3.87-2.32,1.4-4.54,2.75-6.95,4.21-1.17-1.79-2.23-3.4-3.43-5.23-1.07,.68-2.05,1.3-3.16,2,.29,.64,.43,1.24,.78,1.67,1.31,1.58,1.28,3.28,.66,5.1-.24,.71-.27,1.5-.57,2.18-.29,.64-.81,1.18-1.24,1.75-.09,.11-.25,.16-.38,.24-1.62,.95-3.15,2.42-4.88,2.71-1.72,.29-3.64-.58-5.46-.98-1.18-.26-2.37-.49-3.5-.88-1.22-.43-2.19-.27-3.13,1.01,1.58,2.65,3.22,5.39,4.9,8.21-.84,.65-1.53,1.19-2.43,1.89,1.15,1.85,2.28,3.67,3.49,5.61-5.53,3.38-10.88,6.66-16.38,10.02,.57,1.28,1.1,2.49,1.71,3.86-.51,.36-.98,.7-1.45,1.03-.31,.21-.88,.4-.89,.63-.11,2.07-2.02,2.17-3.21,3.04-.54,.4-1.14,.71-1.96,1.22,2.4,3.87,4.75,7.66,7.17,11.56,1.41-.7,2.64-1.3,4.16-2.05-.87,1.52-1.54,1.96-4.42,3.16-2.82-4.17-5.48-8.48-8.11-13.12,1.23-.7,2.28-1.25,3.27-1.87,.77-.48,1.91-.67,1.75-2.03-.03-.22,.46-.54,.75-.75,.54-.38,1.11-.72,1.75-1.12-.54-1.34-1.03-2.57-1.56-3.9,.73-.55,1.36-1.02,2.17-1.62-1.4-2.3-2.79-4.58-4.44-7.29,2.01,.67,2.22,2.23,3.01,3.25,.86,1.12,1.57,2.36,2.37,3.6,4.36-2.64,8.58-5.2,13.05-7.91-1.18-1.88-2.31-3.69-3.49-5.58,.85-.65,1.55-1.19,2.5-1.93-1.52-2.47-3.03-4.92-4.59-7.45-.58,.31-.98,.5-1.35,.73-5.15,3.26-10.28,6.56-15.46,9.77-1.22,.75-1.66,1.42-1.74,3.07-.03,.52,.13-119.46,.08-119.45s.13,.1,.18,.15c.06,.05,.13,.08,.37,.22,3.45-3.64,6.93-7.31,10.46-11.03-2.96-3.18-6.28-5.61-8.77-8.88,.72,.21,1.31,.59,1.81,1.06,4.76,4.46,9.41,9.04,14.27,13.39,3.13,2.8,5.34,5.99,6.13,10.17,.29,1.51,.93,2.95,1.48,4.64,1.7-1.22,2.81-2.33,2.28-4.4-.52-2.03-.75-4.14-1.34-6.15-1.78-6.14-3.69-12.23-5.5-18.36-.27-.9-.18-1.91-.39-2.83-.17-.78-.33-1.71-.84-2.23-2.31-2.35-4.74-4.59-7.13-6.86h3.16c.08,.2,.1,.45,.24,.6,3.76,3.99,7.53,7.97,11.31,11.95,.65,.68,1.34,1.34,1.99,1.99,2.76-2.41,2.84-2.52,3.39-4.5,2.06,1.79,4.07,3.53,6.19,5.38,2.04-2.12,3.95-4.1,5.85-6.08-.31-.66-.54-1.14-.95-2.01,.87,.32,1.32,.49,1.86,.68-.13-.55-.24-1.04-.4-1.72,.71,.31,1.17,.5,1.81,.78,.51-.59,.95-1.21,1.5-1.72,.55-.51,.9-1.36,2.4-1.41-1.35,1.53-2.39,2.72-3.05,3.47,1.26,1.49,2.4,2.84,3.52,4.16,1.19-.45,1.41-2.1,3.4-2.29-1.45,1.74-2.57,3.09-3.61,4.34,2.71,2.7,5.26,5.24,7.66,7.64,2.47-2.42,5.03-4.92,7.67-7.5-.24-.35-.52-.79-.83-1.2-2.32-3.04-4.64-6.09-6.97-9.12-.9-1.17-1.84-2.3-2.77-3.46h.9c3.69,4.16,6.81,8.81,10.98,12.86,1.17-1.55,2.47-2.67,3.69-3.87,2.55-2.53,5.03-5.12,7.52-7.71,.35-.36,.57-.85,.86-1.28h2.26c1.61,.93,3.2,1.88,4.83,2.77,1.64,.89,3.31,1.72,4.96,2.57,.07-.14,.15-.28,.22-.42-.81-.51-1.61-1.05-2.43-1.54-1.92-1.14-3.85-2.26-5.77-3.39h1.81c1.58,.92,3.16,1.85,4.88,2.85,.86-1.05,1.6-1.95,2.34-2.85h1.36c-.9,1.06-1.81,2.12-2.75,3.23q1.05,.52,3.18-1.45c1.73,.98,3.39,2.17,5.24,2.89,2.15,.84,2.75,3.05,4.38,4.44,1.78-1.09,3.46-2.13,5.33-3.27-.7-.53-1.08-.89-1.53-1.13-2.95-1.58-5.92-3.14-8.89-4.7h8.13Zm301.32,244.86c.36,1.08,1.23,1.59,2.04,2.15,.12-.15,.24-.3,.36-.45-.81-.55-1.63-1.11-2.44-1.66-.49-1.09-1.33-1.77-2.61-1.91,.88,.62,1.77,1.24,2.65,1.87Zm210.17,214.65c-2.55-.26-4.55-.53-6.57-.65-2.62-.15-4.75-1.25-6.58-3.06-7.59-7.53-15.19-15.04-22.77-22.57-8.76-8.7-17.5-17.42-26.27-26.1-.72-.71-1.63-1.42-2.57-1.69-4.4-1.29-8.85-2.4-13.26-3.63-1.08-.3-1.81-.15-2.54,.78-.9,1.15-2.01,2.15-2.99,3.17-3.37-2.41-41.15-38.3-42.14-40.02,7.11-8.05,14.49-15.93,21.66-24.14-5.85-5.08-11.47-9.94-17.24-14.94-10.22,10.89-20.28,21.61-30.5,32.5-10.38-9.34-20.53-18.48-30.82-27.74-10.23,11.36-20.28,22.52-30.45,33.8-11.84-9.96-22.74-20.61-34.26-30.69-7.95,8.86-15.68,17.47-23.54,26.23,.92,.84,1.7,1.54,2.47,2.25,7.59,6.98,15.18,13.96,22.75,20.96,.76,.7,1.5,1.52,1.97,2.42,1.54,2.93,2.96,5.92,4.41,8.9,5.63,11.56,10.95,23.29,18.16,34.01,1.64,2.43,2.96,5.11,4.83,7.34,6.14,7.32,12.5,14.45,18.69,21.73,3.79,4.46,7.91,8.67,11.09,13.65,.92,1.44,2.12,2.72,3.34,3.92,2.47,2.42,5.07,4.71,7.56,7.11q4.56,4.41,10.74,5.93c.88,.21,1.73,.56,2.62,.66,3.68,.4,6.46,2.2,9.13,4.77,12.42,11.93,25.01,23.69,37.57,35.47,2.46,2.31,4.83,4.71,7.75,6.53,6.2,3.85,12.3,7.86,18.45,11.79,1.63,1.04,3.27,2.04,4.97,3.1,.53-.72,.94-1.25,1.31-1.81,2.44-3.71,4.84-7.44,7.3-11.14,1.5-2.25,2.94-4.56,4.67-6.62,1.93-2.3,4.13-4.37,6.25-6.51,8.13-8.26,16.27-16.51,24.41-24.76,11.42-11.57,22.85-23.13,34.28-34.69,1.9-1.92,3.77-3.85,6.11-6.25ZM94.45,287.1c.56,4.26,1.11,8.42,1.66,12.59,.4,3.05,1.2,6.11,1.08,9.14-.19,5.18-.93,10.34-1.5,15.5-.19,1.74-.2,3.42,.25,5.14,1.24,4.73,2.37,9.49,3.61,14.22,3.11,11.86,6.03,23.77,7.83,35.92,.88,5.95,1.96,11.85,4.1,17.54,1.72,4.57,3.28,9.23,4.51,13.95,2.92,11.29,5.55,22.65,8.37,33.96,1.71,6.85,3.05,13.78,5.86,20.35,3.73,8.72,7.14,17.57,10.61,26.39,.55,1.4,1.28,1.95,2.8,1.98,2.93,.06,5.86,.32,8.78,.62,1.03,.1,2.07,.42,3.02,.85,3.43,1.55,6.82,3.18,10.21,4.8,8.89,4.25,17.77,8.53,26.68,12.74,2.44,1.15,4.89,2.44,7.48,3.06,5.11,1.23,10.33,1.99,15.49,3.05,5.09,1.04,10.17,2.06,15.42,1.77,1.26-.07,2.54,.24,3.8,.44,7.72,1.23,15.45,2.46,23.17,3.73,1.39,.23,2.46-.05,3.43-1.13,4.56-5.1,9.17-10.17,13.76-15.25,.85-.94,1.3-2,1.14-3.29-.38-2.98-.81-5.96-1.1-8.96-.13-1.29-.63-2.18-1.57-3.07-20.92-19.72-41.78-39.49-62.74-59.17-2-1.88-2.83-3.87-2.85-6.51-.04-3.69-.49-7.33-1.43-10.94-2.08-7.93-4.02-15.9-6-23.86-.25-1.02-.52-2.06-.59-3.1-.31-4.35-.56-8.71-.82-13.07-.39-6.46-.81-12.92-1.14-19.38-.34-6.61-.54-13.22-.88-19.83-.22-4.28-.18-8.62-.97-12.8-.93-4.93-2.62-9.71-4-14.55-.05-.19-.28-.33-.43-.5-.7,0-1.39-.12-2.04,.02-2.78,.58-5.32,.31-7.53-1.91-.61,.65-1.2,1.32-1.84,1.93-.83,.77-1.97,.83-2.87,.17-.36-.26-.66-.62-.98-.93-4.73-4.64-9.49-9.25-14.17-13.93-.89-.88-1.77-1.24-2.99-1.12-2.17,.2-4.38,.12-6.52,.49-3.11,.53-4.96-1.03-6.5-3.34-.33-.5-.62-1.03-.93-1.55-3.32-5.56-6.63-11.12-9.95-16.67-.34-.56-.74-1.08-1.22-1.77-7.67,4.84-15.21,9.59-22.88,14.42-1.35-2.12-2.54-4-3.82-6-4.29,2.65-8.37,5.18-12.78,7.9ZM26.39,495.39c.71,.8,1.04,1.2,1.4,1.58,8.56,9,17.06,18.05,25.7,26.96,4.83,4.98,9.39,10.16,13.29,15.91,1.99,2.92,4.03,5.83,6.32,8.51,3.07,3.6,6.36,7.03,9.65,10.44,1.64,1.7,2.93,3.58,3.93,5.72,6.29,13.42,12.63,26.82,18.94,40.23,4.46,9.46,8.93,18.92,13.35,28.39,.44,.94,.8,1.97,.92,2.99,.53,4.71,.95,9.43,1.41,14.15,.19,1.99,1.81,6,3.02,7.43,1.25-.59,2.52-1.18,3.96-1.86,3.03,6.09,5.38,12.27,8.74,18.19,.63-.53,1.12-.86,1.51-1.28,9.48-10.19,18.96-20.38,28.4-30.62,.62-.67,1.08-1.62,1.29-2.52,1.03-4.32,1.87-8.68,2.93-12.99,.68-2.78,1.73-5.41,3.66-7.65,5.69-6.59,10.78-13.65,16.85-19.94,5.22-5.41,9.96-11.28,15-16.87,9.27-10.29,18.61-20.5,27.89-30.78,2.68-2.97,5.47-5.8,8.8-8.06,.55-.38,1.08-.83,1.53-1.33,3.95-4.44,7.89-8.89,11.82-13.36,.31-.35,.49-.82,.79-1.33-.71-.19-1.21-.36-1.72-.44-4.6-.79-9.19-1.62-13.79-2.34-5.86-.91-11.63-2.54-17.64-2.25-.52,.02-1.04-.13-1.56-.23-7.61-1.45-15.21-2.96-22.83-4.33-1.88-.34-3.63-.91-5.32-1.72-2.58-1.23-5.16-2.46-7.74-3.69-10.12-4.83-20.23-9.66-30.35-14.47-.67-.32-1.41-.61-2.14-.65-4.06-.24-8.13-.68-12.17-.49-3.21,.15-6.36-.16-9.38-.84-9.17-2.07-18.26-4.47-27.37-6.78-5.54-1.4-11.04-2.61-16.88-2.26-7.13,.43-14.3,.19-21.45,.28-.81,0-1.69,.11-2.41,.44-4.41,2.02-9.05,3.21-13.77,4.23-6.31,1.36-12.54,3.21-19.11,2.85-.82-.05-1.66,.03-2.48,.15-.86,.12-1.7,.36-2.97,.63Zm607.1-102.64c-.91-.49-1.56-.86-2.22-1.19-8.8-4.26-17.66-8.41-26.39-12.81-4.56-2.3-8.95-4.95-12.68-8.53-6.13-5.89-12.28-11.76-18.45-17.62-.7-.66-1.5-1.26-2.34-1.73-4.55-2.5-9.1-5-13.71-7.39-1.38-.72-2.9-1.21-4.42-1.58-1.56-.39-2.98-.89-4.19-2.03-4.49-4.23-9.72-7.27-15.42-9.58-2.01-.82-3.99-1.79-5.84-2.92-2.43-1.49-4.78-3.14-7.05-4.88-1.25-.96-2.23-1.03-3.63-.26-7.17,3.97-14.38,7.87-21.61,11.73-14.93,7.98-29.88,15.92-44.82,23.88-.69,.37-1.36,.78-2.25,1.29,1.08,1,1.89,1.77,2.72,2.53,3.83,3.51,7.63,7.05,11.51,10.5,3.03,2.7,6.16,5.28,9.25,7.91,.17,.14,.36,.29,.57,.36,2.64,.87,5.28,1.73,7.93,2.57,1.64,.52,3.46,.69,4.91,1.52,5.31,3.05,10.95,4.44,17.05,4.12,1.56-.08,2.9,.5,4.19,1.39,5.45,3.75,10.94,7.46,16.44,11.14,1.24,.83,2.56,1.6,3.92,2.2,11.17,4.89,22.25,9.97,32.79,16.13,1.6,.93,3.2,1.14,4.96,.98,3.52-.34,7.04-.67,10.56-.92,3.69-.27,7.29-.78,10.66-2.49,2-1.02,4.22-1.62,6.23-2.63,2.5-1.25,4.45-.56,6.31,1.22,2.12,2.03,4.28,4.01,6.44,6,.47,.44,1.01,.81,1.61,1.29,9-10.08,17.87-20,26.96-30.18Zm-334.5-121.16c-2.78,3.78-5.47,7.43-8.18,11.12,1.06,.84,1.86,1.47,2.75,2.18-.87,1.08-1.61,2-2.3,2.86,.08,.19,.08,.28,.13,.32,5,4.13,10.83,6.72,16.76,9.14,.27,.11,.59,.13,.88,.18,4.07,.71,8.13,1.39,12.19,2.13,.64,.12,1.29,.39,1.85,.73,3.61,2.17,7.13,4.5,10.8,6.53,7.5,4.16,15.09,8.16,22.65,12.22,.64,.34,1.3,.65,2.09,1.03,.66-1.47,1.18-2.8,1.83-4.06,.64-1.24,1.41-2.42,2.18-3.71,1.73,.66,3.11,1.31,4.28,2.44,4.06,3.92,8.17,7.8,12.28,11.67,1.9,1.79,3.86,3.53,6.07,5.54,.5-.68,.82-1.2,1.22-1.63,2.5-2.71,5.01-5.42,7.54-8.1,2.14-2.27,5.5-2.4,7.76-.33,2.28,2.08,4.55,4.17,6.83,6.24,.19,.17,.48,.23,.97,.45,.09-1.02,.23-1.83,.21-2.63-.16-5.26-.28-10.53-.54-15.79-.51-10.07-1.09-20.14-1.7-30.2-.08-1.24-.34-2.55-.86-3.68-2.34-5.05-4.76-10.07-7.23-15.06-1.56-3.14-2.07-6.41-1.52-9.85,.12-.75,.06-1.32-.58-1.78-3.66-2.67-6.56-6.49-11.37-7.49-.66-.14-1.68-1.09-1.63-1.56,.13-1.21-.62-1.62-1.29-2.15-3.44-2.69-6.9-5.35-10.34-8.03-.63-.49-1.21-1.03-1.91-1.62,1.79-2.41,3.43-4.63,5.08-6.85-1.96-3.14-3.73-6.2-5.71-9.11-2.76-4.04-6.91-6.39-11.1-8.65-.78-.42-1.6-.76-2.78-1.31-.31,.48-.53,.98-.89,1.36-16.7,18.08-33.42,36.15-50.11,54.23-.5,.54-.98,1.17-1.24,1.85-1.25,3.28-2.41,6.59-3.63,9.97,.4,.24,.77,.5,1.16,.71,18.41,9.77,36.82,19.55,55.26,29.28,1.98,1.04,4.09,1.9,6.23,2.54,9.58,2.89,19.19,5.66,28.78,8.53,1.56,.47,3.16,1.08,4.52,1.96,3.09,2,6.05,4.21,9.06,6.35,.43,.3,.89,.61,1.2,1.01,.18,.23,.19,.7,.09,1-.06,.17-.55,.35-.76,.28-.91-.31-1.88-.59-2.66-1.11-3.01-2-5.91-4.16-8.94-6.13-1.3-.84-2.75-1.56-4.23-2.01-9.72-2.94-19.47-5.79-29.2-8.69-.93-.28-1.87-.61-2.73-1.05-6.64-3.38-13.31-6.7-19.88-10.2-12.36-6.58-24.66-13.26-36.98-19.9-.71-.38-1.44-.74-2.34-1.2Zm-116.28,2.8c.29,.96,.51,1.74,.76,2.51,1.41,4.45,2.84,8.88,4.21,13.34,.52,1.71,.77,3.51,1.34,5.21,1.05,3.13,2.28,6.2,3.37,9.31,1.22,3.48,2.38,6.97,3.55,10.47,.55,1.64,1.37,3.27,1.5,4.95,.4,4.94,1.72,9.8,1.42,14.8-.11,1.75,.61,2.93,1.86,4.1,3.63,3.39,7.36,6.7,10.64,10.41,6.73,7.61,13.19,15.46,19.78,23.18,.82,.96,1.72,1.9,2.73,2.67,9.35,7.09,18.74,14.15,28.11,21.21,.58,.44,1.21,.82,1.86,1.26,.6-.56,1.11-.99,1.58-1.47,7.45-7.66,14.91-15.31,22.33-23,.61-.63,1.08-1.44,1.42-2.26,2.69-6.54,5.34-13.09,8-19.65,.21-.53,.35-1.09,.58-1.8-6.62-1.93-13.08-3.82-19.79-5.78,2.69-9.82,5.3-19.37,7.95-29.09-1.63-.79-3.16-1.53-4.79-2.32-.57,.66-1.07,1.21-1.54,1.78-3.42,4.2-6.83,8.41-10.27,12.6-.79,.96-1.51,2.06-2.85,2.55-2.83-2.27-5.64-4.51-8.49-6.79-.47,.42-.82,.69-1.12,1.02-3.11,3.37-6.29,6.64-9.87,9.56-2.55,2.08-4.72,4.64-7.07,6.97-.52,.51-1.08,.98-1.78,1.62-2.37-2.26-4.62-4.4-6.96-6.63,3.56-3.67,6.9-7.1,10.28-10.58-.35-.64-.62-1.16-.98-1.82,6.5-6.75,12.99-13.48,19.68-20.42-1.22-.67-2.12-1.19-3.05-1.66-8.34-4.18-16.68-8.35-25.03-12.51-3.5-1.74-6.98-3.51-10.18-5.8-2.55-1.82-5.08-3.59-8.23-4.49-3.89-1.12-7.61-2.81-11.38-4.33-1.58-.63-3.15-.88-4.84-.7-3.66,.39-7.34,.69-11.01,1.05-1.18,.12-2.34,.32-3.73,.52Zm115.56,153.36c-1.02-.98-1.76-1.8-2.62-2.49-20.56-16.48-41.35-32.65-62.5-48.36-1.02-.76-1.96-1.65-2.79-2.61-5.53-6.46-11.11-12.88-16.51-19.45-4.13-5.02-8.74-9.54-13.52-13.9-.25-.23-.57-.4-1.24-.86,0,1.76-.06,3.17,0,4.56,.59,11.35,1.18,22.69,1.82,34.04,.21,3.68,.21,7.42,.96,11,1.58,7.58,3.63,15.07,5.39,22.61,.82,3.51,1.48,7.05,2.05,10.61,.31,1.92,.23,3.9,.44,5.84,.08,.7,.32,1.5,.76,2.03,1.48,1.8,2.97,3.62,4.66,5.21,13.11,12.43,26.26,24.81,39.4,37.2,.52,.49,1.09,.93,1.76,1.5,13.98-15.65,27.81-31.13,41.93-46.93Zm-81.03-217.34c-.54,.95-.72,2.26-1.94,2.31-1.43,.06-1.71,1.04-2.13,1.97-2.65,6.01-4.52,8.83-9.07,13.59-.36,.38-.72,.77-1.08,1.15-1.98,2.06-3.94,4.14-5.95,6.18-3.33,3.37-6.7,6.7-10.02,10.07-1.05,1.07-2.04,2.21-3.01,3.36-.83,.98-.81,1.66,.02,2.56,.3,.33,.69,.58,1.05,.86,9.56,7.32,19.13,14.62,28.67,21.96,.94,.72,1.87,1.08,3.08,1.12,5.34,.15,10.67,.39,16.01,.63,9.69,.43,19.38,.92,29.08,1.27,2.55,.09,4.9,.46,7.05,1.92,6.1,4.14,13.24,5.61,20.1,7.81,.72,.23,1.32,.14,1.79-.51,.38-.52,.8-1.02,1.26-1.6-.92-.75-1.71-1.39-2.57-2.09,2.71-4.15,5.88-7.75,8.5-11.9-.93-.54-1.64-.95-2.35-1.35-5.53-3.05-11.08-6.09-16.6-9.16-.91-.51-1.8-1.1-2.6-1.77-2.3-1.94-4.58-3.91-6.81-5.93-4.57-4.14-9.31-8.12-13.61-12.52-5.98-6.14-11.62-12.61-17.42-18.93-.86-.94-1.77-1.86-2.75-2.67-3.82-3.17-7.7-6.28-11.52-9.44-4.41-3.64-8.92-7.17-13.14-11.01-8.85-8.05-17.53-16.28-26.29-24.43-.42-.39-.92-.69-1.51-1.13-2.17,2.47-4.24,4.82-6.35,7.21,.55,.86,.98,1.56,1.43,2.25,1.82,2.76,3.83,5.43,5.41,8.32,.96,1.76,2.25,2.84,3.89,3.8,8.05,4.71,16.11,9.42,23.2,15.57,.49,.43,1.08,.74,1.69,1.14,1.52-1.69,1.61-4.17,3.46-5.55,1.61,1.4-.3,2.42-.07,3.7,.3,.34,.69,.77,1.12,1.25Zm249.67,257.19c9.99-10.66,19.85-21.18,29.83-31.83-7.75-7.19-15.33-14.23-23-21.34-1.81,1.98-3.41,3.73-5.13,5.6-.89-.74-1.58-1.3-2.25-1.89-4.45-3.94-8.89-7.9-13.35-11.83-.67-.59-1.39-1.14-2.13-1.66-.78-.54-1.69-.91-2.39-1.53-1.96-1.75-3.84-3.61-5.77-5.4-.41-.39-.91-.69-1.41-1.06-3.03,3.33-5.94,6.53-8.88,9.76-2.97-2.13-5.12-4.78-8.02-6.88-1.59,3.01-4.18,4.33-6.9,5.48-.41,.18-.8,.43-1.21,.61-.72,.32-1.02,.85-.9,1.62,.08,.51,.15,1.02,.23,1.57-2.07,2.38-4.14,4.75-6.29,7.22,19.22,17.22,38.31,34.32,57.55,51.56Zm-165.39-124.44c-.43,1.01-.72,1.7-1.01,2.39-3.48,8.58-6.93,17.16-10.44,25.73-.39,.95-.93,1.91-1.63,2.65-6.69,6.93-13.43,13.82-20.15,20.72-1.19,1.22-2.35,2.48-3.51,3.7,2.22,2.41,33.39,26.87,35.14,27.57,9.75-10.64,19.53-21.31,29.38-32.07-2.05-1.79-3.92-3.41-5.84-5.08,.6-.9,1.13-1.69,1.71-2.56-2.79-2.46-5.47-4.83-8.25-7.29,1.37-1.62,2.56-3.02,3.76-4.44-.71-.77-1.26-1.37-1.94-2.12,4.23-5.49,8.44-10.94,12.71-16.47-.44-.31-.65-.56-.91-.62-3.31-.72-5.74-2.77-8.08-5.07-.76-.75-1.85-1.28-2.88-1.62-3.79-1.23-7.62-2.34-11.44-3.48-2.15-.64-4.3-1.27-6.64-1.95Zm23.44,109.4c-.72-.81-1.25-1.52-1.89-2.11-7.04-6.46-14.09-12.9-21.15-19.34-.65-.59-1.4-1.06-2.28-1.72-14.05,15.48-27.96,30.83-41.93,46.22,.48,.51,.77,.84,1.09,1.14,5.34,5.08,10.67,10.17,16.04,15.22,1.21,1.13,2,2.32,2.07,4.06,.1,2.32,.42,4.64,.67,6.95,.05,.47,.22,.93,.42,1.75,15.73-17.55,31.6-34.5,46.94-52.17Zm70.89-35.37c-8.1,8.8-15.98,17.44-23.83,26.34,11.32,10.09,22.05,20.4,33.38,30,2.5-2.05,29-31.76,29.69-33.3-8.79-7.81-17.61-15.65-26.56-23.6-2.08,2.24-4,4.3-6,6.45-2.27-2-4.35-3.84-6.67-5.89Zm5.26-167.15c-.44,.7-.83,1.15-1.05,1.67-1.11,2.7-.59,5.34,.56,7.85,1.88,4.1,3.78,8.2,5.9,12.19,1.91,3.6,2.91,7.27,3,11.39,.16,7.37,.77,14.72,1.16,22.09,.37,6.99,.7,13.98,1.08,20.96,.05,1,.28,1.99,.44,3.1,15.3-9.18,27.68-21.5,41.23-32.52-.53-.58-.81-.93-1.13-1.25-6.13-6.21-12.32-12.37-18.38-18.66-3-3.11-6.29-5.79-10.02-7.98-2.73-1.59-5.36-3.35-8-5.09-.87-.57-1.7-1.24-2.46-1.97-3.52-3.4-7-6.84-10.5-10.25-.52-.51-1.11-.94-1.83-1.54Zm-63.6,163.59c-4.46-3.98-8.74-7.8-13.12-11.71-7.83,8.72-15.45,17.21-23,25.62,1.08,1.94,22.72,21.97,25.47,23.65,11.86-13.1,23.74-26.21,35.71-39.42-4.4-3.99-8.56-7.76-12.85-11.64-4.14,4.57-8.1,8.96-12.21,13.5Zm25.74-1.24c-12,13.25-23.83,26.3-35.76,39.46,6.71,6.02,12.94,12.09,19.74,17.96,11.98-13.36,23.78-26.53,35.68-39.81-6.66-5.97-13.08-11.72-19.66-17.61Zm84.35-54.03c.85-.42,1.6-.75,2.32-1.13,5.11-2.71,10.22-5.44,15.34-8.16,9.23-4.91,18.45-9.83,27.68-14.73,1.16-.62,2.28-1.2,2.27-2.94-.73-.58-1.55-1.23-2.36-1.87-1.52-1.2-1.57-1.47-.46-3.11,.58-.86,1.21-1.69,1.96-2.74-2.17-1.41-4.16-2.72-6.19-3.99-.27-.17-.78-.26-1.02-.12-.88,.53-1.41-.09-2.02-.49-1.61-1.07-3.22-2.15-4.94-3.3-.59,.84-1.09,1.49-1.53,2.18-1.36,2.07-2.76,4.13-4.04,6.25-.6,1-1.23,1.64-2.39,1.13-1.88,2.69-3.67,5.26-5.55,7.95-2.07-1.34-3.88-2.51-5.72-3.7-.51,.47-.92,.8-1.26,1.18-4.39,4.86-8.87,9.64-13.1,14.62-1.92,2.27-3.34,4.95-5.08,7.58,2.13,1.89,4.09,3.61,6.09,5.38Zm-117.57,34.83c7.27-8.18,14.75-15.84,21.39-24.4-2.62-2.44-5.12-4.78-7.72-7.2,1.62-2.47,3.12-4.77,4.75-7.26-3.36-2.31-6.48-4.46-9.6-6.61-6.38,8.3-12.59,16.39-18.85,24.54,.66,.75,1.28,1.45,1.95,2.2-1.29,1.52-2.48,2.92-3.68,4.33,2.69,2.71,5.64,4.8,8.11,7.41-.61,.91-1.09,1.64-1.66,2.49,1.73,1.47,3.38,2.86,5.31,4.49Zm97.26-53.25c4.24,3.8,8.55,7.67,12.99,11.65,.93-1.61,1.69-2.99,2.51-4.33,.59-.95,1.2-1.92,1.94-2.75,2.55-2.87,5.2-5.63,7.73-8.52,5.49-6.26,11.67-11.93,16.27-18.96,.35-.53,.66-1.08,.97-1.59-.27-.24-.36-.38-.49-.44-1.44-.64-2.89-1.27-4.34-1.9q-2.79-1.21-1.74-4.15c.76-2.12,1.57-4.23,2.31-6.36,.23-.66,.79-1.34,.06-2.18-.24,.06-.58,.06-.77,.22-1.73,1.59-36.8,37.61-37.44,39.3ZM146.01,255.55c-3.97,4.51-7.88,8.96-11.67,13.27,.03,.33,.02,.42,.05,.48,4.18,7.05,8.31,14.13,12.57,21.13,1.16,1.91,2.79,3.31,5.39,2.73,1.01-.23,2.1-.08,3.15-.16,1.61-.13,3.22-.3,4.87-.46,0-.7,0-1.14,0-1.59-.04-1.7-.45-3.42,.78-4.99,.28-.35,.07-1.37-.25-1.86-2.2-3.34-2.08-6.72-.45-10.23,.41-.88,.61-1.86,.91-2.79,.43-1.35,.85-2.7,1.27-4.03,1.61-.09,2.97-.17,4.34-.25,.02-.14,.05-.28,.07-.42-6.92-3.56-13.83-7.13-21.03-10.84Zm-11.41-121.59c.54,.74,1,1.32,1.41,1.93,3.24,4.8,6.46,9.62,9.71,14.42,.6,.88,.97,2.11,2.45,1.96,.19-.02,.48,.34,.62,.58,.86,1.56,1.68,3.13,2.55,4.77-1.68,1.2-3.11,2.22-4.85,3.46,1.43,1.06,2.48,2.04,3.71,2.68,1.72,.89,3.57,1.51,5.48,2.3,1.47-.9,3.05-1.87,4.76-2.92,2.51,3.56,4.87,6.92,7.25,10.3,3.44-2.13,6.66-4.13,10.12-6.27-1.4-1.31-2.65-2.48-3.89-3.66-5.55-5.3-11.23-10.47-16.6-15.93-5.38-5.47-10.42-11.27-15.68-16.85-1.74-1.85-3.71-3.48-5.64-5.26-.94,.74-1.7,1.35-2.47,1.93-2.11,1.57-4.23,3.13-6.36,4.67-.41,.3-1.04,.75-1.38,.62-2.11-.8-3.03,.94-4.39,1.73,.66,2.43,2.09,4.11,3.89,5.77,3.09-2.06,6.12-4.1,9.31-6.22Zm152.31,181.08c-2.77,9.55-5.34,18.78-7.77,28.23,6.52,1.88,12.76,3.68,18.88,5.45,4.14-9.15,8.16-18.02,12.27-27.08-7.63-2.15-15.35-4.33-23.38-6.59ZM6.63,181.25c-1.88,1.07-3.52,2.13-5.27,2.96-1.65,.78-2.18,1.87-2.17,3.7,.07,20.4,.04,40.8,.04,61.2,0,.45-.08,.92,.03,1.35,.17,.68,.46,1.34,.81,2.29,2.08-1.35,3.85-2.59,5.71-3.68,1.13-.67,1.49-1.41,1.3-2.75-.33-2.37-.61-4.78-.55-7.16,.07-2.92,.63-5.83,.77-8.76,.17-3.62,1.41-7.27-.28-10.62,.55-1.04,1.99-1.14,1.64-2.59-1.32-.46-2.69-.93-4.32-1.5,.62-.58,.95-.96,1.34-1.26,1.14-.86,2.33-1.67,3.45-2.55,.38-.3,.94-.85,.87-1.18-.41-2.11,1.38-4.6-1.08-6.36-.14-.1-.18-.42-.16-.63,.13-1.43-.57-3.03,.95-4.19,.28-.21,.35-.82,.35-1.24,.03-3.46,.03-6.92,.01-10.38,0-.44-.03-.95-.24-1.31-1.01-1.74-2.08-3.44-3.23-5.33Zm266.94,102.73c-3.25-1.55-6.21-3-9.2-4.38-.59-.27-1.31-.32-1.98-.36-3.23-.16-6.45-.29-9.68-.41-8.48-.32-16.97-.64-25.45-.95-2.88-.11-5.76-.19-9.22-.3,3.31,2.22,6.07,4.45,9.15,6.05,9.8,5.09,19.74,9.92,29.6,14.91,1.22,.62,1.98,.49,2.93-.49,4.25-4.36,8.59-8.63,12.89-12.94,.26-.26,.48-.56,.97-1.14Zm-95.41,6.03c-.23-.84-.35-1.6-.66-2.27-.74-1.62-.63-3.13,.1-4.75,1.02-2.26,1.86-4.6,2.75-6.92,.69-1.81,.25-2.97-1.5-3.86-2.95-1.5-5.92-2.96-8.88-4.43-.4-.2-.85-.53-1.24-.49-1.76,.18-3.51,.48-5.45,.76-.57,1.76-1.02,3.67-1.79,5.44-1.6,3.66-1.88,7.17,.42,10.66,.32,.49,.51,1.52,.23,1.88-1.33,1.69-.86,3.55-.83,5.4,.02,.96,.3,1.71,1.02,2.38,3.11,2.95,6.15,5.97,9.27,8.91,.44,.42,1.15,.73,1.76,.77,1.42,.11,2.86,.09,4.28,.02,1.99-.1,2.87-1.44,2.22-3.35-1-2.99-2.03-5.97-3.07-9.01,.46-.38,.84-.71,1.37-1.14ZM58.61,157.95c-.71,.38-1.35,.62-1.88,1.01-2.03,1.49-4.29,2.06-6.78,1.95-.66-.03-1.45-.05-1.97,.27-2.35,1.42-4.63,2.97-7.06,4.55,.59,.97,1,1.67,1.43,2.36,1.99,3.18,3.99,6.36,5.98,9.55,.28,.44,.82,1.07,.69,1.36-.84,1.88,.7,2.9,1.41,4.17,.87,1.53,1.93,2.96,2.98,4.52,6.95-4.54,13.65-8.92,20.54-13.42-5.24-5.57-10.26-10.91-15.35-16.31Zm395.77,140.14c-6.31,5.4-12.66,10.7-18.87,16.17-6.26,5.51-13.12,10.22-20.08,15.22,3.54,3.13,6.89,6.09,10.32,9.12,11.45-11.92,22.68-23.62,33.99-35.39-1.77-1.68-3.44-3.28-5.37-5.11Zm-352.37-28.92c3.22,5.08,6.23,9.83,9.36,14.77,7.44-4.71,14.72-9.31,22.16-14.02-3.05-4.89-5.98-9.58-9.03-14.46-7.57,4.61-14.93,9.1-22.5,13.71Zm203.97,49.44c3.48-6.03,6.81-11.79,10.23-17.72-.91-.35-1.5-.7-2.14-.81-2.59-.44-5.18-.91-7.79-1.18-1.55-.16-2.91-.54-4.17-1.47-1.31-.97-2.71-1.8-4.16-2.75-5.26,5.49-10.34,10.79-15.73,16.4,2.29,.97,4.21,1.95,6.24,2.61,3.29,1.06,6.64,1.92,9.97,2.85,2.45,.68,4.9,1.35,7.55,2.08ZM-.64,184.25c5.8-3.02,10.98-6.39,16.21-9.97-2.32-3.5-4.19-7.07-6.8-9.93-1.6,.23-2.4,1.79-4.4,1.47,1.44-.99,2.52-1.74,3.73-2.57-2-2.85-3.93-5.6-5.89-8.4,4.1-4.53,8.07-8.91,12.22-13.51-2.5-2.21-4.84-4.28-7.26-6.43-2.24,2.34-4.27,4.57-6.42,6.66-1.11,1.08-1.55,2.23-1.55,3.78,.05,12.12,.03,24.25,.03,36.37,0,.72,.07,1.45,.12,2.53Zm117.19,58.51c-.4,.13-.63,.17-.81,.28-6.41,4.07-12.81,8.16-19.24,12.2-.83,.52-.99,1.2-1.07,2.06-.37,4.04-.8,8.08-1.16,12.12-.1,1.07-.01,2.16-.01,3.61,9.93-6.47,19.92-12.18,29.73-18.39-2.6-4.15-5.03-8.02-7.44-11.88Zm63.47,29.04c-.14-1.09-.16-1.75-.31-2.38-.39-1.61-.8-3.21-1.26-4.8-1.08-3.78-1.22-7.53,.3-11.24,.36-.88,.76-1.75,1.18-2.74-3.85-2.87-7.69-5.72-11.49-8.56-2.49,2.14-12.92,15.42-13.43,17.21,8.19,4.09,16.42,8.21,25.01,12.51Zm143.91,77.09c1.51-5.08,2.92-9.81,4.39-14.73-6.78-2.13-13.34-4.15-20.09-5.88-2.15,4.73-4.19,9.23-6.35,14,7.39,2.22,14.56,4.36,22.06,6.61Zm163.33,47.25c-3.7-3.37-7.22-6.57-10.8-9.83-4.91,5.45-9.62,10.66-14.45,16.02,3.62,3.31,7.08,6.47,10.64,9.72,4.93-5.37,9.64-10.5,14.61-15.92Zm-245.68-73.16c2.66,2.42,5.18,4.7,7.85,7.12,7.24-7.59,14.27-14.95,21.49-22.52-2.93-1.41-5.55-2.68-8.17-3.94-1.74-.84-1.76-.85-3.07,.51-4.29,4.42-8.57,8.85-12.85,13.28-1.71,1.77-3.38,3.57-5.24,5.54Zm-53.23-90.64c.54-2.07,.41-3.51-1.08-4.8-1.7-1.47-3.21-3.16-4.82-4.74-.14-.14-.39-.16-.57-.22-.59,.38-1.14,.74-1.74,1.12-1.36-1.26-2.66-2.45-4.03-3.73-3.7,3.71-7.23,7.25-10.76,10.78,2.12,3.57,4.15,6.81,5.99,10.16,1.02,1.85,2.33,3.26,4.4,4.29,3.4-4.63,6.79-9.26,10.14-13.83,.89,.35,1.56,.61,2.46,.95Zm148.89,155.36c4.26,3.83,8.26,7.42,12.41,11.15,3.98-4.36,7.77-8.5,11.74-12.85-4.2-3.75-8.27-7.38-12.51-11.16-3.9,4.31-7.66,8.47-11.63,12.86Zm.2,24.7c3.92-4.36,7.7-8.56,11.58-12.88-4.21-3.79-8.21-7.39-12.39-11.15-3.92,4.35-7.7,8.55-11.59,12.87,4.22,3.8,8.22,7.39,12.4,11.16ZM74.26,229.16c2.24-1.61,4.16-2.98,6.14-4.41-1.29-2.13-2.43-4.02-3.71-6.13,1.28-.65,2.43-1.75,3.34-1.58,1.44,.28,2.04-.31,2.98-1.24-2.55-3.94-5.05-7.82-7.67-11.86-4.6,3.39-8.99,6.63-13.52,9.98,2.08,3.52,4.06,6.87,6.07,10.2,.21,.35,.65,.66,1.05,.79,2.17,.76,4.09,1.85,5.32,4.24Zm335.43,102.01c-.87-.69-1.49-1.12-2.04-1.63-2.32-2.13-4.61-4.3-6.94-6.42-1.58-1.43-3.92-1.39-5.39,.14-2.49,2.6-4.94,5.25-7.39,7.89-.49,.53-.92,1.12-1.49,1.81,3.97,3.63,7.83,7.15,11.88,10.85,3.76-4.18,7.4-8.23,11.37-12.65Zm49.29,45.85c-3.72,4.14-7.22,8.03-10.76,11.97,.46,.48,.74,.82,1.07,1.11,1.55,1.42,3.12,2.81,4.67,4.23,1.46,1.34,3.1,2.42,4.12,4.28,.64,1.17,2.02,1.93,3.25,3.04,3.26-3.58,6.41-7.04,9.66-10.6-2.32-2.1-4.36-4.09-6.56-5.89-2.33-1.9-4.17-4.06-4.85-7.07-.06-.27-.27-.5-.6-1.07ZM121.59,215.82c-5.26,3.41-10.47,6.8-15.9,10.32,2.41,3.44,4.71,6.73,6.97,9.96,.48-.12,.72-.13,.91-.23,.47-.24,.93-.49,1.36-.79,5.29-3.59,11.19-6.29,15.76-10.96-.43-1.67-4.48-5.42-9.09-8.31Zm87.33-5.59c-5.65-3.78-10.45-8.34-16.44-11.36-2.66,2.79-5.14,5.38-7.82,8.19,4.77,4.54,9.43,8.96,14.25,13.54,3.37-3.49,6.58-6.82,10.01-10.38Zm-47.58,26.58c-3.96-2.87-7.56-5.75-11.74-8.01-2.83,3.05-5.56,5.99-8.28,8.93,1.14,1.86,2.1,3.48,3.12,5.05,.59,.91,.91,1.75,.76,2.92-.21,1.7-.06,3.45-.07,5.17,0,1.03,.33,1.89,1.39,2.73,4.89-5.55,9.77-11.07,14.82-16.79Zm-28.84-11.5c-6.21,3.48-11.83,7.27-17.94,11.09,6.55,2.58,12.61,4.98,18.69,7.32,.38,.15,1.1,0,1.39-.29,1.83-1.86,3.57-3.8,5.42-5.79-2.52-4.11-4.93-8.05-7.55-12.34Zm-27.99-105.62c2.88,4.72,5.59,9.21,8.37,13.66,.32,.51,1,.78,1.44,1.11,.2,.84,.4,1.65,.67,2.77,4.42-2.79,8.5-5.38,12.72-8.05-2.93-3.41-6.09-6.15-9.3-8.83-.38-.32-.95-.51-1.45-.55-1.75-.14-3.1-1.02-4.39-2.09-.68-.56-1.43-1.04-2.18-1.58-1.97,1.2-3.82,2.32-5.87,3.57Zm-10.17,99.86v8.37c4.17,.34,7.77-.5,11.09-2.7,4.69-3.11,9.44-6.13,14.16-9.2,.41-.27,.77-.62,1.31-1.06-1.85-2.16-3.59-4.19-5.39-6.27-.81,.47-1.46,.82-2.08,1.22-4.66,3.02-9.34,6.01-13.95,9.11-1.41,.95-2.69,1.58-4.31,.6-.22-.13-.56-.04-.83-.06Zm-45.66-72.02c-3.34-3.51-6.51-6.85-9.8-10.31-3.23,3.57-6.23,6.93-9.28,10.25-.66,.72-.6,1.48-.47,2.31,.33,2,.57,4.02,1,6,.24,1.12,.79,2.17,1.3,3.52,5.89-4.02,11.45-7.82,17.23-11.77Zm291.19,164.47c-3.25-1.78-6.38-3.45-9.67-5.11-3.07,5.47-5.99,10.66-9.05,16.12,4.91,1.38,9.48,2.66,14.25,4,1.54-5.16,2.99-10.02,4.48-15.01Zm8.63,4.51c-3.3,3.76-3.18,8.47-4.72,12.72,5.09,1.51,9.95,2.98,14.84,4.38,.4,.12,1.1-.07,1.39-.37,1.68-1.78,3.29-3.63,4.93-5.47-4.44-5.62-10.83-7.78-16.42-11.25Zm169.63,4.21c-1.87-1.04-3.21-2.09-4.73-2.56-3.44-1.08-6.97-1.86-10.45-2.82-1.11-.31-1.77-.06-2.43,.92-2.38,3.56-4.87,7.06-7.3,10.59-.25,.36-.4,.78-.58,1.14,1.16,1.67,3.45,2.07,4.05,4.22,6.98-3.74,13.93-7.46,21.44-11.48ZM125.25,254.96c2.81,4.47,5.5,8.76,8.35,13.3,4.17-4.74,8.06-9.18,11.84-13.47-.39-1.76-1.22-2.42-2.79-2.33-.77,.04-1.61-.3-2.36-.6-2.44-.98-4.87-1.99-7.27-3.05-.94-.41-1.65-.44-2.4,.4-1.7,1.9-3.47,3.73-5.36,5.75Zm234.8,65.77c6.46,5.97,12.68,11.71,19.05,17.6,1.81-1.98,3.46-3.78,5.26-5.75-6.35-6-12.43-11.96-18.83-17.8-1.91,2.07-3.63,3.93-5.48,5.94Zm-86.92-14.1c2.37,1.15,4.38,2.14,6.4,3.1,1.85,.88,1.87,.88,3.26-.56,3.54-3.68,7.08-7.35,10.6-11.04,1.22-1.28,2.39-2.6,3.72-4.05-2.62-1.65-4.83-3.4-7.42-4.77-5.51,5.76-10.89,11.39-16.56,17.32Zm-113.57-126.87c-5.82,3.8-11.58,7.56-17.52,11.43,1.54,2.59,2.94,4.93,4.32,7.25,4.94-2.54,20.29-12.61,21.28-13.98-2.66-1.55-5.31-3.09-8.08-4.71Zm118.41,105.81c-.43,2.83-2.13,4.54-3.78,6.29-2.22,2.35-4.42,4.72-6.61,7.09-1.01,1.09-1.99,2.22-3.16,3.52,2.71,1.3,5.19,2.49,7.8,3.75,2.78-2.89,5.51-5.67,8.17-8.52,2.68-2.86,5.59-5.53,8.18-8.89-3.64-1.11-6.93-2.12-10.6-3.24Zm-6.14,22.4c-4.46,4.67-8.8,9.2-13.28,13.88,2.81,2.26,5.42,4.34,8.24,6.61,4.53-5.55,8.87-10.89,13.4-16.44-2.87-1.39-5.49-2.66-8.37-4.05Zm-81.87-79.12c2.72-2.7,5.25-5.21,7.95-7.9-3.8-3.6-7.76-7.34-11.89-11.24-3.09,3.21-6.03,6.27-9.06,9.42,1.15,1.2,2.16,2.25,3.16,3.3,.76-.48,1.31-.84,2-1.28,2.7,2.65,5.36,5.26,7.84,7.7Zm-135.87-9.62c-.76,.44-1.16,.64-1.53,.89-5.26,3.5-10.52,7.01-15.78,10.52-.44,.29-.88,.59-1.24,.97-.13,.14-.02,.52-.02,1.23,1.57-.97,2.86-1.76,4.27-2.62,1.22,1.87,2.31,3.53,3.43,5.25,2.46-1.48,4.69-2.82,7.04-4.24,.88,1.37,1.64,2.54,2.47,3.82,.77-.51,1.4-.92,2.01-1.34,.99-.68,1.89-1.67,2.98-1.99,1.03-.31,2.26,.08,3.68,.18-2.38-4.3-4.6-8.51-7.32-12.66Zm131.55,14.84c1.84,1.73,3.51,3.31,5.2,4.9,.37-.28,.64-.42,.84-.63,3.86-3.89,7.73-7.77,11.56-11.69,.97-.99,1.93-2.03,2.7-3.17,1.46-2.18,2.82-4.43,4.15-6.7,.75-1.27,1.35-2.63,2.07-4.04-.98-.71-1.74-1.25-2.51-1.8-.62,.58-1.07,.97-1.49,1.39-5.2,5.31-10.38,10.64-15.62,15.91-.92,.93-1.6,1.74-.56,3.28-2.14,.86-4.05,1.62-6.34,2.55Zm-8.45-33.69c-4,4.51-8.26,8.38-10,14.44,3.29,.56,4.94,3.41,7.44,5.37,3.63-3.76,7.11-7.37,10.69-11.09-2.74-2.94-5.34-5.73-8.13-8.72Zm-14.17,4.25c6.45-3.94,12.64-7.72,19.1-11.67-2.95-1.72-5.77-3.36-8.65-5.03-5.02,3.19-9.93,6.31-15.01,9.54,1.58,2.48,3.02,4.74,4.56,7.16ZM28.68,146.82c.54-.44,.79-.59,.97-.8,2.83-3.1,5.64-6.21,8.44-9.29-1.95-2.95-14.96-16.37-16.88-17.26,.24,.99,.41,1.75,.63,2.5,2.33,8.14,5.72,15.97,6.85,24.85Zm18.4-3.4c3.78-3.87,7.33-7.5,10.97-11.22-2.73-2.73-5.25-5.25-7.87-7.86-3.49,4.04-6.76,7.82-10.12,11.71,2.36,2.48,4.58,4.81,7.02,7.37Zm106.55,115.18c4.72-5.88,9.24-11.52,13.85-17.27-1.3-.97-2.35-1.82-3.46-2.57-1.69-1.13-2.23-1.03-3.6,.52-3.13,3.54-6.26,7.08-9.38,10.62-1.23,1.4-2.45,2.82-3.75,4.32,1.5,2.43,4.22,2.82,6.35,4.39Zm-36.04-82.93c1.39,1.67,2.76,3.32,4.17,5.02,3.56-2.28,6.89-4.44,10.26-6.55,.84-.52,1.02-1.18,.94-2.08-.2-2.24-.53-4.49-.46-6.73,.07-2.33-1.16-3.68-2.81-5.06-4.04,5.13-7.97,10.14-12.11,15.4Zm302.5,160.19c-1.48,.7-1.91,1.69-1.79,3.17,.26,3.22,.35,6.45,.55,9.68,.04,.58,.06,1.33,.42,1.69,1.84,1.85,3.73,3.66,6.15,5.25,2.5-2.73,4.9-5.34,7.5-8.17-4.23-4.26-8.62-7.86-12.82-11.61Zm-211.2-62.6c.06-.11,.11-.23,.17-.34-6.58-5.05-13.16-10.11-19.98-15.34-1.08,2.32-2.01,4.31-2.97,6.38,1.28,.56,2.29,1.01,3.44,1.52-.31,.55-.53,1.24-.72,1.23-1.14-.06-2.28-.28-3.64-.48-.6,1.72-1.23,3.5-1.96,5.59,3.4-.34,6.37-.59,9.34-.96,3.97-.49,7.91-.92,11.69,1.01,1.13,.58,2.4,.87,3.62,1.26,.32,.1,.68,.1,1.02,.14Zm242.57,130.46c5.83,5.14,11.42,10.08,17.12,15.12,1.57-1.81,2.93-3.37,4.45-5.1-5.72-5.07-11.24-9.97-16.92-15-1.62,1.73-3.04,3.25-4.66,4.98Zm-131.23-81c3.14-5.59,6.14-10.93,9.21-16.4-2.24-1.33-4.2-2.5-6.23-3.7-3.79,5.96-7.18,11.82-10.65,17.89,2.7,.78,5.07,1.46,7.67,2.21ZM24.13,170.62c2.45,4.15,4.72,8.15,7.56,11.9,1.6-1.01,3.01-1.84,4.37-2.77,1.39-.94,3.05-1.53,4.12-2.92-2.45-3.96-4.84-7.82-7.39-11.93-2.9,1.92-5.64,3.72-8.66,5.72Zm337.3,190.14c-2.04,2.3-3.9,4.41-5.84,6.61,4.28,3.83,8.34,7.47,12.54,11.23,1.99-2.18,3.83-4.2,5.77-6.33-4.21-3.88-8.22-7.58-12.48-11.5Zm27.59,48.98c4.02-4.3,7.86-8.37,11.52-12.76-2.17-1.92-3.96-3.91-6.21-5.52-3.9,4.33-7.71,8.43-11.43,12.77,2.12,1.91,4.01,3.61,6.13,5.51Zm-11.61,14.08c2.12,1.91,4.05,3.64,6.13,5.51,3.92-4.41,7.88-8.45,11.58-12.88-2.09-1.87-3.98-3.55-6.06-5.4-3.94,4.32-7.71,8.45-11.64,12.77Zm4.78-6.69c-4.36-3.9-8.54-7.62-12.88-11.51-1.84,2.07-3.57,4-5.43,6.09,4.35,3.89,8.52,7.62,12.87,11.51,1.87-2.1,3.59-4.03,5.44-6.1Zm-25.75-12.16c3.9-4.37,7.68-8.61,11.58-12.99-2.06-1.86-3.93-3.55-5.96-5.38-3.97,4.35-7.8,8.54-11.73,12.85,2.07,1.87,3.9,3.53,6.1,5.52Zm-178.48-113.15c1.12,3.22,2.2,6.31,3.32,9.51,2.47-.78,4.65-1.47,6.89-2.18-2.28-7.64-4.46-14.98-6.65-22.32-1.04,1.44-1.49,2.96-2.21,4.33-1.42,2.69-1.76,5.35-.37,8.14,.2,.39,.21,.87,.32,1.38-.39,.34-.77,.67-1.31,1.14Zm-44.31-95.11c-4.83,3.27-9.64,6.25-14.53,9.68,2.74,1.81,5.15,3.4,7.59,5,4.04-2.63,7.91-5.16,11.81-7.7-1.17-2.76-2.62-4.97-4.87-6.99Zm215.84,177.45c4.36,3.8,8.3,7.53,12.58,11.07,1.91-2.1,3.61-3.96,5.43-5.96-4.23-3.79-8.29-7.44-12.5-11.22-1.85,2.06-3.59,3.98-5.51,6.11Zm151.04-59.5c-5.41-2.1-10.5-4.07-15.71-6.1-1.17,1.8-2.26,3.47-3.45,5.3,4.51,3.23,8.93,6.14,13.56,9.03,1.89-2.77,3.61-5.31,5.6-8.23ZM127.71,189.47c-4.4,2.92-8.61,5.72-12.93,8.59,1.63,2.43,3.08,4.6,4.65,6.95,4.66-3.06,9.14-6.01,13.75-9.05-1.88-2.23-3.56-4.23-5.47-6.49Zm-18.47,.27c1.69,2.53,3.29,4.94,5.04,7.55,4.38-2.91,8.54-5.68,12.87-8.56-1.96-2.38-3.75-4.56-5.58-6.77-4.16,2.63-8.09,5.11-12.33,7.79Zm289.56,192.49c-1.29-1.1-2.55-2.27-3.93-3.28-.34-.25-1.3-.22-1.56,.06-1.54,1.69-3.27,3.24-4.54,5.32,4.33,3.88,8.56,7.66,12.89,11.55,1.58-1.75,2.98-3.3,4.37-4.87,.73-.82,.66-1.64-.14-2.38-1.14-1.05-2.31-2.09-3.41-3.09-1.98,1.31-2.29,1.26-4.67-.64,.29-.8,.6-1.63,.99-2.68ZM66.84,164.19c3.62-2.32,7.08-4.53,10.5-6.71-1.35-3.12-3.59-6.73-4.82-7.79-4.07,2.4-8.18,4.81-12.5,7.35,2.4,2.52,4.56,4.78,6.82,7.15ZM8.17,247.5c8.68-5.72,16.95-11.17,25.37-16.71-.78-1.34-1.44-2.47-2.24-3.82-8.08,5.38-15.94,10.63-23.81,15.87,.22,1.53,.42,2.84,.68,4.67Zm336.69,113.97c2.51,2.31,4.87,4.47,7.33,6.73,2.72-3.03,5.27-5.86,7.9-8.8-3.07-2.73-5.97-5.31-9.12-8.11-.67,1.01-1.25,1.76-1.69,2.58-.41,.77-.55,1.68-1,2.41-1.05,1.72-2.21,3.37-3.43,5.2ZM15.03,142.11c-4,4.39-7.82,8.59-11.67,12.81,.86,1.18,1.56,2.13,2.36,3.23,3.13-1.97,6.14-3.8,9.08-5.74,1.12-.74,2.22-1.15,3.57-1.08,1.84,.09,3.68,.02,5.52,.02,.07-.18,.13-.35,.2-.53-2.94-2.83-5.89-5.66-9.07-8.71Zm158.33,78.5c-2.2-3.39-5.87-5.12-10.03-6.47-1.53,1.64-3.1,3.33-4.73,5.08,.64,1.1,1.2,2.06,1.77,3.02,.62,1.03,1.03,2.38,1.93,2.99,1.2,.81,1.58,1.87,1.99,3.05,.14,.4,.37,.76,.46,.94,2.88-2.88,5.71-5.71,8.6-8.61Zm-59.36,16.57c-.07,.11-.14,.22-.22,.33,.32,.48,.63,.96,.97,1.43,1.43,2.02,2.92,4.01,4.29,6.07,1.62,2.45,3.11,4.97,4.68,7.45,.3,.48,.7,.9,1.05,1.34,2.93-2.41,7.43-7.43,8.19-9.19-6.32-2.48-12.64-4.96-18.96-7.44Zm-41.54-88.53c-1.53-2.46-2.67-4.79-4.23-7.01-4.73,3.23-9.35,6.1-14.01,9.49,1.89,1.81,3.56,3.41,5.32,5.08,4.22-2.47,8.42-4.93,12.91-7.56Zm-17.54,69.91c2.74,4.74,5.31,9.2,7.9,13.68,2.7-1.89,5.14-3.59,7.75-5.41-.49-.3-.78-.56-1.11-.65-1.57-.44-2.47-1.53-3.23-2.92-1.32-2.45-2.79-4.82-4.22-7.21-.29-.49-.68-.93-1.1-1.5-2.05,1.38-3.98,2.67-6,4.02Zm46.28,51.12c-2.19,1.4-4.16,2.62-6.08,3.93-.43,.29-.9,.92-.9,1.39-.01,3.5,.09,7.01,.16,11.04,4.42-2.74,8.46-5.06,12.33-7.79-1.89-2.93-3.63-5.63-5.52-8.57Zm37.31-48.39c-1.68,1.06-3.24,2.05-5.1,3.23,2.07,4.4,4.88,8.14,7.35,12.4,2.84-3.05,5.42-5.82,8.14-8.74-3.56-2.36-6.87-4.55-10.39-6.89Zm-15.53-62.83c-4.2,2.84-8.16,5.51-12.28,8.29,1.38,1.86,2.6,3.55,3.87,5.2,.67,.88,1.43,1.7,2.12,2.52,1.53-.92,8.07-9.01,9.32-11.44-.91-1.38-1.86-2.81-3.02-4.57ZM22.46,243.77c1.88,.65,3.79,1.24,5.64,1.96,1.01,.39,1.88,.32,2.79-.18,.46-.25,.93-.57,1.43-.65,3.75-.6,4.58-3.4,4.94-6.53,.05-.43,.05-.94-.14-1.3-.84-1.57-1.76-3.1-2.75-4.82-2.11,1.42-4,2.64-5.83,3.94-.41,.29-.73,.77-.96,1.23-1.18,2.3-2.55,4.42-4.88,5.75-.1,.05-.11,.26-.24,.61Zm-5.99-69.94c2.49-1.41,4.93-2.79,7.6-4.3-2.24-3.68-4.34-7.26-6.71-10.83-2.72,1.73-5.2,3.31-7.69,4.9,2.32,3.49,4.48,6.73,6.8,10.23Zm30.88,19.26c-3.54,2.48-6.9,4.82-10.44,7.29,1.59,2.77,3.01,5.43,4.75,8.08,2.14-1.36,4.02-2.58,5.93-3.76,.68-.42,.94-1,.71-1.71-.62-1.97,.09-3.33,1.81-4.3,.24-.14,.41-.42,.76-.8-1.14-1.56-2.27-3.11-3.51-4.8Zm56.11,12.16c-3,1.93-5.79,3.68-8.51,5.53-.42,.29-.79,.97-.81,1.48-.1,1.93-.04,3.88-.04,5.66,1.92,1.43,3.51,1.45,5.28,.06,1.94-1.53,4.1-2.78,6.16-4.16,.73-.49,1.44-1.01,2.25-1.59-1.49-2.4-2.85-4.61-4.32-6.98Zm-50.89-17.01c-1.51-2.37-2.89-4.52-4.24-6.69-.31-.5-.89-1.24-.73-1.56,.7-1.42-.28-2.26-.87-3.23-1.62-2.63-3.27-5.23-4.91-7.84-.51-.81-1.05-1.61-1.71-2.62-1.37,.94-2.57,1.76-3.65,2.5,4.36,7.38,8.56,14.49,12.85,21.75,1-.7,2.02-1.42,3.27-2.3Zm-40.5-10.63c1.59,2.6,3.01,4.92,4.5,7.35,3.74-2.36,7.26-4.59,10.94-6.91-1.51-2.45-2.86-4.65-4.33-7.03-3.8,2.26-7.38,4.38-11.11,6.59Zm75.23,99.86c1.26-.79,2.24-1.47,3.28-2.04,1.1-.61,1.55-1.46,1.63-2.72,.24-3.75,.6-7.49,.89-11.23,.06-.71,0-1.43,0-2.58-3.09,1.95-5.85,3.69-8.7,5.5,.62,1.59,1.17,3.01,1.72,4.41-.78,.5-1.34,.86-2.07,1.32,1.04,2.37,2.06,4.69,3.24,7.35Zm-3.85-78.79c-2.5,1.62-4.85,3.15-7.34,4.76,2.32,3.57,4.46,6.87,6.69,10.31,2.51-1.89,4.8-3.61,7.04-5.52-2.18-3.25-4.17-6.23-6.39-9.55Zm396.94,107.15c-.62,.86-1.12,1.51-1.57,2.2-3.54,5.41-7.07,10.83-10.59,16.26-.68,1.04-1.31,2.04-2.79,1.86-1.99-.23-2.88,1.1-3.82,2.72,1.66,1.09,3.18,2.1,4.88,3.22,5.45-8.41,11.41-16.13,16.4-24.62-.93-.61-1.61-1.05-2.51-1.64ZM127.94,188.21c2.84-1.89,5.45-3.63,8.16-5.43-.45-2.93,.1-6.1-2.78-8.37-3.64,2.27-7.28,4.54-10.95,7.06,1.94,2.35,3.65,4.42,5.56,6.74Zm-63.35,8.58c4.14-2.85,8-5.52,12-8.28-1.32-1.99-2.51-3.78-3.75-5.64-4.49,2.4-8.17,5.54-12.11,8.71,1.3,1.76,2.49,3.37,3.85,5.21Zm271.72,130.36c2.3,.74,4.29,1.49,6.51,1.76,1.64-4.36,1.68-9.06,4.7-12.91-2.39-1.25-4.48-2.34-6.82-3.57-1.48,4.97-2.89,9.68-4.39,14.71Zm-24.98-6.98c.33-.27,.4-.3,.44-.36,.71-1.15,1.42-2.3,2.12-3.46,.69-1.16,1.36-2.34,2.04-3.51,.72-1.23,1.44-2.46,2.15-3.7,.68-1.17,1.89-2.35,1.88-3.52,0-1.71,2.02-1.76,1.96-3.33-1.55-.61-3.15-1.08-4.92-.92-3.34,5.78-6.64,11.48-10.07,17.42,1.63,.51,3.03,.95,4.4,1.37Zm40.41,30.56c3.06,2.72,5.99,5.33,9.01,8.01,1.92-2.04,3.64-3.86,5.46-5.79-3.09-2.88-5.97-5.57-8.97-8.38-1.33,1.44-2.5,2.69-3.65,3.95-.59,.66-1.14,1.35-1.85,2.2Zm123.89,34.99c-1.25-1.51-2.34-2.74-3.99-3.51-2.11-.98-3.95-2.4-5.56-4.13-1.31-1.42-2.76-2.71-4.22-4.13-.82,.7-2.12,1.44-1.78,2.56,.66,2.17,1.04,4.54,2.94,6.19,2.39,2.05,4.68,4.21,7.04,6.3,.48,.43,1.03,.77,1.65,1.23,1.37-1.57,2.63-3.02,3.91-4.5Zm-80.85-8.23c1.73,1.49,3.27,2.83,4.71,4.08,1.12-.45,1.95-.78,2.9-1.16,.65,1.12,1.25,2.14,1.9,3.28,2.57-.31,5.18-.63,8.09-1.35-2.87-2.61-5.41-4.94-7.97-7.25-1.06-.96-2.16-1.87-3.24-2.81-.67-.58-1.33-.68-1.96,.05-1.42,1.64-2.82,3.28-4.43,5.16Zm-22.78-148.87c2.29,1.75,4.34,3.36,6.45,4.9,.45,.33,1.36,.26,1.57,.64,.99,1.8,2.83,2.64,4.23,3.97,.65,.61,1.46,1.04,1.24,2.19-.05,.26,.44,.79,.78,.92,1.16,.44,2.37,.75,3.66,1.14,.02-1.05-.46-1.47-1.16-1.64-1.25-.29-1.8-1.21-2.28-2.28-1.45-3.22-3.05-6.37-4.4-9.63-1.13-2.71-3.4-4.23-5.5-6.23-1.55,2.03-2.95,3.88-4.58,6.02Zm38.3,107.27q-2.59,.47-3.95,1.8c-1.01,1-2.03,2-3.01,3.03-1.27,1.34-2.51,2.71-3.9,4.22,2.3,1.79,3.95,3.96,6.48,5.29,1.77-2.04,3.48-3.9,5.05-5.88,.42-.53,.64-1.44,.54-2.12-.3-2.13-.79-4.23-1.2-6.33Zm45.44,61.25c-2.84-2.54-5.45-4.89-8.24-7.39-1.8,2.12-3.8,3.88-5.35,6.18,2.78,2.61,5.39,5.05,8.11,7.6,1.88-2.19,3.58-4.18,5.47-6.39Zm-89.23-45.15c1.81-2.05,3.38-3.83,5.05-5.73-2.91-2.82-5.63-5.47-8.49-8.24-1.87,2.08-3.51,3.91-5.24,5.83,2.93,2.74,5.7,5.34,8.69,8.14Zm16.34,64.46c1.97-2.16,3.68-4.03,5.52-6.04-2.83-2.55-5.53-4.97-8.33-7.49-1.99,2.14-3.76,4.03-5.64,6.04,2.88,2.56,5.56,4.93,8.44,7.49Zm50.62-68.25c-2.31,2.52-4.51,4.87-6.63,7.28-.3,.34-.45,1.27-.22,1.55,1.52,1.82,3.31,3.37,5.09,5.08,2.64-2.88,5.06-5.52,7.62-8.32-1.99-1.9-3.86-3.68-5.86-5.6ZM57.79,157.12c-1.37-1.46-2.53-2.73-3.74-3.95-1.31-1.31-1.73-1.33-3.26-.2-3.69,2.73-7.35,5.48-11.03,8.21-.36,.27-.77,.46-1.24,.73,.81,1.23,1.36,2.06,1.96,2.99,1.76-1.16,3.4-2.11,4.88-3.25,1.57-1.21,3.32-1.86,5.23-1.68,2.82,.26,4.82-1.27,7.22-2.85Zm-8.48-8.91c-5.95,4.07-11.64,7.96-17.43,11.92,.57,1.25,1.05,2.3,1.52,3.33,3.16-1.03,15.91-9.92,18.27-12.72-.73-.78-1.47-1.58-2.36-2.54Zm-8.08,61.64c-3.85,2.41-7.38,4.63-11.04,6.92,1.11,2.02,2.1,3.84,3.07,5.61,2.46-.29,3.64-2.36,5.7-3.05,2.04-.69,3.93-2.04,5.8-3.43-1.24-2.12-2.33-3.99-3.53-6.05Zm417.66,165.88c-.1-.34-.1-.43-.14-.48-2.43-2.22-4.85-4.45-7.31-6.64-.85-.75-2.28-.28-2.68,.89-.67,1.96-1.26,3.95-1.92,6.05,2.19,1.92,4.42,3.89,6.83,6,1.88-2.09,3.6-4.01,5.22-5.82ZM132.22,247.49c3.55,1.48,6.63,2.81,9.76,4.02,.62,.24,1.4,.03,2.02,.03,1.07-5.04-.05-9.2-3.66-12.83-2.66,2.87-5.24,5.66-8.12,8.77Zm-98.14-23.77c1.6,1.1,3.43,1.23,5.09,1.84,1.11,.41,2,.16,2.94-.49,3.1-2.13,6.26-4.18,9.38-6.29,.46-.31,.85-.74,1.34-1.18-.9-1.16-1.66-2.15-2.43-3.14-6.01,2.3-10.93,6.05-16.31,9.26Zm154.09,33.14c-2.18-1.63-4.31-3.24-6.54-4.91-1,2.04-2.35,3.71-2.02,5.89,.62,4.09,1.34,8.16,2.04,12.23,.06,.36,.27,.71,.49,1.28,2.05-4.92,3.97-9.55,6.03-14.49Zm-3.45-22.35c-2.85,3.93-5.52,7.6-8.27,11.4,1.64,1.18,3.02,2.17,4.54,3.26,3.17-3.22,6.19-6.29,9.3-9.46-1.9-1.78-3.59-3.35-5.57-5.2Zm-1.36-40.84c-1.93,2.06-3.7,3.95-5.58,5.95,2.17,2.32,4.14,4.43,6.27,6.71,2.6-2.73,5.01-5.25,7.6-7.97-2.84-1.61-5.43-3.08-8.29-4.69ZM10.97,210.4c5.16-3.74,9.81-7.11,14.64-10.61-1.09-1.57-2.05-2.95-3.14-4.53-3.75,2.8-7.3,5.43-10.8,8.12-.36,.27-.64,.87-.66,1.32-.08,1.7-.03,3.41-.03,5.7Zm265.96,75.06q-2.2-1.09-3.76,.45c-4.1,4.09-8.2,8.19-12.29,12.29-.46,.47-.88,.98-1.5,1.68,1.49,.77,2.78,1.44,4.12,2.13,3.86-4.17,7.5-8.17,11.24-12.08,1.2-1.26,1.88-2.66,2.19-4.47Zm-127.72-82.15c1.51,2.55,2.87,4.86,4.35,7.37,2.94-1.85,5.71-3.6,8.71-5.49-1.58-2.49-3.05-4.79-4.6-7.23-2.9,1.83-5.56,3.51-8.46,5.34Zm-35.6,35.74c-.34,.05-.43,.04-.48,.07-5.56,3.54-11.14,7.07-16.67,10.66-.43,.28-.77,.93-.83,1.45-.13,.99-.04,2-.04,3.5,7-4.45,13.54-8.62,20.29-12.91-.84-1.03-1.54-1.88-2.26-2.77ZM25.29,153.92c-2.24,.8-5.79,3.19-6.89,4.58,2.13,3.45,4.28,6.94,6.51,10.54,1.16-.82,2.07-1.47,2.99-2.1,.7-.47,1.01-1.01,.74-1.89-1.13-3.65-2.21-7.32-3.35-11.13Zm61.48,95.68c-2.12-3.12-4.13-6.07-6.25-9.19-2.08,1.28-3.96,2.45-6,3.71,1.91,3.3,3.71,6.39,5.62,9.68,2.26-1.43,4.33-2.74,6.63-4.19ZM8.79,224.12c.16,.09,.32,.19,.47,.28,4.99-3.1,9.97-6.2,15.17-9.44-1-1.6-1.88-3.01-2.85-4.55-3.99,2.8-7.73,5.41-11.44,8.06-.39,.28-.78,.78-.85,1.23-.25,1.46-.35,2.94-.5,4.42Zm-1.57,17.8c5.82-3.9,11.14-7.47,16.68-11.19-.92-.74-1.61-1.29-2.3-1.85-.99-.8-1.89-.9-3.04-.12-3.16,2.16-6.42,4.19-9.61,6.31-.47,.31-1.07,.79-1.16,1.27-.29,1.65-.37,3.34-.58,5.58Zm28.92-40.99c-3.07,2-6,3.59-8.58,6.21,3.58,.67,4.87,3.43,6.25,6.36,2.38-1.69,4.78-2.85,6.92-4.6-1.56-2.71-3-5.23-4.58-7.98Zm105.08,7.45c-3.32,2.11-6.38,4.06-9.76,6.21,2.59,1.7,4.82,3.19,7.09,4.62,.32,.2,.94,.29,1.23,.12,1.86-1.08,3.66-2.26,5.58-3.46-1.45-2.62-2.74-4.95-4.14-7.49Zm299.04,173.67c2.54,2.25,4.82,4.27,7.21,6.39,1.92-2.15,3.66-4.09,5.54-6.2-2.44-2.16-4.72-4.17-7.13-6.31-1.91,2.08-3.67,3.99-5.61,6.11ZM58.56,133.02c-3.61,3.68-7.15,7.3-10.84,11.05,.84,.88,1.54,1.62,2.37,2.49,4.42-3.02,8.73-5.96,13.23-9.04-1.62-1.54-3.08-2.91-4.76-4.5Zm99.36,86.93c-1.48,1.58-2.75,2.92-3.99,4.29-.17,.19-.29,.61-.2,.82,.84,1.99,1.42,4.2,2.69,5.88,1.12,1.47,3.03,2.34,4.7,3.57,1.11-1.42,2.07-2.64,3.08-3.93-2.08-3.52-4.09-6.92-6.29-10.63Zm-13.02-41.91c-2.69,1.79-5.08,3.39-7.58,5.06,1.49,2.56,2.83,4.85,4.26,7.29,2.79-1.84,5.36-3.42,7.86-5.26-1.57-2.46-2.98-4.65-4.55-7.09Zm295.87,217.83c-2.42-2.27-4.63-4.34-6.95-6.51-2.01,2.19-3.81,4.14-5.72,6.22,2.49,2.17,4.79,4.17,7.24,6.31,1.84-2.04,3.52-3.91,5.43-6.02Zm-26.6,9.92c-1.8-.61-3.49-1.24-5.21-1.74-.41-.12-1.11,.02-1.4,.31-1.71,1.77-3.34,3.61-5.11,5.55,2.07,1.85,3.95,3.54,5.97,5.35,1.8-2,3.42-3.86,5.1-5.67,1.04-1.11,1.29-2.31,.64-3.82Zm32.63-16.66c-2.39-2.15-4.6-4.14-6.98-6.28-1.84,2-3.54,3.85-5.35,5.82,2.4,2.24,4.61,4.32,6.93,6.5,1.89-2.12,3.57-4,5.4-6.04ZM19.37,227.17c-1.27-1.98-2.38-3.72-3.61-5.65-2.29,1.4-4.41,2.66-6.48,3.99-.33,.21-.66,.69-.7,1.07-.26,2.51-.45,5.03-.69,7.98,3.96-2.55,7.58-4.89,11.48-7.4Zm94.16-73.96c-.9,.64-1.63,1.12-2.31,1.65-.99,.78-1.93,1.62-2.92,2.41-.51,.41-1.06,.76-1.71,1.22,1.46,2.39,2.65,4.77,4.26,7.06,2.58-1.76,4.91-3.35,7.45-5.09-1.61-2.45-3.11-4.74-4.77-7.25Zm263.13,219.16c-.58-.15-1.5-.13-2.25,.71-1.81,2-3.63,4-5.6,6.17,2,1.8,3.88,3.48,5.91,5.31,1.97-2.21,3.8-4.26,5.5-6.17-1.22-2.06-2.3-3.88-3.57-6.02ZM133.39,150.7c2.72-1.77,5.25-3.42,7.94-5.16-1.47-2.2-2.78-4.17-4.07-6.09-2.42,1.04-7.25,4.23-8.4,5.54,1.46,1.84,2.93,3.69,4.53,5.71Zm210.5,188.06c-3.54-1.05-6.72-1.99-10.04-2.98-.78,2.72-1.47,5.15-2.23,7.81,2.6,.73,5.01,1.41,7.49,2.1,1.61-2.34,3.08-4.47,4.78-6.93ZM83.28,214.6c1.78,2.49,2.79,5.11,4.85,6.88,3.2-1.01,4.47-3,4.24-6.14-.13-1.7,.14-3.43,.17-5.15,0-.55-.18-1.1-.35-2.08-3.42,1.83-5.91,4.29-8.9,6.48Zm162.76,117.58c-2.56-.7-4.99-1.4-7.44-2.01-.44-.11-1.12,0-1.42,.28-1.58,1.46-3.07,3-4.74,4.67,2.09,1.88,3.76,3.76,5.54,5.09,2.75-2.74,5.28-5.26,8.07-8.04ZM72.2,181.95c-.9-1.31-1.68-2.46-2.56-3.74-4.31,2.8-8.43,5.48-12.71,8.27,1.18,1.54,2.16,2.83,3.16,4.14,3.69-2.64,7.22-5.16,10.75-7.68,.36-.26,.72-.52,1.36-.99Zm35.68-.07c1.07,1.73,1.96,3.2,2.88,4.65,.15,.24,.39,.43,.57,.62,3.08-1.47,8.24-4.91,9.37-6.29-1.32-1.59-2.65-3.19-4.08-4.92-2.96,2.01-5.73,3.9-8.74,5.93Zm384.09,207.72c-5.34-2.84-10.52-5.25-16.91-5.88,4.42,4.05,8.52,7.81,12.76,11.69,1.49-2.09,2.78-3.89,4.15-5.81Zm-123.68-23.7c1.9,1.7,3.61,3.16,5.22,4.71,1.06,1.02,2.14,1.22,3.28,.65,.93-2.2,1.79-4.25,2.68-6.36-1.96-1.73-3.78-3.35-5.7-5.06-1.89,2.09-3.58,3.97-5.47,6.06Zm-43.43-16.91c3.28,.98,6.41,1.91,9.7,2.89,1.26-1.74,2.47-3.41,3.89-5.38-4.13-1.16-7.9-2.23-11.83-3.34-.62,2.05-1.15,3.82-1.76,5.83ZM98.47,197.16c-1.42,.87-2.55,1.6-3.72,2.26-.84,.47-1.06,1.12-.98,2.05,.19,2.24,.26,4.49,.41,6.73,.03,.47,.21,.93,.39,1.69,2.91-1.88,5.59-3.61,8.41-5.43-1.54-2.49-2.95-4.77-4.52-7.3Zm276.33,200.98c-2.09-1.9-4.01-3.63-6.08-5.51-1.93,2.16-3.65,4.09-5.5,6.17,2.08,1.89,4,3.63,6.07,5.5,1.92-2.14,3.65-4.07,5.51-6.16ZM67.7,140.39c-.49-.92-1-1.88-1.63-3.07-5.6,2.81-10.21,6.59-15.4,9.95,1.16,1.13,2.04,1.98,2.74,2.67,4.84-3.24,9.44-6.31,14.29-9.55ZM407.31,403.24c-2.09-1.92-3.99-3.67-6.02-5.54-1.95,2.2-3.86,4.04-5.48,6.26,2.08,1.85,3.96,3.52,5.98,5.33,1.91-2.1,3.65-4.01,5.51-6.05Zm-25.8-12.57c1.87-2.07,3.6-3.99,4.9-5.43-1.92-2.16-3.65-4.11-5.49-6.18-1.79,1.99-3.58,3.98-5.52,6.14,2.06,1.84,3.99,3.58,6.11,5.47Zm-.63,.69c-2.07-1.86-4-3.6-6.1-5.49-1.88,2.1-3.6,4.03-5.45,6.08,2.14,1.93,4.06,3.66,6.11,5.5,1.89-2.12,3.58-4.01,5.43-6.09Zm-17.69,19.72c1.88-2.1,3.61-4.02,5.47-6.1-2.09-1.9-4-3.63-6.04-5.47-1.9,2.11-3.63,4.02-5.49,6.09,2.09,1.89,3.99,3.62,6.06,5.49Zm24.45-13.6c-2.1-1.9-4.02-3.63-6.07-5.48-1.9,2.13-3.62,4.05-5.45,6.09,2.11,1.92,3.99,3.62,6.05,5.49,1.85-2.06,3.58-3.99,5.47-6.09ZM33.87,187.71c-3.65,2.41-7.38,4.17-10.52,7.14,1.04,1.48,2.01,2.85,3.03,4.31,3.49-2.59,6.72-4.99,10.07-7.48-.89-1.36-1.65-2.54-2.58-3.97Zm-4.2,16.32c3.59-2.39,6.92-4.62,10.39-6.93-1.1-1.67-2.02-3.08-3.05-4.64-3.51,2.55-6.81,4.95-10.11,7.55,.98,1.42,1.77,2.57,2.77,4.02Zm357.66,154.29c2.07,1.89,3.98,3.63,6.1,5.57,1.9-2.15,3.6-4.07,5.4-6.1-2.12-1.88-4.01-3.55-6.08-5.39-1.85,2.03-3.55,3.88-5.41,5.92Zm12.22,.11c-1.52,1.71-2.84,3.13-4.08,4.62-.71,.86-.71,2.15,.02,2.84,1.19,1.13,2.47,2.17,3.72,3.24,.59,.51,1.25,.6,1.79-.01,1.47-1.66,2.9-3.37,4.54-5.27-2.05-1.86-3.92-3.55-5.98-5.42Zm-6,32.5c-2.04-1.91-3.94-3.68-5.99-5.6-1.82,2.04-3.55,3.96-5.37,6,2.12,1.9,4.05,3.64,6.08,5.47,1.86-2.07,3.55-3.94,5.28-5.87Zm-11.69-12.93c2.16,2,4.06,3.76,6.07,5.62,1.88-2.15,3.54-4.06,5.2-5.95-.96-1.77-2.35-2.89-3.73-3.82-.84-.57-2.16-.41-3.3-.58-1.39,1.55-2.73,3.06-4.23,4.73ZM97.5,181.13c5.14-3.3,10.16-6.53,15.33-9.86-.82-1.07-1.48-1.94-2.18-2.86-5.18,3.25-10.19,6.37-15.04,10,.68,.98,1.23,1.77,1.89,2.72Zm44.52,26.76c1.46,2.63,2.75,4.97,4.15,7.49,2.32-1.48,4.38-2.8,6.55-4.19-1.48-2.56-2.72-5-4.43-7.3-2.16,1.37-4.1,2.61-6.27,3.99Zm-114-29.05c-3.76,2.37-7.28,4.6-10.98,6.94,1.09,1.48,2.04,2.76,3.03,4.1,3.7-2.35,7.14-4.53,10.72-6.8-.98-1.5-1.78-2.74-2.76-4.24Zm405.63,197.21c1.95,1.75,3.71,3.32,5.62,5.03,1.9-2.12,3.63-4.05,5.51-6.15-2.14-1.88-4.13-3.62-6.21-5.44-1.7,2.27-3.22,4.3-4.92,6.57Zm-70.94,9.87c2.06,1.86,3.93,3.56,5.96,5.4,1.83-2.06,3.55-3.99,5.42-6.09-2.04-1.83-3.9-3.5-5.9-5.29-1.86,2.03-3.56,3.88-5.49,5.98ZM66.86,124.58c-2.68,2.73-5.01,5.1-7.24,7.38,1.65,1.77,3.11,3.33,4.55,4.88,1.84-.87,3.49-1.65,5.24-2.48-.86-3.29-1.64-6.29-2.55-9.78Zm253.51,199.96c-1.21,1.9-2.31,3.41-2.06,5.59,3.39,1.01,6.74,2,10.32,3.07,.55-2.04,1.03-3.81,1.56-5.78-3.43-1-6.57-1.92-9.81-2.87Zm75.46,91.31c1.89-2.08,3.54-3.9,5.33-5.88-2.1-1.87-4.03-3.59-6.08-5.42-1.87,2.05-3.56,3.89-5.34,5.84,2.12,1.9,4,3.58,6.09,5.45Zm-7.17-46.63c1.12-1.29,2.1-2.43,3.08-3.55,.67-.76,.64-1.46-.11-2.14-1.6-1.45-3.2-2.9-4.93-4.47-1.9,2.09-3.91,3.85-5.22,6.39,1.56,1.39,3.05,2.73,4.76,4.26,.57-1.52,1.47-.82,2.42-.48Zm7.84,47.27c2.05,1.84,3.93,3.53,6,5.39,1.81-2.01,3.49-3.88,5.3-5.9-2.04-1.84-3.91-3.52-5.96-5.36-1.82,2-3.51,3.86-5.34,5.87Zm20.92-77c-.18-.05-.35-.1-.53-.15-1.49,1.68-3,3.33-4.45,5.05-.25,.3-.32,.83-.3,1.25,.18,3.15,.41,6.31,.64,9.46,0,.08,.23,.15,.53,.33,1.41-1.59,2.86-3.21,4.26-4.86,.22-.26,.36-.69,.34-1.03-.15-3.35-.33-6.71-.51-10.06Zm-237.75-35.52c1.73,1.54,3.34,2.98,4.97,4.4,.22,.19,.54,.41,.79,.38,1.9-.19,3.85,0,5.94-.72-.97-2.71-1.89-5.27-2.87-8.03-3.05,1.34-6.46,1.09-8.82,3.96Zm200.29,60.14c1.95-2.16,3.69-4.09,5.56-6.16-1.9-1.75-3.66-3.36-5.6-5.14-1.91,2.17-3.66,4.17-5.54,6.31,1.92,1.72,3.64,3.26,5.58,4.99ZM78.48,124.82c3.32-3.45,6.53-6.8,9.93-10.34-1.44-.77-2.66-1.42-3.96-2.11-3.33,3.47-6.52,6.8-9.87,10.3,1.48,.82,2.65,1.46,3.91,2.15Zm282.05,209.31c4.67,2.18,9.33,2.81,14.34,4.09-2.03-4.68-6.16-6.62-9.08-10.04-1.81,2.05-3.43,3.88-5.26,5.95ZM70.68,204.92c3.98-2.6,7.8-5.09,11.79-7.69-.91-1.3-1.7-2.42-2.56-3.64-4.03,2.75-8.03,5.08-11.79,7.97,.94,1.23,1.7,2.23,2.56,3.36Zm-37.98,18.26c-1.27-1.92-1.96-4.07-3.47-5.77-.76,.43-1.39,.8-2.17,1.24-.73-.92-1.41-1.78-2.19-2.77-2.56,1.46-5.02,2.9-7.49,4.59,.37,.26,.48,.38,.6,.41,3.77,.96,7.55,1.92,11.33,2.86,.28,.07,.59,.08,.87,.03,.74-.15,1.48-.34,2.51-.59Zm375.05,167.34c-1.85,2.05-3.57,3.96-5.4,6,2.07,1.87,3.92,3.55,5.93,5.35,1.54-1.76,2.91-3.32,4.5-5.14-2.26-.53-.16-1.59-.58-2.42-1.42-1.21-2.83-2.42-4.44-3.79ZM145.55,199.17c-1.26-2.58-2.73-4.93-4.33-7.43-2.12,1.41-4.03,2.67-6.02,4,1.51,2.59,2.85,4.9,4.28,7.37,2.09-1.35,3.97-2.57,6.07-3.93Zm196.91,143.31c1.87,1.63,3.48,3.03,5.18,4.51,1.91-2.15,3.63-4.1,5.45-6.15-2-1.86-3.79-3.53-5.8-5.39-1.66,2.42-3.18,4.62-4.83,7.03Zm70.52,15.91c-.2,1.23-.45,1.92-.38,2.57,.18,1.87,.44,3.73,.76,5.58,.34,2.01,1.21,2.68,3.21,2.63,2.03-.05,4.05-.1,6.08-.18,.39-.02,.78-.19,1.38-.34-3.19-3.94-7.27-6.51-11.05-10.27ZM56.45,206.64c-2.2,1.25-4.2,2.39-6.19,3.53,.04,3.03,1.68,5.01,3.59,7.04,2.12-1.41,4.17-2.77,6.35-4.22-1.29-2.19-2.47-4.17-3.75-6.35Zm363.01,145.51c-.72,3.11-.17,5.86,.21,8.56,.14,.97,1.11,2.06,2.41,2.01,2.58-.1,5.15-.33,8.26-.55-3.71-3.68-6.93-7.03-10.89-10.02Zm-51.83,13.13c1.86-2.08,3.58-4.01,5.42-6.07-1.89-1.69-3.59-3.22-5.12-4.59-1.99,1.87-3.81,3.6-5.79,5.46,1.79,1.69,3.56,3.37,5.49,5.2ZM69.81,238.5c.99,1.53,2.15,3.32,3.42,5.3,2.35-1.45,4.48-2.76,6.78-4.18-1.48-2.37-2.82-4.51-4.26-6.82-1.28,.77-2.57,1.3-3.52,2.19-.89,.83-1.43,2.03-2.42,3.5Zm351.34,162.69c1.8-2.13,3.7-3.79,5.16-5.98-1.88-1.68-3.6-3.22-5.46-4.89-1.43,1.31-2.76,2.5-4.05,3.73-.47,.45-.4,2.97,.07,3.39,1.33,1.2,2.7,2.36,4.28,3.74Zm6.44-20.74c1.14-1.3,2.17-2.47,3.19-3.66,.72-.83,.63-1.65-.14-2.38-1.25-1.18-2.53-2.34-3.79-3.51-.59-.55-1.22-.64-1.77-.02-1.47,1.67-2.91,3.37-4.57,5.3,1.38,1.07,2.45,2.51,3.71,2.72,1.26,.21,2.17,.7,3.37,1.54ZM146.41,152.97c-1.61-2.35-3.03-4.43-4.55-6.65-2.55,1.66-4.88,3.19-7.51,4.91,2.68,1.85,4.99,3.45,7.33,5.07,1.61-1.14,3.07-2.16,4.73-3.33Zm-12.03,20.73c2.65,2.31,1.95,5.43,2.77,8.39,2.51-1.67,4.87-3.16,7.25-4.9-1.6-2.49-3.05-4.74-4.59-7.13-1.84,1.23-3.44,2.3-5.44,3.64Zm293.97,207.38c.66,.75,1.25,1.41,1.82,2.06-.19,.42-.36,.81-.58,1.29,1.26,1.02,2.47,1.99,3.86,3.12,1.67-2.1,3.62-3.71,5.03-5.91-1.68-1.51-3.15-2.9-4.7-4.21-1.11-.93-1.52-.88-2.46,.16-1,1.11-1.94,2.27-2.98,3.49ZM23.16,208.19c-.94-1.26-1.73-2.31-2.64-3.51-2.66,1.91-5.05,3.83-7.64,5.45-2.68,1.68-2.31,4.28-2.81,6.65,.14,.09,.28,.19,.43,.28,4.15-2.9,8.29-5.81,12.66-8.87Zm70.28-31.26c-1.55-2.66-2.97-5.09-4.51-7.72-1.61,1.09-3.07,2.09-4.65,3.16,.93,2.97,1.82,5.79,2.8,8.93,2.26-1.55,4.26-2.93,6.36-4.37Zm63.99,42.15c-1.44-2.43-2.76-4.67-4.18-7.08-2.25,1.41-4.26,2.67-6.24,3.91,2.15,2.59,4.17,5.02,6.31,7.59,1.31-1.4,2.63-2.82,4.12-4.42Zm-90.19-17.07c-1.59,1.04-3.05,1.97-4.47,2.94-.79,.54-1.56,.91-2.5,.42-1.25-.65-2.12-.19-2.85,1.05,1.22,1.91,2.09,4.05,3.72,5.88,2.96-2.31,5.78-4.51,8.74-6.82-.96-1.25-1.75-2.3-2.64-3.46Zm109.33-22.89c2.16-2.47,4.06-4.64,6.08-6.94-1.29-1.12-2.43-2.07-3.53-3.07-.68-.61-1.44-.53-2.1-.18-1.7,.9-3.35,1.91-5.23,3,1.61,2.43,3.09,4.65,4.78,7.19Zm-109.05,21.56c4.05-2.68,7.94-5.26,11.97-7.92-.88-1.27-1.58-2.3-2.38-3.46-4.06,2.8-7.93,5.47-11.93,8.22,.83,1.11,1.53,2.05,2.34,3.16Zm357.98,183.36c-1.27,1.58-2.46,3.05-3.69,4.59,1.89,2.01,3.57,3.8,5.46,5.8,1.88-2.12,3.62-4.09,5.52-6.23-1.85-1.02-2.59-3.37-5.05-2.44-.16,.06-.5-.27-.73-.45-.46-.36-.89-.75-1.51-1.27ZM70.27,121.29c-.96,.93-2.4,1.39-2.1,2.83,.6,2.89,1.42,5.74,2.27,9.09,2.59-2.72,4.86-5.1,7.31-7.68-2.62-1.49-4.95-2.81-7.47-4.25Zm87.85,75.28c4.78-3.04,9.44-6,14.42-9.16-1.38-.83-2.44-1.46-3.54-2.12-2.83,1.8-5.54,3.55-8.27,5.26-1.47,.92-2.94,1.63-3.29,3.77-.16,.99-.1,1.44,.68,2.26Zm-135.63,13.38c1.47,2.63,3.02,5.1,4.76,7.48,2.04-1.28,3.79-2.38,5.66-3.55-.64-1.3-.93-2.73-1.81-3.49-1.3-1.13-3-1.82-4.57-2.62-.23-.12-.71,.17-1.02,.35-.96,.55-1.89,1.15-3.02,1.84Zm123.25,6.81c-1.77,1.12-3.68,2.04-5.46,3.65,3.4,2.24,6.61,4.35,9.89,6.51,.53-.6,.89-.97,1.21-1.38,.31-.39,.58-.82,.82-1.16-1.46-3.2-3.54-5.68-6.46-7.62Zm239.12,129.05c-1.71-1.42-3.14-2.63-4.59-3.81-.82-.66-1.58-.7-2.34,.19-.89,1.02-1.87,1.96-2.82,2.92-.57,.58-.64,1.2-.06,1.78,1.51,1.54,3.04,3.07,4.69,4.71,1.77-1.99,3.35-3.78,5.13-5.8Zm-16.1,7.22c1.75,1.87,3.31,3.53,5.05,5.38,1.78-2.04,3.47-3.98,5.28-6.05-1.86-1.66-3.51-3.14-5.31-4.74-1.78,1.91-3.39,3.66-5.02,5.41ZM9.82,203.52c4.24-3.16,8.16-6.09,12.15-9.06-.86-1.22-1.53-2.17-2.29-3.25-2.82,1.78-5.43,3.37-7.97,5.08-.44,.3-.55,1.11-.73,1.72-.21,.69-.09,1.66-.53,2.06-1.02,.94-.9,1.93-.63,3.46Zm148.99-24.35c-2.95-1.69-5.6-3.21-8.34-4.78-1.15,.77-2.26,1.5-3.57,2.37,1.5,2.47,2.92,4.79,4.41,7.24,2.59-1.67,4.9-3.16,7.49-4.83Zm241.32,178.59c2.27,2,4.26,3.76,6.37,5.62,1.5-1.82,2.8-3.41,4.19-5.1-2.14-1.95-4.06-3.68-6.1-5.54-1.53,1.72-2.9,3.27-4.46,5.02ZM84.25,198.19c2.1,3.14,4.01,6,5.91,8.86,.38,.58,.93,.9,1.5,.5,.33-.23,.59-.86,.56-1.29-.16-2.09-.3-4.19-.71-6.24-.35-1.78-.8-3.59-1.79-5.36-1.83,1.18-3.52,2.27-5.47,3.52Zm23.35,39.43c-.05-.19-.1-.37-.14-.56-4.14,.19-8.27,.38-12.64,.58,.29,2.73,.54,5.13,.83,7.85,4.23-2.79,8.09-5.33,11.95-7.87Zm296.28,114.5c-2.04-1.9-3.88-3.69-5.96-5.38-1.6,1.74-3,3.27-4.54,4.95,2.12,1.89,4.05,3.6,6.1,5.42,1.55-1.76,2.92-3.31,4.4-4.99ZM45.61,186.04c-2.79,2.07-5.35,3.84-7.81,5.96,1.07,1.6,2.01,3.01,3.03,4.54,2.61-1.83,4.98-3.5,7.48-5.26-.91-1.75-1.72-3.33-2.7-5.23Zm340.43,160.83c-1.78,1.89-3.44,3.66-5.2,5.54,1.88,1.71,3.56,3.23,5.35,4.86,1.8-2,3.37-3.76,5.1-5.69-1.81-1.62-3.45-3.09-5.25-4.7ZM80.12,162.11c-3.42,2.02-6.49,3.84-9.45,5.6,1.27,1.52,2.4,2.87,3.6,4.31,2.63-1.72,4.99-3.26,7.4-4.84-.53-1.72-.98-3.21-1.54-5.07Zm-34.88-42.53c-2.05,2.16-3.94,4.14-5.95,6.25,1.68,1.51,3.15,2.83,4.74,4.26,1.93-2.29,3.64-4.34,5.25-6.24-1.42-1.5-2.65-2.8-4.04-4.27Zm14.74,72.56c-2.35,1.9-4.6,3.46-6.73,5.42,1.36,1.58,2.56,2.97,3.83,4.43,2.35-1.64,4.48-3.12,6.75-4.69-1.32-1.77-2.48-3.32-3.85-5.16Zm94.78-25.33c-1.95-.78-3.53-1.45-5.13-2.03-.46-.17-1.13-.28-1.51-.07-1.91,1.07-3.83,2.14-5.68,3.75,1.84,1.05,3.45,1.99,5.08,2.9,1.66,.93,2.42,.89,3.76-.47,1.15-1.16,2.13-2.48,3.48-4.08Zm-49.91,59.71c-1.79,1.01-3.28,2.09-4.93,2.7-1.64,.61-3.45,.75-5.17,1.1v2.92c4.63-.52,9.08-.58,13.84-1.3-1.34-1.95-2.44-3.54-3.74-5.42Zm57.36-54.47c-2.42-1.68-4.15-3.64-6.55-4.56-2.15,1.76-3.51,3.75-3.78,6.51,1.21,.73,2.47,1.49,3.74,2.26,2.15-1.38,4.16-2.66,6.59-4.21Zm-53.59,39.74c2.18-1.35,4.07-2.53,5.95-3.7-1.81-3.6-2.83-4.29-5.69-3.91-.42-.44-.86-.92-1.4-1.49-1.06,.68-2.05,1.32-3.23,2.08,1.47,2.37,2.84,4.58,4.36,7.02Zm-37.83-77.13c.74,1.21,1.31,2.13,1.95,3.16,3.74-2.25,7.27-4.37,10.95-6.58-.69-1.16-1.28-2.16-1.98-3.33-3.68,2.27-7.17,4.43-10.93,6.75Zm237.78,192.63c2.97,.86,5.66,1.64,8.33,2.42,.77-1.93,1.45-3.63,2.21-5.52-2.55-.73-4.97-1.42-7.48-2.14-1.03,1.76-1.96,3.36-3.06,5.24ZM59.32,191.46c-1.03-1.64-1.94-3.15-3.41-4.36-2.16,1.5-4.23,2.94-6.33,4.4,.95,1.93,1.44,3.77,3.13,5.13,2.21-1.73,4.37-3.42,6.61-5.18Zm70.79-37.47c1.55,2.44,2.94,4.62,4.43,6.96,2.14-1.4,4.06-2.64,6.27-4.09-2.63-1.82-5-3.45-7.38-5.1-1.14,.76-2.12,1.42-3.32,2.22Zm-16.96-18.31c-2.32-3.82-4.56-7.51-6.9-11.35-1.2,.73-2.17,1.33-3.21,1.97,2.51,3.83,4.87,7.43,7.3,11.14,1.02-.64,1.82-1.14,2.8-1.76ZM22.66,193.82c3.7-2.42,7.12-4.66,10.67-6.98-.79-1.11-1.42-1.99-2.1-2.93-3.69,2.34-7.15,4.53-10.71,6.78,.81,1.19,1.44,2.1,2.14,3.13Zm152.44,4.38c-2.04,1.29-3.89,2.44-5.71,3.63-1.84,1.2-3.85,2.18-5.74,3.79,1.25,.64,2.14,1.37,3.12,1.53,1.2,.19,2.64,.55,3.65-.55,1.93-2.11,3.77-4.29,5.64-6.46,.13-.15,.14-.41,.23-.67-.35-.38-.7-.75-1.19-1.27Zm-50.78,460.52c1.77,3.74,3.4,7.17,5.08,10.72,1.26-.54,2.27-.97,3.51-1.5-1.8-3.68-3.13-7.37-5.15-10.88-1.24,.6-2.23,1.08-3.43,1.67ZM7.47,180.76c1.04,1.7,2.19,3.14,2.82,4.77,.61,1.58,.69,3.37,1.06,5.39,1.94-1.27,3.71-2.43,5.46-3.58-.71-1.18-1.23-2.09-1.79-2.97-.19-.3-.52-.8-.72-.77-1.35,.19-1.57-.92-2.08-1.69-.61-.93-1.19-1.88-1.88-2.98-.99,.63-1.84,1.16-2.89,1.82Zm84.99,40.98c-.6-.1-.82-.18-1.03-.17-2.41,.16-2.84,.64-2.78,3,.01,.53,0,1.05,.01,1.58,.06,2.39,.13,4.78,.2,7.13h3.61v-11.55Zm-11.75-111.37c-3.29,3.39-6.49,6.7-9.88,10.19,1.17,.63,1.99,1.07,2.9,1.56,3.36-3.42,6.63-6.65,9.79-10.26-1.08-.57-1.86-.99-2.81-1.49Zm-63.74,47.49c-.92-1.46-1.67-2.64-2.53-4.01-2.78,1.72-5.41,3.36-8.21,5.09,1.05,1.42,1.91,2.58,2.88,3.89,2.66-1.68,5.12-3.23,7.86-4.97Zm31.43,47.44c-2.29,1.46-4.26,2.72-6.34,4.05,1.26,2.19,2.37,4.12,3.57,6.19,1.49-.69,2.82-1.31,4.14-1.93-.45-2.76-.88-5.32-1.37-8.31Zm79.06-50.8c1.81-1.22,3.62-1.94,5-3.49-1.56-1.96-3.05-3.82-4.62-5.8-1.68,1.08-3.18,2.04-4.86,3.12,1.53,2.11,2.94,4.04,4.48,6.17Zm-48.86,24.53c-1.71,1.11-3.3,2.14-5.03,3.25,1.37,2.05,2.55,3.83,3.82,5.72,2.13-1.48,4.01-2.78,6.05-4.2-1.66-1.63-3.13-3.08-4.84-4.77Zm-60.61-41.51c-2.33-2.3-4.54-4.48-6.9-6.81-1.17,1.3-2.15,2.37-3.22,3.56,2.53,2.21,4.87,4.26,7.29,6.38,1.02-1.12,1.86-2.05,2.83-3.13Zm109.71,74.36c.59,.49,.87,.74,1.17,.96q1.71,1.19,3.55,.02c1.97-1.24,3.94-2.48,5.9-3.73,.8-.51,1.58-1.04,2.46-1.62-.64-1.11-1.15-1.99-1.74-3.01-3.83,2.49-7.45,4.85-11.34,7.38Zm39.75-3.29c-1.72-.88-3.24-1.65-4.86-2.48-1.9,1.2-3.77,2.37-6.02,3.79,3.09,1.39,5.77,2.6,8.6,3.88,.8-1.83,1.51-3.45,2.28-5.19Zm-62.96-17.19c2.1-1.31,3.97-2.47,5.94-3.7-1.17-1.84-2.22-3.52-3.34-5.28-2.11,1.5-4.14,2.58-5.9,4.19,1.13,1.65,2.14,3.12,3.29,4.79Zm-5.05-22.8c-2.62,1.57-4.9,2.94-7.29,4.38,1.05,1.66,1.92,3.03,2.91,4.59,2.31-1.59,4.45-3.05,6.68-4.58-.79-1.51-1.47-2.81-2.3-4.38Zm13.98,3.45c-2.87,1.82-5.5,3.49-8.37,5.31,.83,1.29,1.57,2.43,2.4,3.71,2.98-2.03,5.72-3.9,8.58-5.85-.96-1.17-1.71-2.08-2.61-3.16Zm24.18,48.65c-1.8-1.2-3.33-2.24-4.88-3.26q-2.95-1.95-5.83,.03c-.17,.11-.25,.34-.5,.68,2.14,1.86,4.27,3.7,6.47,5.6,1.6-1.03,3.03-1.95,4.74-3.05Zm236.14,187.62c1.97-2.09,3.75-3.97,5.64-5.99-1.35-1.23-2.54-2.32-3.89-3.55-1.9,2.13-3.65,4.1-5.51,6.18,1.3,1.17,2.4,2.15,3.75,3.36ZM43.2,181.95c-2.86,1.77-5.59,3.45-8.52,5.27,.91,1.36,1.71,2.55,2.59,3.86,2.75-2.05,5.26-3.93,7.87-5.88-.7-1.17-1.26-2.12-1.94-3.25Zm45.6,56.13c-1.47-2.3-2.23-4.56-4.1-6.25-2.04,1.28-3.98,2.5-6.02,3.78,.53,.89,.88,1.64,1.38,2.26,.29,.36,.83,.75,1.24,.73,2.36-.1,4.72-.32,7.5-.53Zm296.76,95.68c-1.93,2.13-3.76,3.93-5.41,6.02,1.65,.7,9.55,.62,11.69-.08-2.09-1.97-4.08-3.86-6.29-5.95ZM69.61,167.25c3.48-2.06,6.74-3.99,10.15-6-.64-1.06-1.15-1.93-1.82-3.04-3.52,2.25-6.88,4.4-10.45,6.69,.8,.89,1.38,1.53,2.12,2.36Zm18.69,82.82c2.03-1.21,3.91-2.34,5.93-3.54-1.22-1.78-1.92-3.51-3.38-4.81-1.93,1.25-3.84,2.34-5.71,3.76,1.13,1.63,2.09,3.02,3.17,4.59Zm-.95-67.81c.48,1.48,.92,2.81,1.43,4.39,2.69-1.76,5.28-3.2,7.78-5.06-.94-1.36-1.73-2.52-2.64-3.84-2.3,1.58-4.39,3.01-6.57,4.51Zm47.04-47.1c-2.97,2.02-5.73,3.89-8.63,5.86,.83,1.05,1.51,1.91,2.3,2.91,2.91-1.87,5.65-3.63,8.53-5.48-.78-1.17-1.42-2.14-2.2-3.29Zm-93.54,42.71c-3.03,1.91-5.8,3.66-8.71,5.5,.75,1.11,1.37,2.01,2.06,3.03,2.97-1.78,5.75-3.49,8.55-5.3-.69-1.17-1.22-2.07-1.9-3.23Zm100.59-20.3c-2.13,1.39-4.21,2.76-6.35,4.16,1,1.44,1.34,3.02,3.07,3.6,2.12-1.54,4.5-2.72,6.69-4.62-1.19-1.1-2.17-2-3.41-3.13Zm242.5,184.33s-.18,.18-.16,.2c2.56,3.01,5.58,5.52,8.7,8.21,1.35-1.53,2.55-2.9,3.95-4.49-3.57-1-6.74-1.86-9.9-2.79-.88-.26-1.7-.74-2.59-1.13ZM34.81,130.55c1.5,1.55,2.96,3.06,4.56,4.73,1.43-1.59,2.65-2.96,4-4.46-1.7-1.49-3.02-3.07-4.89-4.16-1.21,1.28-2.33,2.47-3.67,3.9Zm323.33,204.76c-2.61-.82-4.82-1.53-7.03-2.19-1.89-.57-1.97-.51-3.07,1.72,1.84,1.72,3.72,3.48,5.71,5.35,1.49-1.65,2.78-3.08,4.4-4.87ZM83.27,196.76c2.18-1.42,4.06-2.63,6.1-3.95-.43-1.5-.84-2.9-1.33-4.59-2.54,1.68-4.83,3.2-7.25,4.81,.86,1.3,1.6,2.41,2.47,3.73Zm63.63,2.65c.69,1.12,1.26,2.04,1.9,3.09,2.88-1.84,5.54-3.55,8.38-5.37-.81-1.13-1.43-2.01-2.15-3.01-2.8,1.82-5.4,3.51-8.13,5.29Zm-52.65-9.54c1.98-.97,3.74-2.03,5.22-3.72-.83-1.22-1.61-2.36-2.46-3.61-2.46,1.55-4.71,2.97-7.28,4.6,1.74,1.06,3.13,1.9,4.52,2.74Zm-12.45,36.93c-2.2,1.37-4.14,2.58-6.21,3.88,.91,1.45,1.68,2.69,2.56,4.1,2.18-1.31,4.23-2.45,6.2-3.92-.88-1.4-1.62-2.58-2.54-4.05Zm91.48-45.36c.74-.48,1.59-1.04,2.56-1.67-1.67-2.55-3.13-4.95-4.82-7.1-1.89,.61-2.66,1.94-3.35,3.57,1.75,1.63,3.56,3.3,5.61,5.2Zm-94.89-5.09c2,2,3.73,3.74,5.48,5.46,.48,.47,1.09,1.11,1.69,.45,.34-.37,.39-1.23,.24-1.79-.53-2.02-1.19-4-1.84-5.99-.15-.45-.44-.85-.74-1.4-1.63,1.1-3.1,2.09-4.84,3.26Zm18.63-12.31c-2.49,1.57-4.8,3.03-7.27,4.58,.74,1.28,1.35,2.32,2.02,3.48,2.53-1.5,4.82-2.86,7.25-4.31-.69-1.3-1.28-2.4-2-3.75Zm5.52,8.41c2.4-1.53,4.54-2.89,6.66-4.26,.69-.45,.77-1.03,.29-1.7-3.29-.75-6.48-1.12-9.08,1.92,.65,1.23,1.31,2.48,2.13,4.04Zm.32-52.83c-1.3-3.32-3.02-4.73-7.58-6.24-.49,.83-1.01,1.7-1.69,2.85,2.98,.84,4.42,3.19,6.06,5.34,1.23-.74,2.24-1.35,3.22-1.94Zm231.31,215.25c3.24,.98,6.3,1.94,9.38,2.81,.38,.11,1.02-.15,1.33-.45,.46-.45,.74-1.08,1.29-1.95-3.82-1.14-7.43-2.21-11.19-3.33-.3,1.1-.54,1.93-.81,2.93ZM84.29,184.36c-2.23,1.55-4.22,2.93-6.36,4.41,.87,1.25,1.57,2.27,2.39,3.45,2.38-1.59,4.59-3.07,6.89-4.61-1.04-1.16-1.92-2.14-2.92-3.25Zm-56.29-34.54c-2.41,1.76-2.43,1.8-1.76,4.04,.92,3.1,1.84,6.2,2.78,9.29,.23,.76,.53,1.5,.87,2.45,1-.58,1.74-1.01,2.64-1.54-2.89-4.36-4.06-9.06-4.53-14.25Zm85.47,47.96c-1.87-2.72-3.36-5.27-5.25-7.67-1.17,.79-2.14,1.45-3.4,2.3,.99,1.25,1.64,2.68,2.76,3.31,1.07,.6,1.7,1.33,2.28,2.28,.29,.49,.68,.92,1.07,1.45,.88-.58,1.61-1.06,2.54-1.67Zm-27.47-79.51c-2.36,2.49-4.44,4.69-6.55,6.91q2.24,1.62,4.17,.44c1.15-.7,2.32-1.39,3.46-2.11,.6-.38,1.16-.81,1.84-1.28-1.01-1.37-1.85-2.51-2.93-3.97Zm316.34,253.02c1.86,1.95,3.49,3.65,5.23,5.48,1.43-1.41,2.66-2.6,3.86-3.82,.3-.31,.52-.7,.77-1.03-1.48-1.45-5.33-1.72-9.87-.63ZM166.58,176.52c-1.48,1.14-2.81,2.16-4.36,3.36,2.33,1.35,4.32,2.54,6.36,3.64,.38,.2,1.03,.17,1.44-.01,.66-.29,1.22-.8,2-1.34-1.12-1.21-2.11-2.32-3.13-3.38-.72-.75-1.48-1.45-2.31-2.26Zm258.86,222.21c2.36,2.77,5.71,5.63,7.27,6.19,.61-.75,1.25-1.53,1.97-2.4-2.42-2.11-4.66-4.05-7.06-6.14-.8,.87-1.45,1.57-2.17,2.35ZM122.49,157.69c-1.54-2.34-2.96-4.48-4.44-6.73-1.33,.71-2.37,1.26-3.6,1.92,1.59,2.43,3.09,4.71,4.64,7.08,1.26-.84,2.23-1.49,3.4-2.27Zm-18.25,20.17c-2.2,1.45-4.16,2.74-6.24,4.11,.99,1.36,1.79,2.48,2.66,3.66,2.09-1.45,4.07-2.6,5.87-4.12-.8-1.27-1.46-2.34-2.29-3.66ZM20.88,227.17c1.58,1.17,2.75,2.04,3.95,2.92,1.18-.74,2.2-1.36,3.19-2.02,.98-.64,1.93-1.31,2.98-2.03-1.23-1.86-3.07-1.87-4.55-1.97-2.17-.14-3.35,2-5.58,3.1Zm113.38-102.23c-.02-.17-.03-.35-.05-.52-1.54-.46-3.15-.76-4.61-1.42-2.09-.94-3.55-.29-4.96,1.55,1.32,1.25,2.65,2.51,4.15,3.93,1.8-1.17,3.63-2.36,5.47-3.55Zm-5.75,64c.98,1.13,1.69,1.94,2.45,2.82,2.27-1.43,4.49-2.51,5.81-4.77,.87-1.48,.96-1.43-.42-3.25-2.5,1.66-5.03,3.34-7.84,5.21Zm204.46,146.56c-1.41-.41-2.51-.73-3.68-1.07-.94,2.71-1.72,5.16-2.26,7.82,1.32,.39,2.42,.71,3.7,1.08,.77-2.67,1.46-5.09,2.25-7.84ZM134.65,194.97c2.14-1.41,4.1-2.7,6.11-4.03-.93-1.52-1.37-3.03-2.42-3.85-2.21,1.93-4.25,3.71-6.43,5.61,.84,.69,1.68,1.39,2.74,2.27Zm-21.87,43.17c-.84-1.59-1.87-1.51-2.83-.9-3.3,2.08-6.54,4.23-9.87,6.4,.21,.49,.33,.83,.49,1.15,.13,.27,.29,.52,.52,.92,4.03-2.61,7.79-5.04,11.7-7.56Zm-29.06-21.14c-1.61,.44-2.57,2.14-4.33,1.21-.2-.11-.79,.51-1.39,.92,1.09,1.71,2.11,3.32,3.12,4.9,2.6-1.36,3.72-2.2,4.77-3.58-.69-1.1-1.4-2.23-2.18-3.45Zm74.38,1.41c1.55-1.69,2.88-3.13,4.39-4.78-2.06-.95-3.81-1.76-5.55-2.57-1.43-.67-1.43-.68-2.73,.78,1.23,2.07,2.47,4.17,3.89,6.57Zm-31.88-96.56c-1.1-.49-1.84-.8-2.56-1.16-2.55-1.26-5.12-2.47-7.63-3.81-2.31-1.24-4.53-2.65-6.83-3.92-.77-.43-1.65-.66-2.48-.98,2.61,2.29,5.31,4.29,8.07,6.22,.52,.36,1.28,.36,1.9,.62,1.01,.43,2.09,.8,2.96,1.43,1.43,1.04,2.73,2.27,4.13,3.46,.81-.62,1.45-1.11,2.45-1.87ZM414.94,383.32c1.8,1.92,3.4,3.39,5.27,4.95,1.59-1.71,3.04-3.27,4.47-4.8-.73-.97-1.43-1.45-2.45-1.29-2.27,.36-4.53,.71-7.29,1.15ZM69.11,141.13c1.47,2.49,2.77,4.71,4.15,7.04,1.16-.68,2.08-1.23,3.17-1.87-1.41-2.47-2.69-4.7-4.06-7.09-1.13,.67-2.07,1.22-3.26,1.93Zm173.24,183.86c-1.42,1.47-2.58,2.68-3.95,4.1,2.96,.83,5.55,1.58,8.15,2.29,.82,.23,1.44-.05,1.8-1.01-1.97-1.76-3.91-3.5-6.01-5.37Zm190.62,37.96c1.24,2,2.89,3.16,4.34,4.48,.29,.27,1.31,.19,1.63-.11,1.47-1.41,2.9-2.88,4.3-4.91-3.65,.19-6.82,.35-10.26,.53Zm-84.7-15.32c1.03,.9,1.84,1.61,2.77,2.42,1.89-2.11,3.62-4.03,5.46-6.09-1.02-.87-1.85-1.58-2.78-2.38-1.84,2.04-3.54,3.92-5.45,6.04ZM81.72,168.31c-2.24,1.44-4.46,2.86-6.92,4.44,1.12,1.13,1.99,2,2.9,2.91,1.18-.78,2.18-1.44,3.18-2.1q2.47-1.65,1.38-4.49c-.08-.19-.25-.35-.54-.75Zm346,201.39c-.08,.18-.16,.37-.23,.55,1.46,1.33,2.86,2.74,4.41,3.95,.62,.48,1.59,.51,2.21-.3,.93-1.23,1.82-2.49,3.05-4.16-3.47-.09-6.45-.05-9.43-.04ZM100.67,194.39c.92-.72,1.77-1.39,2.65-2.08-1.1-1.81-1.94-3.54-3.4-4.97-1.59,1.13-3.07,2.19-4.81,3.43,1.99,1.3,3.72,2.42,5.56,3.62Zm247.39,137.93c-4.09-1.14-8.03-2.23-12.15-3.37-.22,.71-.41,1.31-.69,2.18,3.58,.98,6.97,1.87,10.34,2.84,1.31,.38,2-.11,2.5-1.65ZM82.6,226.3c1.67,2.59,3,5.03,4.97,7.38,.47-2.47,.25-8.75-.34-10.23-1.48,.91-2.92,1.8-4.63,2.85Zm1.99,18.33c2.11-1.47,4.12-2.44,6-4.14-.81-.6-1.38-1.38-1.95-1.38-2.35,.02-4.71,.2-7.41,.58,1.23,1.8,2.22,3.26,3.36,4.94Zm-20.25-46.54c-2.25,1.54-4.31,2.96-6.68,4.59,1.06,.68,1.75,1.24,2.53,1.58,.49,.21,1.25,.32,1.66,.08,1.61-.92,3.12-2,4.83-3.13-.85-1.13-1.54-2.06-2.35-3.14Zm-42.99,6c1.02,1.36,1.88,2.53,2.86,3.85,1.65-1.2,3.09-2.24,4.66-3.37-.99-1.42-1.83-2.62-2.68-3.85-.44,.21-.74,.29-.97,.46-1.21,.89-2.4,1.79-3.88,2.91Zm77.9-8.53c-1.55-1.03-2.71-1.82-3.88-2.58-1.94-1.25-1.96-1.24-3.77,.73,.57,1.65,1.16,3.38,1.87,5.43,1.96-1.21,3.65-2.26,5.78-3.58Zm48.72-42.28c-2.02,1.05-3.7,2.29-5.51,3.74,1.23,1.15,2.26,2.11,3.44,3.2,1.45-.96,2.81-1.85,4.27-2.82-.75-1.41-1.42-2.66-2.2-4.13Zm270.71,223.03c-1.69-2.25-3.31-3.57-4.68-3.85,0,1.56-.08,3.13,.02,4.69,.1,1.5-.37,3.09,.47,4.55,1.4-1.03,2.74-2.75,4.19-5.39ZM140.34,168.59c-2.41-1.39-4.43-2.54-6.84-3.93-.14,2.96,.09,5.37,.64,8.05,2.08-1.38,3.92-2.6,6.2-4.12Zm216.9,174.61c1.85-2.11,3.55-4.04,5.46-6.23-1.11-.48-1.83-.88-2.59-1.07-.43-.11-1.12-.03-1.4,.26-1.45,1.47-2.81,3.02-4.44,4.8,.65,.49,1.07,.81,1.48,1.12,.41,.31,.82,.62,1.48,1.12Zm57.94,27.52c.59,1.2,3.14,3.98,3.88,4.2,.38,.11,.89,.06,1.25-.11,.76-.35,3.4-3.89,3.71-4.85-2.96,.02-5.88,.14-8.84,.76ZM94.74,235.47c-.05,1.32,.8,1.21,1.53,1.18,4.71-.17,9.42-.36,14.13-.56,.19,0,.38-.16,.61-.26-.19-1.27-.99-1.55-2.08-1.48-4.26,.26-8.51,.5-12.77,.77-.49,.03-.97,.23-1.43,.35Zm326.74,128.26c-.06,.2-.13,.39-.19,.59,1.15,1.17,2.31,2.33,3.46,3.5,.57,.58,1.27,.69,1.79,.1,1.25-1.43,2.66-2.75,3.66-4.81-3.11,.22-5.91,.42-8.72,.62ZM141.57,207.05c2.25-1.43,4.24-2.69,6.37-4.04-.68-1.1-1.24-2.01-1.9-3.08-2.17,1.43-4.12,2.71-6.15,4.05,.61,1.11,1.06,1.95,1.67,3.07Zm-87.74-4.98c-5.17,2.8-4.73,2.21-3.86,6.74,0,.05,.1,.09,.32,.28,1.78-1.02,3.63-2.07,5.67-3.24-.76-1.33-1.4-2.48-2.13-3.77Zm314.22,138.29c1.65,1.47,3.26,2.89,4.81,4.27,1.27-1.18,2.4-2.22,3.51-3.25-1.57-1.87-3.75-1.78-5.63-2.4-1.16-.38-2.04-.11-2.69,1.38Zm21.6,31.65c-.06,.17-.13,.34-.19,.51,1.3,1.19,2.56,2.42,3.92,3.53,.28,.23,1.14,.18,1.39-.07,1.32-1.36,2.54-2.82,4.1-4.6-3.49-.09-6.37,.11-9.22,.63ZM24.53,152.82l-.27-.73c-2.88,.67-6.04-.93-8.98,1.26,.87,1.4,1.61,2.59,2.46,3.96,2.38-1.57,4.58-3.03,6.79-4.49Zm322.44,194.88c-1.75-1.56-3.28-2.92-4.95-4.4-.74,.99-1.37,1.71-1.87,2.52-.44,.71-.32,1.46,.41,1.96,1.28,.87,2.58,1.69,3.97,2.6,.83-.91,1.52-1.66,2.44-2.68ZM118.91,150.54c1.5,2.28,2.88,4.39,4.37,6.66,1.03-.69,1.94-1.3,2.96-1.97-1.6-2.14-3.07-4.11-4.58-6.13-1,.53-1.78,.93-2.75,1.44Zm-19.26,45.88c1.13,2.63,2.46,5.06,4.21,7.48,1.31-.86,2.48-1.63,3.9-2.57-2.67-1.99-5.13-3.72-8.11-4.91Zm298.67,173.85c.07-.16,.14-.33,.21-.49-1.39-1.2-2.74-2.44-4.19-3.56-.31-.24-1.16-.24-1.42,0-1.29,1.18-2.63,2.36-3.57,4.05h8.97ZM109.32,165.06c-1.18-2.1-2.27-4.16-3.67-6.12-.76,.43-1.29,.71-1.79,1.03-.55,.35-1.06,.74-1.56,1.1,1.84,4.14,2.75,4.67,7.02,4Zm318.22,203.18c.09,.19,.17,.38,.26,.58,2.75-.19,5.51-.38,8.37-.57-1.6-1.75-2.97-3.26-4.5-4.94-1.5,1.79-2.81,3.36-4.13,4.93Zm-25.61,1.24c3.4,.26,6.17,.29,9.52-.46-1.65-1.49-2.85-2.69-4.19-3.69-.37-.27-1.41-.16-1.77,.17-1.17,1.1-2.17,2.39-3.56,3.98ZM77.53,178.6c-1.06-1.32-1.97-2.47-2.94-3.68-1.49,1.01-2.71,1.84-4.08,2.76,.88,1.29,1.65,2.44,2.56,3.77,1.65-1.06,3.12-2,4.46-2.86Zm340.45,173.75c-.17-.05-.35-.1-.52-.15-1.09,1.23-2.18,2.46-3.28,3.69-.56,.63-.8,1.45-.23,2.04,1.15,1.19,2.2,2.57,4.03,3.29v-8.86Zm-6.68-6.09c-1.38,.76-2.92,2.67-4.26,5.22,1.3,1.44,2.73,2.78,4.79,4.23-.19-3.47-.35-6.42-.52-9.45Zm1.76,37.94c-.18-.08-.36-.17-.53-.25-1.21,1.69-2.44,3.37-3.6,5.09-.17,.25-.18,.85,0,1.03,1.15,1.2,2.25,2.5,4.14,3.27v-9.15ZM17.54,188.07c-1.77,1.12-3.28,2.1-4.8,3.04-2.06,1.27-2.12,1.41-1.34,4.21,2.57-1.63,5.08-3.22,7.73-4.89-.55-.82-1-1.48-1.59-2.36Zm397.26,196.54c-.15,.08-.29,.17-.44,.25,.02,2.94,.16,5.86,.67,8.75,.16,.05,.33,.09,.49,.14,1.2-1.65,2.41-3.3,3.7-5.07-1.61-1.48-3.01-2.78-4.42-4.07ZM182.52,191.03l.53-.36c-2.19-3.32-4.39-6.64-6.67-10.09-1,.67-1.77,1.17-2.8,1.85,3.14,3.02,6.04,5.81,8.93,8.6ZM34.48,122.77c-1.18,1.29-2.21,2.42-3.36,3.69,1.06,1.15,2.01,2.16,3.11,3.35,1.28-1.38,2.43-2.61,3.68-3.96-1.22-1.1-2.26-2.03-3.43-3.08Zm376.96,236.93c-.16-.09-.33-.17-.49-.26-1.19,1.46-2.38,2.92-3.54,4.34,2.19,2.65,3.28,3.5,4.97,3.82-.04-2.71-.58-5.3-.94-7.9ZM138.99,165.88c1.91,1.86,2.12,2.01,3.16,1.4,1.78-1.05,3.51-2.21,5.54-3.49-.83-.86-1.48-1.52-2.15-2.22-2.3,1.51-4.34,2.86-6.55,4.32Zm320.8,208.95c.57-.81,.93-1.31,1.34-1.89-1.3-1.2-2.44-2.27-3.61-3.31-1.14-1.03-2.3-2.03-3.53-3.1-.39,.51-.65,.79-.82,1.1-.17,.31-.27,.66-.43,1.06,2.31,2.01,4.55,3.96,7.05,6.14Zm-19.43-5.72c-.07,.17-.14,.35-.21,.52,1.68,1.47,3.36,2.95,5.13,4.5,1.14-1.71,2.38-3.06,1.9-5.02h-6.83ZM121.79,214.58c1.1-.72,2.05-1.35,3.27-2.16-2.55-1.69-4.78-3.18-7.03-4.64-.61-.39-1.13-.3-1.46,.71,1.66,1.94,3.39,3.96,5.21,6.09Zm-90.04,9.93c-.13,.15-.25,.31-.38,.46,.93,1.67,1.86,3.33,2.78,4.97,2.32-.9,4.1-2.17,4.88-3.48-2.44-.66-4.86-1.31-7.28-1.95Zm380.76,117.66c.17,.08,.34,.15,.51,.23,1.31-1.55,2.63-3.11,3.95-4.67-1.63-1.91-3.55-1.92-5.71-1.99,.46,2.37,.86,4.41,1.25,6.44Zm40.36,23.22c-1.96-1.77-3.83-3.46-5.66-5.13-.91,.41-1.46,.83-.82,1.75,.6,.86,1.3,1.66,1.76,2.59,.45,.9,.64,1.93,.95,2.9,1.65,.01,2.91-.41,3.77-2.12ZM169.08,238.9c-.9-1.54-1.56-2.71-2.25-3.85-.67-1.11-1.37-2.19-2.19-3.51-1.03,1.36-1.82,2.41-2.67,3.53,2.15,1.65,3.97,3.43,7.1,3.84Zm-76.2,17.34c.81-2.32,1.04-6.98,.54-8.16-1.46,.9-2.91,1.8-4.53,2.8,1.11,1.38,2.09,2.59,3.04,3.82,.31,.4,.54,.87,.95,1.55Zm292.29,114.59c.06-.21,.13-.42,.19-.62-1.56-1.41-2.99-2.98-4.93-4.18-1.06,1.66-1.63,3.21-1.7,5.29,2.25-.17,4.35-.33,6.44-.49Zm55.48-3.23c.08,.16,.16,.33,.25,.49,2.11-.04,4.22,.11,6.42-.34-.08-2.24-1.4-3.39-2.79-4.71-1.37,1.61-2.62,3.09-3.88,4.56Zm-116.94-17.97c2.48,3.09,2.74,3.27,6.69,4.61,2.04,.69,2.09,.67,3.19-1.69-3.14-.93-6.24-1.84-9.88-2.92Zm119.46,10.6c-.58-1.6-1.11-3.21-1.74-4.79-.39-.96-1.06-1.18-1.72-.5-1.33,1.36-2.76,2.65-3.94,4.67,2.73-.57,5.12-.84,7.4,.62Zm-269.73-55.68c1.91,1.9,3.43,3.41,5.16,5.13,1.01-1.17,1.8-2.08,2.5-2.9-1.88-2.99-4.49-2.57-7.66-2.23Zm240.44,93.37c-.22-.09-.44-.18-.65-.28-1.36,1.54-2.72,3.08-4.15,4.7,1.54,1.5,3.15,1.99,5.26,1.82-.16-2.15-.3-4.2-.45-6.24Zm-10.65-13.05c1.46,1.36,2.51,2.4,3.64,3.34,.26,.22,1.03,.27,1.19,.08,1.16-1.37,2.45-2.68,3.13-4.7-2.67,.43-5.06,.81-7.96,1.28ZM127.17,144.54c-.77-1.01-1.44-1.9-2.17-2.85-1.66,.99-3.11,1.86-4.73,2.83,.77,1.07,1.4,1.96,2.16,3,1.59-1,3.03-1.9,4.74-2.98ZM415.36,404.43c1.88-.83,3.4-1.51,5.27-2.34-1.9-1.72-3.35-3.26-5.47-4.63-.49,2.5,.34,4.54,.19,6.98Zm-29.65-32.45c-2.53-.13-4.53,.01-6.58,.36,.1,2.01,.76,3.51,2.04,4.97,1.5-1.7,3.1-3.11,4.54-5.33Zm30.47,9.7c.08,.14,.16,.29,.25,.43,2.26-.45,4.63-.39,7.05-1.39-1.25-1.52-2.18-2.92-4.02-3.59-1.13,1.57-2.2,3.06-3.28,4.55ZM90.39,161.57c-.73-1.53-1.35-2.82-2.06-4.29-1.33,.81-2.38,1.44-3.6,2.19,.83,1.49,1.56,2.8,2.37,4.24,1.2-.78,2.12-1.38,3.29-2.15ZM24.51,239.52c-.52-.09-.7-.18-.78-.13-4.92,3.2-9.83,6.4-14.72,9.64-.22,.15-.27,.57-.4,.86,5.7-2.83,10.78-6.38,15.9-10.37Zm61.77-75.29c-.86-1.51-1.59-2.79-2.43-4.24-1.04,.6-1.92,1.1-2.91,1.67,.54,1.69,1.03,3.22,1.59,4.96,1.33-.85,2.39-1.52,3.75-2.39Zm2.57,71.63c.95,2.99,2.98,4.87,4.31,7.2,.16-.06,.32-.13,.47-.19-.28-2.46-.55-4.92-.85-7.55-1.39,.19-2.48,.34-3.93,.55Zm-4.84-64.41c1.71-1.19,3.03-2.11,4.51-3.14-.67-1.14-1.25-2.11-1.88-3.2-1.4,.93-2.57,1.69-3.82,2.52,.39,1.24,.73,2.35,1.2,3.82Zm328.57,209.73l.51-.21c-.13-2.42,.02-4.86-.68-7.65-1.54,1.57-2.75,2.81-4.06,4.15,1.56,1.37,2.9,2.53,4.23,3.7ZM102.63,153.6c-.78-1.3-1.38-2.31-2.12-3.53-1.28,.8-2.36,1.48-3.52,2.21,.8,1.33,1.45,2.4,2.18,3.62,1.21-.8,2.24-1.49,3.46-2.31Zm24.21,2.5c-1.04,.68-1.94,1.28-3,1.98,1.03,1.5,1.93,2.81,2.99,4.35,.9-1.25,1.59-2.2,2.33-3.22-.8-1.07-1.51-2.02-2.32-3.11Zm-46.82-5.11c.79,1.37,1.4,2.43,2.07,3.58,1.33-.82,2.39-1.47,3.57-2.2-.79-1.29-1.43-2.33-2.14-3.48-1.24,.75-2.26,1.35-3.5,2.09Zm34.02,47.63c-.91,.6-1.72,1.14-2.53,1.68,1.45,2.23,4.79,4.63,6.97,4.99-1.49-2.24-2.89-4.34-4.44-6.67Zm-12.41-38.44c1.26-.77,2.35-1.45,3.59-2.2-.78-1.26-1.43-2.29-2.17-3.48-1.22,.84-2.24,1.53-3.38,2.31,.68,1.17,1.26,2.17,1.96,3.37Zm-9.57-16.46c.72,1.23,1.34,2.3,2.08,3.55,1.21-.77,2.25-1.42,3.45-2.18-.77-1.25-1.42-2.29-2.15-3.47-1.2,.75-2.2,1.37-3.38,2.1Zm-2.84,13.03c.71,1.52,1.31,2.81,2.01,4.31,1.21-.81,2.12-1.41,3.18-2.11-.76-1.39-1.42-2.6-2.16-3.94-1.03,.6-1.86,1.08-3.03,1.75Zm12.02,4.76c-1.28,.82-2.26,1.45-3.34,2.14,.7,1.28,1.3,2.36,1.98,3.61,1.24-.77,2.29-1.41,3.47-2.14-.72-1.24-1.35-2.31-2.11-3.62Zm19.79-23.19c-1.29,.73-2.41,1.36-3.73,2.11,.89,1.21,1.61,2.2,2.41,3.28,1.2-.71,2.2-1.31,3.31-1.97-.7-1.2-1.29-2.21-1.99-3.42Zm-85.23,29.74c1.46-1.03,2.58-1.82,3.78-2.67-.68-1.06-1.22-1.9-1.82-2.84-1.39,.72-2.55,1.32-3.85,2,.64,1.2,1.19,2.22,1.89,3.52Zm-18.79,53.6c1.21,1.94,2.13,3.41,3.09,4.95,1.55-1.03,3-1.71,4.11-3.24-2.39-.57-4.52-1.07-7.2-1.71Zm50.44,8.4c4.31,2.38,5.26,1.98,6.46,0-.7-.84-1.43-1.73-2.22-2.68-1.46,.92-2.72,1.72-4.24,2.68Zm13.63-85.35c-1.25,.74-2.25,1.33-3.42,2.03,.74,1.23,1.37,2.27,2.05,3.39,1.23-.78,2.22-1.4,3.34-2.11-.68-1.14-1.25-2.09-1.97-3.3Zm17,1.19c-1.34,.89-2.37,1.57-3.48,2.3,.71,1.16,1.29,2.09,1.95,3.16,1.23-.76,2.28-1.42,3.44-2.13-.66-1.14-1.21-2.09-1.92-3.33Zm-5.04,8.59c1.02,1.28,1.07,2.9,2.58,3.75,.9-.62,1.74-1.19,2.69-1.85-.79-1.33-1.46-2.45-2.19-3.67-1.08,.62-1.97,1.13-3.08,1.77Zm10.4-17.73c-1.21,.76-2.13,1.34-3.16,1.99,.78,1.24,1.43,2.28,2.16,3.44,1.13-.69,2.05-1.26,3.14-1.92-.74-1.21-1.38-2.26-2.14-3.51Zm-3.31-14.39c.86,1.16,1.55,2.09,2.32,3.15,1.14-.73,2.12-1.35,3.27-2.09-.81-1.16-1.47-2.11-2.19-3.13-1.17,.71-2.13,1.29-3.41,2.07Zm-1.68,22.28c1.16-.74,2.07-1.32,3.11-1.98-.79-1.25-1.45-2.28-2.17-3.43-1.13,.71-2.04,1.28-3.05,1.91,.74,1.23,1.34,2.23,2.1,3.5Zm19.02,5.51c-.74-1.12-1.38-2.07-2.1-3.15-1.24,.68-2.26,1.24-3.5,1.92,.76,1.12,1.4,2.06,2.1,3.1,1.25-.66,2.28-1.21,3.5-1.86Zm-34.99,5.29c.68,1.19,1.19,2.08,1.78,3.11,1.3-.77,2.43-1.43,3.72-2.2-.69-1.13-1.25-2.04-1.9-3.1-1.27,.77-2.33,1.41-3.6,2.18Zm24.48-3.48c-1.14,.8-2.03,1.42-3.03,2.13,.78,1.22,1.45,2.25,2.18,3.39,1.09-.67,1.96-1.2,2.99-1.83-.71-1.23-1.34-2.3-2.14-3.69Zm-19.03-23.32c-.82-1.27-1.44-2.23-2.13-3.31-1.21,.8-2.17,1.43-3.24,2.14,.78,1.21,1.4,2.18,2.06,3.19,1.19-.73,2.13-1.3,3.32-2.02Zm23.37,19.43c1.27-.68,2.3-1.24,3.51-1.89-.74-1.13-1.38-2.1-2.12-3.24-1.15,.69-2.13,1.28-3.21,1.92,.64,1.13,1.15,2.02,1.82,3.2Zm-22.95-18.56c-1.18,.73-2.22,1.38-3.39,2.11,.75,1.16,1.37,2.13,2.06,3.21,1.21-.77,2.19-1.4,3.27-2.09-.69-1.16-1.25-2.1-1.93-3.23Zm8.22,33.7c-.62-1.19-1.15-2.21-1.76-3.36-1.14,.75-2.12,1.39-3.26,2.13,.56,1.14,1.05,2.14,1.6,3.27,1.2-.71,2.14-1.28,3.42-2.04Zm-5.76-29.6c-1.26,.75-2.28,1.35-3.43,2.03,.65,1.12,1.19,2.06,1.83,3.17,1.23-.75,2.28-1.39,3.41-2.07-.63-1.09-1.15-1.98-1.82-3.13Zm2.33,4.01c-1.23,.75-2.27,1.38-3.42,2.08,.66,1.13,1.2,2.07,1.84,3.17,1.22-.75,2.27-1.39,3.43-2.1-.65-1.1-1.2-2.03-1.85-3.14Zm12.12,9.66c.79,1.25,1.4,2.23,2.12,3.36,1.15-.81,2.08-1.47,3.08-2.17-.71-1.15-1.27-2.07-1.91-3.1-1.15,.67-2.09,1.22-3.29,1.91Zm-20.88,1.12c.75,1.24,1.38,2.29,2.11,3.51,1.12-.74,2.06-1.37,3.05-2.02-.76-1.22-1.37-2.21-2.09-3.36-1.1,.67-2.01,1.23-3.07,1.88Zm20.47-1.97c1.17-.72,2.15-1.33,3.24-2.01-.73-1.18-1.35-2.17-2.04-3.29-1.16,.7-2.09,1.27-3.19,1.94,.7,1.19,1.29,2.18,1.98,3.36Zm-7.42,16.29c1.22-.78,2.2-1.41,3.32-2.12-.71-1.17-1.31-2.15-2-3.28-1.13,.73-2.03,1.32-3.07,1.99,.6,1.16,1.1,2.13,1.75,3.41Zm-79.16-18.69c1.13-1.28,1.95-2.21,2.74-3.11-.82-.95-1.52-1.76-2.36-2.73-1.09,1.23-1.95,2.19-2.65,2.99,.8,1.01,1.44,1.81,2.27,2.85Zm60.52,6.6c-.72-1.27-1.3-2.3-1.96-3.47-1.11,.65-2.05,1.2-3.11,1.83,.73,1.23,1.33,2.24,2.04,3.43,1.03-.61,1.91-1.12,3.04-1.79Zm25.69-2.93c-1.2,.75-2.11,1.33-3.15,1.99,.81,1.25,1.47,2.29,2.2,3.41,1.07-.72,1.92-1.29,2.94-1.98-.66-1.14-1.24-2.14-1.98-3.42Zm-8.78-23.78c-.74-1.23-1.34-2.22-2.02-3.35-1.18,.72-2.16,1.33-3.3,2.03,.79,1.09,1.47,2.03,2.27,3.13,1.02-.61,1.89-1.13,3.05-1.81Zm8.6,12.35c.74,1.22,1.38,2.27,2.14,3.51,1.07-.66,1.98-1.22,3.06-1.88-.79-1.21-1.47-2.25-2.22-3.4-1.06,.63-1.93,1.15-2.97,1.78Zm-5.45,9.21c.81,1.25,1.43,2.21,2.11,3.28,1.12-.72,2.02-1.3,2.99-1.93-.69-1.18-1.25-2.12-1.91-3.24-1.08,.64-2,1.18-3.2,1.89Zm-20.52-5.48c-.78-1.25-1.36-2.17-2.01-3.21-1.13,.67-2.07,1.23-3.19,1.89,.7,1.16,1.3,2.14,1.97,3.25,1.13-.68,2.07-1.24,3.23-1.93Zm31.65-1.27c-1.16,.73-2.02,1.27-3.06,1.93,.74,1.18,1.39,2.2,2.09,3.33,1.15-.7,2.09-1.26,3.12-1.89-.74-1.15-1.38-2.14-2.16-3.36Zm-.24,16.03c1.15-.88,2.07-1.59,3.16-2.44-.64-.95-1.26-1.89-1.97-2.94-1.16,.81-2.09,1.46-3.11,2.18,.7,1.17,1.26,2.11,1.92,3.2Zm287.2,190.22c.11-.21,.21-.41,.32-.62-1.2-.8-2.05-2.21-3.6-2.34-2.12-.18-4.26-.04-6.4-.04-.02,.1-.04,.2-.07,.3,3.25,.9,6.5,1.81,9.75,2.71ZM81,134.03c.72,1.13,1.33,2.1,2.03,3.19,1.14-.73,2.04-1.31,3.04-1.94-.7-1.18-1.26-2.12-1.93-3.24-1.13,.72-2.04,1.3-3.14,1.99Zm44.44,83.27c1.13-.78,2.19-1.5,3.46-2.37-1.18-.75-2.05-1.3-3.02-1.91-1.07,.73-2.07,1.41-3.3,2.24,1.1,.78,1.93,1.38,2.86,2.04Zm-34.26-85.02c1.1-.7,2.06-1.32,3.12-1.99-.74-1.18-1.31-2.11-1.93-3.1-.68,.35-1.16,.56-1.59,.84-.48,.31-.92,.69-1.5,1.13,.65,1.07,1.22,2.01,1.9,3.13Zm5.47,2.15c-.67-1.13-1.25-2.1-1.89-3.19-1.14,.68-2.06,1.23-3.14,1.87,.68,1.14,1.23,2.06,1.88,3.15,1.1-.64,2.03-1.19,3.14-1.84Zm-5.44,9.78c-1.12,.72-1.96,1.26-2.92,1.87,.78,1.22,1.44,2.26,2.18,3.4,1.05-.65,1.89-1.18,2.81-1.75-.73-1.23-1.32-2.24-2.07-3.52Zm-7.32,3.33c1.15-.72,2.05-1.28,3.05-1.91-.71-1.16-1.28-2.08-1.95-3.18-1.09,.64-2,1.18-3.03,1.79,.66,1.12,1.21,2.07,1.94,3.3Zm5.64-24.44c-1.03,.66-1.84,1.18-2.79,1.8,.72,1.13,1.34,2.12,2.04,3.22,1.11-.69,2.02-1.25,3.06-1.89-.82-1.11-1.48-2.01-2.31-3.13Zm-8.96,20.72c-.63-1.05-1.15-1.92-1.77-2.96-1.16,.72-2.15,1.33-3.24,1.99,.6,1.05,1.1,1.93,1.68,2.96,1.22-.73,2.22-1.33,3.33-2Zm-13.66-6.95c.67,1.22,1.21,2.22,1.83,3.35,1.11-.68,1.98-1.22,3.03-1.86-.62-1.13-1.18-2.15-1.84-3.34-1.02,.63-1.88,1.16-3.02,1.85Zm26.25-10.3c.77,1.23,1.38,2.2,2.06,3.29,1.12-.71,1.98-1.25,2.99-1.88-.75-1.15-1.38-2.11-2.06-3.16-1.06,.62-1.89,1.11-2.99,1.76Zm2.7,13.7c1.17-.72,2.08-1.28,3.15-1.93-.7-1.12-1.27-2.03-1.89-3.03-1.14,.66-2.07,1.21-3.11,1.82,.66,1.12,1.17,2,1.85,3.14Zm19.94-.17c-.81-1.28-1.44-2.28-2.19-3.47-.93,.56-1.78,1.07-2.8,1.68,.84,1.2,1.53,2.21,2.28,3.29,.98-.54,1.75-.97,2.7-1.49Zm42.21,37.32c.94,.67,1.53,1.29,2.43,.75,1.57-.95,3.12-1.95,4.72-2.95-1.27-1.4-1.29-1.44-2.27-.85-1.53,.91-3.02,1.89-4.87,3.05Zm-41.58-36.56c-1.07,.6-1.89,1.07-2.9,1.64,.84,1.17,1.54,2.16,2.32,3.25,1.07-.6,1.93-1.07,2.95-1.64-.88-1.2-1.56-2.15-2.37-3.25Zm-27.59,15.01c1.14-.68,2.01-1.19,3.04-1.81-.68-1.18-1.25-2.15-1.88-3.24-1.13,.74-2.03,1.32-3,1.96,.66,1.11,1.18,1.99,1.84,3.09Zm9.88-27c-1.12,.7-2.02,1.26-3.05,1.9,.68,1.15,1.23,2.08,1.89,3.18,1.13-.7,2.04-1.26,3.07-1.9-.69-1.14-1.25-2.07-1.92-3.17Zm-9.38,38.9c1.05-.7,1.94-1.29,2.92-1.94-.53-1.17-.98-2.16-1.51-3.33-1.13,.74-2.09,1.37-3.18,2.08,.62,1.11,1.15,2.06,1.78,3.19Zm1.43-24.41c-.72-1.18-1.28-2.11-1.93-3.19-1.08,.64-1.95,1.16-2.99,1.78,.72,1.14,1.33,2.12,2,3.2,1.02-.62,1.83-1.12,2.92-1.79Zm.19,6.96c.62,1.16,1.16,2.16,1.76,3.28,1.09-.66,1.95-1.18,2.97-1.79-.72-1.18-1.32-2.14-1.96-3.18-1.03,.63-1.83,1.12-2.77,1.69Zm-10.77-15.78c-1,.6-1.91,1.15-2.96,1.78,.7,1.15,1.27,2.08,1.96,3.2,1.07-.7,1.96-1.27,2.94-1.91-.7-1.11-1.25-1.99-1.93-3.08Zm3.3,3.52c.68,1.1,1.23,2.01,1.86,3.03,1.11-.67,1.98-1.19,3.02-1.81-.63-1.06-1.17-1.99-1.82-3.08-1.09,.66-2,1.22-3.07,1.86Zm329.04,193.63c1.7,1.37,3.21,2.61,4.73,3.82,.82,.65,1.35,.41,1.68-.68-1.37-1.23-2.76-2.49-4.15-3.75-.87-.79-1.46-.31-2.26,.61Zm63.02-29.01c-.24-.01-.48-.03-.72-.04-.89,3.16-2.89,5.93-2.87,9.42,1.56-2.73,2.9-5.55,4.16-8.4,.09-.2-.37-.65-.57-.98Zm1.69,.97c-1.42,3.02-2.81,5.94-4.19,8.87,.15,.08,.3,.16,.45,.24,1.82-2.68,3.64-5.36,5.54-8.15-.7-.37-1.15-.61-1.81-.96ZM143.83,170.57c.39,2.04,1.43,3.63,2.74,5.27,.93-.64,1.75-1.21,2.89-1.99-2.09-1.22-3.86-2.25-5.64-3.28Zm-122.31-28.69c-1.05,1.19-1.74,1.97-2.52,2.84,1.51,1.4,2.79,2.59,4.07,3.78,.13-.08,.26-.16,.39-.24-.59-1.95-1.18-3.9-1.94-6.38Zm78.29-3.99c1.12-.71,2.08-1.32,3.15-1.99-.67-1.08-1.21-1.93-1.83-2.92-1.13,.68-2.05,1.23-3.08,1.85,.59,1.03,1.07,1.86,1.76,3.06Zm-6.91-17.96c-2.06-1.07-3.48-2.53-5.56-2.77-.12-.01-.27,.32-.51,.61,.96,1.29,1.92,2.59,2.97,4.02,1.03-.62,1.89-1.14,3.1-1.86Zm70.78,51.68c-1.48-2.23-2.83-4.53-4.66-6.6-.86,.65-1.48,1.12-2.16,1.63,2.4,1.75,4.61,3.36,6.82,4.97Zm-84.04-31.25c.67,1.13,1.19,1.99,1.8,3.03,1.08-.66,1.95-1.19,2.99-1.83-.66-1.06-1.22-1.97-1.84-2.97-1.04,.62-1.86,1.11-2.96,1.77Zm268.57,212.76c.75-.82,1.38-1.52,2.13-2.34-.93-.83-1.74-1.56-2.7-2.41-.79,.88-1.47,1.63-2.31,2.58,.95,.72,1.77,1.34,2.88,2.18ZM102.02,132.49c.62,1.04,1.14,1.91,1.78,2.97,1.06-.68,1.96-1.26,2.94-1.89-.72-1.05-1.29-1.89-1.91-2.8-1.05,.64-1.85,1.14-2.81,1.73Zm-2.52-4.11c.77,1.24,1.34,2.17,2,3.23,1-.6,1.81-1.08,2.81-1.68-.79-1.12-1.46-2.06-2.21-3.13-.89,.54-1.63,.99-2.6,1.58Zm342.45,233.15c-2.27-2.39-4.75-1.04-7.12-.93-.55,.03-1.05,.45-.97,1.38,2.75-.15,5.42-.3,8.09-.45ZM78.81,157.66c.64,1.09,1.18,2.02,1.79,3.07,1.02-.61,1.83-1.09,2.79-1.67-.62-1.1-1.14-2.02-1.75-3.09-1.05,.63-1.86,1.11-2.83,1.69Zm-.23-31.6c-1.61,1.69-3.18,3.34-5.02,5.28,2.3-.71,5.75-2.87,6.93-4.23-.59-.33-1.17-.64-1.91-1.05Zm255.43,205.7c-1.23-.4-2.32-.75-3.45-1.11-.23,.41-.41,.64-.49,.91-.18,.55-.3,1.11-.52,1.93,1.26,.35,2.41,.66,3.68,1.01,.29-1.03,.51-1.79,.78-2.73ZM78.84,156.48c.84-.5,1.51-.9,2.37-1.43-.73-1.24-1.37-2.34-2.07-3.53-.86,.56-1.47,.95-2.22,1.44,.64,1.17,1.22,2.25,1.91,3.52Zm16.49-38.36c-1.79-.96-3.42-1.84-5.06-2.7-.81-.43-1.41-.28-1.7,.88,1.47,.86,2.95,1.69,4.41,2.57,.89,.54,1.53,.26,2.35-.75Zm-45.97,85.25c1.39-.6,2.6-1.28,3.77-2.39-.58-.75-1.07-1.38-1.54-2q-2.71,1.62-2.23,4.38Zm83.92,465.48c-1.21,.51-2.26,.96-3.46,1.47,.5,1.07,.89,1.9,1.33,2.85,1.27-.67,2.28-1.21,3.44-1.83-.49-.93-.86-1.63-1.31-2.49ZM116.24,146.53c.84,1.22,1.48,2.15,2.2,3.2,.95-.54,1.68-.95,2.59-1.47-.82-1.09-1.47-1.95-2.21-2.95-.82,.39-1.53,.72-2.58,1.21Zm-17.19-18.97c.96-.63,1.66-1.09,2.46-1.61-.82-1.14-1.47-2.03-2.21-3.06-.8,.51-1.45,.93-2.23,1.43,.69,1.12,1.26,2.05,1.99,3.24Zm34.25,33.82c-1.07-2.47-2.53-4.64-4.19-7.13-.38,.77-.8,1.29-.69,1.45,1.39,2.08,2.56,4.37,4.88,5.68Zm-37.39,87.64c1.62-1.07,2.95-1.95,4.4-2.9-.49-.68-.83-1.14-1.23-1.7-1.57,1.15-3.81,1.57-3.17,4.59Zm306.01,132.69c-1.83,.35-2.75,1.32-2.9,2.98,.92,.8,1.67,1.12,2.58,.08,1.27-1.44,1.33-1.51,.33-3.07ZM96.45,118.89c-.74,.51-1.25,.86-1.88,1.3,.71,1.14,1.32,2.12,2,3.22,.79-.53,1.38-.92,2.09-1.39-.74-1.05-1.38-1.95-2.21-3.13ZM427.74,384.53c.42-.62,.71-1.05,1.05-1.55-1.18-1.08-2.21-2.03-3.38-3.11-.5,.61-.88,1.08-1.3,1.59,1.23,1.04,2.3,1.94,3.64,3.07ZM119.31,135.6c-1.3,.85-2.42,1.58-3.68,2.41,.46,.59,.81,1.03,1.23,1.55,1.26-.73,2.4-1.4,3.57-2.07-.19-.49-.27-.78-.42-1.03-.15-.25-.36-.45-.7-.85Zm-17.53,59.18c2.48,2.44,2.95,2.54,4.18,.79-.59-.76-1.2-1.55-1.94-2.5-.86,.66-1.54,1.18-2.24,1.71Zm73.23-9.18c-.72-.89-1.45-1.78-2.19-2.7-.58,.34-.97,.54-1.32,.8-.32,.23-.6,.53-.92,.82q3.13,2.22,4.43,1.08Zm159.86,143.05c-1.26-.32-2.39-.61-3.75-.96-.13,.79-.23,1.39-.34,2.07,1.27,.36,2.32,.66,3.47,.98,.23-.78,.4-1.33,.62-2.09ZM7.72,250.67c-1.88,.03-5.58,2.54-6.04,4.1,2.19-1.35,4.29-2.47,6.04-4.1Zm146.17-21.33c.12-.09,.23-.19,.35-.28-.46-1.09-.91-2.18-1.51-3.6-.71,.84-1.15,1.37-1.72,2.04,1.1,.7,1.99,1.27,2.89,1.84ZM6.11,215.32c1.19,.36,1.99,.6,3.04,.91,.2-1.17,.36-2.1,.51-3.03-.15-.07-.29-.13-.44-.2-.93,.69-1.85,1.38-3.11,2.31Zm48.3-14.87c-.1,.09-.19,.19-.29,.28,.86,1.46,1.72,2.91,2.65,4.49,.49-.39,.81-.64,1.19-.95-1.25-1.35-2.4-2.59-3.55-3.83Zm77.74,473.22c1.34,.95,2.44,1.12,3.92,.61-.45-.77-.79-1.36-1.18-2.03-.98,.51-1.75,.91-2.75,1.42Zm9.24-504.23c-.2,.12-.41,.23-.61,.35,1.32,2.07,2.64,4.14,3.97,6.21,.15-.09,.3-.18,.44-.27-1.27-2.1-2.53-4.2-3.8-6.29Zm252.67,76.24c1.32,1.07,2.65,2.15,3.97,3.22,.1-.13,.21-.25,.31-.38-.74-1.74-1.94-2.93-4.28-2.84Zm-307.2-23.74c-1.77,.71-3.34,1.66-4.57,3.11,1.78-.67,3.38-1.6,4.57-3.11Zm273.68,96.05c.15,.12,.29,.24,.44,.37,.88-.97,1.75-1.94,2.6-2.88-.52-.78-1.03-1.11-1.5-.38-.59,.92-1.03,1.93-1.54,2.9Zm82.74,39.12c-.1,1.6,.79,2.46,1.97,3.17,.92-1.18,.68-1.57-1.97-3.17Zm-28.14-22.02c-1.26-1-2.13-1.69-3.25-2.58v2.11c.69,.17,1.26,.34,1.84,.45,.28,.05,.57,0,1.41,0ZM33.59,122.26c-.11-.11-.22-.22-.33-.32-1.97,1.1-2.89,2.2-2.91,3.88,1.22-1.34,2.23-2.45,3.24-3.56Zm379.1,246.19c-.93,1.55-.88,1.84,.17,2.47,.98,.58,1.32,.03,1.59-.91-.53-.47-1.07-.94-1.76-1.55Zm-5.17-33.42c.1,.16,.2,.33,.29,.49,.78-.29,1.57-.58,2.43-.9-.19-.74-.33-1.27-.55-2.09-.85,.98-1.52,1.74-2.18,2.51Zm-18.59,36.34c-.69-.58-1.16-.98-1.64-1.38q-1.23,1.52,.29,2.59c.36-.32,.73-.66,1.35-1.21Zm24.09,24.42c.51,.44,.93,.8,1.48,1.26,.4-.51,.73-.94,1.1-1.41-.53-.5-.94-.88-1.44-1.35-.4,.53-.74,.97-1.14,1.5ZM175.05,187.25c1.25,.69,2.39,1.31,3.52,1.93q-2.04-2.84-3.52-1.93ZM46.68,118.71c-.12,.1-.23,.19-.35,.29,1.12,1.27,2.19,2.58,3.89,3.64-1.31-1.45-2.42-2.69-3.54-3.93Zm130.53,80.22c.68-.84,1.18-1.47,1.68-2.09-.13-.15-.26-.3-.39-.45-.76,.39-1.51,.79-2.42,1.26,.44,.5,.67,.76,1.13,1.28Zm223.31,148.21c1.46,2.09,1.47,2.1,2.94,2.66-1.08-.97-2.01-1.81-2.94-2.66Zm67.1-25.8c-.16-.11-.31-.22-.47-.33-.49,1.14-1.81,1.74-1.62,3.33,.7-1,1.39-2.01,2.09-3.01ZM105.55,197.65c.96,.6,1.59,.99,2.55,1.59q-1.07-2.11-2.55-1.59Zm3.18,35.75s0-.09-.01-.13h-2.79s0,.09,.01,.13h2.79Zm-17.67-41.93c1.09-.53,.85-.97,.08-1.36-.15-.07-.35-.03-.75-.05,.27,.58,.46,.98,.66,1.4Zm24.75,15.74l.38-.46c-.34-.22-.68-.45-1.02-.67-.08,.11-.15,.21-.23,.32,.29,.27,.58,.54,.87,.81ZM.59,255.19l-.27-.28c-.19,.06-.42,.07-.55,.2-.17,.16-.25,.4-.47,.8,.44-.07,.66-.04,.8-.14,.2-.15,.33-.38,.49-.58Zm86.42-71.3c-.29-.32-.46-.51-.63-.7-.13,.13-.38,.27-.37,.39,.01,.18,.18,.39,.34,.49,.1,.06,.31-.08,.66-.18Zm103.16,46.25c-.18,0-.37,0-.55,.01,.03,.32,.04,.64,.1,.94,0,.03,.37-.02,.56-.03-.04-.31-.08-.61-.11-.92Z"/></svg>