<?xml version="1.0" encoding="UTF-8"?><svg id="Capa_1" xmlns="http://www.w3.org/2000/svg" xmlns:xlink="http://www.w3.org/1999/xlink" viewBox="0 0 139.12 52.12"><defs><style>.cls-1{fill:#241d16;}.cls-2{letter-spacing:.07em;}.cls-3{fill:#232323;}.cls-4{clip-path:url(#clippath);}.cls-5{fill:#b2b1b1;font-family:Antonio-Regular, Antonio;font-size:8.9px;font-variation-settings:'wght' 400;}.cls-6{fill:none;}.cls-7,.cls-8{fill:#ffcb00;}.cls-8{stroke:#241d16;stroke-miterlimit:10;stroke-width:.82px;}.cls-9{letter-spacing:.08em;}</style><clipPath id="clippath"><polygon class="cls-6" points="-20.15 1504.43 -1942 1525.72 -1942 -410.69 -20.15 -391.29 -20.15 1504.43"/></clipPath></defs><g class="cls-4"><polygon class="cls-3" points="113.55 -80.73 113.55 -149.45 -66.07 -380.81 -90.04 -380.81 -57.72 -153.19 -478.27 -.69 -1486.33 2.1 -1911.81 -162.41 -1876.13 -387.77 -1900.99 -387.77 -2083.92 -149.37 -2084.93 -80.58 -1158.53 414.88 -1075.43 1246.7 -905.68 1246.7 -821.77 416.56 113.55 -80.73"/></g><g><g><polygon class="cls-1" points="46.96 37.52 5.05 37.52 .42 32.9 .42 5.14 5.2 .33 46.96 .33 46.96 37.52"/><polygon class="cls-7" points="134.07 37.52 46.96 37.52 46.96 .33 133.88 .33 138.68 5.1 138.68 32.91 134.07 37.52"/><g><path class="cls-1" d="M52.12,32.82v-12.81h-.52l.39-3h5.26c1.41,0,2.43,.25,3.04,.76,.62,.5,.92,1.33,.92,2.47v2.96c0,.45-.05,.85-.14,1.2,.46,.5,.69,1.25,.69,2.26v2.94c0,1.14-.31,1.97-.92,2.47-.62,.51-1.63,.76-3.05,.76h-5.68Zm5.21-9.4c.09,0,.14-.04,.14-.11v-3.19c0-.08-.05-.11-.14-.11h-1.46v3.41h1.46Zm.69,3.12c0-.08-.05-.11-.14-.11h-2.01v3.39h2.01c.09,0,.14-.04,.14-.11v-3.16Z"/><path class="cls-1" d="M73.53,29.68c0,1.14-.31,1.97-.92,2.47-.62,.5-1.63,.76-3.05,.76h-1.49c-1.41,0-2.43-.25-3.04-.76-.62-.5-.92-1.33-.92-2.47v-9.67h-.52l.39-3h3.89v12.78c0,.08,.05,.11,.14,.11h1.65c.09,0,.14-.04,.14-.11v-12.78h3.75v12.67Z"/><path class="cls-1" d="M76.15,32.84v-12.81h-.52l.39-3h3.89v12.78h5.26l-.22,3h-5.04v.02h-3.75Z"/><path class="cls-1" d="M87.78,32.84v-12.81h-.52l.39-3h3.89v12.78h5.26l-.22,3h-5.04v.02h-3.75Z"/><path class="cls-1" d="M108.03,29.68c0,1.14-.31,1.97-.92,2.47-.62,.5-1.63,.76-3.04,.76h-1.21c-1.42,0-2.43-.25-3.05-.76s-.92-1.33-.92-2.47v-9.53c0-1.16,.31-1.99,.92-2.48,.62-.5,1.63-.75,3.05-.75h1.21c1.41,0,2.43,.25,3.04,.75s.92,1.33,.92,2.48v9.53Zm-5.26-9.76c-.09,0-.14,.04-.14,.11v9.76c0,.08,.05,.11,.14,.11h1.38c.09,0,.14-.04,.14-.11v-9.76c0-.08-.05-.11-.14-.11h-1.38Z"/><path class="cls-1" d="M119.41,26.27v3.5c0,1.14-.31,1.97-.92,2.47-.62,.5-1.63,.76-3.04,.76h-1.21c-1.42,0-2.43-.25-3.05-.76-.62-.51-.92-1.33-.92-2.47v-9.71c0-1.16,.31-1.99,.92-2.48s1.63-.75,3.05-.75h1.21c1.41,0,2.43,.25,3.04,.75s.92,1.33,.92,2.48v3.39h-3.75v-3.5c0-.08-.05-.11-.14-.11h-1.38c-.09,0-.14,.04-.14,.11v9.94c0,.08,.05,.11,.14,.11h1.38c.09,0,.14-.04,.14-.11v-3.61h3.75Z"/><path class="cls-1" d="M122.03,32.82v-12.81h-.52l.39-3h3.89v4.13l2.37-4.13h3.58l-3.78,6.6,4.27,9.22h-3.58l-2.87-6.19v6.19h-3.75Z"/></g><g><path class="cls-1" d="M52.12,14.22V7.1h-.29l.21-1.67h2.93c.79,0,1.35,.14,1.69,.42,.34,.28,.51,.74,.51,1.38v1.65c0,.25-.03,.47-.08,.67,.26,.28,.38,.7,.38,1.26v1.63c0,.64-.17,1.1-.51,1.38-.34,.28-.91,.42-1.69,.42h-3.16Zm2.9-5.23c.05,0,.08-.02,.08-.06v-1.77s-.03-.06-.08-.06h-.81v1.9h.81Zm.38,1.73s-.03-.06-.08-.06h-1.12v1.89h1.12c.05,0,.08-.02,.08-.06v-1.76Z"/><path class="cls-1" d="M58.86,14.24V7.11h-.29l.21-1.67h2.16v7.11h2.93l-.12,1.67h-2.81s-2.08,.01-2.08,.01Z"/><path class="cls-1" d="M65.04,14.22l1.27-7.12h-.32l.21-1.67h3.57l1.58,8.8h-2.07l-.23-1.26h-1.72l-.23,1.26h-2.07Zm2.59-2.93h1.13l-.57-3.14-.57,3.14Z"/><path class="cls-1" d="M77.45,10.58v1.95c0,.64-.17,1.1-.51,1.38-.34,.28-.91,.42-1.69,.42h-.67c-.79,0-1.35-.14-1.69-.42-.34-.28-.51-.74-.51-1.38V7.12c0-.65,.17-1.11,.51-1.38,.34-.28,.91-.42,1.69-.42h.67c.79,0,1.35,.14,1.69,.42,.34,.28,.51,.74,.51,1.38v1.89h-2.08v-1.95s-.03-.06-.08-.06h-.77c-.05,0-.08,.02-.08,.06v5.53s.03,.06,.08,.06h.77c.05,0,.08-.02,.08-.06v-2.01h2.08Z"/><path class="cls-1" d="M78.91,14.22V7.1h-.29l.21-1.67h2.16v2.3l1.32-2.3h1.99l-2.1,3.67,2.38,5.13h-1.99l-1.59-3.44v3.44h-2.08Z"/></g><g><polygon class="cls-8" points="25.44 33.39 21.78 33.39 20.33 18.93 4.37 10.4 4.4 8.83 7.75 4.46 8.86 4.46 8.22 8.49 15.16 11.17 32.35 11.12 39.2 8.63 38.63 4.58 39.71 4.58 43.01 8.83 43.01 10.4 26.9 18.96 25.44 33.39"/><polygon class="cls-8" points="34.24 16.52 26.92 19.76 25.56 33.39 28.01 33.39 30.51 33.39 34.24 16.52"/><polygon class="cls-8" points="13.1 16.52 20.32 19.76 21.69 33.39 19.33 33.39 16.9 33.39 13.1 16.52"/></g></g><text class="cls-5" transform="translate(.82 51.29)"><tspan class="cls-9" x="0" y="0">© 2023 BLACK-BUL</tspan><tspan class="cls-2" x="69.94" y="0">L</tspan><tspan class="cls-9" x="73.58" y="0">OCK</tspan></text></g></svg>