<?xml version="1.0" encoding="utf-8"?>
<!-- Generator: Adobe Illustrator 27.0.0, SVG Export Plug-In . SVG Version: 6.00 Build 0)  -->
<svg version="1.1" id="Capa_1" xmlns="http://www.w3.org/2000/svg" xmlns:xlink="http://www.w3.org/1999/xlink" x="0px" y="0px"
	 viewBox="0 0 26 146" style="enable-background:new 0 0 26 146;" xml:space="preserve">
<style type="text/css">
	.st0{enable-background:new    ;}
	.st1{fill:#161616;}
</style>
<g>
	<g class="st0">
		<path class="st1" d="M18.1,140.2h3.6c0.1,0,0.2-0.1,0.2-0.2v-1.3c0-0.1-0.1-0.2-0.2-0.2h-6l-1.2,2.7c-0.1,0.2-0.2,0.5-0.4,0.8
			s-0.4,0.7-0.8,1c-0.3,0.3-0.8,0.4-1.4,0.4H4.3c-0.9,0-1.7-0.3-2.3-0.9c-0.6-0.6-0.9-1.3-0.9-2.3v-1.7c0-0.9,0.3-1.7,0.9-2.3
			s1.3-0.9,2.3-0.9h5L9,138.6H4.5c-0.1,0-0.2,0.1-0.2,0.2v1.3c0,0.1,0.1,0.2,0.2,0.2h7l1.2-2.7c0.1-0.2,0.2-0.5,0.4-0.8
			s0.4-0.7,0.7-1s0.8-0.4,1.4-0.4h6.7c0.9,0,1.7,0.3,2.3,0.9c0.6,0.6,0.9,1.3,0.9,2.3v1.7c0,0.9-0.3,1.7-0.9,2.3s-1.3,0.9-2.3,0.9
			h-3.7L18.1,140.2L18.1,140.2z"/>
	</g>
	<g class="st0">
		<path class="st1" d="M21.8,131.3H11c-0.9,0-1.7-0.3-2.3-0.9c-0.6-0.6-0.9-1.3-0.9-2.3V126c0-0.9,0.3-1.7,0.9-2.3s1.3-0.9,2.3-0.9
			h4.1v3.2h-4c-0.1,0-0.2,0.1-0.2,0.2v1.7c0,0.1,0.1,0.2,0.2,0.2h4V123h3.1v5.2h3.4c0.1,0,0.2-0.1,0.2-0.2v-1.7c0-0.1,0-0.2-0.1-0.2
			h-1.8V123h2c0.9,0,1.7,0.3,2.3,0.9c0.6,0.6,0.9,1.3,0.9,2.3v2.1c0,0.9-0.3,1.7-0.9,2.3C23.5,131.1,22.7,131.3,21.8,131.3z"/>
	</g>
	<g class="st0">
		<path class="st1" d="M8,115.1h1.5L8,114.2V112h3.3v3.2h13.5v3.2H11.1v0.8L8,118.8V115.1z"/>
	</g>
	<g class="st0">
		<path class="st1" d="M8,108.3v-3l10.8-1.9L8,101.6v-3l16.8,3.2v3.2L8,108.3z"/>
	</g>
	<g class="st0">
		<path class="st1" d="M3.5,91.7l3.1-0.3v3.2H3.5V91.7z M8,91.4h16.8v3.2H11.1v0.5L8,94.8V91.4z"/>
		<path class="st1" d="M21.8,87.4H11c-0.9,0-1.7-0.3-2.3-0.9s-0.9-1.3-0.9-2.3v-2.4c0-0.9,0.3-1.7,0.9-2.3c0.6-0.6,1.3-0.9,2.3-0.9
			h4.4l-0.3,3.2h-3.9c-0.1,0-0.2,0.1-0.2,0.2v2c0,0.1,0.1,0.2,0.2,0.2h10.5c0.1,0,0.2-0.1,0.2-0.2v-2c0-0.1,0-0.2-0.1-0.2h-3.9v-3.2
			h4c0.9,0,1.7,0.3,2.3,0.9c0.6,0.6,0.9,1.3,0.9,2.3v2.4c0,0.9-0.3,1.7-0.9,2.3C23.5,87.1,22.7,87.4,21.8,87.4z"/>
		<path class="st1" d="M3.5,71.6l3.1-0.3v3.2H3.5V71.6z M8,71.3h16.8v3.2H11.1V75L8,74.6V71.3z"/>
		<path class="st1" d="M21.8,67.3H11c-0.9,0-1.7-0.3-2.3-0.9s-0.9-1.3-0.9-2.3v-2.4c0-0.9,0.3-1.7,0.9-2.3s1.3-0.9,2.3-0.9h10.8
			c0.9,0,1.7,0.3,2.3,0.9c0.6,0.6,0.9,1.3,0.9,2.3v2.4c0,0.9-0.3,1.7-0.9,2.3C23.5,67,22.7,67.3,21.8,67.3z M11.2,61.7
			c-0.1,0-0.2,0.1-0.2,0.2v2c0,0.1,0.1,0.2,0.2,0.2h10.5c0.1,0,0.2-0.1,0.2-0.2v-2c0-0.1,0-0.2-0.1-0.2
			C21.8,61.7,11.2,61.7,11.2,61.7z"/>
		<path class="st1" d="M19.5,54.5l0.3-3.2h1.6c0.1,0,0.2-0.1,0.2-0.2v-1.3c0-0.1-0.1-0.2-0.2-0.2h-3.1l-1.3,3
			c-0.2,0.4-0.4,0.8-0.7,1.2c-0.3,0.4-0.9,0.7-1.6,0.7H11c-0.9,0-1.7-0.3-2.3-0.9c-0.6-0.6-0.9-1.3-0.9-2.3v-1.7
			c0-0.9,0.3-1.7,0.9-2.3s1.3-0.9,2.3-0.9h2.1l-0.3,3.2h-1.6c-0.1,0-0.2,0.1-0.2,0.2v1.3c0,0.1,0.1,0.2,0.2,0.2h3.1l1.3-3
			c0.2-0.4,0.4-0.8,0.7-1.2c0.3-0.4,0.9-0.7,1.6-0.7h3.7c0.9,0,1.7,0.3,2.3,0.9s0.9,1.3,0.9,2.3v1.7c0,0.9-0.3,1.7-0.9,2.3
			s-1.3,0.9-2.3,0.9H19.5z"/>
	</g>
	<path class="st1" d="M14.6,27.4L5,21.6V2.3l9.6,5.8l9.6-5.8v19.4L14.6,27.4L14.6,27.4z M6.6,20.8l8,4.9l8-4.9V5l-8,4.9L6.6,5V20.8z
		"/>
</g>
</svg>
