<?xml version="1.0" encoding="UTF-8"?><svg id="Capa_1" xmlns="http://www.w3.org/2000/svg" viewBox="0 0 60.23 63.01"><defs><style>.cls-1{fill:#ffca00;}.cls-2,.cls-3{fill:#241d16;}.cls-3{stroke:#ffcc03;stroke-miterlimit:10;stroke-width:.99px;}</style></defs><rect class="cls-1" x=".14" y=".09" width="60.08" height="62.88" rx="3.37" ry="3.37"/><g><path class="cls-2" d="M18.32,55.75v-6.1h-.25l.18-1.43h2.51c.67,0,1.16,.12,1.45,.36,.29,.24,.44,.63,.44,1.18v1.41c0,.22-.02,.41-.07,.57,.22,.24,.33,.6,.33,1.08v1.4c0,.54-.15,.94-.44,1.18-.29,.24-.78,.36-1.45,.36h-2.7Zm2.48-4.47s.07-.02,.07-.05v-1.52s-.02-.05-.07-.05h-.7v1.62h.7Zm.33,1.48s-.02-.05-.07-.05h-.96v1.61h.96s.07-.02,.07-.05v-1.51Z"/><path class="cls-2" d="M26.3,55.75v-6.1h-.25l.18-1.43h2.51c.67,0,1.16,.12,1.45,.36,.29,.24,.44,.63,.44,1.18v1.41c0,.22-.02,.41-.07,.57,.22,.24,.33,.6,.33,1.08v1.4c0,.54-.15,.94-.44,1.18-.29,.24-.78,.36-1.45,.36h-2.7Zm2.48-4.47s.07-.02,.07-.05v-1.52s-.02-.05-.07-.05h-.7v1.62h.7Zm.33,1.48s-.02-.05-.07-.05h-.96v1.61h.96s.07-.02,.07-.05v-1.51Z"/><path class="cls-2" d="M36.18,52.63v1.67c0,.54-.15,.94-.44,1.18s-.78,.36-1.45,.36h-.58c-.67,0-1.16-.12-1.45-.36s-.44-.63-.44-1.18v-4.63c0-.55,.15-.95,.44-1.18s.78-.36,1.45-.36h.58c.67,0,1.16,.12,1.45,.36s.44,.63,.44,1.18v1.62h-1.79v-1.68s-.02-.05-.07-.05h-.66s-.07,.02-.07,.05v4.73s.02,.05,.07,.05h.66s.07-.02,.07-.05v-1.72h1.79Z"/><path class="cls-2" d="M37.43,55.75v-6.1h-.25l.18-1.43h1.85v1.97l1.13-1.97h1.71l-1.8,3.14,2.03,4.39h-1.71l-1.36-2.95v2.95h-1.79Z"/><rect class="cls-2" x="23.82" y="51.27" width="1.4" height="1.4"/></g><g><polygon class="cls-3" points="32.28 43.25 27.87 43.25 26.12 25.79 6.85 15.48 6.88 13.59 10.93 8.32 12.26 8.32 11.49 13.18 19.87 16.42 40.63 16.36 48.9 13.36 48.21 8.46 49.52 8.46 53.5 13.59 53.5 15.48 34.04 25.83 32.28 43.25"/><polygon class="cls-3" points="42.92 22.88 34.07 26.79 32.43 43.25 35.39 43.25 38.41 43.25 42.92 22.88"/><polygon class="cls-3" points="17.38 22.88 26.1 26.79 27.76 43.25 24.91 43.25 21.97 43.25 17.38 22.88"/></g></svg>