<?xml version="1.0" encoding="UTF-8"?><svg id="Capa_1" xmlns="http://www.w3.org/2000/svg" viewBox="0 0 48.64 48.71"><defs><style>.cls-1{fill:#241d16;}.cls-2{fill:#f0efe8;}</style></defs><path class="cls-2" d="M48.64,.02V48.66H0V0L10.91,.02H48.64Z"/><g><path class="cls-1" d="M29.89,12.24c-4.56-2.14-10.01-1.19-13.59,2.36-3.64,3.61-4.63,9.02-2.45,13.64,.35,.75,.39,1.38,.16,2.15-.49,1.62-.9,3.26-1.39,5.06,1.9-.49,3.62-.99,5.37-1.36,.59-.13,1.33-.09,1.87,.15,7.6,3.33,16.27-1.8,16.95-10.06,.41-5.03-2.35-9.79-6.93-11.93Zm1.21,18.68c-3.29,2.69-7,3.01-10.82,1.19-.78-.37-1.44-.46-2.23-.2-.77,.25-1.56,.41-2.52,.65,.26-.96,.45-1.79,.72-2.58,.24-.71,.15-1.28-.21-1.95-1.95-3.69-1.78-7.34,.66-10.71,2.39-3.31,5.78-4.68,9.8-3.99,4.09,.71,6.85,3.2,7.94,7.22,1.1,4.09-.03,7.68-3.32,10.37Z"/><path class="cls-1" d="M29.93,25.52c-.28-.14-.59-.25-.85-.42-.85-.54-1.55-.57-2.08,.44-.36,.69-.9,.71-1.59,.36-1.39-.71-2.49-1.7-3.35-2.99-.28-.43-.36-.8,.06-1.17,.72-.62,.71-1.33,.28-2.11-.19-.36-.31-.76-.48-1.13-.47-1.07-1.51-1.27-2.32-.41-.92,.98-1.32,2.21-.76,3.4,.66,1.41,1.52,2.76,2.5,3.96,1.71,2.08,4.03,3.19,7.06,3.59,.48-.26,1.31-.55,1.91-1.08,.94-.84,.71-1.9-.39-2.44Z"/></g></svg>