<?xml version="1.0" encoding="UTF-8"?><svg id="Capa_1" xmlns="http://www.w3.org/2000/svg" viewBox="0 0 40.16 40.04"><defs><style>.cls-1{fill:#241d16;}.cls-2{fill:#f0efe8;}</style></defs><path class="cls-1" d="M40.17-.08V40.06H.03V.03L9.03-.08h31.13Z"/><g><path class="cls-2" d="M24.69,10c-3.76-1.76-8.26-.98-11.21,1.95-3,2.98-3.82,7.44-2.02,11.25,.29,.62,.33,1.14,.13,1.78-.41,1.34-.74,2.69-1.14,4.17,1.57-.41,2.99-.82,4.43-1.12,.49-.1,1.1-.07,1.55,.12,6.27,2.75,13.43-1.49,13.99-8.3,.34-4.15-1.94-8.08-5.72-9.85Zm1,15.41c-2.72,2.22-5.77,2.48-8.93,.98-.65-.31-1.19-.38-1.84-.16-.63,.21-1.29,.33-2.08,.53,.22-.8,.37-1.48,.59-2.13,.2-.58,.12-1.05-.17-1.61-1.61-3.04-1.47-6.06,.54-8.84,1.97-2.73,4.77-3.86,8.08-3.29,3.38,.59,5.66,2.64,6.55,5.96,.91,3.38-.03,6.34-2.74,8.56Z"/><path class="cls-2" d="M24.72,20.96c-.23-.12-.48-.2-.7-.34-.7-.45-1.28-.47-1.72,.36-.3,.57-.74,.58-1.31,.29-1.14-.59-2.06-1.4-2.77-2.47-.23-.35-.3-.66,.05-.96,.6-.52,.59-1.1,.23-1.75-.16-.3-.26-.63-.39-.93-.39-.89-1.25-1.05-1.92-.34-.76,.81-1.09,1.83-.62,2.81,.55,1.16,1.25,2.28,2.07,3.27,1.41,1.72,3.32,2.63,5.83,2.96,.4-.22,1.08-.45,1.57-.89,.77-.69,.59-1.57-.32-2.01Z"/></g></svg>