<?xml version="1.0" encoding="UTF-8"?><svg id="Capa_1" xmlns="http://www.w3.org/2000/svg" xmlns:xlink="http://www.w3.org/1999/xlink" viewBox="0 0 17.27 24.25"><defs><style>.cls-1{fill:#232323;}.cls-2{clip-path:url(#clippath);}.cls-3{fill:none;}.cls-4{fill:#f0efe8;}</style><clipPath id="clippath"><polygon class="cls-3" points="1957.12 1477.49 35.26 1498.78 35.26 -437.63 1957.12 -418.22 1957.12 1477.49"/></clipPath></defs><path class="cls-4" d="M13.51,22.28h-2.99L2.42,12.12,10.52,1.96h2.99L6.26,11.05l-.85,1.07,.85,1.07,7.24,9.08m3.57,1.72L7.61,12.12,17.08,.24h-7.39L.22,12.12l9.47,11.88h7.39Z"/><g class="cls-2"><polygon class="cls-1" points="2090.82 -107.67 2090.82 -176.38 1911.2 -407.75 1887.23 -407.75 1919.55 -180.12 1499 -27.63 490.94 -24.83 65.45 -189.34 101.13 -414.7 76.27 -414.7 -106.65 -176.31 -107.66 -107.52 818.74 387.94 901.83 1219.77 1071.59 1219.77 1155.5 389.62 2090.82 -107.67"/></g></svg>