<?xml version="1.0" encoding="UTF-8"?><svg id="Capa_1" xmlns="http://www.w3.org/2000/svg" xmlns:xlink="http://www.w3.org/1999/xlink" viewBox="0 0 85.76 65.4"><defs><style>.cls-1{fill:#232323;}.cls-2{clip-path:url(#clippath);}.cls-3{fill:none;}.cls-4{fill:#f0efe8;}</style><clipPath id="clippath"><polygon class="cls-3" points="2062.87 1504.43 141.02 1525.72 141.02 -410.69 2062.87 -391.29 2062.87 1504.43"/></clipPath></defs><g><polygon class="cls-4" points="85.38 13.14 85.38 10.48 78.44 1.54 77.51 1.54 78.76 10.34 62.5 16.24 23.52 16.34 7.07 9.98 8.45 1.27 7.49 1.27 .42 10.49 .38 13.15 36.2 32.3 39.41 64.47 45.97 64.47 49.22 32.37 85.38 13.14"/><polygon class="cls-4" points="50.99 35.36 48.09 64.47 57.47 64.47 65.31 29.04 50.99 35.36"/><polygon class="cls-4" points="37.37 64.47 34.43 35.36 20.36 29.05 28.34 64.47 37.37 64.47"/></g><g class="cls-2"><polygon class="cls-1" points="2196.58 -80.73 2196.58 -149.45 2016.96 -380.81 1992.99 -380.81 2025.31 -153.19 1604.76 -.69 596.7 2.1 171.21 -162.41 206.89 -387.77 182.03 -387.77 -.9 -149.37 -1.9 -80.58 924.5 414.88 1007.59 1246.7 1177.35 1246.7 1261.26 416.56 2196.58 -80.73"/></g></svg>