<?xml version="1.0" encoding="UTF-8"?><svg id="Capa_1" xmlns="http://www.w3.org/2000/svg" viewBox="0 0 60.23 63.01"><defs><style>.cls-1,.cls-2{fill:#241d16;}.cls-2{stroke:#a1a5ad;stroke-miterlimit:10;stroke-width:.99px;}.cls-3{fill:#a1a5ad;}</style></defs><rect class="cls-3" x=".05" y=".08" width="60.08" height="62.88" rx="3.37" ry="3.37"/><g><path class="cls-1" d="M18.23,55.73v-6.1h-.25l.18-1.43h2.51c.67,0,1.16,.12,1.45,.36,.29,.24,.44,.63,.44,1.18v1.41c0,.22-.02,.41-.07,.57,.22,.24,.33,.6,.33,1.08v1.4c0,.54-.15,.94-.44,1.18-.29,.24-.78,.36-1.45,.36h-2.7Zm2.48-4.47s.07-.02,.07-.05v-1.52s-.02-.05-.07-.05h-.7v1.62h.7Zm.33,1.48s-.02-.05-.07-.05h-.96v1.61h.96s.07-.02,.07-.05v-1.51Z"/><path class="cls-1" d="M26.21,55.73v-6.1h-.25l.18-1.43h2.51c.67,0,1.16,.12,1.45,.36,.29,.24,.44,.63,.44,1.18v1.41c0,.22-.02,.41-.07,.57,.22,.24,.33,.6,.33,1.08v1.4c0,.54-.15,.94-.44,1.18-.29,.24-.78,.36-1.45,.36h-2.7Zm2.48-4.47s.07-.02,.07-.05v-1.52s-.02-.05-.07-.05h-.7v1.62h.7Zm.33,1.48s-.02-.05-.07-.05h-.96v1.61h.96s.07-.02,.07-.05v-1.51Z"/><path class="cls-1" d="M36.09,52.61v1.67c0,.54-.15,.94-.44,1.18-.29,.24-.78,.36-1.45,.36h-.58c-.67,0-1.16-.12-1.45-.36s-.44-.63-.44-1.18v-4.63c0-.55,.15-.95,.44-1.18s.78-.36,1.45-.36h.58c.67,0,1.16,.12,1.45,.36s.44,.63,.44,1.18v1.62h-1.79v-1.68s-.02-.05-.07-.05h-.66s-.07,.02-.07,.05v4.73s.02,.05,.07,.05h.66s.07-.02,.07-.05v-1.72h1.79Z"/><path class="cls-1" d="M37.34,55.73v-6.1h-.25l.18-1.43h1.85v1.97l1.13-1.97h1.71l-1.8,3.14,2.03,4.39h-1.71l-1.36-2.95v2.95h-1.79Z"/><rect class="cls-1" x="23.73" y="51.25" width="1.4" height="1.4"/></g><g><polygon class="cls-2" points="32.19 43.23 27.78 43.23 26.03 25.77 6.76 15.47 6.79 13.58 10.84 8.3 12.17 8.3 11.4 13.16 19.78 16.4 40.54 16.34 48.81 13.34 48.12 8.45 49.43 8.45 53.41 13.58 53.41 15.47 33.96 25.81 32.19 43.23"/><polygon class="cls-2" points="42.83 22.86 33.98 26.77 32.34 43.23 35.3 43.23 38.32 43.23 42.83 22.86"/><polygon class="cls-2" points="17.29 22.86 26.01 26.77 27.67 43.23 24.82 43.23 21.88 43.23 17.29 22.86"/></g></svg>