<?xml version="1.0" encoding="UTF-8"?><svg id="Capa_1" xmlns="http://www.w3.org/2000/svg" viewBox="0 0 48.64 48.71"><defs><style>.cls-1{fill:#241d16;}.cls-2{fill:#f0efe8;}</style></defs><path class="cls-2" d="M48.62-.05V48.58H-.02V-.05H10.89s37.73,0,37.73,0Z"/><g><path class="cls-1" d="M30.77,15.13c-.8,0-1.45,.65-1.45,1.45s.65,1.45,1.45,1.45,1.45-.65,1.45-1.45-.65-1.45-1.45-1.45Z"/><path class="cls-1" d="M24.3,16.83c-3.44,0-6.22,2.79-6.22,6.22s2.79,6.22,6.22,6.22,6.22-2.79,6.22-6.22-2.79-6.22-6.22-6.22Zm0,10.26c-2.23,0-4.04-1.81-4.04-4.04s1.81-4.04,4.04-4.04,4.04,1.81,4.04,4.04-1.81,4.04-4.04,4.04Z"/><path class="cls-1" d="M29.29,11.01c-1.29-.06-1.71-.07-5-.07s-3.7,.01-5,.07c-4.4,.2-6.85,2.64-7.05,7.05-.06,1.29-.07,1.71-.07,5s.01,3.7,.07,5c.2,4.4,2.65,6.85,7.05,7.05,1.29,.06,1.7,.07,5,.07s3.7-.01,5-.07c4.4-.2,6.85-2.64,7.05-7.05,.06-1.29,.07-1.7,.07-5s-.01-3.7-.07-4.99c-.2-4.4-2.64-6.85-7.05-7.05Zm4.87,16.94c-.15,3.26-1.68,4.82-4.97,4.97-1.28,.06-1.66,.07-4.9,.07s-3.62-.01-4.89-.07c-3.29-.15-4.82-1.71-4.97-4.97-.06-1.28-.07-1.66-.07-4.9s.01-3.62,.07-4.89c.15-3.26,1.68-4.82,4.97-4.97,1.28-.06,1.66-.07,4.9-.07s3.62,.01,4.9,.07c3.28,.15,4.82,1.71,4.97,4.97,.06,1.28,.07,1.66,.07,4.89s-.01,3.62-.07,4.9Z"/></g></svg>