<?xml version="1.0" encoding="UTF-8"?><svg id="Capa_1" xmlns="http://www.w3.org/2000/svg" viewBox="0 0 1503.32 447.87"><defs><style>.cls-1{fill:#241d16;}.cls-2{fill:#240000;}.cls-3{fill:#ffcb00;}</style></defs><path class="cls-3" d="M62.87,66.61l-21.7,17.36L12.06,126.1l1.53,14.55,27.57,19.15,53.62,98.04,38.3,140.94,27.57,29.11,176.94-5.36s75.06-86.17,74.3-88.85c-.77-2.68,28.34-168.51,28.34-168.51l39.06-22.98-.77-23.74-41.36-49.79-11.49-1.53,2.3,39.06-39.06-5.36-60.51,15.7-170.04,19.15-96.13-26.43,.64-42.64Z"/><g><path class="cls-1" d="M484.68,118.29l-42.65-54.94h-22.56l2.72,19.15L347.08,9.6H140.31S71.81,79.85,71.81,79.85l2.84-17.94h-22.98L8.42,118.27l-.36,24.32,17.03,9.11-.89,172.02,114.77,113.6h206.77s122.09-113.6,122.09-113.6v-1.87l.82-170.71,16.01-8.51v-24.34Zm-209.36,291.77l15.39-154.3,74.54-32.94-41.42,187.25h-48.51Zm-59.39,0h-46.62l-42.19-187.15,73.24,32.83,15.56,154.32ZM473.06,135.65l-193.55,102.91-17.33,171.5h-33.52l-17.17-171.85L19.79,135.69l.2-13.4,37.41-48.76h3.65l-7.33,46.33,88.91,34.37,207.97-.57h1.01s87.88-31.87,87.88-31.87l-6.65-46.82h3.49l36.72,47.3v13.38Z"/><path class="cls-1" d="M538.8,436.5v-153.2h-6.26l4.61-35.93h62.96c16.92,0,29.06,3.02,36.42,9.05,7.36,6.04,11.04,15.9,11.04,29.59v35.39c0,5.4-.55,10.18-1.65,14.32,5.49,5.94,8.24,14.95,8.24,27.02v35.13c0,13.69-3.68,23.55-11.04,29.58-7.37,6.04-19.5,9.05-36.42,9.05h-67.9Zm62.3-112.4c1.1,0,1.65-.45,1.65-1.35v-38.1c0-.9-.55-1.35-1.65-1.35h-17.47v40.8h17.47Zm8.24,37.29c0-.9-.55-1.35-1.65-1.35h-24.06v40.53h24.06c1.1,0,1.65-.44,1.65-1.35v-37.83Z"/><path class="cls-1" d="M794.92,398.95c0,13.69-3.68,23.55-11.04,29.58-7.37,6.04-19.51,9.05-36.42,9.05h-17.8c-16.93,0-29.07-3.01-36.42-9.05-7.37-6.03-11.04-15.9-11.04-29.58v-115.64h-6.26l4.61-35.93h46.48v152.93c0,.9,.55,1.35,1.65,1.35h19.78c1.1,0,1.65-.45,1.65-1.35V247.37h44.83v151.58Z"/><polygon class="cls-1" points="826.23 436.77 826.23 283.58 819.97 283.58 824.58 247.64 871.06 247.64 871.06 400.56 934.02 400.56 931.38 436.5 871.06 436.5 871.06 436.77 826.23 436.77"/><polygon class="cls-1" points="965.33 436.77 965.33 283.58 959.07 283.58 963.68 247.64 1010.16 247.64 1010.16 400.56 1073.12 400.56 1070.48 436.5 1010.16 436.5 1010.16 436.77 965.33 436.77"/><path class="cls-1" d="M1207.6,398.95c0,13.69-3.68,23.55-11.04,29.58-7.36,6.04-19.5,9.05-36.42,9.05h-14.5c-16.93,0-29.07-3.01-36.42-9.05-7.37-6.03-11.04-15.9-11.04-29.58v-114.02c0-13.87,3.68-23.77,11.04-29.72,7.36-5.94,19.5-8.92,36.42-8.92h14.5c16.92,0,29.06,2.97,36.42,8.92,7.36,5.95,11.04,15.85,11.04,29.72v114.02Zm-62.96-116.72c-1.1,0-1.65,.45-1.65,1.35v116.72c0,.9,.55,1.35,1.65,1.35h16.48c1.09,0,1.65-.45,1.65-1.35v-116.72c0-.9-.55-1.35-1.65-1.35h-16.48Z"/><path class="cls-1" d="M1343.73,358.15v41.88c0,13.69-3.68,23.55-11.04,29.59-7.36,6.04-19.5,9.05-36.42,9.05h-14.5c-16.93,0-29.07-3.01-36.42-9.05-7.37-6.04-11.04-15.9-11.04-29.59v-116.18c0-13.87,3.68-23.78,11.04-29.72,7.36-5.94,19.5-8.92,36.42-8.92h14.5c16.92,0,29.06,2.97,36.42,8.92,7.36,5.94,11.04,15.85,11.04,29.72v40.6l-44.83-.08v-41.88c0-.9-.55-1.35-1.65-1.35h-16.48c-1.1,0-1.65,.45-1.65,1.35v118.88c0,.91,.55,1.35,1.65,1.35h16.48c1.09,0,1.65-.45,1.65-1.35v-43.23h44.83Z"/><polygon class="cls-1" points="1375.04 436.5 1375.04 283.3 1368.78 283.3 1373.39 247.37 1419.87 247.37 1419.87 296.81 1448.22 247.37 1491.08 247.37 1445.91 326.27 1497.01 436.5 1454.15 436.5 1419.87 362.47 1419.87 436.5 1375.04 436.5"/><path class="cls-1" d="M537.62,198.45V45.25h-6.26l4.61-35.93h62.96c16.92,0,29.06,3.02,36.42,9.05,7.36,6.04,11.04,15.9,11.04,29.59v35.39c0,5.4-.55,10.18-1.65,14.32,5.49,5.94,8.24,14.95,8.24,27.02v35.13c0,13.69-3.68,23.55-11.04,29.58-7.37,6.04-19.5,9.05-36.42,9.05h-67.9Zm62.3-112.4c1.1,0,1.65-.45,1.65-1.35V46.6c0-.9-.55-1.35-1.65-1.35h-17.47v40.8h17.47Zm8.24,37.29c0-.9-.55-1.35-1.65-1.35h-24.06v40.53h24.06c1.1,0,1.65-.44,1.65-1.35v-37.83Z"/><polygon class="cls-1" points="682.66 198.72 682.66 45.52 676.39 45.52 681.01 9.59 727.48 9.59 727.48 162.51 790.44 162.51 787.81 198.45 727.48 198.45 727.48 198.72 682.66 198.72"/><path class="cls-1" d="M815.49,198.45l27.36-153.2h-6.92l4.61-35.93h76.8l33.95,189.13h-44.5l-4.94-27.02h-36.92l-4.95,27.02h-44.5Zm55.71-62.95h24.39l-12.2-67.55-12.2,67.55Z"/><path class="cls-1" d="M1082.49,120.09v41.88c0,13.69-3.68,23.55-11.04,29.59-7.36,6.04-19.5,9.05-36.42,9.05h-14.5c-16.93,0-29.07-3.01-36.42-9.05-7.37-6.04-11.04-15.9-11.04-29.59V45.79c0-13.87,3.68-23.78,11.04-29.72,7.36-5.94,19.5-8.92,36.42-8.92h14.5c16.92,0,29.06,2.97,36.42,8.92,7.36,5.94,11.04,15.85,11.04,29.72v40.85l-44.83-.33V44.44c0-.9-.55-1.35-1.65-1.35h-16.48c-1.1,0-1.65,.45-1.65,1.35v118.88c0,.91,.55,1.35,1.65,1.35h16.48c1.09,0,1.65-.45,1.65-1.35v-43.23h44.83Z"/><polygon class="cls-2" points="1113.8 198.45 1113.8 45.25 1107.54 45.25 1112.15 9.32 1158.63 9.32 1158.63 58.76 1186.98 9.32 1229.83 9.32 1184.67 88.21 1235.76 198.45 1192.91 198.45 1158.63 124.42 1158.63 198.45 1113.8 198.45"/></g></svg>