<?xml version="1.0" encoding="UTF-8"?><svg id="Capa_1" xmlns="http://www.w3.org/2000/svg" xmlns:xlink="http://www.w3.org/1999/xlink" viewBox="0 0 66.87 66.83"><defs><style>.cls-1{fill:#fafafa;}.cls-2{fill:#282828;}.cls-3{clip-path:url(#clippath);}.cls-4{fill:none;}.cls-5{fill:#161616;}</style><clipPath id="clippath"><polygon class="cls-4" points="-1183.04 523.56 -554.04 523.56 -557.04 -1.25 -1181.04 -1.25 -1183.04 523.56"/></clipPath></defs><g class="cls-3"><path class="cls-2" d="M-998.61-23.54c32.5,21.28,26.1,23.1,96.02,76.2,55.64,42.25,65.48,45.02,72.93,47.14,51.39,14.64,28.61,3.23,79.07,10,41.22,5.53,38.17,32.48,133.41,90.53,40.74,24.84,62.23,32.66,86.06,30.41,30.47-2.88,35.48-19.47,62.42-24.23,60.97-10.76,60.07-4.89,135.25,71.03,51.7,52.21,36.92,87.43,87.93,118.39,18.51,11.24,19.62,6.55,63.53,27.95,62.13,30.28,71.33,47.02,88.59,43.65,8.17-1.6,122.19-111.45,141.81-135.71l-60.72-13.92s-113.28-52.06-203.36-102.95c-133-75.15-109.5-87.89-204.01-133.65-99.71-48.27-116.6-29.61-233.35-86.78-51.43-25.18-106.51-57.38-153.52-84.87-92.06-53.82-181.52-87.1-228.12-102.69-11.27-3.77-35.54,11.27-80.74,58.92-2.56,2.69-96.18,39.69-107.15,50.18-22.48,21.51,163.47,20.8,223.94,60.39Z"/></g><g><path class="cls-1" d="M66.84,.03V66.82H.06V.03H15.03s51.81,0,51.81,0Z"/><g><path class="cls-5" d="M42.33,20.89c-1.1,0-2,.89-2,2s.89,2,2,2,2-.89,2-2-.9-2-2-2Z"/><path class="cls-5" d="M33.45,23.22c-4.72,0-8.54,3.82-8.54,8.54s3.83,8.55,8.54,8.55,8.54-3.83,8.54-8.55-3.83-8.54-8.54-8.54Zm0,14.09c-3.06,0-5.55-2.48-5.55-5.55s2.49-5.55,5.55-5.55,5.55,2.48,5.55,5.55-2.48,5.55-5.55,5.55Z"/><path class="cls-5" d="M40.31,15.22c-1.77-.08-2.34-.1-6.86-.1s-5.08,.02-6.86,.1c-6.04,.28-9.4,3.63-9.68,9.68-.08,1.77-.1,2.34-.1,6.86s.02,5.09,.1,6.86c.28,6.04,3.63,9.4,9.68,9.68,1.78,.08,2.34,.1,6.86,.1s5.09-.02,6.86-.1c6.04-.28,9.41-3.63,9.68-9.68,.08-1.77,.1-2.34,.1-6.86s-.02-5.08-.1-6.86c-.27-6.04-3.63-9.4-9.68-9.68Zm6.68,23.26c-.21,4.47-2.31,6.62-6.82,6.82-1.76,.08-2.28,.1-6.73,.1s-4.97-.02-6.72-.09c-4.52-.21-6.62-2.35-6.82-6.82-.08-1.76-.1-2.28-.1-6.73s.02-4.97,.1-6.72c.21-4.48,2.31-6.62,6.82-6.82,1.76-.08,2.28-.1,6.72-.1s4.97,.02,6.72,.09c4.51,.21,6.62,2.35,6.82,6.82,.08,1.75,.1,2.28,.1,6.72s-.02,4.97-.1,6.72Z"/></g></g></svg>