<?xml version="1.0" encoding="UTF-8"?><svg id="Capa_1" xmlns="http://www.w3.org/2000/svg" viewBox="0 0 83.62 87.3"><defs><style>.cls-1{stroke:#a1a5ad;stroke-miterlimit:10;stroke-width:1.36px;}.cls-1,.cls-2{fill:#241d16;}.cls-3{fill:#a1a5ad;}</style></defs><rect class="cls-3" x=".5" y=".36" width="82.7" height="86.56" rx="4.63" ry="4.63"/><g><path class="cls-2" d="M25.53,76.97v-8.4h-.34l.25-1.97h3.45c.93,0,1.59,.17,2,.5,.4,.33,.61,.87,.61,1.62v1.94c0,.3-.03,.56-.09,.78,.3,.33,.45,.82,.45,1.48v1.93c0,.75-.2,1.29-.61,1.62-.4,.33-1.07,.5-2,.5h-3.72Zm3.41-6.16c.06,0,.09-.03,.09-.07v-2.09s-.03-.07-.09-.07h-.96v2.24h.96Zm.45,2.04s-.03-.07-.09-.07h-1.32v2.22h1.32c.06,0,.09-.02,.09-.07v-2.07Z"/><path class="cls-2" d="M36.51,76.97v-8.4h-.34l.25-1.97h3.45c.93,0,1.59,.17,2,.5,.4,.33,.61,.87,.61,1.62v1.94c0,.3-.03,.56-.09,.78,.3,.33,.45,.82,.45,1.48v1.93c0,.75-.2,1.29-.61,1.62-.4,.33-1.07,.5-2,.5h-3.72Zm3.41-6.16c.06,0,.09-.03,.09-.07v-2.09s-.03-.07-.09-.07h-.96v2.24h.96Zm.45,2.04s-.03-.07-.09-.07h-1.32v2.22h1.32c.06,0,.09-.02,.09-.07v-2.07Z"/><path class="cls-2" d="M50.11,72.67v2.3c0,.75-.2,1.29-.61,1.62-.4,.33-1.07,.5-2,.5h-.79c-.93,0-1.59-.17-2-.5-.4-.33-.61-.87-.61-1.62v-6.37c0-.76,.2-1.3,.61-1.63s1.07-.49,2-.49h.79c.93,0,1.59,.16,2,.49s.61,.87,.61,1.63v2.24h-2.46v-2.31s-.03-.07-.09-.07h-.9c-.06,0-.09,.03-.09,.07v6.52s.03,.07,.09,.07h.9c.06,0,.09-.02,.09-.07v-2.37h2.46Z"/><path class="cls-2" d="M51.83,76.97v-8.4h-.34l.25-1.97h2.55v2.71l1.55-2.71h2.35l-2.47,4.32,2.8,6.04h-2.35l-1.88-4.06v4.06h-2.46Z"/><rect class="cls-2" x="33.1" y="70.81" width="1.93" height="1.93"/></g><g><polygon class="cls-1" points="44.75 59.77 38.67 59.77 36.27 35.74 9.74 21.55 9.78 18.94 15.35 11.69 17.19 11.69 16.13 18.37 27.67 22.83 56.24 22.75 67.63 18.62 66.67 11.89 68.47 11.89 73.95 18.94 73.95 21.55 47.18 35.79 44.75 59.77"/><polygon class="cls-1" points="59.39 31.73 47.22 37.11 44.96 59.77 49.02 59.77 53.18 59.77 59.39 31.73"/><polygon class="cls-1" points="24.24 31.73 36.24 37.11 38.53 59.77 34.61 59.77 30.56 59.77 24.24 31.73"/></g></svg>