<?xml version="1.0" encoding="UTF-8"?><svg id="Capa_1" xmlns="http://www.w3.org/2000/svg" viewBox="0 0 111.66 41.49"><defs><style>.cls-1{letter-spacing:.07em;}.cls-2{fill:#241d16;}.cls-3{fill:#b2b1b1;font-family:Antonio-Regular, Antonio;font-size:7.15px;font-variation-settings:'wght' 400;}.cls-4{stroke:#241d16;stroke-miterlimit:10;stroke-width:.66px;}.cls-4,.cls-5{fill:#ffcb00;}.cls-6{letter-spacing:.08em;}</style></defs><g><polygon class="cls-2" points="37.64 30.09 3.96 30.09 .24 26.37 .24 4.06 4.08 .2 37.64 .2 37.64 30.09"/><polygon class="cls-5" points="107.66 30.09 37.64 30.09 37.64 .2 107.5 .2 111.36 4.03 111.36 26.38 107.66 30.09"/><g><path class="cls-2" d="M41.79,26.31v-10.29h-.42l.31-2.41h4.23c1.14,0,1.95,.2,2.45,.61,.49,.41,.74,1.07,.74,1.99v2.38c0,.36-.04,.68-.11,.96,.37,.4,.55,1,.55,1.82v2.36c0,.92-.25,1.58-.74,1.99-.49,.41-1.31,.61-2.45,.61h-4.56Zm4.19-7.55c.07,0,.11-.03,.11-.09v-2.56c0-.06-.04-.09-.11-.09h-1.17v2.74h1.17Zm.55,2.51c0-.06-.04-.09-.11-.09h-1.62v2.72h1.62c.07,0,.11-.03,.11-.09v-2.54Z"/><path class="cls-2" d="M59,23.78c0,.92-.25,1.58-.74,1.99-.49,.41-1.31,.61-2.45,.61h-1.2c-1.14,0-1.95-.2-2.45-.61-.49-.41-.74-1.07-.74-1.99v-7.77h-.42l.31-2.41h3.12v10.27c0,.06,.04,.09,.11,.09h1.33c.07,0,.11-.03,.11-.09V13.6h3.01v10.18Z"/><path class="cls-2" d="M61.1,26.32v-10.29h-.42l.31-2.41h3.12v10.27h4.23l-.18,2.41h-4.05v.02h-3.01Z"/><path class="cls-2" d="M70.45,26.32v-10.29h-.42l.31-2.41h3.12v10.27h4.23l-.18,2.41h-4.05v.02h-3.01Z"/><path class="cls-2" d="M86.73,23.78c0,.92-.25,1.58-.74,1.99s-1.31,.61-2.45,.61h-.97c-1.14,0-1.95-.2-2.45-.61s-.74-1.07-.74-1.99v-7.66c0-.93,.25-1.6,.74-2,.49-.4,1.31-.6,2.45-.6h.97c1.14,0,1.95,.2,2.45,.6s.74,1.06,.74,2v7.66Zm-4.23-7.84c-.07,0-.11,.03-.11,.09v7.84c0,.06,.04,.09,.11,.09h1.11c.07,0,.11-.03,.11-.09v-7.84c0-.06-.04-.09-.11-.09h-1.11Z"/><path class="cls-2" d="M95.87,21.04v2.81c0,.92-.25,1.58-.74,1.99-.49,.41-1.31,.61-2.45,.61h-.97c-1.14,0-1.95-.2-2.45-.61-.49-.41-.74-1.07-.74-1.99v-7.81c0-.93,.25-1.6,.74-2,.49-.4,1.31-.6,2.45-.6h.97c1.14,0,1.95,.2,2.45,.6s.74,1.06,.74,2v2.72h-3.01v-2.81c0-.06-.04-.09-.11-.09h-1.11c-.07,0-.11,.03-.11,.09v7.99c0,.06,.04,.09,.11,.09h1.11c.07,0,.11-.03,.11-.09v-2.91h3.01Z"/><path class="cls-2" d="M97.98,26.31v-10.29h-.42l.31-2.41h3.12v3.32l1.9-3.32h2.88l-3.03,5.3,3.43,7.41h-2.88l-2.3-4.97v4.97h-3.01Z"/></g><g><path class="cls-2" d="M41.79,11.36V5.64h-.23l.17-1.34h2.35c.63,0,1.09,.11,1.36,.34,.28,.23,.41,.59,.41,1.11v1.32c0,.2-.02,.38-.06,.53,.21,.22,.31,.56,.31,1.01v1.31c0,.51-.14,.88-.41,1.11-.28,.23-.73,.34-1.36,.34h-2.54Zm2.33-4.2s.06-.02,.06-.05v-1.42s-.02-.05-.06-.05h-.65v1.52h.65Zm.31,1.39s-.02-.05-.06-.05h-.9v1.52h.9s.06-.02,.06-.05v-1.41Z"/><path class="cls-2" d="M47.21,11.37V5.64h-.23l.17-1.34h1.74v5.72h2.35l-.1,1.34h-2.25s-1.68,.01-1.68,.01Z"/><path class="cls-2" d="M52.17,11.36l1.02-5.73h-.26l.17-1.34h2.87l1.27,7.07h-1.66l-.18-1.01h-1.38l-.18,1.01h-1.66Zm2.08-2.35h.91l-.46-2.52-.46,2.52Z"/><path class="cls-2" d="M62.15,8.43v1.57c0,.51-.14,.88-.41,1.11-.28,.23-.73,.34-1.36,.34h-.54c-.63,0-1.09-.11-1.36-.34-.28-.23-.41-.59-.41-1.11V5.66c0-.52,.14-.89,.41-1.11,.28-.22,.73-.33,1.36-.33h.54c.63,0,1.09,.11,1.36,.33,.28,.22,.41,.59,.41,1.11v1.52h-1.68v-1.57s-.02-.05-.06-.05h-.62s-.06,.02-.06,.05v4.44s.02,.05,.06,.05h.62s.06-.02,.06-.05v-1.62h1.68Z"/><path class="cls-2" d="M63.32,11.36V5.64h-.23l.17-1.34h1.74v1.85l1.06-1.85h1.6l-1.69,2.95,1.91,4.12h-1.6l-1.28-2.77v2.77h-1.68Z"/></g><g><polygon class="cls-4" points="20.35 26.76 17.41 26.76 16.25 15.15 3.42 8.29 3.44 7.03 6.13 3.52 7.02 3.52 6.51 6.75 12.08 8.91 25.9 8.87 31.41 6.87 30.95 3.61 31.82 3.61 34.47 7.03 34.47 8.29 21.52 15.17 20.35 26.76"/><polygon class="cls-4" points="27.42 13.21 21.54 15.81 20.44 26.76 22.41 26.76 24.42 26.76 27.42 13.21"/><polygon class="cls-4" points="10.43 13.21 16.23 15.81 17.34 26.76 15.44 26.76 13.48 26.76 10.43 13.21"/></g></g><text class="cls-3" transform="translate(.56 41.15)"><tspan class="cls-6" x="0" y="0">© 2023 BLACK-BUL</tspan><tspan class="cls-1" x="56.21" y="0">L</tspan><tspan class="cls-6" x="59.14" y="0">OCK</tspan></text></svg>