<?xml version="1.0" encoding="UTF-8"?><svg id="Capa_1" xmlns="http://www.w3.org/2000/svg" viewBox="0 0 66.87 66.83"><defs><style>.cls-1{fill:#fafafa;}.cls-2{fill:#161616;}</style></defs><path class="cls-1" d="M66.81,.04V66.82H.03V.03H15s51.81,0,51.81,0Z"/><g><path class="cls-2" d="M41.06,16.81c-6.26-2.94-13.75-1.63-18.66,3.25-4.99,4.96-6.36,12.38-3.37,18.72,.49,1.03,.54,1.9,.22,2.96-.67,2.22-1.24,4.48-1.9,6.94,2.62-.68,4.97-1.36,7.37-1.87,.81-.17,1.82-.12,2.57,.2,10.44,4.57,22.35-2.47,23.28-13.82,.57-6.91-3.23-13.44-9.52-16.38Zm1.67,25.65c-4.52,3.7-9.61,4.13-14.86,1.64-1.07-.51-1.97-.63-3.06-.27-1.05,.35-2.15,.56-3.46,.89,.36-1.32,.61-2.45,.99-3.54,.34-.97,.2-1.75-.29-2.68-2.67-5.06-2.44-10.08,.9-14.71,3.28-4.54,7.94-6.43,13.45-5.47,5.62,.98,9.41,4.39,10.9,9.91,1.52,5.62-.04,10.55-4.56,14.24Z"/><path class="cls-2" d="M41.11,35.05c-.39-.19-.8-.34-1.17-.57-1.17-.75-2.12-.79-2.86,.61-.5,.95-1.24,.97-2.18,.49-1.9-.98-3.42-2.33-4.6-4.1-.39-.59-.49-1.1,.08-1.6,1-.86,.97-1.83,.39-2.9-.27-.49-.43-1.04-.66-1.56-.65-1.48-2.08-1.75-3.19-.56-1.26,1.34-1.81,3.04-1.04,4.68,.91,1.93,2.08,3.79,3.44,5.44,2.35,2.86,5.53,4.37,9.69,4.93,.66-.36,1.8-.75,2.62-1.49,1.29-1.15,.97-2.61-.54-3.35Z"/></g></svg>