<?xml version="1.0" encoding="UTF-8"?><svg id="Capa_1" xmlns="http://www.w3.org/2000/svg" viewBox="0 0 83.62 87.3"><defs><style>.cls-1{stroke:#829c76;stroke-miterlimit:10;stroke-width:1.36px;}.cls-1,.cls-2{fill:#241d16;}.cls-3{fill:#829c76;}</style></defs><rect class="cls-3" x=".38" y=".33" width="82.78" height="86.57" rx="4.64" ry="4.64"/><g><path class="cls-2" d="M25.43,76.96v-8.4h-.34l.25-1.97h3.45c.93,0,1.59,.17,2,.5,.4,.33,.61,.87,.61,1.62v1.94c0,.3-.03,.56-.09,.78,.3,.33,.45,.82,.45,1.48v1.93c0,.75-.2,1.29-.61,1.62-.4,.33-1.07,.5-2,.5h-3.73Zm3.42-6.16c.06,0,.09-.03,.09-.07v-2.09s-.03-.07-.09-.07h-.96v2.24h.96Zm.45,2.04s-.03-.07-.09-.07h-1.32v2.22h1.32c.06,0,.09-.02,.09-.07v-2.07Z"/><path class="cls-2" d="M36.43,76.96v-8.4h-.34l.25-1.97h3.45c.93,0,1.59,.17,2,.5,.4,.33,.61,.87,.61,1.62v1.94c0,.3-.03,.56-.09,.78,.3,.33,.45,.82,.45,1.48v1.93c0,.75-.2,1.29-.61,1.62-.4,.33-1.07,.5-2,.5h-3.73Zm3.42-6.16c.06,0,.09-.03,.09-.07v-2.09s-.03-.07-.09-.07h-.96v2.24h.96Zm.45,2.04s-.03-.07-.09-.07h-1.32v2.22h1.32c.06,0,.09-.02,.09-.07v-2.07Z"/><path class="cls-2" d="M50.04,72.66v2.3c0,.75-.2,1.29-.61,1.62s-1.07,.5-2,.5h-.8c-.93,0-1.59-.17-2-.5-.4-.33-.61-.87-.61-1.62v-6.37c0-.76,.2-1.3,.61-1.63s1.07-.49,2-.49h.8c.93,0,1.59,.16,2,.49s.61,.87,.61,1.63v2.24h-2.46v-2.31s-.03-.07-.09-.07h-.9c-.06,0-.09,.03-.09,.07v6.52s.03,.07,.09,.07h.9c.06,0,.09-.02,.09-.07v-2.37h2.46Z"/><path class="cls-2" d="M51.76,76.96v-8.4h-.34l.25-1.97h2.55v2.71l1.56-2.71h2.35l-2.48,4.32,2.8,6.04h-2.35l-1.88-4.06v4.06h-2.46Z"/><rect class="cls-2" x="33.02" y="70.8" width="1.94" height="1.93"/></g><g><polygon class="cls-1" points="44.68 59.75 38.59 59.75 36.19 35.72 9.63 21.53 9.67 18.92 15.25 11.66 17.09 11.66 16.03 18.35 27.57 22.81 56.17 22.73 67.58 18.6 66.62 11.86 68.42 11.86 73.91 18.92 73.91 21.53 47.1 35.77 44.68 59.75"/><polygon class="cls-1" points="59.33 31.71 47.14 37.09 44.88 59.75 48.95 59.75 53.12 59.75 59.33 31.71"/><polygon class="cls-1" points="24.14 31.71 36.16 37.09 38.45 59.75 34.52 59.75 30.47 59.75 24.14 31.71"/></g></svg>