<?xml version="1.0" encoding="UTF-8"?><svg id="Capa_1" xmlns="http://www.w3.org/2000/svg" viewBox="0 0 83.62 87.3"><defs><style>.cls-1{fill:#ffca00;}.cls-2,.cls-3{fill:#241d16;}.cls-3{stroke:#ffcc03;stroke-miterlimit:10;stroke-width:1.36px;}</style></defs><rect class="cls-1" x=".32" y=".28" width="82.88" height="86.75" rx="4.64" ry="4.64"/><g><path class="cls-2" d="M25.4,77.06v-8.41h-.34l.25-1.97h3.46c.93,0,1.6,.17,2,.5,.4,.33,.61,.87,.61,1.63v1.94c0,.3-.03,.56-.09,.79,.3,.33,.45,.82,.45,1.48v1.93c0,.75-.2,1.29-.61,1.62-.4,.33-1.07,.5-2,.5h-3.73Zm3.42-6.17c.06,0,.09-.03,.09-.07v-2.09s-.03-.07-.09-.07h-.96v2.24h.96Zm.45,2.05s-.03-.07-.09-.07h-1.32v2.23h1.32c.06,0,.09-.02,.09-.07v-2.08Z"/><path class="cls-2" d="M36.41,77.06v-8.41h-.34l.25-1.97h3.46c.93,0,1.6,.17,2,.5,.4,.33,.61,.87,.61,1.63v1.94c0,.3-.03,.56-.09,.79,.3,.33,.45,.82,.45,1.48v1.93c0,.75-.2,1.29-.61,1.62-.4,.33-1.07,.5-2,.5h-3.73Zm3.42-6.17c.06,0,.09-.03,.09-.07v-2.09s-.03-.07-.09-.07h-.96v2.24h.96Zm.45,2.05s-.03-.07-.09-.07h-1.32v2.23h1.32c.06,0,.09-.02,.09-.07v-2.08Z"/><path class="cls-2" d="M50.04,72.75v2.3c0,.75-.2,1.29-.61,1.63s-1.07,.5-2,.5h-.8c-.93,0-1.6-.17-2-.5s-.61-.87-.61-1.63v-6.38c0-.76,.2-1.31,.61-1.63s1.07-.49,2-.49h.8c.93,0,1.6,.16,2,.49s.61,.87,.61,1.63v2.24h-2.46v-2.31s-.03-.07-.09-.07h-.91c-.06,0-.09,.03-.09,.07v6.53s.03,.07,.09,.07h.91c.06,0,.09-.02,.09-.07v-2.38h2.46Z"/><path class="cls-2" d="M51.76,77.06v-8.41h-.34l.25-1.97h2.55v2.72l1.56-2.72h2.35l-2.48,4.33,2.81,6.05h-2.35l-1.88-4.07v4.07h-2.46Z"/><rect class="cls-2" x="32.99" y="70.88" width="1.94" height="1.94"/></g><g><polygon class="cls-3" points="44.67 59.82 38.58 59.82 36.17 35.73 9.59 21.52 9.62 18.91 15.21 11.63 17.05 11.63 15.99 18.33 27.55 22.8 56.18 22.72 67.6 18.58 66.64 11.83 68.44 11.83 73.93 18.91 73.93 21.52 47.1 35.78 44.67 59.82"/><polygon class="cls-3" points="59.34 31.72 47.14 37.11 44.87 59.82 48.95 59.82 53.12 59.82 59.34 31.72"/><polygon class="cls-3" points="24.11 31.72 36.14 37.11 38.43 59.82 34.5 59.82 30.45 59.82 24.11 31.72"/></g></svg>