<?xml version="1.0" encoding="UTF-8"?><svg id="Capa_1" xmlns="http://www.w3.org/2000/svg" viewBox="0 0 460.77 447.32"><defs><style>.cls-1{fill:#fff;}.cls-2{fill:#828282;}</style></defs><path class="cls-2" d="M113.27,63.5c10.68,8.11,8.53,8.71,31.45,28.83,18.24,16.01,21.49,17.12,23.96,17.97,17.02,5.87,9.51,1.47,26.27,4.45,13.69,2.44,12.49,12.26,43.81,34.45,13.4,9.49,20.5,12.57,28.45,11.98,10.17-.75,11.96-6.77,20.97-8.24,20.39-3.33,20.05-1.19,44.55,27.33,16.85,19.61,11.68,32.35,28.45,44.18,6.09,4.29,6.49,2.59,20.97,10.86,20.48,11.69,23.43,17.91,29.2,16.85,2.73-.5,41.5-39.54,48.21-48.22l-20.13-5.7s-37.37-20.17-67.02-39.69c-43.78-28.81-35.86-33.24-67.02-50.92-32.88-18.65-38.64-11.99-77.13-34.07-16.95-9.72-35.08-22.05-50.54-32.57C147.44,20.39,117.87,7.32,102.46,1.15c-3.73-1.49-11.92,3.76-27.32,20.74-.87,.96-32.33,13.55-36.05,17.28-7.64,7.64,54.31,9.24,74.18,24.32Z"/><path class="cls-1" d="M62.61,64.71c4.34,2.22,8.67,4.47,13.04,6.63,1.17,.58,2.5,.8,3.72,1.3,.71,.29,1.46,.68,1.98,1.22,2.26,2.34,4.52,4.7,6.64,7.16,5.01,5.82,10.69,10.96,16.25,16.23,.12,.12,.28,.2,.45,.32,.35-.18,.69-.35,1.21-.61-.15,.75,.11,1.2,.44,1.73,1.34,2.18,3.39,3.62,5.19,5.33,1.79,1.7,3.63,3.34,5.45,5,3.19,2.9,6.33,5.87,9.59,8.69,3.56,3.08,7.3,5.95,10.84,9.06,2.11,1.85,4,3.95,5.93,6,2.74,2.92,5.34,5.98,8.15,8.83,1.97,2,4.18,3.77,6.29,5.64,1.39,1.22,2.78,2.44,4.18,3.64,.33,.29,.68,.57,1.06,.78,3.73,2.07,7.47,4.13,11.21,6.19,.19,.1,.4,.17,.74,.32,.24-.42,.52-.8,.68-1.22,.45-1.15,.89-2.3,1.25-3.48,.31-.99,.81-1.81,1.52-2.58,8.46-9.14,16.91-18.3,25.35-27.46,1.49-1.62,2.98-3.23,4.54-4.94,.5,.23,.99,.4,1.43,.66,1.56,.91,3.1,1.85,4.64,2.78,.15,.09,.31,.19,.41,.33,1.48,1.84,3.44,3.27,4.58,5.41,.82,1.53,1.92,2.84,3.27,3.93,.78,.62,1.3,1.41,1.69,2.32,.8,1.81,1.63,3.61,2.43,5.42,.22,.5,.5,.87,1.03,1.13,.44,.22,.83,.64,1.11,1.06,.4,.63,.91,1.04,1.61,1.28,1.09,.36,2.03,.89,2.86,1.78,1.04,1.11,2.39,1.94,3.51,2.98,1.8,1.68,3.51,3.46,5.28,5.17,.44,.43,.92,.82,1.43,1.15,1.92,1.25,3.81,2.55,5.8,3.67,2.44,1.37,4.19,3.47,6.11,5.4,4.54,4.55,9.06,9.12,13.59,13.68,.12,.12,.27,.22,.53,.43,.42-.44,.84-.86,1.25-1.29,.8-.83,.86-.84,1.94-.39,.16,.07,.33,.13,.48,.21,.95,.52,1.05,.78,.65,1.79-.55,1.39-1.12,2.77-1.69,4.16-.11,.28-.21,.57-.36,.97,1.02,.45,2,.89,3.16,1.41,.17-2.59,1.41-4.68,2.21-6.96,.3,.01,.54-.04,.72,.05,1.46,.69,2.92,1.4,4.37,2.12,.94,.47,1.84,1.03,2.81,1.43,2.57,1.04,5.14,2.08,7.75,3,1.61,.57,3.28,1.01,4.96,1.36,2.38,.49,4.48,1.53,6.44,2.9,1.52,1.05,3.01,2.16,4.57,3.15,1,.63,2.07,1.17,3.16,1.62,3.54,1.44,6.79,3.31,9.59,5.93,.57,.54,1.23,.83,1.99,.94,1.1,.16,2.11,.57,3.08,1.11,2.54,1.41,5.11,2.76,7.66,4.16,.53,.29,1.05,.66,1.49,1.07,3.93,3.73,7.83,7.48,11.76,11.21,.38,.36,.83,.64,1.26,.95,3.82,2.73,8.13,4.55,12.32,6.6,3.16,1.55,6.34,3.07,9.5,4.61,.38,.18,.71,.46,1.22,.8-5.61,6.28-11.1,12.44-16.67,18.68,.9,1.32,1.82,2.54,2.6,3.85,1.14,1.9,2.7,3.22,4.61,4.36,2.5,1.49,5,2.72,7.98,2.68,2.75-.04,5,1.07,6.85,3.07,.32,.35,.75,.61,1.2,.97-.28,.2-.55,.38-.86,.59-1.06-.88-2.09-1.7-3.08-2.58-.49-.43-1.01-.65-1.65-.72-1.92-.22-3.85-.43-5.76-.73-.76-.12-1.54-.38-2.21-.74-1.66-.9-3.3-1.86-4.9-2.87-.61-.39-1.18-.92-1.62-1.5-1.03-1.37-2.04-2.77-2.93-4.23-1.67-2.73-4.28-4.53-6.5-6.7-.63-.62-1.43-.68-2.32-.28-1.84,.83-3.73,1.58-5.61,2.32-.57,.22-1.17,.41-1.78,.46-3.28,.31-6.58,.56-9.86,.87-.79,.07-1.46-.09-2.13-.48-6.46-3.71-13.21-6.83-20-9.85-1.47-.65-2.78-1.68-4.13-2.58-2.53-1.68-5.02-3.42-7.55-5.1-.42-.28-.94-.55-1.43-.59-1.71-.16-3.43-.2-5.14-.31-.52-.03-.93,.05-1.24,.53-2.79,4.27-6.55,7.7-9.9,11.49-.35,.39-.69,.79-1.15,1.32,4.07,3.88,8.15,7.67,12.27,11.42,4.1,3.73,8.3,7.35,12.58,11.13-2.01,2.48-4.21,4.73-6.3,7.08-2.11,2.36-4.23,4.71-6.33,7.05,.63,1.07,22.47,21.75,23.92,22.65,.49-.52,1.03-1.04,1.5-1.61,.45-.54,.94-.71,1.63-.52,2.71,.76,5.43,1.47,8.13,2.27,.51,.15,1.02,.51,1.41,.9,5.05,4.97,10.09,9.96,15.12,14.95,4.47,4.44,8.93,8.88,13.37,13.34,1.13,1.13,2.38,1.91,4.02,2.01,1.1,.07,2.19,.18,3.28,.33,.68,.1,1.18-.1,1.63-.61,.49-.56,1.03-1.07,1.59-1.65-1.3-2.11-2.55-4.18-3.86-6.21-.46-.71-.61-1.38-.45-2.23,.29-1.55,.51-3.13,.64-4.7,.08-.99,.48-1.75,1.13-2.44,2.2-2.34,4.39-4.69,6.57-7.05,1.5-1.61,2.99-3.23,4.49-4.84,.25-.27,.54-.49,.8-.74,.09,.07,.17,.14,.26,.22-.27,.36-.51,.74-.82,1.07-3.59,3.87-7.17,7.75-10.79,11.6-.67,.71-1.07,1.44-1.16,2.42-.14,1.49-.38,2.96-.62,4.44-.12,.73-.02,1.34,.4,1.99,1.23,1.88,2.38,3.8,3.56,5.71,.16,.25,.28,.53,.43,.83-.26,.29-.47,.56-.72,.81-5.19,5.26-10.39,10.53-15.59,15.79-5.82,5.89-11.64,11.77-17.45,17.66-3.52,3.57-7.03,7.16-10.54,10.74-.37,.38-.74,.77-1.02,1.2-2.16,3.27-4.31,6.54-6.45,9.82-.14,.21-.23,.46-.38,.78,.42,.3,.81,.58,1.2,.84,2.16,1.44,4.3,2.91,6.49,4.31,1.71,1.09,3.29,2.35,4.74,3.77,3.62,3.54,7.25,7.07,10.88,10.59,1.83,1.78,3.67,3.55,5.52,5.31,.28,.27,.62,.49,.96,.68,4.74,2.61,9.47,5.24,14.25,7.78,2.09,1.11,3.77,2.73,5.65,4.1,.67,.49,1.36,1.01,2.12,1.29,1.56,.58,2.9,1.47,4.06,2.63,1.22,1.22,2.63,1.98,4.34,2.29,1.42,.26,2.81,.67,4.28,1.04-.09,.64-.35,.91-.95,.76-1.92-.47-3.85-.92-5.76-1.43-.36-.1-.69-.37-1-.62-.55-.44-1.09-.89-1.6-1.37-1.08-1-2.28-1.76-3.66-2.29-.65-.25-1.3-.59-1.81-1.04-2.99-2.65-6.39-4.65-9.89-6.51-3.19-1.69-6.31-3.51-9.52-5.15-1.53-.79-2.69-1.97-3.89-3.12-4.82-4.64-9.6-9.32-14.4-13.98-1.39-1.35-2.87-2.58-4.5-3.64-7.69-4.96-15.38-9.94-23.02-14.97-1.27-.84-2.36-1.97-3.48-3.02-3.66-3.43-7.3-6.88-10.95-10.32-4.16-3.93-8.33-7.84-12.48-11.78-.66-.62-1.38-1.03-2.28-1.22-1.85-.4-3.67-.9-5.52-1.31-.89-.2-1.63-.59-2.29-1.21-2.4-2.26-4.83-4.5-7.23-6.76-.32-.3-.63-.63-.86-.99-2.4-3.88-5.61-7.11-8.54-10.56-3.1-3.66-6.3-7.24-9.38-10.91-.95-1.14-1.69-2.46-2.49-3.72-1.36-2.16-2.76-4.3-4.02-6.52-1.28-2.26-2.43-4.59-3.58-6.91-2.03-4.1-4-8.23-6.02-12.34-.23-.46-.58-.88-.96-1.23-4.68-4.34-9.38-8.66-14.08-12.98-3.53-3.24-7.06-6.47-10.6-9.69-.47-.43-.99-.82-1.44-1.19-1.52,1.47-2.97,2.74-4.28,4.16-5.81,6.32-11.58,12.68-17.36,19.02-2.19,2.41-4.36,4.84-6.58,7.23-.52,.56-.73,1.09-.69,1.87,.32,5.62,.59,11.25,.85,16.88,.04,.78,.25,1.43,.69,2.08,2.67,3.93,5.34,7.87,7.96,11.83,.52,.79,.96,1.68,1.25,2.59,1.57,4.95,3.07,9.92,4.62,14.87,.26,.83,.65,1.63,1.03,2.42,1.18,2.46,2.47,4.87,3.56,7.37,.86,1.97,1.54,4.02,2.19,6.07,2.66,8.39,5.28,16.79,7.92,25.18,.26,.81,.36,1.61,.26,2.46-.66,5.5-1.27,11.01-1.92,16.52-.61,5.15-1.23,10.31-1.86,15.46-.07,.61-.21,1.22-.42,1.79-2.24,6.02-4.51,12.03-6.76,18.04-.24,.65-.41,1.34-.6,2.01-.12,.41-.11,.41-.87,.49-.31-.85-.02-1.63,.27-2.41,2.22-5.94,4.44-11.87,6.63-17.81,.33-.89,.53-1.86,.65-2.8,.71-5.59,1.39-11.18,2.05-16.77,.56-4.72,1.07-9.44,1.61-14.16,.11-.97,.02-1.9-.28-2.86-2.85-9.07-5.63-18.16-8.51-27.21-.56-1.75-1.36-3.44-2.23-5.06-2.5-4.64-4.15-9.6-5.6-14.64-.86-2.96-1.77-5.9-2.72-8.83-.24-.74-.63-1.46-1.06-2.11-2.7-4.07-5.42-8.13-8.18-12.16-.61-.88-.85-1.79-.89-2.83-.19-5.06-.4-10.11-.61-15.17,0-.16-.05-.32-.11-.65-.32,.28-.55,.45-.74,.66-2.14,2.4-4.17,4.9-6.43,7.17-3.21,3.22-5.92,6.85-8.96,10.2-1.21,1.33-2.59,2.51-3.97,3.67-4.09,3.45-7.61,7.44-11.16,11.4-5.43,6.06-10.72,12.26-16.22,18.26-3.87,4.22-7.46,8.66-11.07,13.08-.96,1.18-1.46,2.61-1.81,4.06-.59,2.44-1.1,4.89-1.61,7.35-.16,.76-.49,1.39-1.02,1.95-2.74,2.93-5.46,5.86-8.19,8.79-2.13,2.29-4.26,4.57-6.38,6.87-.3,.32-.56,.67-.79,.94,2.64,5.28,5.24,10.46,7.82,15.66,2.45,4.93,4.88,9.86,7.31,14.8,.78,1.59,.6,3.3,.29,4.92-.8,4.23-1.75,8.44-2.64,12.66-.18,.85-.37,1.7-.56,2.53-.79,.07-.93-.26-.8-.86,.44-2.07,.86-4.14,1.3-6.2,.58-2.71,1.26-5.4,1.72-8.13,.32-1.9,.22-3.76-.73-5.62-4.54-8.95-8.96-17.96-13.43-26.94-.31-.62-.69-1.2-1.08-1.89-.38,.35-.69,.53-.87,.81-.83,1.31-2.01,1.32-3.33,1.01-1.43-.33-2.81-.37-4.22,.32-2.68,1.32-5.46,2.45-8.14,3.78-1.81,.9-3.48,.93-5.28,0-1.52-.79-3.13-1.41-4.7-2.08-.36-.15-.75-.31-1.13-.3-4,.1-8.01,.22-12.01,.37-.69,.03-1.4,.15-2.07,.34-8.78,2.42-17.55,4.86-26.32,7.28-.51,.14-1.17,.46-1.3-.65,1.31-.38,2.64-.77,3.98-1.14,7.84-2.17,15.68-4.35,23.53-6.49,.92-.25,1.9-.36,2.86-.4,3.65-.13,7.3-.24,10.95-.28,.76,0,1.56,.21,2.28,.5,1.79,.73,3.55,1.55,5.31,2.34,.81,.36,1.62,.41,2.43,.04,3.48-1.58,6.96-3.18,10.44-4.78,.27-.13,.52-.32,.89-.55-.27-.65-.51-1.29-.79-1.92-1.41-3.17-2.85-6.34-4.24-9.52-.28-.63-.43-1.34-.51-2.03-.29-2.58-.51-5.17-.81-7.75-.07-.64-.21-1.31-.49-1.9-5.43-11.55-10.88-23.09-16.32-34.63-1.01-2.15-2-4.31-3.06-6.44-.35-.69-.85-1.33-1.37-1.91-2.34-2.63-4.81-5.15-7.03-7.87-2.08-2.55-3.86-5.36-5.88-7.97-1.13-1.45-2.46-2.75-3.73-4.09-3.61-3.8-7.24-7.57-10.86-11.36-1.61-1.69-3.21-3.38-4.8-5.09-.79-.86-1.64-1.27-2.81-.76-.8,.34-1.66,.56-2.57,.86-.13-.3-.25-.56-.41-.92,1.18-.43,2.28-.84,3.51-1.29-1.09-1.3-2.07-2.49-3.05-3.66-.96-1.15-1.91-2.3-2.88-3.44-1-1.17-2.04-2.31-3.04-3.49-.95-1.12-2.02-2.16-2.92-3.48,.96-.22,1.39,.28,1.83,.78,2.63,2.96,5.26,5.93,7.9,8.88,1.17,1.31,2.38,2.58,3.41,3.71,2.29-.19,4.38-.42,6.48-.52,3.45-.16,6.79-.95,10.12-1.78,1.7-.42,3.41-.91,5.01-1.6,1.79-.77,3.61-1.05,5.51-1.06,4.23-.03,8.45-.14,12.68-.06,1.51,.03,3.03,.48,4.52,.84,5.86,1.41,11.71,2.84,17.55,4.33,1.71,.44,3.39,.3,5.33,.33-.23-.62-.38-1.1-.57-1.57-2.27-5.63-4.57-11.25-6.79-16.91-.59-1.51-.99-3.1-1.38-4.68-2.15-8.71-4.24-17.45-6.43-26.15-.57-2.26-1.37-4.46-2.2-6.64-1.28-3.36-2.01-6.83-2.53-10.36-1.14-7.81-3.04-15.45-5.04-23.07-.63-2.43-1.25-4.86-1.83-7.3-.14-.59-.17-1.22-.12-1.82,.24-2.67,.46-5.35,.81-8.01,.27-2.04,.06-4.02-.3-6.02-.55-3.12-1.04-6.25-1.43-9.39-.19-1.52-.07-3.08-.11-4.62,0-.33-.07-.67-.13-1.21-.66,.39-1.18,.69-1.68,1.01-8.81,5.66-17.62,11.33-26.43,17-2.48,1.59-4.96,3.19-7.46,4.76-3.24,2.03-6.5,4.03-9.75,6.03-.34,.21-.71,.37-1.07,.55-.05-.1-.11-.2-.16-.3,3.62-2.27,7.25-4.53,10.86-6.82,3.61-2.29,7.19-4.6,10.79-6.9,3.64-2.32,7.28-4.63,10.91-6.96,3.59-2.3,7.17-4.61,10.84-6.97-.73-1.71-1.41-3.31-2.1-4.95,.45-.29,.81-.52,1.22-.78-.33-.8-.65-1.56-1.03-2.46,1.9-1.22,3.77-2.42,5.82-3.72-1.17-1.46-2.29-2.84-3.44-4.28-1.47,.91-2.84,1.76-4.34,2.68-.41-.67-.78-1.25-1.13-1.85-.58-.99-1.14-1.98-1.72-2.97-.28-.48-.45-1.07-1.16-1.14-.13-.01-.27-.22-.36-.36-.79-1.21-1.57-2.43-2.34-3.63,.37-.61,1.19-.74,1.16-1.58,0-.22,.59-.46,.89-.7,.59-.46,1.39-.66,1.67-1.55-.29,.13-.62,.2-.87,.39-.56,.42-1.12,.44-1.73,.16-.2-.09-.43-.12-.62-.22-1.18-.66-2.23-.63-3.16,.46-.39,.45-.91,.51-1.44,.23-1.27-.67-2.33-.34-3.34,.58-.51,.47-1.13,.81-1.83,1.3-.52-.77-1-1.48-1.53-2.26-1.35,.82-2.66,1.61-4.06,2.46-.69-1.05-1.31-1.99-2.01-3.06-.62,.4-1.2,.76-1.85,1.17,.17,.37,.25,.73,.46,.98,.76,.92,.75,1.92,.39,2.98-.14,.42-.16,.88-.33,1.27-.17,.37-.47,.69-.73,1.02-.05,.07-.15,.09-.22,.14-.95,.56-1.84,1.41-2.86,1.59-1,.17-2.13-.34-3.19-.57-.69-.15-1.38-.29-2.05-.52-.72-.25-1.28-.16-1.83,.59,.92,1.55,1.88,3.15,2.87,4.8-.49,.38-.9,.7-1.42,1.11,.67,1.08,1.33,2.15,2.04,3.28-3.23,1.98-6.36,3.9-9.58,5.86,.33,.75,.64,1.46,1,2.26-.3,.21-.57,.41-.85,.6-.18,.12-.51,.24-.52,.37-.06,1.21-1.18,1.27-1.88,1.78-.32,.23-.67,.42-1.15,.71,1.4,2.26,2.78,4.48,4.19,6.76,.83-.41,1.54-.76,2.43-1.2-.51,.89-.9,1.15-2.59,1.85-1.65-2.44-3.2-4.96-4.74-7.67,.72-.41,1.33-.73,1.92-1.1,.45-.28,1.12-.39,1.02-1.19-.01-.13,.27-.32,.44-.44,.32-.22,.65-.42,1.02-.66-.31-.78-.6-1.5-.91-2.28,.43-.32,.8-.6,1.27-.95-.82-1.35-1.63-2.68-2.6-4.26,1.18,.39,1.3,1.3,1.76,1.9,.5,.66,.92,1.38,1.39,2.11,2.55-1.55,5.02-3.04,7.63-4.62-.69-1.1-1.35-2.16-2.04-3.26,.5-.38,.9-.7,1.46-1.13-.89-1.44-1.77-2.88-2.68-4.36-.34,.18-.57,.29-.79,.43-3.01,1.91-6.01,3.83-9.04,5.71-.71,.44-.97,.83-1.02,1.8-.01,.3,.07-69.86,.05-69.85s.07,.06,.1,.09c.03,.03,.08,.05,.22,.13,2.02-2.13,4.05-4.27,6.11-6.45-1.73-1.86-3.67-3.28-5.13-5.19,.42,.12,.77,.34,1.06,.62,2.78,2.61,5.51,5.29,8.35,7.83,1.83,1.64,3.12,3.5,3.59,5.94,.17,.88,.54,1.73,.87,2.71,.99-.72,1.65-1.36,1.33-2.57-.3-1.19-.44-2.42-.78-3.6-1.04-3.59-2.16-7.15-3.22-10.74-.16-.53-.11-1.11-.23-1.66-.1-.45-.19-1-.49-1.3-1.35-1.38-2.77-2.68-4.17-4.01h1.85c.05,.12,.06,.26,.14,.35,2.2,2.33,4.4,4.66,6.61,6.99,.38,.4,.78,.78,1.16,1.16,1.61-1.41,1.66-1.47,1.98-2.63,1.21,1.05,2.38,2.07,3.62,3.15,1.19-1.24,2.31-2.4,3.42-3.56-.18-.39-.32-.67-.56-1.17,.51,.19,.77,.28,1.09,.4-.07-.32-.14-.61-.23-1.01,.42,.18,.68,.29,1.06,.46,.3-.35,.56-.71,.88-1,.32-.3,.53-.8,1.4-.82-.79,.9-1.4,1.59-1.79,2.03,.73,.87,1.4,1.66,2.06,2.43,.69-.26,.83-1.23,1.99-1.34-.85,1.02-1.5,1.81-2.11,2.54,1.59,1.58,3.07,3.07,4.48,4.47,1.45-1.41,2.94-2.88,4.49-4.39-.14-.21-.3-.46-.48-.7-1.36-1.78-2.71-3.56-4.08-5.33-.53-.68-1.08-1.35-1.62-2.02h.53c2.16,2.43,3.99,5.15,6.42,7.52,.68-.91,1.44-1.56,2.16-2.26,1.49-1.48,2.94-3,4.4-4.51,.2-.21,.34-.5,.5-.75h1.32c.94,.54,1.87,1.1,2.82,1.62,.96,.52,1.93,1,2.9,1.5,.04-.08,.08-.16,.13-.24-.47-.3-.94-.61-1.42-.9-1.12-.67-2.25-1.32-3.38-1.98h1.06c.93,.54,1.85,1.08,2.86,1.67,.5-.61,.94-1.14,1.37-1.67h.79c-.53,.62-1.06,1.24-1.61,1.89q.61,.3,1.86-.85c1.01,.57,1.99,1.27,3.07,1.69,1.25,.49,1.61,1.78,2.56,2.59,1.04-.64,2.03-1.24,3.12-1.91-.41-.31-.63-.52-.9-.66-1.73-.92-3.46-1.83-5.2-2.75h4.76ZM238.83,207.91c.21,.63,.72,.93,1.19,1.26,.07-.09,.14-.17,.21-.26-.48-.32-.95-.65-1.43-.97-.29-.64-.78-1.04-1.53-1.12,.52,.36,1.03,.73,1.55,1.09Zm122.91,125.53c-1.49-.15-2.66-.31-3.84-.38-1.53-.09-2.78-.73-3.85-1.79-4.44-4.4-8.88-8.8-13.31-13.2-5.12-5.09-10.23-10.19-15.37-15.26-.42-.42-.95-.83-1.5-.99-2.57-.75-5.17-1.4-7.76-2.12-.63-.18-1.06-.09-1.49,.46-.53,.67-1.18,1.25-1.75,1.85-1.97-1.41-24.06-22.4-24.64-23.41,4.16-4.71,8.47-9.32,12.67-14.12-3.42-2.97-6.71-5.81-10.08-8.74-5.98,6.37-11.86,12.64-17.84,19.01-6.07-5.46-12.01-10.81-18.03-16.22-5.98,6.64-11.86,13.17-17.81,19.77-6.92-5.82-13.3-12.05-20.04-17.95-4.65,5.18-9.17,10.21-13.77,15.34,.54,.49,.99,.9,1.44,1.32,4.44,4.08,8.88,8.16,13.3,12.26,.44,.41,.88,.89,1.15,1.42,.9,1.71,1.73,3.46,2.58,5.2,3.29,6.76,6.4,13.62,10.62,19.89,.96,1.42,1.73,2.99,2.83,4.29,3.59,4.28,7.31,8.45,10.93,12.71,2.22,2.61,4.63,5.07,6.49,7.98,.54,.84,1.24,1.59,1.95,2.29,1.44,1.42,2.97,2.75,4.42,4.16q2.67,2.58,6.28,3.47c.51,.12,1.01,.33,1.53,.39,2.15,.24,3.78,1.29,5.34,2.79,7.26,6.98,14.62,13.85,21.97,20.74,1.44,1.35,2.83,2.76,4.53,3.82,3.62,2.25,7.19,4.59,10.79,6.89,.95,.61,1.91,1.2,2.91,1.82,.31-.42,.55-.73,.77-1.06,1.42-2.17,2.83-4.35,4.27-6.51,.88-1.32,1.72-2.67,2.73-3.87,1.13-1.35,2.42-2.55,3.65-3.81,4.76-4.83,9.51-9.66,14.28-14.48,6.68-6.77,13.37-13.53,20.05-20.29,1.11-1.12,2.21-2.25,3.58-3.65ZM55.16,168.44c.33,2.49,.65,4.93,.97,7.36,.23,1.78,.7,3.57,.63,5.35-.11,3.03-.54,6.04-.88,9.06-.11,1.02-.12,2,.15,3,.73,2.77,1.38,5.55,2.11,8.32,1.82,6.94,3.53,13.9,4.58,21.01,.52,3.48,1.15,6.93,2.4,10.26,1,2.67,1.92,5.4,2.63,8.16,1.71,6.6,3.25,13.25,4.9,19.86,1,4,1.78,8.06,3.43,11.9,2.18,5.1,4.18,10.27,6.21,15.43,.32,.82,.75,1.14,1.64,1.16,1.71,.04,3.43,.19,5.13,.36,.6,.06,1.21,.25,1.76,.5,2,.91,3.99,1.86,5.97,2.81,5.2,2.48,10.39,4.99,15.6,7.45,1.42,.67,2.86,1.42,4.37,1.79,2.99,.72,6.04,1.17,9.06,1.78,2.98,.61,5.95,1.2,9.02,1.04,.73-.04,1.49,.14,2.22,.25,4.52,.72,9.03,1.44,13.55,2.18,.81,.13,1.44-.03,2.01-.66,2.67-2.98,5.36-5.95,8.05-8.92,.5-.55,.76-1.17,.67-1.93-.22-1.75-.47-3.49-.64-5.24-.07-.75-.37-1.27-.92-1.8-12.24-11.53-24.44-23.1-36.69-34.6-1.17-1.1-1.65-2.26-1.67-3.81-.02-2.16-.28-4.29-.84-6.4-1.22-4.64-2.35-9.3-3.51-13.96-.15-.6-.3-1.2-.35-1.81-.18-2.55-.33-5.09-.48-7.64-.23-3.78-.47-7.56-.66-11.34-.2-3.86-.32-7.73-.51-11.6-.13-2.5-.11-5.04-.57-7.49-.54-2.88-1.53-5.68-2.34-8.51-.03-.11-.16-.19-.25-.29-.41,0-.82-.07-1.19,.01-1.62,.34-3.11,.18-4.41-1.12-.36,.38-.7,.77-1.08,1.13-.48,.45-1.15,.49-1.68,.1-.21-.15-.38-.36-.57-.55-2.77-2.71-5.55-5.41-8.29-8.15-.52-.52-1.04-.72-1.75-.66-1.27,.12-2.56,.07-3.81,.29-1.82,.31-2.9-.6-3.8-1.96-.19-.29-.36-.6-.55-.9-1.94-3.25-3.88-6.5-5.82-9.75-.2-.33-.43-.63-.71-1.04-4.49,2.83-8.9,5.61-13.38,8.43-.79-1.24-1.49-2.34-2.23-3.51-2.51,1.55-4.9,3.03-7.47,4.62ZM15.35,290.25c.41,.47,.61,.7,.82,.92,5,5.26,9.98,10.55,15.03,15.77,2.83,2.91,5.49,5.94,7.77,9.3,1.16,1.71,2.36,3.41,3.7,4.98,1.8,2.11,3.72,4.11,5.64,6.11,.96,1,1.71,2.09,2.3,3.34,3.68,7.85,7.38,15.69,11.08,23.53,2.61,5.53,5.22,11.06,7.81,16.6,.26,.55,.47,1.15,.54,1.75,.31,2.75,.56,5.52,.83,8.27,.11,1.17,1.06,3.51,1.77,4.34,.73-.34,1.47-.69,2.32-1.09,1.77,3.56,3.14,7.18,5.11,10.64,.37-.31,.65-.5,.88-.75,5.54-5.96,11.09-11.92,16.61-17.9,.36-.39,.63-.95,.76-1.47,.6-2.52,1.09-5.08,1.71-7.6,.4-1.63,1.01-3.17,2.14-4.48,3.33-3.85,6.31-7.99,9.85-11.66,3.05-3.16,5.82-6.6,8.77-9.87,5.42-6.02,10.89-11.99,16.31-18,1.57-1.74,3.2-3.39,5.15-4.71,.32-.22,.63-.48,.89-.78,2.31-2.6,4.62-5.2,6.91-7.81,.18-.21,.28-.48,.46-.78-.42-.11-.71-.21-1.01-.26-2.69-.46-5.37-.95-8.07-1.37-3.43-.53-6.8-1.48-10.32-1.32-.3,.01-.61-.08-.91-.13-4.45-.85-8.89-1.73-13.35-2.53-1.1-.2-2.12-.53-3.11-1-1.51-.72-3.02-1.44-4.53-2.16-5.92-2.82-11.83-5.65-17.75-8.46-.39-.19-.83-.36-1.25-.38-2.37-.14-4.75-.4-7.12-.29-1.88,.09-3.72-.09-5.49-.49-5.36-1.21-10.68-2.61-16.01-3.96-3.24-.82-6.45-1.53-9.87-1.32-4.17,.25-8.36,.11-12.54,.16-.47,0-.99,.06-1.41,.25-2.58,1.18-5.29,1.88-8.05,2.47-3.69,.8-7.34,1.88-11.18,1.66-.48-.03-.97,.02-1.45,.09-.5,.07-1,.21-1.74,.37Zm355.04-60.02c-.53-.29-.91-.5-1.3-.69-5.15-2.49-10.33-4.92-15.44-7.49-2.67-1.34-5.23-2.89-7.42-4.99-3.59-3.44-7.18-6.88-10.79-10.3-.41-.39-.88-.74-1.37-1.01-2.66-1.46-5.32-2.92-8.02-4.32-.81-.42-1.7-.71-2.58-.93-.91-.23-1.74-.52-2.45-1.19-2.63-2.47-5.68-4.25-9.02-5.6-1.18-.48-2.33-1.05-3.41-1.71-1.42-.87-2.8-1.84-4.12-2.85-.73-.56-1.31-.6-2.12-.15-4.19,2.32-8.41,4.6-12.64,6.86-8.73,4.67-17.47,9.31-26.21,13.97-.41,.22-.8,.46-1.31,.75,.63,.59,1.11,1.04,1.59,1.48,2.24,2.05,4.46,4.12,6.73,6.14,1.77,1.58,3.6,3.09,5.41,4.63,.1,.08,.21,.17,.33,.21,1.54,.51,3.09,1.01,4.64,1.5,.96,.3,2.02,.4,2.87,.89,3.11,1.78,6.41,2.59,9.97,2.41,.91-.05,1.69,.29,2.45,.81,3.19,2.2,6.4,4.36,9.62,6.52,.73,.49,1.49,.93,2.29,1.28,6.53,2.86,13.01,5.83,19.17,9.43,.93,.55,1.87,.67,2.9,.57,2.06-.2,4.12-.39,6.18-.54,2.16-.16,4.26-.46,6.23-1.46,1.17-.6,2.47-.95,3.65-1.54,1.46-.73,2.6-.33,3.69,.71,1.24,1.19,2.51,2.35,3.77,3.51,.28,.26,.59,.47,.94,.75,5.26-5.89,10.45-11.7,15.77-17.65Zm-195.62-70.86c-1.63,2.21-3.2,4.34-4.79,6.5,.62,.49,1.09,.86,1.61,1.28-.51,.63-.94,1.17-1.35,1.67,.04,.11,.05,.16,.08,.19,2.92,2.41,6.34,3.93,9.8,5.35,.16,.07,.34,.07,.52,.1,2.38,.41,4.76,.81,7.13,1.25,.38,.07,.75,.23,1.08,.43,2.11,1.27,4.17,2.63,6.32,3.82,4.39,2.43,8.83,4.77,13.25,7.15,.37,.2,.76,.38,1.22,.61,.39-.86,.69-1.64,1.07-2.37,.38-.73,.83-1.42,1.27-2.17,1.01,.39,1.82,.77,2.51,1.43,2.38,2.29,4.78,4.56,7.18,6.82,1.11,1.05,2.26,2.06,3.55,3.24,.29-.4,.48-.7,.71-.96,1.46-1.59,2.93-3.17,4.41-4.74,1.25-1.33,3.21-1.4,4.54-.19,1.33,1.22,2.66,2.44,3.99,3.65,.11,.1,.28,.13,.57,.26,.05-.6,.14-1.07,.12-1.54-.09-3.08-.16-6.16-.32-9.23-.3-5.89-.64-11.78-1-17.66-.04-.73-.2-1.49-.5-2.15-1.37-2.96-2.78-5.89-4.23-8.81-.91-1.84-1.21-3.75-.89-5.76,.07-.44,.03-.77-.34-1.04-2.14-1.56-3.83-3.8-6.65-4.38-.38-.08-.98-.64-.95-.91,.08-.71-.36-.95-.75-1.26-2.01-1.57-4.03-3.13-6.05-4.7-.37-.29-.71-.6-1.11-.95,1.05-1.41,2.01-2.71,2.97-4.01-1.15-1.84-2.18-3.63-3.34-5.33-1.61-2.37-4.04-3.74-6.49-5.06-.46-.24-.94-.44-1.63-.77-.18,.28-.31,.57-.52,.79-9.77,10.57-19.54,21.14-29.31,31.72-.29,.32-.58,.68-.73,1.08-.73,1.92-1.41,3.86-2.12,5.83,.23,.14,.45,.29,.68,.41,10.77,5.71,21.53,11.44,32.32,17.12,1.16,.61,2.39,1.11,3.64,1.49,5.6,1.69,11.22,3.31,16.83,4.99,.91,.27,1.85,.63,2.64,1.14,1.81,1.17,3.54,2.46,5.3,3.71,.25,.18,.52,.35,.7,.59,.1,.14,.11,.41,.05,.58-.03,.1-.32,.21-.44,.16-.53-.18-1.1-.34-1.56-.65-1.76-1.17-3.46-2.43-5.23-3.58-.76-.49-1.61-.91-2.47-1.17-5.68-1.72-11.38-3.39-17.08-5.08-.55-.16-1.09-.36-1.6-.61-3.88-1.98-7.78-3.92-11.63-5.97-7.23-3.85-14.42-7.75-21.63-11.64-.42-.22-.84-.43-1.37-.7Zm-68,1.64c.17,.56,.3,1.01,.44,1.47,.82,2.6,1.66,5.19,2.46,7.8,.31,1,.45,2.05,.78,3.04,.61,1.83,1.33,3.62,1.97,5.45,.71,2.03,1.39,4.08,2.07,6.12,.32,.96,.8,1.91,.88,2.89,.23,2.89,1.01,5.73,.83,8.65-.06,1.02,.36,1.71,1.09,2.4,2.12,1.98,4.3,3.92,6.22,6.09,3.94,4.45,7.71,9.04,11.57,13.56,.48,.56,1.01,1.11,1.6,1.56,5.47,4.15,10.96,8.27,16.44,12.4,.34,.26,.71,.48,1.09,.74,.35-.33,.65-.58,.92-.86,4.36-4.48,8.72-8.95,13.06-13.45,.35-.37,.63-.84,.83-1.32,1.58-3.82,3.13-7.66,4.68-11.49,.13-.31,.21-.64,.34-1.06-3.87-1.13-7.65-2.23-11.57-3.38,1.57-5.74,3.1-11.33,4.65-17.01-.95-.46-1.85-.89-2.8-1.35-.34,.39-.63,.71-.9,1.04-2,2.46-3.99,4.92-6,7.37-.46,.56-.88,1.2-1.67,1.49-1.66-1.33-3.3-2.64-4.96-3.97-.27,.25-.48,.41-.66,.6-1.82,1.97-3.68,3.88-5.77,5.59-1.49,1.22-2.76,2.71-4.14,4.08-.3,.3-.63,.58-1.04,.95-1.39-1.32-2.7-2.58-4.07-3.88,2.08-2.14,4.04-4.15,6.01-6.19-.2-.38-.36-.68-.57-1.06,3.8-3.94,7.6-7.89,11.51-11.94-.71-.39-1.24-.7-1.78-.97-4.88-2.44-9.76-4.88-14.64-7.32-2.05-1.02-4.08-2.05-5.96-3.39-1.49-1.07-2.97-2.1-4.81-2.63-2.27-.65-4.45-1.64-6.65-2.53-.92-.37-1.84-.52-2.83-.41-2.14,.23-4.29,.4-6.44,.61-.69,.07-1.37,.19-2.18,.3Zm67.58,89.68c-.6-.57-1.03-1.05-1.53-1.45-12.02-9.64-24.18-19.1-36.55-28.28-.59-.44-1.15-.97-1.63-1.53-3.24-3.78-6.5-7.53-9.65-11.38-2.41-2.94-5.11-5.58-7.91-8.13-.15-.14-.33-.23-.73-.5,0,1.03-.04,1.85,0,2.67,.34,6.64,.69,13.27,1.07,19.91,.12,2.15,.13,4.34,.56,6.43,.92,4.43,2.12,8.81,3.15,13.22,.48,2.05,.86,4.13,1.2,6.2,.18,1.12,.13,2.28,.26,3.42,.04,.41,.19,.88,.44,1.19,.87,1.05,1.74,2.11,2.72,3.05,7.66,7.27,15.36,14.51,23.04,21.76,.31,.29,.64,.55,1.03,.88,8.18-9.15,16.26-18.2,24.52-27.44Zm-47.38-127.1c-.32,.55-.42,1.32-1.14,1.35-.84,.04-1,.61-1.24,1.15-1.55,3.52-2.64,5.17-5.31,7.95-.21,.22-.42,.45-.63,.67-1.16,1.21-2.31,2.42-3.48,3.61-1.95,1.97-3.92,3.92-5.86,5.89-.62,.63-1.19,1.29-1.76,1.97-.48,.57-.47,.97,.01,1.49,.18,.19,.4,.34,.61,.5,5.59,4.28,11.19,8.55,16.77,12.84,.55,.42,1.09,.63,1.8,.65,3.12,.09,6.24,.23,9.36,.37,5.67,.25,11.34,.54,17.01,.74,1.49,.05,2.86,.27,4.12,1.12,3.57,2.42,7.74,3.28,11.75,4.57,.42,.14,.77,.08,1.05-.3,.22-.31,.47-.6,.73-.93-.54-.44-1-.81-1.51-1.22,1.58-2.42,3.44-4.53,4.97-6.96-.55-.31-.96-.56-1.38-.79-3.24-1.79-6.48-3.56-9.71-5.36-.53-.3-1.05-.64-1.52-1.03-1.35-1.14-2.68-2.29-3.98-3.47-2.67-2.42-5.45-4.75-7.96-7.32-3.5-3.59-6.79-7.38-10.19-11.07-.5-.55-1.03-1.09-1.61-1.56-2.24-1.85-4.5-3.67-6.74-5.52-2.58-2.13-5.22-4.19-7.69-6.44-5.17-4.71-10.25-9.52-15.37-14.29-.25-.23-.54-.41-.88-.66-1.27,1.44-2.48,2.82-3.71,4.22,.32,.5,.57,.91,.84,1.32,1.07,1.62,2.24,3.17,3.16,4.87,.56,1.03,1.32,1.66,2.27,2.22,4.71,2.76,9.42,5.51,13.57,9.1,.29,.25,.63,.43,.99,.66,.89-.99,.94-2.44,2.02-3.25,.94,.82-.17,1.41-.04,2.16,.18,.2,.4,.45,.66,.73Zm146.01,150.41c5.84-6.23,11.61-12.39,17.45-18.62-4.53-4.21-8.97-8.32-13.45-12.48-1.06,1.16-2,2.18-3,3.28-.52-.44-.93-.76-1.31-1.1-2.6-2.31-5.2-4.62-7.81-6.92-.39-.35-.81-.67-1.24-.97-.45-.32-.99-.53-1.4-.89-1.15-1.03-2.24-2.11-3.37-3.16-.24-.23-.53-.4-.82-.62-1.77,1.95-3.47,3.82-5.19,5.71-1.74-1.25-2.99-2.79-4.69-4.02-.93,1.76-2.44,2.53-4.04,3.21-.24,.1-.47,.25-.71,.36-.42,.18-.59,.5-.53,.95,.04,.3,.09,.6,.14,.92-1.21,1.39-2.42,2.78-3.68,4.22,11.24,10.07,22.41,20.07,33.66,30.15Zm-96.72-72.77c-.25,.59-.42,.99-.59,1.4-2.03,5.02-4.06,10.04-6.11,15.04-.23,.56-.54,1.12-.96,1.55-3.91,4.06-7.85,8.08-11.78,12.12-.7,.72-1.37,1.45-2.05,2.17,1.3,1.41,19.53,15.72,20.55,16.12,5.7-6.22,11.42-12.46,17.18-18.75-1.2-1.05-2.29-1.99-3.41-2.97,.35-.53,.66-.99,1-1.5-1.63-1.44-3.2-2.83-4.82-4.26,.8-.95,1.5-1.77,2.2-2.59-.41-.45-.74-.8-1.14-1.24,2.48-3.21,4.94-6.4,7.43-9.63-.25-.18-.38-.33-.53-.36-1.94-.42-3.36-1.62-4.72-2.97-.44-.44-1.08-.75-1.68-.95-2.22-.72-4.46-1.37-6.69-2.04-1.25-.38-2.51-.74-3.88-1.14Zm13.71,63.98c-.42-.47-.73-.89-1.1-1.23-4.12-3.78-8.24-7.55-12.37-11.31-.38-.34-.82-.62-1.33-1.01-8.21,9.06-16.35,18.03-24.52,27.03,.28,.3,.45,.49,.64,.67,3.12,2.97,6.24,5.95,9.38,8.9,.71,.66,1.17,1.36,1.21,2.37,.06,1.36,.25,2.71,.39,4.07,.03,.27,.13,.54,.25,1.02,9.2-10.26,18.48-20.17,27.45-30.51Zm41.46-20.68c-4.74,5.15-9.34,10.2-13.94,15.41,6.62,5.9,12.89,11.93,19.52,17.54,1.46-1.2,16.96-18.57,17.36-19.47-5.14-4.57-10.3-9.15-15.53-13.8-1.22,1.31-2.34,2.51-3.51,3.77-1.33-1.17-2.54-2.24-3.9-3.44Zm3.07-97.75c-.26,.41-.49,.67-.61,.98-.65,1.58-.34,3.13,.33,4.59,1.1,2.4,2.21,4.8,3.45,7.13,1.11,2.1,1.7,4.25,1.75,6.66,.09,4.31,.45,8.61,.68,12.92,.22,4.09,.41,8.17,.63,12.26,.03,.59,.16,1.17,.26,1.81,8.95-5.37,16.19-12.58,24.11-19.02-.31-.34-.47-.54-.66-.73-3.59-3.63-7.21-7.24-10.75-10.91-1.76-1.82-3.68-3.39-5.86-4.66-1.59-.93-3.13-1.96-4.68-2.98-.51-.34-1-.73-1.44-1.15-2.06-1.99-4.09-4-6.14-5.99-.3-.3-.65-.55-1.07-.9Zm-37.19,95.67c-2.61-2.33-5.11-4.56-7.67-6.85-4.58,5.1-9.03,10.06-13.45,14.98,.63,1.14,13.29,12.85,14.9,13.83,6.94-7.66,13.89-15.33,20.88-23.05-2.58-2.33-5.01-4.54-7.52-6.81-2.42,2.67-4.74,5.24-7.14,7.89Zm15.05-.73c-7.02,7.75-13.94,15.38-20.91,23.08,3.92,3.52,7.56,7.07,11.54,10.5,7-7.81,13.91-15.52,20.87-23.28-3.89-3.49-7.65-6.85-11.5-10.3Zm49.33-31.6c.5-.24,.94-.44,1.36-.66,2.99-1.59,5.98-3.18,8.97-4.77,5.4-2.87,10.79-5.75,16.19-8.61,.68-.36,1.34-.7,1.33-1.72-.43-.34-.91-.72-1.38-1.09-.89-.7-.92-.86-.27-1.82,.34-.5,.71-.99,1.14-1.6-1.27-.82-2.44-1.59-3.62-2.33-.16-.1-.46-.15-.6-.07-.52,.31-.83-.05-1.18-.29-.94-.63-1.88-1.26-2.89-1.93-.35,.49-.63,.87-.9,1.27-.8,1.21-1.62,2.41-2.37,3.66-.35,.59-.72,.96-1.4,.66-1.1,1.58-2.15,3.08-3.24,4.65-1.21-.78-2.27-1.47-3.35-2.16-.3,.28-.54,.46-.74,.69-2.57,2.84-5.18,5.63-7.66,8.55-1.12,1.33-1.96,2.9-2.97,4.43,1.25,1.1,2.39,2.11,3.56,3.15Zm-68.75,20.37c4.25-4.78,8.63-9.27,12.51-14.27-1.53-1.43-3-2.79-4.51-4.21,.95-1.45,1.83-2.79,2.78-4.25-1.97-1.35-3.79-2.61-5.62-3.86-3.73,4.86-7.36,9.59-11.02,14.35,.39,.44,.75,.85,1.14,1.29-.76,.89-1.45,1.71-2.15,2.54,1.58,1.59,3.3,2.8,4.74,4.33-.35,.53-.64,.96-.97,1.46,1.01,.86,1.98,1.67,3.1,2.63Zm56.88-31.14c2.48,2.22,5,4.48,7.6,6.81,.54-.94,.99-1.75,1.47-2.53,.35-.56,.7-1.12,1.13-1.61,1.49-1.68,3.04-3.29,4.52-4.98,3.21-3.66,6.83-6.98,9.51-11.09,.2-.31,.39-.63,.57-.93-.16-.14-.21-.22-.29-.25-.84-.37-1.69-.74-2.54-1.11q-1.63-.71-1.02-2.43c.44-1.24,.92-2.47,1.35-3.72,.13-.39,.46-.79,.04-1.27-.14,.04-.34,.03-.45,.13-1.01,.93-21.52,22-21.9,22.98Zm-164.5-49.36c-2.32,2.64-4.61,5.24-6.83,7.76,.02,.19,0,.25,.03,.28,2.44,4.12,4.86,8.26,7.35,12.36,.68,1.12,1.63,1.94,3.15,1.6,.59-.13,1.23-.05,1.84-.09,.94-.07,1.88-.18,2.85-.27,0-.41,0-.67,0-.93-.02-.99-.27-2,.45-2.92,.16-.21,.04-.8-.15-1.09-1.29-1.96-1.22-3.93-.26-5.98,.24-.51,.36-1.08,.53-1.63,.25-.79,.5-1.58,.74-2.36,.94-.05,1.74-.1,2.54-.15,.01-.08,.03-.17,.04-.25-4.04-2.08-8.09-4.17-12.3-6.34Zm-6.68-71.11c.32,.43,.59,.77,.83,1.13,1.89,2.81,3.78,5.63,5.68,8.43,.35,.52,.57,1.23,1.43,1.15,.11-.01,.28,.2,.36,.34,.5,.91,.99,1.83,1.49,2.79-.98,.7-1.82,1.3-2.83,2.02,.84,.62,1.45,1.2,2.17,1.57,1,.52,2.09,.89,3.21,1.35,.86-.53,1.78-1.09,2.78-1.71,1.47,2.08,2.85,4.04,4.24,6.02,2.01-1.24,3.9-2.41,5.92-3.66-.82-.77-1.55-1.45-2.27-2.14-3.24-3.1-6.56-6.12-9.71-9.32-3.14-3.2-6.09-6.59-9.17-9.85-1.02-1.08-2.17-2.03-3.3-3.08-.55,.43-.99,.79-1.45,1.13-1.23,.92-2.47,1.83-3.72,2.73-.24,.17-.61,.44-.81,.36-1.24-.47-1.77,.55-2.57,1.01,.38,1.42,1.23,2.4,2.27,3.37,1.8-1.21,3.58-2.4,5.44-3.64Zm89.07,105.9c-1.62,5.59-3.12,10.98-4.55,16.51,3.81,1.1,7.46,2.15,11.04,3.19,2.42-5.35,4.77-10.54,7.18-15.84-4.46-1.26-8.97-2.53-13.67-3.86ZM3.8,106.54c-1.1,.63-2.06,1.25-3.08,1.73-.97,.46-1.27,1.09-1.27,2.16,.04,11.93,.02,23.86,.02,35.79,0,.26-.04,.54,.02,.79,.1,.4,.27,.78,.47,1.34,1.22-.79,2.25-1.51,3.34-2.15,.66-.39,.87-.83,.76-1.61-.2-1.39-.35-2.8-.32-4.19,.04-1.71,.37-3.41,.45-5.12,.1-2.12,.83-4.25-.16-6.21,.32-.61,1.16-.67,.96-1.52-.77-.27-1.57-.55-2.53-.88,.36-.34,.56-.56,.79-.74,.67-.5,1.36-.97,2.02-1.49,.22-.18,.55-.5,.51-.69-.24-1.23,.8-2.69-.63-3.72-.08-.06-.1-.25-.09-.37,.07-.84-.33-1.77,.55-2.45,.16-.12,.2-.48,.21-.73,.02-2.02,.02-4.05,0-6.07,0-.26-.02-.55-.14-.77-.59-1.02-1.22-2.01-1.89-3.12Zm156.11,60.08c-1.9-.91-3.63-1.76-5.38-2.56-.35-.16-.77-.19-1.16-.21-1.89-.09-3.77-.17-5.66-.24-4.96-.19-9.92-.37-14.88-.55-1.68-.06-3.37-.11-5.39-.17,1.94,1.3,3.55,2.6,5.35,3.54,5.73,2.98,11.54,5.8,17.31,8.72,.71,.36,1.16,.29,1.72-.29,2.49-2.55,5.02-5.05,7.54-7.57,.15-.15,.28-.32,.57-.66Zm-55.8,3.53c-.14-.49-.2-.93-.38-1.33-.43-.95-.37-1.83,.06-2.78,.6-1.32,1.09-2.69,1.61-4.04,.4-1.06,.15-1.74-.88-2.26-1.72-.88-3.46-1.73-5.19-2.59-.24-.12-.5-.31-.72-.29-1.03,.11-2.05,.28-3.19,.44-.33,1.03-.6,2.15-1.05,3.18-.94,2.14-1.1,4.19,.25,6.23,.19,.29,.3,.89,.13,1.1-.78,.99-.5,2.08-.48,3.16,0,.56,.18,1,.59,1.39,1.82,1.73,3.6,3.49,5.42,5.21,.26,.25,.67,.42,1.03,.45,.83,.07,1.67,.05,2.51,.01,1.17-.06,1.68-.84,1.3-1.96-.59-1.75-1.19-3.49-1.8-5.27,.27-.22,.49-.41,.8-.67ZM34.2,92.91c-.42,.22-.79,.36-1.1,.59-1.19,.87-2.51,1.2-3.96,1.14-.39-.02-.85-.03-1.15,.16-1.38,.83-2.71,1.74-4.13,2.66,.34,.57,.58,.97,.84,1.38,1.17,1.86,2.34,3.72,3.5,5.58,.16,.26,.48,.62,.41,.79-.49,1.1,.41,1.7,.83,2.44,.51,.9,1.13,1.73,1.74,2.64,4.06-2.65,7.98-5.22,12.01-7.85-3.06-3.26-6-6.38-8.97-9.54Zm231.45,81.96c-3.69,3.16-7.4,6.26-11.03,9.45-3.66,3.22-7.68,5.98-11.74,8.9,2.07,1.83,4.03,3.56,6.04,5.33,6.7-6.97,13.26-13.81,19.88-20.7-1.03-.99-2.01-1.92-3.14-2.99Zm-206.07-16.91c1.88,2.97,3.64,5.75,5.48,8.64,4.35-2.75,8.61-5.45,12.96-8.2-1.78-2.86-3.5-5.6-5.28-8.46-4.43,2.7-8.73,5.32-13.16,8.02Zm119.28,28.91c2.04-3.53,3.98-6.9,5.98-10.37-.53-.21-.88-.41-1.25-.47-1.51-.26-3.03-.53-4.56-.69-.9-.09-1.7-.31-2.44-.86-.76-.57-1.59-1.05-2.43-1.61-3.08,3.21-6.05,6.31-9.2,9.59,1.34,.57,2.46,1.14,3.65,1.53,1.92,.62,3.88,1.12,5.83,1.67,1.43,.4,2.87,.79,4.41,1.21ZM-.45,108.29c3.39-1.76,6.42-3.74,9.48-5.83-1.35-2.05-2.45-4.13-3.97-5.81-.94,.14-1.41,1.05-2.57,.86,.84-.58,1.48-1.02,2.18-1.5-1.17-1.67-2.3-3.27-3.45-4.91,2.4-2.65,4.72-5.21,7.15-7.9-1.46-1.3-2.83-2.5-4.25-3.76-1.31,1.37-2.49,2.67-3.75,3.89-.65,.63-.91,1.3-.9,2.21,.03,7.09,.01,14.18,.02,21.27,0,.42,.04,.85,.07,1.48Zm68.53,34.21c-.23,.08-.37,.1-.47,.16-3.75,2.38-7.49,4.77-11.25,7.13-.49,.31-.58,.7-.62,1.2-.22,2.36-.47,4.72-.68,7.09-.06,.63,0,1.26,0,2.11,5.81-3.78,11.65-7.12,17.39-10.75-1.52-2.43-2.94-4.69-4.35-6.95Zm37.12,16.98c-.08-.64-.09-1.02-.18-1.39-.23-.94-.47-1.88-.74-2.81-.63-2.21-.71-4.41,.18-6.57,.21-.52,.44-1.03,.69-1.6-2.25-1.68-4.5-3.35-6.72-5.01-1.45,1.25-7.56,9.02-7.85,10.07,4.79,2.39,9.6,4.8,14.63,7.31Zm84.16,45.09c.89-2.97,1.71-5.74,2.57-8.62-3.97-1.25-7.8-2.43-11.75-3.44-1.26,2.77-2.45,5.4-3.71,8.19,4.32,1.3,8.51,2.55,12.9,3.87Zm95.52,27.63c-2.17-1.97-4.22-3.84-6.32-5.75-2.87,3.19-5.63,6.24-8.45,9.37,2.12,1.94,4.14,3.78,6.22,5.69,2.88-3.14,5.64-6.14,8.54-9.31Zm-143.67-42.79c1.56,1.41,3.03,2.75,4.59,4.16,4.24-4.44,8.34-8.74,12.57-13.17-1.71-.82-3.24-1.56-4.78-2.3-1.02-.49-1.03-.49-1.8,.3-2.51,2.59-5.01,5.17-7.51,7.77-1,1.04-1.98,2.09-3.07,3.24Zm-31.13-53.01c.32-1.21,.24-2.06-.63-2.81-.99-.86-1.88-1.85-2.82-2.77-.08-.08-.23-.09-.33-.13-.35,.22-.67,.43-1.02,.66-.8-.74-1.55-1.44-2.36-2.18-2.17,2.17-4.23,4.24-6.29,6.31,1.24,2.09,2.43,3.98,3.5,5.94,.6,1.08,1.37,1.91,2.58,2.51,1.99-2.71,3.97-5.41,5.93-8.09,.52,.2,.91,.35,1.44,.56Zm87.07,90.86c2.49,2.24,4.83,4.34,7.26,6.52,2.33-2.55,4.54-4.97,6.86-7.52-2.46-2.19-4.84-4.31-7.32-6.53-2.28,2.52-4.48,4.95-6.8,7.52Zm.12,14.45c2.29-2.55,4.5-5,6.77-7.53-2.46-2.22-4.8-4.32-7.25-6.52-2.29,2.54-4.5,5-6.78,7.53,2.47,2.22,4.8,4.32,7.25,6.53ZM43.34,134.56c1.31-.94,2.43-1.75,3.59-2.58-.75-1.24-1.42-2.35-2.17-3.58,.75-.38,1.42-1.03,1.95-.92,.84,.17,1.19-.18,1.74-.72-1.49-2.3-2.95-4.57-4.48-6.94-2.69,1.99-5.26,3.88-7.91,5.84,1.22,2.06,2.37,4.02,3.55,5.96,.12,.21,.38,.38,.61,.46,1.27,.44,2.39,1.08,3.11,2.48Zm196.16,59.65c-.51-.4-.87-.65-1.19-.95-1.36-1.24-2.7-2.51-4.06-3.75-.92-.84-2.29-.81-3.15,.08-1.46,1.52-2.89,3.07-4.32,4.61-.29,.31-.54,.66-.87,1.06,2.32,2.12,4.58,4.18,6.95,6.35,2.2-2.45,4.33-4.81,6.65-7.4Zm28.82,26.81c-2.18,2.42-4.22,4.69-6.29,7,.27,.28,.43,.48,.62,.65,.91,.83,1.83,1.65,2.73,2.48,.85,.78,1.81,1.42,2.41,2.51,.37,.68,1.18,1.13,1.9,1.78,1.91-2.09,3.75-4.12,5.65-6.2-1.36-1.23-2.55-2.39-3.84-3.44-1.36-1.11-2.44-2.38-2.83-4.13-.03-.16-.16-.29-.35-.63ZM71.02,126.75c-3.08,2-6.12,3.97-9.3,6.04,1.41,2.01,2.75,3.93,4.08,5.82,.28-.07,.42-.08,.53-.13,.27-.14,.54-.29,.8-.46,3.09-2.1,6.54-3.68,9.21-6.41-.25-.97-2.62-3.17-5.32-4.86Zm51.07-3.27c-3.31-2.21-6.11-4.88-9.62-6.64-1.56,1.63-3,3.15-4.57,4.79,2.79,2.65,5.51,5.24,8.34,7.92,1.97-2.04,3.85-3.99,5.85-6.07Zm-27.83,15.55c-2.31-1.68-4.42-3.36-6.86-4.68-1.66,1.79-3.25,3.51-4.84,5.22,.67,1.09,1.23,2.03,1.82,2.95,.34,.53,.53,1.02,.45,1.71-.12,.99-.03,2.02-.04,3.03,0,.6,.19,1.1,.81,1.6,2.86-3.24,5.72-6.48,8.67-9.82Zm-16.86-6.73c-3.63,2.04-6.92,4.25-10.49,6.48,3.83,1.51,7.37,2.91,10.93,4.28,.22,.09,.65,0,.81-.17,1.07-1.09,2.09-2.22,3.17-3.38-1.47-2.4-2.88-4.71-4.42-7.21Zm-16.37-61.77c1.68,2.76,3.27,5.39,4.89,7.99,.18,.3,.58,.46,.84,.65,.12,.49,.23,.96,.39,1.62,2.58-1.63,4.97-3.15,7.44-4.71-1.71-1.99-3.56-3.6-5.44-5.17-.22-.18-.55-.3-.85-.32-1.02-.08-1.81-.6-2.57-1.22-.4-.33-.83-.61-1.28-.93-1.15,.7-2.23,1.36-3.43,2.09Zm-5.95,58.4v4.89c2.44,.2,4.55-.29,6.49-1.58,2.74-1.82,5.52-3.59,8.28-5.38,.24-.16,.45-.36,.77-.62-1.08-1.26-2.1-2.45-3.15-3.67-.47,.28-.85,.48-1.22,.72-2.73,1.77-5.46,3.52-8.16,5.33-.82,.55-1.58,.92-2.52,.35-.13-.08-.33-.03-.49-.03Zm-26.7-42.12c-1.95-2.05-3.81-4.01-5.73-6.03-1.89,2.09-3.65,4.05-5.43,5.99-.38,.42-.35,.87-.27,1.35,.19,1.17,.33,2.35,.59,3.51,.14,.66,.46,1.27,.76,2.06,3.44-2.35,6.69-4.57,10.08-6.88Zm170.29,96.18c-1.9-1.04-3.73-2.02-5.66-2.99-1.8,3.2-3.5,6.24-5.29,9.43,2.87,.81,5.55,1.56,8.33,2.34,.9-3.02,1.75-5.86,2.62-8.78Zm5.05,2.64c-1.93,2.2-1.86,4.95-2.76,7.44,2.97,.88,5.82,1.74,8.68,2.56,.24,.07,.64-.04,.81-.22,.98-1.04,1.92-2.13,2.88-3.2-2.6-3.29-6.33-4.55-9.61-6.58Zm99.2,2.46c-1.1-.61-1.88-1.22-2.77-1.5-2.01-.63-4.08-1.09-6.11-1.65-.65-.18-1.04-.04-1.42,.54-1.39,2.08-2.85,4.13-4.27,6.19-.14,.21-.23,.46-.34,.67,.68,.98,2.02,1.21,2.37,2.47,4.08-2.19,8.14-4.36,12.54-6.72Zm-229.75-38.46c1.64,2.62,3.22,5.12,4.88,7.78,2.44-2.77,4.72-5.37,6.92-7.88-.23-1.03-.72-1.41-1.63-1.36-.45,.03-.94-.18-1.38-.35-1.43-.57-2.85-1.16-4.25-1.78-.55-.24-.97-.25-1.4,.23-.99,1.11-2.03,2.18-3.14,3.36Zm137.32,38.46c3.78,3.49,7.41,6.85,11.14,10.29,1.06-1.16,2.02-2.21,3.07-3.36-3.72-3.51-7.27-7-11.01-10.41-1.12,1.21-2.12,2.3-3.2,3.48Zm-50.83-8.24c1.39,.67,2.56,1.25,3.74,1.81,1.08,.52,1.09,.52,1.91-.33,2.07-2.15,4.14-4.3,6.2-6.46,.71-.75,1.4-1.52,2.18-2.37-1.53-.96-2.83-1.99-4.34-2.79-3.22,3.37-6.37,6.66-9.69,10.13ZM93.24,105.66c-3.4,2.22-6.77,4.42-10.25,6.69,.9,1.51,1.72,2.88,2.53,4.24,2.89-1.49,11.87-7.38,12.44-8.17-1.55-.91-3.1-1.81-4.72-2.75Zm69.25,61.88c-.25,1.65-1.24,2.65-2.21,3.68-1.3,1.38-2.58,2.76-3.87,4.15-.59,.64-1.16,1.3-1.85,2.06,1.58,.76,3.04,1.46,4.56,2.19,1.63-1.69,3.22-3.32,4.78-4.98,1.57-1.67,3.27-3.23,4.78-5.2-2.13-.65-4.05-1.24-6.2-1.9Zm-3.59,13.1c-2.61,2.73-5.15,5.38-7.77,8.12,1.65,1.32,3.17,2.54,4.82,3.86,2.65-3.25,5.19-6.37,7.84-9.61-1.68-.81-3.21-1.55-4.89-2.37Zm-47.88-46.27c1.59-1.58,3.07-3.05,4.65-4.62-2.22-2.1-4.54-4.29-6.95-6.57-1.81,1.88-3.53,3.67-5.3,5.51,.67,.7,1.26,1.32,1.85,1.93,.44-.28,.76-.49,1.17-.75,1.58,1.55,3.13,3.08,4.59,4.51Zm-79.46-5.63c-.44,.26-.68,.37-.89,.52-3.08,2.05-6.16,4.1-9.23,6.15-.25,.17-.52,.35-.72,.57-.08,.08-.01,.3-.01,.72,.92-.56,1.67-1.03,2.5-1.53,.71,1.09,1.35,2.06,2.01,3.07,1.44-.87,2.75-1.65,4.12-2.48,.52,.8,.96,1.48,1.44,2.23,.45-.3,.82-.54,1.18-.78,.58-.4,1.1-.97,1.74-1.16,.6-.18,1.32,.04,2.15,.1-1.39-2.51-2.69-4.98-4.28-7.4Zm76.93,8.68c1.07,1.01,2.05,1.93,3.04,2.87,.22-.16,.37-.25,.49-.37,2.26-2.28,4.52-4.55,6.76-6.84,.57-.58,1.13-1.19,1.58-1.86,.86-1.28,1.65-2.59,2.43-3.92,.44-.74,.79-1.54,1.21-2.36-.57-.41-1.02-.73-1.47-1.05-.36,.34-.62,.57-.87,.82-3.04,3.1-6.07,6.22-9.14,9.31-.54,.54-.94,1.02-.33,1.92-1.25,.5-2.37,.95-3.71,1.49Zm-4.94-19.7c-2.34,2.64-4.83,4.9-5.85,8.44,1.93,.33,2.89,2,4.35,3.14,2.12-2.2,4.16-4.31,6.25-6.48-1.6-1.72-3.12-3.35-4.76-5.1Zm-8.29,2.49c3.77-2.3,7.39-4.52,11.17-6.82-1.73-1-3.38-1.96-5.06-2.94-2.93,1.86-5.81,3.69-8.78,5.58,.92,1.45,1.77,2.77,2.67,4.19ZM16.69,86.4c.32-.26,.46-.35,.57-.47,1.65-1.81,3.3-3.63,4.93-5.43-1.14-1.72-8.75-9.57-9.87-10.09,.14,.58,.24,1.02,.37,1.46,1.36,4.76,3.35,9.34,4,14.53Zm10.76-1.99c2.21-2.26,4.29-4.38,6.41-6.56-1.6-1.6-3.07-3.07-4.6-4.59-2.04,2.36-3.95,4.57-5.92,6.85,1.38,1.45,2.68,2.81,4.1,4.31Zm62.31,67.36c2.76-3.44,5.4-6.74,8.1-10.1-.76-.57-1.37-1.07-2.02-1.5-.99-.66-1.3-.61-2.11,.3-1.83,2.07-3.66,4.14-5.49,6.21-.72,.82-1.43,1.65-2.19,2.52,.88,1.42,2.47,1.65,3.71,2.57Zm-21.07-48.5c.81,.98,1.61,1.94,2.44,2.94,2.08-1.33,4.03-2.6,6-3.83,.49-.31,.6-.69,.55-1.22-.11-1.31-.31-2.63-.27-3.94,.04-1.36-.68-2.15-1.64-2.96-2.36,3-4.66,5.93-7.08,9.01Zm176.91,93.68c-.86,.41-1.12,.99-1.05,1.85,.15,1.88,.2,3.77,.32,5.66,.02,.34,.04,.78,.24,.99,1.07,1.08,2.18,2.14,3.6,3.07,1.46-1.59,2.87-3.13,4.39-4.78-2.47-2.49-5.04-4.6-7.5-6.79Zm-123.51-36.61c.03-.07,.07-.13,.1-.2-3.85-2.96-7.7-5.91-11.69-8.97-.63,1.35-1.17,2.52-1.74,3.73,.75,.33,1.34,.59,2.01,.89-.18,.32-.31,.73-.42,.72-.67-.04-1.33-.16-2.13-.28-.35,1.01-.72,2.05-1.14,3.27,1.99-.2,3.73-.35,5.46-.56,2.32-.29,4.62-.54,6.83,.59,.66,.34,1.4,.51,2.12,.74,.19,.06,.4,.06,.6,.08Zm141.86,76.29c3.41,3.01,6.68,5.9,10.01,8.84,.92-1.06,1.72-1.97,2.6-2.98-3.34-2.96-6.58-5.83-9.89-8.77-.95,1.01-1.78,1.9-2.72,2.91Zm-76.75-47.37c1.84-3.27,3.59-6.39,5.39-9.59-1.31-.78-2.46-1.46-3.64-2.17-2.22,3.49-4.2,6.92-6.23,10.46,1.58,.46,2.97,.85,4.49,1.29ZM14.03,100.32c1.44,2.43,2.76,4.77,4.42,6.96,.93-.59,1.76-1.08,2.56-1.62,.81-.55,1.78-.89,2.41-1.71-1.43-2.32-2.83-4.57-4.32-6.98-1.7,1.12-3.3,2.18-5.06,3.34Zm197.26,111.2c-1.19,1.35-2.28,2.58-3.41,3.86,2.5,2.24,4.88,4.37,7.33,6.57,1.16-1.27,2.24-2.46,3.38-3.7-2.46-2.27-4.81-4.43-7.3-6.73Zm16.14,28.65c2.35-2.52,4.6-4.9,6.74-7.46-1.27-1.12-2.31-2.29-3.63-3.23-2.28,2.53-4.51,4.93-6.69,7.47,1.24,1.12,2.35,2.11,3.58,3.22Zm-6.79,8.24c1.24,1.12,2.37,2.13,3.58,3.22,2.29-2.58,4.61-4.94,6.77-7.53-1.22-1.09-2.33-2.07-3.54-3.16-2.3,2.52-4.51,4.94-6.81,7.47Zm2.8-3.91c-2.55-2.28-4.99-4.46-7.53-6.73-1.08,1.21-2.09,2.34-3.17,3.56,2.54,2.28,4.98,4.46,7.52,6.73,1.1-1.23,2.1-2.35,3.18-3.57Zm-15.06-7.11c2.28-2.56,4.49-5.03,6.77-7.59-1.2-1.09-2.3-2.07-3.49-3.15-2.32,2.54-4.56,5-6.86,7.51,1.21,1.09,2.28,2.06,3.57,3.23Zm-104.38-66.17c.66,1.88,1.29,3.69,1.94,5.56,1.44-.46,2.72-.86,4.03-1.27-1.33-4.47-2.61-8.76-3.89-13.05-.61,.84-.87,1.73-1.29,2.53-.83,1.57-1.03,3.13-.21,4.76,.11,.23,.12,.51,.19,.81-.23,.2-.45,.39-.77,.67Zm-25.91-55.62c-2.82,1.91-5.64,3.65-8.5,5.66,1.6,1.06,3.01,1.99,4.44,2.93,2.36-1.54,4.63-3.02,6.91-4.5-.68-1.61-1.53-2.91-2.85-4.09Zm126.22,103.77c2.55,2.22,4.86,4.4,7.36,6.47,1.12-1.23,2.11-2.32,3.17-3.48-2.47-2.22-4.85-4.35-7.31-6.56-1.08,1.2-2.1,2.33-3.22,3.57Zm88.33-34.79c-3.17-1.23-6.14-2.38-9.19-3.57-.69,1.05-1.32,2.03-2.02,3.1,2.64,1.89,5.22,3.59,7.93,5.28,1.1-1.62,2.11-3.1,3.28-4.81ZM74.6,111.34c-2.57,1.71-5.04,3.35-7.56,5.02,.95,1.42,1.8,2.69,2.72,4.06,2.72-1.79,5.34-3.52,8.04-5.29-1.1-1.3-2.08-2.47-3.2-3.8Zm-10.8,.16c.99,1.48,1.93,2.89,2.94,4.41,2.56-1.7,4.99-3.32,7.53-5.01-1.15-1.39-2.19-2.66-3.26-3.96-2.43,1.54-4.73,2.99-7.21,4.56Zm169.34,112.57c-.75-.64-1.49-1.32-2.3-1.92-.2-.15-.76-.13-.91,.04-.9,.99-1.91,1.9-2.65,3.11,2.53,2.27,5,4.48,7.54,6.75,.92-1.03,1.74-1.93,2.56-2.85,.43-.48,.38-.96-.08-1.39-.67-.62-1.35-1.22-2-1.81-1.16,.77-1.34,.74-2.73-.37,.17-.47,.35-.95,.58-1.57ZM39.01,96.56c2.12-1.36,4.14-2.65,6.14-3.93-.79-1.82-2.1-3.93-2.82-4.56-2.38,1.4-4.78,2.81-7.31,4.3,1.41,1.47,2.67,2.8,3.99,4.18ZM4.7,145.28c5.07-3.34,9.91-6.53,14.83-9.77-.46-.78-.84-1.44-1.31-2.23-4.72,3.15-9.32,6.21-13.93,9.28,.13,.89,.24,1.66,.4,2.73Zm196.9,66.65c1.47,1.35,2.85,2.61,4.29,3.93,1.59-1.77,3.08-3.43,4.62-5.15-1.79-1.6-3.49-3.11-5.33-4.75-.39,.59-.73,1.03-.99,1.51-.24,.45-.32,.98-.59,1.41-.61,1-1.29,1.97-2,3.04ZM8.71,83.65c-2.34,2.57-4.57,5.02-6.82,7.49,.5,.69,.91,1.25,1.38,1.89,1.83-1.15,3.59-2.22,5.31-3.36,.65-.43,1.3-.67,2.09-.63,1.07,.05,2.15,.01,3.23,.01,.04-.1,.08-.21,.12-.31-1.72-1.65-3.44-3.31-5.3-5.1Zm92.59,45.91c-1.29-1.98-3.43-3-5.87-3.78-.89,.96-1.81,1.95-2.77,2.97,.37,.64,.7,1.21,1.03,1.77,.36,.6,.6,1.39,1.13,1.75,.7,.47,.92,1.09,1.17,1.78,.08,.23,.22,.45,.27,.55,1.68-1.69,3.34-3.34,5.03-5.04Zm-34.71,9.69c-.04,.07-.08,.13-.13,.2,.19,.28,.37,.56,.57,.84,.84,1.18,1.71,2.34,2.51,3.55,.94,1.43,1.82,2.91,2.74,4.36,.18,.28,.41,.52,.61,.79,1.72-1.41,4.34-4.34,4.79-5.37-3.7-1.45-7.39-2.9-11.09-4.35Zm-24.3-51.77c-.9-1.44-1.56-2.8-2.47-4.1-2.76,1.89-5.47,3.57-8.19,5.55,1.11,1.06,2.08,1.99,3.11,2.97,2.47-1.44,4.93-2.88,7.55-4.42Zm-10.26,40.89c1.6,2.77,3.11,5.38,4.62,8,1.58-1.1,3-2.1,4.53-3.16-.29-.17-.45-.33-.65-.38-.92-.26-1.45-.89-1.89-1.71-.77-1.43-1.63-2.82-2.47-4.22-.17-.29-.4-.55-.64-.88-1.2,.8-2.33,1.56-3.51,2.35Zm27.07,29.89c-1.28,.82-2.44,1.53-3.55,2.3-.25,.17-.52,.54-.52,.81,0,2.05,.05,4.1,.09,6.46,2.58-1.6,4.95-2.96,7.21-4.56-1.1-1.71-2.12-3.29-3.23-5.01Zm21.82-28.3c-.98,.62-1.9,1.2-2.98,1.89,1.21,2.57,2.85,4.76,4.3,7.25,1.66-1.79,3.17-3.4,4.76-5.11-2.08-1.38-4.02-2.66-6.08-4.03Zm-9.08-36.74c-2.46,1.66-4.77,3.22-7.18,4.85,.81,1.09,1.52,2.07,2.26,3.04,.39,.51,.83,.99,1.24,1.47,.89-.54,4.72-5.27,5.45-6.69-.53-.8-1.09-1.64-1.77-2.67ZM13.06,143.1c1.1,.38,2.22,.72,3.3,1.15,.59,.23,1.1,.19,1.63-.11,.27-.15,.55-.33,.84-.38,2.19-.35,2.68-1.99,2.89-3.82,.03-.25,.03-.55-.08-.76-.49-.92-1.03-1.81-1.61-2.82-1.24,.83-2.34,1.55-3.41,2.3-.24,.17-.42,.45-.56,.72-.69,1.35-1.49,2.59-2.85,3.36-.06,.03-.06,.15-.14,.36Zm-3.5-40.9c1.46-.82,2.88-1.63,4.44-2.51-1.31-2.15-2.54-4.25-3.92-6.33-1.59,1.01-3.04,1.94-4.5,2.87,1.36,2.04,2.62,3.94,3.98,5.98Zm18.06,11.27c-2.07,1.45-4.04,2.82-6.1,4.27,.93,1.62,1.76,3.18,2.78,4.73,1.25-.8,2.35-1.51,3.47-2.2,.4-.25,.55-.58,.42-1-.36-1.15,.05-1.95,1.06-2.52,.14-.08,.24-.25,.44-.47-.67-.91-1.33-1.82-2.05-2.81Zm32.81,7.11c-1.75,1.13-3.38,2.15-4.98,3.23-.25,.17-.46,.56-.48,.87-.06,1.13-.02,2.27-.02,3.31,1.12,.84,2.05,.85,3.09,.04,1.14-.89,2.4-1.63,3.6-2.44,.43-.29,.84-.59,1.32-.93-.87-1.41-1.67-2.7-2.53-4.08Zm-29.76-9.95c-.88-1.39-1.69-2.64-2.48-3.91-.18-.29-.52-.72-.43-.91,.41-.83-.16-1.32-.51-1.89-.95-1.54-1.91-3.06-2.87-4.59-.3-.48-.62-.94-1-1.53-.8,.55-1.5,1.03-2.14,1.46,2.55,4.31,5.01,8.47,7.52,12.72,.58-.41,1.18-.83,1.91-1.35Zm-23.68-6.22c.93,1.52,1.76,2.88,2.63,4.3,2.19-1.38,4.24-2.68,6.4-4.04-.88-1.43-1.67-2.72-2.53-4.11-2.22,1.32-4.32,2.56-6.5,3.86Zm44,58.4c.74-.46,1.31-.86,1.92-1.19,.64-.35,.91-.86,.95-1.59,.14-2.19,.35-4.38,.52-6.57,.03-.42,0-.84,0-1.51-1.81,1.14-3.42,2.16-5.09,3.22,.36,.93,.69,1.76,1.01,2.58-.46,.29-.78,.5-1.21,.77,.61,1.39,1.21,2.74,1.89,4.3Zm-2.25-46.08c-1.46,.95-2.84,1.84-4.29,2.78,1.36,2.09,2.61,4.02,3.91,6.03,1.47-1.1,2.81-2.11,4.12-3.23-1.27-1.9-2.44-3.65-3.73-5.59Zm232.13,62.66c-.36,.51-.66,.88-.92,1.28-2.07,3.17-4.14,6.33-6.19,9.51-.39,.61-.77,1.19-1.63,1.09-1.17-.13-1.68,.64-2.23,1.59,.97,.64,1.86,1.23,2.85,1.88,3.19-4.92,6.67-9.43,9.59-14.4-.54-.35-.94-.61-1.47-.96ZM74.74,110.61c1.66-1.1,3.19-2.12,4.77-3.18-.26-1.72,.06-3.57-1.62-4.89-2.13,1.33-4.26,2.66-6.4,4.13,1.13,1.37,2.13,2.59,3.25,3.94Zm-37.05,5.02c2.42-1.67,4.68-3.23,7.02-4.84-.77-1.16-1.47-2.21-2.19-3.3-2.63,1.4-4.78,3.24-7.08,5.09,.76,1.03,1.46,1.97,2.25,3.05Zm158.91,76.24c1.34,.43,2.51,.87,3.81,1.03,.96-2.55,.98-5.3,2.75-7.55-1.4-.73-2.62-1.37-3.99-2.09-.87,2.91-1.69,5.66-2.57,8.61Zm-14.61-4.08c.19-.16,.24-.18,.26-.21,.41-.67,.83-1.34,1.24-2.02,.4-.68,.79-1.37,1.19-2.05,.42-.72,.84-1.44,1.26-2.16,.4-.68,1.1-1.37,1.1-2.06,0-1,1.18-1.03,1.15-1.95-.9-.36-1.84-.63-2.88-.54-1.95,3.38-3.88,6.72-5.89,10.19,.95,.3,1.77,.55,2.57,.8Zm23.63,17.87c1.79,1.59,3.5,3.12,5.27,4.69,1.12-1.19,2.13-2.26,3.19-3.39-1.81-1.69-3.49-3.26-5.25-4.9-.78,.84-1.46,1.57-2.13,2.31-.35,.38-.67,.79-1.08,1.29Zm72.45,20.47c-.73-.88-1.37-1.6-2.33-2.05-1.24-.57-2.31-1.4-3.25-2.42-.77-.83-1.61-1.59-2.47-2.42-.48,.41-1.24,.84-1.04,1.5,.39,1.27,.61,2.66,1.72,3.62,1.39,1.2,2.74,2.46,4.12,3.69,.28,.25,.6,.45,.97,.72,.8-.92,1.54-1.77,2.29-2.63Zm-47.28-4.81c1.01,.87,1.91,1.66,2.75,2.38,.66-.26,1.14-.45,1.7-.68,.38,.66,.73,1.25,1.11,1.92,1.5-.18,3.03-.37,4.73-.79-1.68-1.53-3.16-2.89-4.66-4.24-.62-.56-1.26-1.09-1.89-1.64-.39-.34-.78-.4-1.15,.03-.83,.96-1.65,1.92-2.59,3.02Zm-13.32-87.06c1.34,1.02,2.54,1.96,3.77,2.87,.26,.19,.79,.15,.92,.38,.58,1.05,1.65,1.55,2.47,2.32,.38,.36,.85,.61,.73,1.28-.03,.15,.26,.46,.46,.54,.68,.26,1.39,.44,2.14,.67,0-.62-.27-.86-.68-.96-.73-.17-1.05-.71-1.33-1.33-.85-1.88-1.78-3.73-2.57-5.63-.66-1.59-1.99-2.47-3.22-3.64-.91,1.19-1.73,2.27-2.68,3.52Zm22.4,62.73q-1.52,.27-2.31,1.05c-.59,.59-1.19,1.17-1.76,1.77-.74,.78-1.47,1.59-2.28,2.47,1.34,1.05,2.31,2.31,3.79,3.09,1.03-1.19,2.03-2.28,2.95-3.44,.25-.31,.37-.84,.32-1.24-.17-1.24-.46-2.47-.7-3.7Zm26.58,35.82c-1.66-1.49-3.19-2.86-4.82-4.32-1.05,1.24-2.22,2.27-3.13,3.61,1.63,1.52,3.15,2.95,4.74,4.45,1.1-1.28,2.09-2.44,3.2-3.74Zm-52.18-26.4c1.06-1.2,1.98-2.24,2.95-3.35-1.7-1.65-3.29-3.2-4.96-4.82-1.09,1.22-2.05,2.28-3.07,3.41,1.71,1.6,3.33,3.12,5.08,4.76Zm9.55,37.7c1.15-1.26,2.15-2.36,3.23-3.53-1.66-1.49-3.23-2.91-4.87-4.38-1.17,1.25-2.2,2.36-3.3,3.53,1.68,1.49,3.25,2.88,4.94,4.38Zm29.61-39.91c-1.35,1.47-2.64,2.85-3.88,4.26-.18,.2-.27,.75-.13,.91,.89,1.06,1.93,1.97,2.97,2.97,1.54-1.68,2.96-3.23,4.46-4.86-1.16-1.11-2.26-2.15-3.43-3.27ZM33.72,92.42c-.8-.85-1.48-1.6-2.19-2.31-.76-.77-1.01-.78-1.91-.11-2.16,1.59-4.3,3.2-6.45,4.8-.21,.16-.45,.27-.73,.43,.47,.72,.79,1.21,1.15,1.75,1.03-.68,1.99-1.23,2.85-1.9,.92-.71,1.94-1.09,3.06-.98,1.65,.15,2.82-.74,4.22-1.67Zm-4.96-5.21c-3.48,2.38-6.81,4.66-10.19,6.97,.33,.73,.61,1.35,.89,1.95,1.85-.6,9.3-5.8,10.68-7.44-.43-.46-.86-.92-1.38-1.48Zm-4.73,36.05c-2.25,1.41-4.32,2.71-6.46,4.05,.65,1.18,1.23,2.25,1.8,3.28,1.44-.17,2.13-1.38,3.33-1.79,1.19-.4,2.3-1.19,3.39-2.01-.73-1.24-1.36-2.33-2.07-3.54Zm244.25,97.01c-.06-.2-.06-.25-.08-.28-1.42-1.3-2.84-2.6-4.27-3.88-.5-.44-1.33-.16-1.57,.52-.39,1.15-.74,2.31-1.12,3.54,1.28,1.13,2.59,2.27,3.99,3.51,1.1-1.22,2.11-2.35,3.05-3.4ZM77.24,145.27c2.08,.86,3.88,1.64,5.71,2.35,.36,.14,.82,.02,1.18,.02,.63-2.95-.03-5.38-2.14-7.5-1.56,1.68-3.07,3.31-4.75,5.13Zm-57.39-13.9c.94,.64,2,.72,2.97,1.08,.65,.24,1.17,.09,1.72-.29,1.81-1.25,3.66-2.45,5.48-3.68,.27-.18,.5-.44,.78-.69-.52-.68-.97-1.25-1.42-1.84-3.52,1.35-6.39,3.54-9.54,5.42Zm90.12,19.38c-1.27-.96-2.52-1.89-3.82-2.87-.59,1.19-1.37,2.17-1.18,3.44,.36,2.39,.78,4.77,1.19,7.15,.04,.21,.16,.41,.29,.75,1.2-2.88,2.32-5.58,3.53-8.47Zm-2.02-13.07c-1.67,2.3-3.23,4.44-4.84,6.66,.96,.69,1.77,1.27,2.65,1.91,1.85-1.88,3.62-3.68,5.44-5.53-1.11-1.04-2.1-1.96-3.25-3.04Zm-.8-23.88c-1.13,1.2-2.17,2.31-3.26,3.48,1.27,1.36,2.42,2.59,3.67,3.93,1.52-1.6,2.93-3.07,4.44-4.66-1.66-.94-3.18-1.8-4.85-2.74ZM6.33,123.59c3.02-2.19,5.74-4.16,8.56-6.21-.64-.92-1.2-1.73-1.84-2.65-2.19,1.64-4.27,3.18-6.32,4.75-.21,.16-.37,.51-.38,.77-.04,1-.02,2-.02,3.34Zm155.53,43.9q-1.29-.64-2.2,.26c-2.4,2.39-4.79,4.79-7.19,7.19-.27,.27-.51,.57-.88,.98,.87,.45,1.63,.84,2.41,1.25,2.26-2.44,4.38-4.78,6.57-7.07,.7-.74,1.1-1.56,1.28-2.61Zm-74.69-48.04c.88,1.49,1.68,2.84,2.55,4.31,1.72-1.08,3.34-2.1,5.09-3.21-.93-1.45-1.78-2.8-2.69-4.23-1.7,1.07-3.25,2.05-4.95,3.12Zm-20.82,20.9c-.2,.03-.25,.02-.28,.04-3.25,2.07-6.51,4.14-9.75,6.23-.25,.16-.45,.55-.49,.85-.08,.58-.02,1.17-.02,2.04,4.09-2.6,7.92-5.04,11.87-7.55-.49-.6-.9-1.1-1.32-1.62ZM14.71,90.55c-1.31,.47-3.39,1.87-4.03,2.68,1.25,2.02,2.51,4.06,3.81,6.16,.68-.48,1.21-.86,1.75-1.23,.41-.27,.59-.59,.43-1.11-.66-2.14-1.29-4.28-1.96-6.51Zm35.96,55.95c-1.24-1.83-2.41-3.55-3.66-5.38-1.21,.75-2.32,1.43-3.51,2.17,1.12,1.93,2.17,3.74,3.29,5.66,1.32-.84,2.53-1.6,3.88-2.45Zm-45.6-14.9c.09,.05,.18,.11,.28,.16,2.92-1.81,5.83-3.63,8.87-5.52-.59-.94-1.1-1.76-1.66-2.66-2.33,1.64-4.52,3.16-6.69,4.71-.23,.16-.45,.46-.5,.72-.14,.85-.2,1.72-.29,2.58Zm-.92,10.41c3.4-2.28,6.51-4.37,9.75-6.55-.54-.43-.94-.76-1.34-1.08-.58-.47-1.11-.53-1.78-.07-1.85,1.26-3.75,2.45-5.62,3.69-.28,.18-.63,.46-.68,.74-.17,.97-.22,1.95-.34,3.26Zm16.91-23.97c-1.8,1.17-3.51,2.1-5.02,3.63,2.09,.39,2.85,2.01,3.65,3.72,1.39-.99,2.8-1.67,4.05-2.69-.91-1.59-1.76-3.06-2.68-4.66Zm61.45,4.36c-1.94,1.23-3.73,2.37-5.71,3.63,1.52,.99,2.82,1.87,4.15,2.7,.19,.12,.55,.17,.72,.07,1.09-.63,2.14-1.32,3.26-2.02-.85-1.53-1.6-2.9-2.42-4.38Zm174.88,101.56c1.49,1.32,2.82,2.5,4.22,3.74,1.13-1.26,2.14-2.39,3.24-3.62-1.43-1.26-2.76-2.44-4.17-3.69-1.11,1.21-2.14,2.33-3.28,3.58ZM34.16,78.33c-2.11,2.15-4.18,4.27-6.34,6.46,.49,.52,.9,.95,1.39,1.46,2.58-1.77,5.1-3.49,7.74-5.29-.95-.9-1.8-1.7-2.78-2.63Zm58.11,50.84c-.86,.92-1.61,1.71-2.33,2.51-.1,.11-.17,.36-.12,.48,.49,1.17,.83,2.46,1.57,3.44,.65,.86,1.77,1.37,2.75,2.09,.65-.83,1.21-1.55,1.8-2.3-1.22-2.06-2.39-4.04-3.68-6.22Zm-7.61-24.51c-1.57,1.05-2.97,1.98-4.43,2.96,.87,1.49,1.66,2.84,2.49,4.27,1.63-1.08,3.13-2,4.6-3.07-.92-1.44-1.74-2.72-2.66-4.15Zm173.03,127.39c-1.42-1.33-2.71-2.54-4.06-3.81-1.17,1.28-2.23,2.42-3.35,3.64,1.46,1.27,2.8,2.44,4.23,3.69,1.07-1.19,2.06-2.29,3.17-3.52Zm-15.55,5.8c-1.05-.36-2.04-.72-3.05-1.02-.24-.07-.65,.01-.82,.18-1,1.03-1.96,2.11-2.99,3.25,1.21,1.08,2.31,2.07,3.49,3.13,1.05-1.17,2-2.26,2.98-3.31,.61-.65,.76-1.35,.38-2.23Zm19.08-9.75c-1.4-1.26-2.69-2.42-4.08-3.67-1.08,1.17-2.07,2.25-3.13,3.4,1.4,1.31,2.69,2.52,4.06,3.8,1.11-1.24,2.09-2.34,3.16-3.53ZM11.25,133.39c-.74-1.16-1.39-2.18-2.11-3.3-1.34,.82-2.58,1.56-3.79,2.33-.19,.12-.38,.4-.41,.63-.15,1.47-.26,2.94-.41,4.67,2.32-1.49,4.43-2.86,6.72-4.33Zm55.07-43.25c-.53,.38-.95,.65-1.35,.97-.58,.46-1.13,.95-1.71,1.41-.3,.24-.62,.44-1,.72,.85,1.4,1.55,2.79,2.49,4.13,1.51-1.03,2.87-1.96,4.36-2.97-.94-1.43-1.82-2.77-2.79-4.24ZM220.2,218.31c-.34-.09-.87-.08-1.32,.41-1.06,1.17-2.12,2.34-3.27,3.61,1.17,1.05,2.27,2.04,3.46,3.11,1.15-1.29,2.22-2.49,3.22-3.61-.71-1.2-1.34-2.27-2.09-3.52ZM77.93,88.67c1.59-1.03,3.07-2,4.64-3.02-.86-1.29-1.63-2.44-2.38-3.56-1.42,.61-4.24,2.47-4.91,3.24,.85,1.07,1.72,2.16,2.65,3.34Zm123.1,109.98c-2.07-.61-3.93-1.17-5.87-1.74-.45,1.59-.86,3.01-1.3,4.57,1.52,.43,2.93,.82,4.38,1.23,.94-1.37,1.8-2.61,2.8-4.05ZM48.62,126.04c1.04,1.46,1.63,2.99,2.84,4.03,1.87-.59,2.61-1.75,2.48-3.59-.07-.99,.08-2.01,.1-3.01,0-.32-.1-.64-.21-1.22-2,1.07-3.45,2.51-5.21,3.79Zm95.18,68.76c-1.5-.41-2.92-.82-4.35-1.17-.25-.06-.65,0-.83,.16-.92,.85-1.79,1.76-2.77,2.73,1.22,1.1,2.2,2.2,3.24,2.98,1.61-1.6,3.09-3.08,4.72-4.7ZM42.14,106.95c-.53-.77-.98-1.44-1.5-2.19-2.52,1.64-4.93,3.21-7.44,4.84,.69,.9,1.26,1.65,1.85,2.42,2.16-1.54,4.22-3.02,6.29-4.49,.21-.15,.42-.31,.8-.58Zm20.87-.04c.62,1.01,1.15,1.87,1.68,2.72,.09,.14,.23,.25,.34,.36,1.8-.86,4.82-2.87,5.48-3.68-.77-.93-1.55-1.86-2.39-2.87-1.73,1.17-3.35,2.28-5.11,3.47Zm224.62,121.47c-3.12-1.66-6.15-3.07-9.89-3.44,2.59,2.37,4.98,4.57,7.46,6.84,.87-1.22,1.63-2.27,2.43-3.4Zm-72.33-13.86c1.11,1,2.11,1.85,3.05,2.75,.62,.6,1.25,.71,1.92,.38,.54-1.29,1.05-2.48,1.57-3.72-1.14-1.01-2.21-1.96-3.34-2.96-1.1,1.22-2.09,2.32-3.2,3.55Zm-25.4-9.89c1.92,.57,3.75,1.12,5.67,1.69,.74-1.02,1.44-1.99,2.28-3.15-2.41-.68-4.62-1.3-6.92-1.95-.36,1.2-.67,2.24-1.03,3.41ZM57.5,115.84c-.83,.51-1.49,.93-2.17,1.32-.49,.28-.62,.65-.57,1.2,.11,1.31,.15,2.62,.24,3.93,.02,.27,.12,.54,.23,.99,1.7-1.1,3.27-2.11,4.92-3.17-.9-1.46-1.73-2.79-2.64-4.27Zm161.6,117.54c-1.22-1.11-2.35-2.13-3.56-3.22-1.13,1.26-2.13,2.39-3.22,3.61,1.22,1.1,2.34,2.12,3.55,3.22,1.12-1.25,2.13-2.38,3.22-3.6ZM39.51,82.64c-.29-.54-.59-1.1-.96-1.79-3.27,1.64-5.97,3.86-9.01,5.82,.68,.66,1.19,1.16,1.6,1.56,2.83-1.89,5.52-3.69,8.36-5.59ZM238.12,236.36c-1.22-1.12-2.33-2.15-3.52-3.24-1.14,1.29-2.26,2.36-3.2,3.66,1.21,1.08,2.32,2.06,3.5,3.11,1.12-1.23,2.14-2.35,3.22-3.54Zm-15.09-7.35c1.09-1.21,2.11-2.33,2.87-3.18-1.12-1.27-2.13-2.4-3.21-3.62-1.04,1.16-2.09,2.33-3.23,3.59,1.2,1.08,2.33,2.09,3.57,3.2Zm-.37,.41c-1.21-1.09-2.34-2.1-3.57-3.21-1.1,1.23-2.11,2.35-3.18,3.56,1.25,1.13,2.38,2.14,3.57,3.21,1.1-1.24,2.09-2.34,3.18-3.56Zm-10.34,11.54c1.1-1.23,2.11-2.35,3.2-3.57-1.22-1.11-2.34-2.12-3.53-3.2-1.11,1.23-2.12,2.35-3.21,3.56,1.22,1.11,2.34,2.12,3.54,3.21Zm14.3-7.95c-1.23-1.11-2.35-2.12-3.55-3.21-1.11,1.24-2.12,2.37-3.18,3.56,1.24,1.12,2.34,2.12,3.54,3.21,1.08-1.2,2.09-2.33,3.2-3.56ZM19.72,110.31c-2.13,1.41-4.32,2.44-6.15,4.18,.61,.87,1.17,1.67,1.77,2.52,2.04-1.52,3.93-2.92,5.89-4.38-.52-.8-.97-1.48-1.51-2.32Zm-2.46,9.55c2.1-1.4,4.05-2.7,6.07-4.05-.64-.98-1.18-1.8-1.78-2.72-2.05,1.49-3.98,2.89-5.91,4.42,.57,.83,1.04,1.5,1.62,2.35Zm209.16,90.23c1.21,1.11,2.33,2.12,3.57,3.26,1.11-1.25,2.11-2.38,3.16-3.57-1.24-1.1-2.35-2.08-3.56-3.15-1.08,1.19-2.07,2.27-3.17,3.46Zm7.15,.06c-.89,1-1.66,1.83-2.39,2.7-.42,.5-.41,1.26,0,1.66,.7,.66,1.45,1.27,2.18,1.9,.35,.3,.73,.35,1.05,0,.86-.97,1.7-1.97,2.65-3.08-1.2-1.09-2.29-2.07-3.5-3.17Zm-3.51,19c-1.2-1.12-2.3-2.15-3.5-3.27-1.07,1.19-2.08,2.32-3.14,3.51,1.24,1.11,2.37,2.13,3.56,3.2,1.09-1.21,2.07-2.31,3.09-3.43Zm-6.84-7.56c1.26,1.17,2.37,2.2,3.55,3.29,1.1-1.26,2.07-2.37,3.04-3.48-.56-1.04-1.37-1.69-2.18-2.23-.49-.33-1.27-.24-1.93-.34-.81,.91-1.6,1.79-2.48,2.77ZM56.94,106.46c3.01-1.93,5.94-3.82,8.97-5.76-.48-.63-.86-1.13-1.28-1.67-3.03,1.9-5.96,3.73-8.79,5.85,.4,.58,.72,1.03,1.11,1.59Zm26.03,15.65c.85,1.54,1.61,2.91,2.43,4.38,1.36-.87,2.56-1.64,3.83-2.45-.86-1.5-1.59-2.92-2.59-4.27-1.26,.8-2.4,1.53-3.67,2.34ZM16.3,105.12c-2.2,1.39-4.26,2.69-6.42,4.06,.64,.86,1.19,1.61,1.77,2.4,2.16-1.37,4.18-2.65,6.27-3.97-.57-.88-1.04-1.6-1.62-2.48Zm237.21,115.33c1.14,1.02,2.17,1.94,3.29,2.94,1.11-1.24,2.12-2.37,3.22-3.6-1.25-1.1-2.41-2.12-3.63-3.18-1,1.33-1.88,2.52-2.88,3.84Zm-41.49,5.77c1.2,1.09,2.3,2.08,3.49,3.16,1.07-1.2,2.08-2.33,3.17-3.56-1.19-1.07-2.28-2.04-3.45-3.09-1.09,1.19-2.08,2.27-3.21,3.5ZM39.02,73.39c-1.57,1.6-2.93,2.98-4.24,4.32,.96,1.04,1.82,1.95,2.66,2.86,1.07-.51,2.04-.96,3.07-1.45-.5-1.92-.96-3.68-1.49-5.72Zm148.26,116.94c-.71,1.11-1.35,2-1.21,3.27,1.98,.59,3.94,1.17,6.03,1.79,.32-1.2,.6-2.23,.91-3.38-2-.59-3.84-1.13-5.74-1.68Zm44.13,53.4c1.11-1.22,2.07-2.28,3.12-3.44-1.23-1.09-2.35-2.1-3.55-3.17-1.09,1.2-2.08,2.28-3.12,3.42,1.24,1.11,2.34,2.09,3.56,3.19Zm-4.19-27.27c.66-.76,1.23-1.42,1.8-2.08,.39-.45,.38-.85-.07-1.25-.94-.85-1.87-1.69-2.88-2.61-1.11,1.22-2.29,2.25-3.05,3.74,.91,.82,1.78,1.6,2.78,2.49,.34-.89,.86-.48,1.42-.28Zm4.59,27.64c1.2,1.08,2.3,2.06,3.51,3.15,1.06-1.18,2.04-2.27,3.1-3.45-1.19-1.07-2.29-2.06-3.49-3.14-1.07,1.17-2.05,2.26-3.12,3.43Zm12.24-45.03c-.1-.03-.21-.06-.31-.09-.87,.98-1.76,1.95-2.6,2.95-.15,.17-.19,.49-.17,.73,.11,1.84,.24,3.69,.38,5.53,0,.05,.13,.09,.31,.2,.82-.93,1.67-1.88,2.49-2.84,.13-.15,.21-.4,.2-.6-.09-1.96-.19-3.92-.3-5.88Zm-139.04-20.77c1.01,.9,1.95,1.74,2.9,2.57,.13,.11,.31,.24,.46,.22,1.11-.11,2.25,0,3.47-.42-.57-1.58-1.1-3.08-1.68-4.69-1.78,.79-3.78,.64-5.16,2.32Zm117.13,35.17c1.14-1.26,2.16-2.39,3.25-3.6-1.11-1.02-2.14-1.96-3.27-3.01-1.12,1.27-2.14,2.44-3.24,3.69,1.12,1,2.13,1.91,3.26,2.92ZM45.81,73.53c1.94-2.02,3.82-3.98,5.81-6.04-.84-.45-1.56-.83-2.32-1.23-1.95,2.03-3.81,3.98-5.77,6.02,.87,.48,1.55,.85,2.28,1.26Zm164.95,122.4c2.73,1.28,5.46,1.64,8.39,2.39-1.19-2.73-3.6-3.87-5.31-5.87-1.06,1.2-2.01,2.27-3.08,3.48ZM41.25,120.38c2.33-1.52,4.56-2.97,6.9-4.5-.53-.76-1-1.42-1.5-2.13-2.36,1.61-4.69,2.97-6.89,4.66,.55,.72,.99,1.3,1.5,1.97Zm-22.21,10.68c-.74-1.12-1.15-2.38-2.03-3.38-.44,.25-.82,.47-1.27,.73-.43-.54-.82-1.04-1.28-1.62-1.5,.85-2.94,1.7-4.38,2.68,.22,.15,.28,.22,.35,.24,2.21,.56,4.41,1.12,6.62,1.67,.16,.04,.34,.05,.51,.02,.43-.09,.86-.2,1.47-.35Zm219.33,97.86c-1.08,1.2-2.09,2.32-3.16,3.51,1.21,1.09,2.3,2.07,3.47,3.13,.9-1.03,1.7-1.94,2.63-3.01-1.32-.31-.09-.93-.34-1.42-.83-.71-1.66-1.41-2.6-2.22ZM85.04,117.02c-.73-1.51-1.6-2.89-2.53-4.34-1.24,.82-2.35,1.56-3.52,2.34,.88,1.52,1.67,2.87,2.5,4.31,1.22-.79,2.32-1.5,3.55-2.3Zm115.16,83.81c1.09,.95,2.04,1.77,3.03,2.64,1.12-1.26,2.12-2.39,3.19-3.59-1.17-1.09-2.22-2.06-3.39-3.15-.97,1.41-1.86,2.7-2.82,4.11Zm41.24,9.3c-.11,.72-.26,1.12-.22,1.5,.11,1.09,.26,2.18,.45,3.26,.2,1.18,.7,1.57,1.88,1.54,1.19-.03,2.37-.06,3.56-.11,.23,0,.46-.11,.81-.2-1.86-2.31-4.25-3.81-6.46-6ZM32.93,121.38c-1.29,.73-2.46,1.4-3.62,2.06,.02,1.77,.98,2.93,2.1,4.12,1.24-.83,2.44-1.62,3.71-2.47-.76-1.28-1.44-2.44-2.19-3.71Zm212.29,85.1c-.42,1.82-.1,3.43,.12,5.01,.08,.57,.65,1.2,1.41,1.17,1.51-.06,3.01-.19,4.83-.32-2.17-2.15-4.05-4.11-6.37-5.86Zm-30.31,7.68c1.09-1.22,2.09-2.35,3.17-3.55-1.11-.99-2.1-1.88-2.99-2.68-1.16,1.1-2.23,2.1-3.38,3.19,1.05,.99,2.08,1.97,3.21,3.04ZM40.74,140.02c.58,.9,1.26,1.94,2,3.1,1.37-.85,2.62-1.61,3.97-2.44-.87-1.39-1.65-2.64-2.49-3.99-.75,.45-1.5,.76-2.06,1.28-.52,.48-.84,1.19-1.42,2.05Zm205.47,95.14c1.05-1.25,2.16-2.22,3.02-3.5-1.1-.98-2.1-1.88-3.19-2.86-.84,.77-1.62,1.46-2.37,2.18-.27,.26-.24,1.73,.04,1.99,.78,.7,1.58,1.38,2.5,2.19Zm3.77-12.13c.66-.76,1.27-1.45,1.87-2.14,.42-.49,.37-.96-.08-1.39-.73-.69-1.48-1.37-2.22-2.06-.34-.32-.71-.37-1.03,0-.86,.97-1.7,1.97-2.68,3.1,.81,.63,1.43,1.47,2.17,1.59,.74,.12,1.27,.41,1.97,.9ZM85.54,90c-.94-1.37-1.77-2.59-2.66-3.89-1.49,.97-2.86,1.87-4.39,2.87,1.57,1.08,2.92,2.02,4.29,2.97,.94-.66,1.8-1.26,2.77-1.95Zm-7.04,12.13c1.55,1.35,1.14,3.18,1.62,4.91,1.47-.97,2.85-1.85,4.24-2.86-.94-1.46-1.78-2.77-2.68-4.17-1.07,.72-2.01,1.35-3.18,2.13Zm171.92,121.28c.39,.44,.73,.83,1.07,1.21-.11,.25-.21,.47-.34,.75,.74,.6,1.44,1.17,2.26,1.83,.98-1.23,2.12-2.17,2.94-3.45-.98-.88-1.84-1.7-2.75-2.46-.65-.55-.89-.52-1.44,.09-.59,.65-1.14,1.33-1.74,2.04ZM13.46,122.29c-.55-.73-1.01-1.35-1.54-2.06-1.55,1.12-2.96,2.24-4.47,3.19-1.57,.98-1.35,2.5-1.64,3.89,.08,.05,.17,.11,.25,.16,2.43-1.7,4.85-3.4,7.41-5.19Zm41.1-18.28c-.91-1.56-1.74-2.98-2.63-4.51-.94,.64-1.8,1.22-2.72,1.85,.54,1.74,1.06,3.39,1.64,5.22,1.32-.91,2.49-1.71,3.72-2.56Zm37.42,24.65c-.84-1.42-1.61-2.73-2.45-4.14-1.32,.83-2.49,1.56-3.65,2.29,1.26,1.51,2.44,2.94,3.69,4.44,.76-.82,1.54-1.65,2.41-2.58Zm-52.74-9.98c-.93,.61-1.78,1.15-2.61,1.72-.46,.31-.91,.53-1.46,.25-.73-.38-1.24-.11-1.67,.61,.71,1.12,1.22,2.37,2.17,3.44,1.73-1.35,3.38-2.64,5.11-3.99-.56-.73-1.03-1.35-1.54-2.03Zm63.94-13.38c1.27-1.44,2.38-2.71,3.56-4.06-.75-.65-1.42-1.21-2.07-1.79-.39-.36-.84-.31-1.23-.11-1,.52-1.96,1.12-3.06,1.75,.94,1.42,1.81,2.72,2.79,4.21Zm-63.77,12.61c2.37-1.57,4.65-3.08,7-4.63-.51-.75-.92-1.34-1.39-2.02-2.37,1.64-4.64,3.2-6.98,4.81,.48,.65,.89,1.2,1.37,1.85Zm209.35,107.23c-.74,.92-1.44,1.79-2.16,2.68,1.11,1.18,2.09,2.22,3.19,3.39,1.1-1.24,2.12-2.39,3.23-3.64-1.08-.6-1.51-1.97-2.95-1.42-.1,.04-.29-.16-.43-.26-.27-.21-.52-.44-.88-.74ZM41.01,71.47c-.56,.54-1.4,.82-1.23,1.66,.35,1.69,.83,3.36,1.33,5.32,1.51-1.59,2.84-2.98,4.27-4.49-1.53-.87-2.89-1.65-4.37-2.48Zm51.38,44.02c2.8-1.78,5.52-3.51,8.43-5.36-.81-.49-1.43-.86-2.07-1.24-1.66,1.05-3.24,2.07-4.84,3.08-.86,.54-1.72,.95-1.92,2.2-.09,.58-.06,.84,.4,1.32Zm-79.32,7.82c.86,1.54,1.76,2.98,2.78,4.37,1.19-.75,2.22-1.39,3.31-2.08-.37-.76-.55-1.6-1.06-2.04-.76-.66-1.75-1.07-2.67-1.53-.13-.07-.41,.1-.6,.21-.56,.32-1.11,.67-1.76,1.08Zm72.08,3.98c-1.03,.65-2.15,1.19-3.19,2.13,1.99,1.31,3.86,2.54,5.78,3.81,.31-.35,.52-.57,.71-.81,.18-.23,.34-.48,.48-.68-.85-1.87-2.07-3.32-3.78-4.46Zm139.84,75.47c-1-.83-1.84-1.54-2.69-2.23-.48-.39-.92-.41-1.37,.11-.52,.6-1.09,1.14-1.65,1.71-.33,.34-.37,.7-.04,1.04,.88,.9,1.78,1.79,2.74,2.76,1.03-1.17,1.96-2.21,3-3.39Zm-9.42,4.22c1.02,1.09,1.94,2.07,2.95,3.15,1.04-1.19,2.03-2.33,3.09-3.54-1.09-.97-2.05-1.83-3.1-2.77-1.04,1.12-1.99,2.14-2.94,3.16ZM5.66,119.56c2.48-1.85,4.77-3.56,7.1-5.3-.5-.71-.89-1.27-1.34-1.9-1.65,1.04-3.18,1.97-4.66,2.97-.25,.17-.32,.65-.43,1-.12,.4-.05,.97-.31,1.21-.59,.55-.53,1.13-.37,2.02Zm87.13-14.24c-1.73-.99-3.27-1.88-4.88-2.79-.68,.45-1.32,.88-2.09,1.39,.88,1.44,1.71,2.8,2.58,4.23,1.51-.98,2.87-1.85,4.38-2.82Zm141.13,104.44c1.33,1.17,2.49,2.2,3.72,3.28,.88-1.07,1.64-1.99,2.45-2.98-1.25-1.14-2.37-2.15-3.57-3.24-.89,1.01-1.7,1.91-2.61,2.94ZM49.19,116.44c1.23,1.84,2.34,3.51,3.46,5.18,.22,.34,.54,.53,.88,.29,.2-.14,.35-.5,.33-.75-.1-1.22-.18-2.45-.41-3.65-.21-1.04-.47-2.1-1.04-3.13-1.07,.69-2.06,1.33-3.2,2.06Zm13.66,23.06c-.03-.11-.06-.22-.08-.33-2.42,.11-4.84,.22-7.39,.34,.17,1.6,.32,3,.49,4.59,2.48-1.63,4.73-3.12,6.99-4.6Zm173.27,66.96c-1.19-1.11-2.27-2.16-3.49-3.15-.93,1.02-1.75,1.91-2.65,2.89,1.24,1.1,2.37,2.1,3.57,3.17,.91-1.03,1.71-1.93,2.57-2.92ZM26.59,109.34c-1.63,1.21-3.13,2.24-4.57,3.48,.62,.94,1.17,1.76,1.77,2.66,1.52-1.07,2.91-2.05,4.38-3.08-.53-1.03-1.01-1.95-1.58-3.06Zm199.09,94.05c-1.04,1.1-2.01,2.14-3.04,3.24,1.1,1,2.08,1.89,3.13,2.84,1.05-1.17,1.97-2.2,2.98-3.33-1.06-.95-2.02-1.81-3.07-2.75ZM46.77,95.34c-2,1.18-3.8,2.25-5.53,3.27,.74,.89,1.4,1.68,2.1,2.52,1.54-1,2.92-1.91,4.33-2.83-.31-1.01-.57-1.88-.9-2.96Zm-20.4-24.87c-1.2,1.26-2.3,2.42-3.48,3.66,.98,.88,1.84,1.66,2.77,2.49,1.13-1.34,2.13-2.54,3.07-3.65-.83-.88-1.55-1.63-2.37-2.5Zm8.62,42.43c-1.37,1.11-2.69,2.02-3.93,3.17,.8,.92,1.5,1.74,2.24,2.59,1.38-.96,2.62-1.82,3.95-2.74-.77-1.04-1.45-1.94-2.25-3.02Zm55.43-14.81c-1.14-.46-2.06-.85-3-1.19-.27-.1-.66-.16-.88-.04-1.12,.62-2.24,1.25-3.32,2.19,1.08,.62,2.02,1.16,2.97,1.69,.97,.54,1.41,.52,2.2-.28,.67-.68,1.25-1.45,2.04-2.39Zm-29.19,34.92c-1.05,.59-1.92,1.22-2.89,1.58-.96,.36-2.01,.44-3.02,.64v1.71c2.71-.3,5.31-.34,8.09-.76-.79-1.14-1.43-2.07-2.19-3.17Zm33.54-31.85c-1.42-.98-2.43-2.13-3.83-2.67-1.26,1.03-2.05,2.19-2.21,3.81,.71,.43,1.44,.87,2.19,1.32,1.26-.8,2.43-1.55,3.85-2.46Zm-31.34,23.24c1.27-.79,2.38-1.48,3.48-2.17-1.06-2.11-1.65-2.51-3.33-2.29-.24-.26-.51-.54-.82-.87-.62,.4-1.2,.77-1.89,1.22,.86,1.39,1.66,2.68,2.55,4.1Zm-22.12-45.1c.44,.71,.77,1.25,1.14,1.85,2.19-1.32,4.25-2.55,6.41-3.85-.4-.68-.75-1.26-1.16-1.95-2.15,1.33-4.19,2.59-6.39,3.95Zm139.06,112.65c1.74,.5,3.31,.96,4.87,1.41,.45-1.13,.85-2.12,1.29-3.23-1.49-.43-2.91-.83-4.37-1.25-.6,1.03-1.15,1.97-1.79,3.06ZM34.61,112.51c-.6-.96-1.13-1.84-1.99-2.55-1.26,.88-2.47,1.72-3.7,2.57,.56,1.13,.84,2.2,1.83,3,1.29-1.01,2.56-2,3.86-3.03Zm41.4-21.91c.91,1.43,1.72,2.7,2.59,4.07,1.25-.82,2.37-1.55,3.67-2.39-1.54-1.06-2.92-2.02-4.32-2.98-.67,.45-1.24,.83-1.94,1.3Zm-9.92-10.71c-1.36-2.23-2.67-4.39-4.03-6.64-.7,.43-1.27,.78-1.88,1.15,1.47,2.24,2.85,4.35,4.27,6.51,.59-.37,1.07-.67,1.64-1.03ZM13.17,113.89c2.16-1.42,4.17-2.73,6.24-4.08-.46-.65-.83-1.16-1.23-1.72-2.16,1.37-4.18,2.65-6.26,3.97,.47,.69,.84,1.23,1.25,1.83Zm89.15,2.56c-1.19,.76-2.27,1.43-3.34,2.12-1.08,.7-2.25,1.28-3.36,2.22,.73,.38,1.25,.8,1.83,.89,.7,.11,1.55,.32,2.14-.32,1.13-1.23,2.21-2.51,3.3-3.78,.08-.09,.08-.24,.13-.39-.21-.22-.41-.44-.7-.74Zm-29.7,269.32c1.04,2.19,1.99,4.19,2.97,6.27,.74-.32,1.33-.57,2.05-.88-1.05-2.15-1.83-4.31-3.01-6.36-.72,.35-1.3,.63-2.01,.97ZM4.29,106.25c.61,1,1.28,1.83,1.65,2.79,.36,.92,.4,1.97,.62,3.15,1.14-.75,2.17-1.42,3.19-2.09-.41-.69-.72-1.22-1.04-1.74-.11-.18-.3-.47-.42-.45-.79,.11-.92-.54-1.21-.99-.36-.54-.7-1.1-1.1-1.74-.58,.37-1.08,.68-1.69,1.07Zm49.7,23.97c-.35-.06-.48-.11-.6-.1-1.41,.09-1.66,.38-1.63,1.76,0,.31,0,.62,0,.92,.04,1.4,.08,2.79,.11,4.17h2.11v-6.75Zm-6.87-65.13c-1.92,1.98-3.8,3.92-5.78,5.96,.68,.37,1.17,.63,1.69,.91,1.96-2,3.88-3.89,5.73-6-.63-.34-1.09-.58-1.64-.87ZM9.84,92.86c-.54-.85-.98-1.54-1.48-2.35-1.63,1.01-3.17,1.96-4.8,2.98,.61,.83,1.12,1.51,1.69,2.28,1.56-.98,2.99-1.89,4.6-2.91Zm18.38,27.74c-1.34,.85-2.49,1.59-3.71,2.37,.74,1.28,1.39,2.41,2.09,3.62,.87-.41,1.65-.77,2.42-1.13-.27-1.61-.51-3.11-.8-4.86Zm46.23-29.71c1.06-.71,2.12-1.14,2.92-2.04-.91-1.14-1.78-2.23-2.7-3.39-.98,.63-1.86,1.19-2.84,1.82,.9,1.23,1.72,2.36,2.62,3.61Zm-28.58,14.35c-1,.65-1.93,1.25-2.94,1.9,.8,1.2,1.49,2.24,2.23,3.35,1.24-.86,2.34-1.63,3.54-2.46-.97-.95-1.83-1.8-2.83-2.79ZM10.43,80.96c-1.36-1.34-2.66-2.62-4.04-3.98-.69,.76-1.26,1.39-1.88,2.08,1.48,1.29,2.85,2.49,4.26,3.73,.6-.66,1.09-1.2,1.66-1.83Zm64.16,43.49c.35,.29,.51,.44,.69,.56q1,.7,2.08,.01c1.15-.73,2.3-1.45,3.45-2.18,.47-.3,.92-.61,1.44-.95-.38-.65-.67-1.16-1.02-1.76-2.24,1.46-4.36,2.83-6.63,4.31Zm23.25-1.93c-1.01-.51-1.89-.96-2.84-1.45-1.11,.7-2.21,1.39-3.52,2.21,1.8,.81,3.38,1.52,5.03,2.27,.47-1.07,.88-2.02,1.33-3.03Zm-36.82-10.05c1.23-.77,2.32-1.45,3.47-2.17-.68-1.08-1.3-2.06-1.95-3.09-1.23,.88-2.42,1.51-3.45,2.45,.66,.96,1.25,1.82,1.93,2.8Zm-2.95-13.34c-1.53,.92-2.87,1.72-4.26,2.56,.61,.97,1.12,1.77,1.7,2.68,1.35-.93,2.6-1.78,3.91-2.68-.46-.88-.86-1.64-1.35-2.56Zm8.17,2.02c-1.68,1.06-3.22,2.04-4.9,3.1,.49,.75,.92,1.42,1.4,2.17,1.74-1.19,3.34-2.28,5.02-3.42-.56-.68-1-1.22-1.52-1.85Zm14.14,28.45c-1.05-.7-1.95-1.31-2.85-1.91q-1.73-1.14-3.41,.02c-.1,.07-.15,.2-.29,.4,1.25,1.09,2.5,2.16,3.78,3.28,.94-.6,1.77-1.14,2.77-1.79Zm138.1,109.72c1.15-1.22,2.19-2.32,3.3-3.5-.79-.72-1.49-1.36-2.28-2.08-1.11,1.25-2.14,2.4-3.22,3.61,.76,.68,1.4,1.26,2.2,1.97ZM25.18,106.94c-1.67,1.03-3.27,2.02-4.99,3.08,.53,.79,1,1.49,1.52,2.26,1.61-1.2,3.07-2.3,4.6-3.44-.41-.68-.74-1.24-1.13-1.9Zm26.67,32.82c-.86-1.34-1.3-2.67-2.4-3.65-1.19,.75-2.33,1.46-3.52,2.21,.31,.52,.51,.96,.8,1.32,.17,.21,.49,.44,.73,.43,1.38-.06,2.76-.19,4.39-.31Zm173.55,55.95c-1.13,1.25-2.2,2.3-3.16,3.52,.97,.41,5.59,.36,6.84-.05-1.22-1.15-2.39-2.26-3.68-3.48ZM40.63,98.35c2.03-1.2,3.94-2.33,5.94-3.51-.37-.62-.67-1.13-1.06-1.78-2.06,1.32-4.02,2.58-6.11,3.91,.47,.52,.81,.9,1.24,1.38Zm10.93,48.43c1.19-.71,2.28-1.37,3.47-2.07-.71-1.04-1.12-2.05-1.98-2.82-1.13,.73-2.25,1.37-3.34,2.2,.66,.95,1.22,1.77,1.85,2.69Zm-.55-39.66c.28,.87,.54,1.64,.84,2.56,1.57-1.03,3.09-1.87,4.55-2.96-.55-.8-1.01-1.47-1.54-2.24-1.35,.92-2.57,1.76-3.84,2.64Zm27.51-27.54c-1.74,1.18-3.35,2.27-5.05,3.43,.49,.61,.88,1.12,1.34,1.7,1.7-1.09,3.3-2.12,4.99-3.2-.46-.68-.83-1.25-1.28-1.93Zm-54.71,24.98c-1.77,1.12-3.39,2.14-5.09,3.21,.44,.65,.8,1.17,1.21,1.77,1.74-1.04,3.36-2.04,5-3.1-.4-.69-.71-1.21-1.11-1.89Zm58.83-11.87c-1.25,.81-2.46,1.61-3.72,2.43,.59,.84,.79,1.76,1.8,2.1,1.24-.9,2.63-1.59,3.91-2.7-.7-.64-1.27-1.17-1.99-1.83Zm141.82,107.8s-.1,.11-.09,.12c1.5,1.76,3.26,3.23,5.09,4.8,.79-.9,1.49-1.69,2.31-2.63-2.09-.58-3.94-1.09-5.79-1.63-.52-.15-.99-.43-1.52-.66ZM20.28,76.89c.88,.91,1.73,1.79,2.67,2.76,.84-.93,1.55-1.73,2.34-2.61-.99-.87-1.77-1.8-2.86-2.43-.71,.75-1.36,1.45-2.15,2.28Zm189.09,119.75c-1.53-.48-2.82-.89-4.11-1.28-1.1-.33-1.15-.3-1.8,1,1.07,1.01,2.17,2.04,3.34,3.13,.87-.96,1.63-1.8,2.57-2.85ZM48.62,115.6c1.28-.83,2.38-1.54,3.57-2.31-.25-.88-.49-1.7-.78-2.68-1.48,.98-2.82,1.87-4.24,2.81,.51,.76,.93,1.41,1.45,2.18Zm37.21,1.55c.41,.66,.74,1.2,1.11,1.8,1.68-1.08,3.24-2.08,4.9-3.14-.47-.66-.84-1.18-1.25-1.76-1.64,1.06-3.16,2.05-4.76,3.09Zm-30.79-5.58c1.16-.57,2.19-1.19,3.05-2.18-.49-.71-.94-1.38-1.44-2.11-1.44,.91-2.76,1.74-4.26,2.69,1.02,.62,1.83,1.11,2.64,1.6Zm-7.28,21.6c-1.29,.8-2.42,1.51-3.63,2.27,.53,.85,.98,1.57,1.5,2.4,1.28-.77,2.47-1.43,3.62-2.29-.51-.82-.95-1.51-1.49-2.37Zm53.5-26.53c.43-.28,.93-.61,1.5-.98-.98-1.49-1.83-2.9-2.82-4.15-1.11,.36-1.56,1.13-1.96,2.09,1.03,.95,2.08,1.93,3.28,3.04Zm-55.49-2.98c1.17,1.17,2.18,2.19,3.2,3.19,.28,.28,.64,.65,.99,.27,.2-.22,.23-.72,.14-1.04-.31-1.18-.7-2.34-1.07-3.5-.09-.26-.26-.5-.43-.82-.95,.64-1.81,1.22-2.83,1.91Zm10.89-7.2c-1.46,.92-2.81,1.77-4.25,2.68,.43,.75,.79,1.36,1.18,2.03,1.48-.88,2.82-1.67,4.24-2.52-.41-.76-.75-1.4-1.17-2.2Zm3.23,4.92c1.41-.9,2.65-1.69,3.9-2.49,.41-.26,.45-.61,.17-1-1.92-.44-3.79-.65-5.31,1.12,.38,.72,.76,1.45,1.25,2.36Zm.19-30.89c-.76-1.94-1.77-2.77-4.43-3.65-.29,.49-.59,.99-.99,1.67,1.75,.49,2.58,1.86,3.54,3.12,.72-.43,1.31-.79,1.88-1.14Zm135.27,125.88c1.9,.58,3.68,1.14,5.49,1.64,.22,.06,.59-.09,.78-.26,.27-.26,.43-.63,.76-1.14-2.24-.67-4.34-1.29-6.54-1.95-.18,.64-.31,1.13-.47,1.71ZM49.21,108.35c-1.3,.9-2.47,1.71-3.72,2.58,.51,.73,.92,1.33,1.4,2.02,1.39-.93,2.69-1.8,4.03-2.7-.61-.68-1.12-1.25-1.71-1.9Zm-32.92-20.2c-1.41,1.03-1.42,1.05-1.03,2.36,.54,1.81,1.08,3.62,1.63,5.43,.13,.44,.31,.87,.51,1.43,.59-.34,1.02-.59,1.55-.9-1.69-2.55-2.37-5.3-2.65-8.33Zm49.99,28.05c-1.09-1.59-1.96-3.08-3.07-4.49-.68,.46-1.25,.85-1.99,1.35,.58,.73,.96,1.57,1.61,1.94,.62,.35,.99,.78,1.33,1.33,.17,.28,.4,.54,.63,.85,.51-.34,.94-.62,1.49-.98Zm-16.06-46.5c-1.38,1.46-2.6,2.74-3.83,4.04q1.31,.95,2.44,.26c.68-.41,1.36-.81,2.03-1.23,.35-.22,.68-.47,1.07-.75-.59-.8-1.08-1.47-1.71-2.32ZM235.22,217.67c1.09,1.14,2.04,2.14,3.06,3.2,.84-.82,1.55-1.52,2.26-2.23,.18-.18,.31-.41,.45-.61-.86-.85-3.12-1.01-5.77-.37ZM97.34,103.77c-.86,.66-1.64,1.26-2.55,1.96,1.37,.79,2.53,1.49,3.72,2.13,.22,.12,.6,.1,.84,0,.39-.17,.71-.47,1.17-.78-.66-.71-1.23-1.35-1.83-1.98-.42-.44-.86-.85-1.35-1.32ZM248.72,233.72c1.38,1.62,3.34,3.29,4.25,3.62,.36-.44,.73-.89,1.15-1.4-1.42-1.23-2.72-2.37-4.13-3.59-.47,.51-.85,.92-1.27,1.38ZM71.55,92.76c-.9-1.37-1.73-2.62-2.6-3.93-.78,.41-1.38,.74-2.11,1.12,.93,1.42,1.8,2.75,2.72,4.14,.73-.49,1.3-.87,1.99-1.33Zm-10.67,11.8c-1.29,.85-2.43,1.6-3.65,2.41,.58,.8,1.05,1.45,1.55,2.14,1.22-.85,2.38-1.52,3.43-2.41-.47-.74-.86-1.37-1.34-2.14Zm-48.75,28.83c.92,.68,1.61,1.19,2.31,1.71,.69-.43,1.28-.8,1.87-1.18,.57-.37,1.13-.77,1.74-1.19-.72-1.09-1.79-1.09-2.66-1.15-1.27-.08-1.96,1.17-3.26,1.81Zm66.3-59.79c0-.1-.02-.2-.03-.3-.9-.27-1.84-.45-2.69-.83-1.22-.55-2.08-.17-2.9,.91,.77,.73,1.55,1.47,2.43,2.3,1.05-.68,2.13-1.38,3.2-2.07Zm-3.36,37.43c.57,.66,.99,1.14,1.43,1.65,1.33-.84,2.62-1.47,3.4-2.79,.51-.87,.56-.83-.25-1.9-1.46,.97-2.94,1.95-4.58,3.05Zm119.57,85.71c-.82-.24-1.47-.43-2.15-.62-.55,1.58-1.01,3.02-1.32,4.58,.77,.23,1.42,.42,2.16,.63,.45-1.56,.85-2.98,1.31-4.58ZM78.67,114.56c1.25-.82,2.4-1.58,3.58-2.36-.54-.89-.8-1.77-1.41-2.25-1.29,1.13-2.48,2.17-3.76,3.28,.49,.41,.98,.81,1.6,1.33Zm-12.79,25.25c-.49-.93-1.1-.88-1.66-.53-1.93,1.21-3.83,2.48-5.77,3.74,.12,.29,.19,.48,.29,.67,.08,.16,.17,.31,.3,.54,2.36-1.52,4.56-2.95,6.84-4.42Zm-17-12.36c-.94,.26-1.5,1.25-2.53,.7-.12-.06-.46,.3-.81,.54,.64,1,1.23,1.94,1.82,2.87,1.52-.79,2.18-1.29,2.79-2.09-.41-.65-.82-1.3-1.27-2.02Zm43.5,.83c.91-.99,1.68-1.83,2.57-2.79-1.21-.56-2.23-1.03-3.25-1.5-.84-.39-.84-.4-1.6,.46,.72,1.21,1.44,2.44,2.27,3.84Zm-18.65-56.47c-.64-.29-1.08-.47-1.5-.68-1.49-.74-3-1.45-4.46-2.23-1.35-.72-2.65-1.55-3.99-2.29-.45-.25-.96-.38-1.45-.57,1.53,1.34,3.11,2.51,4.72,3.64,.3,.21,.75,.21,1.11,.36,.59,.25,1.22,.47,1.73,.84,.84,.61,1.59,1.33,2.41,2.03,.47-.36,.85-.65,1.43-1.09ZM242.58,224.71c1.05,1.13,1.99,1.98,3.08,2.89,.93-1,1.78-1.91,2.61-2.81-.43-.57-.84-.85-1.44-.75-1.33,.21-2.65,.42-4.26,.67ZM40.34,83.07c.86,1.46,1.62,2.75,2.43,4.12,.68-.4,1.22-.72,1.85-1.1-.83-1.44-1.57-2.75-2.37-4.15-.66,.39-1.21,.71-1.9,1.13Zm101.31,107.52c-.83,.86-1.51,1.57-2.31,2.4,1.73,.49,3.25,.92,4.76,1.34,.48,.13,.84-.03,1.06-.59-1.15-1.03-2.29-2.05-3.51-3.14Zm111.48,22.2c.72,1.17,1.69,1.85,2.54,2.62,.17,.16,.77,.11,.95-.06,.86-.82,1.69-1.69,2.51-2.87-2.14,.11-3.99,.21-6,.31Zm-49.53-8.96c.6,.52,1.08,.94,1.62,1.42,1.11-1.23,2.12-2.36,3.19-3.56-.6-.51-1.08-.93-1.62-1.39-1.08,1.19-2.07,2.29-3.19,3.53ZM47.71,98.97c-1.31,.84-2.61,1.67-4.05,2.6,.66,.66,1.17,1.17,1.7,1.7,.69-.46,1.28-.84,1.86-1.23q1.45-.97,.8-2.62c-.04-.11-.14-.21-.31-.44Zm202.34,117.78c-.05,.11-.09,.22-.14,.32,.85,.78,1.67,1.6,2.58,2.31,.36,.28,.93,.3,1.29-.18,.54-.72,1.07-1.46,1.78-2.44-2.03-.05-3.77-.03-5.52-.02ZM58.79,114.22c.54-.42,1.03-.81,1.55-1.22-.64-1.06-1.14-2.07-1.99-2.91-.93,.66-1.8,1.28-2.81,2,1.16,.76,2.17,1.42,3.25,2.12Zm144.68,80.66c-2.39-.66-4.7-1.3-7.11-1.97-.13,.41-.24,.77-.4,1.27,2.09,.57,4.08,1.09,6.05,1.66,.77,.22,1.17-.07,1.46-.96ZM48.22,132.88c.97,1.51,1.75,2.94,2.9,4.31,.27-1.45,.14-5.12-.2-5.98-.86,.53-1.71,1.05-2.71,1.67Zm1.17,10.72c1.23-.86,2.41-1.43,3.51-2.42-.48-.35-.81-.81-1.14-.81-1.37,.01-2.75,.12-4.33,.34,.72,1.05,1.3,1.91,1.97,2.89Zm-11.84-27.22c-1.31,.9-2.52,1.73-3.9,2.69,.62,.4,1.02,.73,1.48,.93,.28,.12,.73,.19,.97,.05,.94-.54,1.83-1.17,2.83-1.83-.5-.66-.9-1.2-1.37-1.83Zm-25.14,3.51c.59,.8,1.1,1.48,1.68,2.25,.97-.7,1.81-1.31,2.73-1.97-.58-.83-1.07-1.53-1.57-2.25-.26,.12-.43,.17-.57,.27-.71,.52-1.4,1.05-2.27,1.7Zm45.56-4.99c-.91-.6-1.58-1.06-2.27-1.51-1.14-.73-1.14-.73-2.2,.43,.33,.97,.68,1.98,1.09,3.18,1.15-.71,2.13-1.32,3.38-2.09Zm28.49-24.73c-1.18,.62-2.17,1.34-3.22,2.19,.72,.67,1.32,1.23,2.01,1.87,.85-.56,1.64-1.08,2.5-1.65-.44-.83-.83-1.56-1.28-2.41ZM244.77,220.61c-.99-1.32-1.93-2.09-2.74-2.25,0,.91-.05,1.83,.01,2.74,.06,.88-.22,1.8,.28,2.66,.82-.6,1.6-1.61,2.45-3.15ZM81.99,99.13c-1.41-.81-2.59-1.49-4-2.3-.08,1.73,.05,3.14,.37,4.71,1.22-.81,2.29-1.52,3.63-2.41Zm126.84,102.12c1.08-1.24,2.07-2.36,3.19-3.64-.65-.28-1.07-.52-1.52-.63-.25-.06-.65-.01-.82,.15-.85,.86-1.65,1.77-2.59,2.81,.38,.29,.62,.47,.87,.66,.24,.18,.48,.36,.87,.65Zm33.88,16.1c.34,.7,1.84,2.33,2.27,2.45,.22,.07,.52,.04,.73-.06,.45-.2,1.99-2.27,2.17-2.84-1.73,.01-3.44,.08-5.17,.45ZM55.32,138.24c-.03,.77,.47,.71,.89,.69,2.75-.1,5.51-.21,8.26-.33,.11,0,.22-.09,.36-.15-.11-.74-.58-.91-1.21-.87-2.49,.15-4.98,.29-7.47,.45-.29,.02-.57,.14-.83,.21Zm191.08,75.01c-.04,.11-.08,.23-.11,.34,.67,.68,1.35,1.36,2.02,2.05,.33,.34,.74,.41,1.05,.06,.73-.83,1.56-1.61,2.14-2.82-1.82,.13-3.46,.25-5.1,.36ZM82.71,121.62c1.32-.84,2.48-1.57,3.73-2.36-.4-.64-.72-1.18-1.11-1.8-1.27,.83-2.41,1.59-3.6,2.37,.35,.65,.62,1.14,.98,1.8Zm-51.31-2.91c-3.02,1.64-2.76,1.29-2.26,3.94,0,.03,.06,.05,.19,.16,1.04-.6,2.12-1.21,3.32-1.9-.44-.78-.82-1.45-1.25-2.21Zm183.76,80.87c.97,.86,1.91,1.69,2.81,2.5,.74-.69,1.4-1.3,2.05-1.9-.92-1.1-2.19-1.04-3.29-1.4-.68-.22-1.2-.06-1.57,.81Zm12.63,18.51c-.04,.1-.07,.2-.11,.3,.76,.69,1.5,1.41,2.29,2.06,.16,.13,.67,.11,.81-.04,.77-.79,1.48-1.65,2.4-2.69-2.04-.05-3.72,.07-5.39,.37ZM14.26,89.91l-.16-.43c-1.69,.39-3.53-.55-5.25,.74,.51,.82,.94,1.51,1.44,2.31,1.39-.92,2.68-1.77,3.97-2.62Zm188.56,113.97c-1.02-.91-1.92-1.71-2.89-2.58-.43,.58-.8,1-1.09,1.48-.26,.42-.19,.86,.24,1.15,.75,.51,1.51,.99,2.32,1.52,.48-.53,.89-.97,1.43-1.57ZM69.46,88.58c.87,1.33,1.69,2.57,2.56,3.9,.6-.4,1.13-.76,1.73-1.15-.94-1.25-1.8-2.4-2.68-3.59-.59,.31-1.04,.55-1.61,.84Zm-11.27,26.83c.66,1.54,1.44,2.96,2.46,4.37,.77-.51,1.45-.95,2.28-1.5-1.56-1.17-3-2.18-4.74-2.87Zm174.67,101.67c.04-.1,.08-.19,.12-.29-.81-.7-1.6-1.43-2.45-2.08-.18-.14-.68-.14-.83,0-.76,.69-1.54,1.38-2.09,2.37h5.25ZM63.85,97.06c-.69-1.23-1.33-2.43-2.14-3.58-.45,.25-.75,.41-1.05,.6-.32,.2-.62,.43-.91,.64,1.08,2.42,1.61,2.73,4.1,2.34Zm186.1,118.82c.05,.11,.1,.22,.15,.34,1.61-.11,3.22-.22,4.89-.33-.93-1.02-1.74-1.91-2.63-2.89-.88,1.05-1.64,1.97-2.41,2.89Zm-14.98,.73c1.99,.15,3.61,.17,5.57-.27-.97-.87-1.66-1.57-2.45-2.16-.22-.16-.83-.1-1.03,.1-.68,.64-1.27,1.4-2.08,2.33ZM45.26,104.99c-.62-.77-1.15-1.44-1.72-2.15-.87,.59-1.59,1.07-2.39,1.62,.51,.76,.97,1.43,1.5,2.21,.97-.62,1.83-1.17,2.61-1.67Zm199.1,101.61c-.1-.03-.2-.06-.31-.09-.64,.72-1.28,1.44-1.92,2.16-.33,.37-.47,.85-.13,1.19,.67,.7,1.28,1.5,2.36,1.92v-5.18Zm-3.91-3.56c-.81,.44-1.71,1.56-2.49,3.06,.76,.84,1.6,1.62,2.8,2.47-.11-2.03-.21-3.76-.3-5.53Zm1.03,22.19c-.1-.05-.21-.1-.31-.15-.71,.99-1.43,1.97-2.11,2.98-.1,.14-.11,.5,0,.6,.67,.7,1.32,1.46,2.42,1.91v-5.35ZM10.17,110.53c-1.03,.66-1.92,1.23-2.81,1.78-1.2,.74-1.24,.82-.78,2.46,1.51-.95,2.97-1.88,4.52-2.86-.32-.48-.59-.87-.93-1.38Zm232.32,114.94c-.09,.05-.17,.1-.26,.15,0,1.72,.09,3.43,.39,5.11,.1,.03,.19,.05,.29,.08,.7-.96,1.41-1.93,2.16-2.96-.94-.87-1.76-1.62-2.58-2.38ZM106.66,112.26l.31-.21c-1.28-1.94-2.57-3.88-3.9-5.9-.59,.39-1.04,.69-1.64,1.08,1.84,1.77,3.53,3.4,5.22,5.03ZM20.08,72.33c-.69,.76-1.29,1.42-1.97,2.16,.62,.67,1.17,1.27,1.82,1.96,.75-.81,1.42-1.53,2.15-2.32-.72-.64-1.32-1.19-2-1.8ZM240.53,210.89c-.1-.05-.19-.1-.29-.15-.7,.86-1.39,1.71-2.07,2.54,1.28,1.55,1.92,2.05,2.91,2.24-.03-1.59-.34-3.1-.55-4.62ZM81.2,97.55c1.12,1.09,1.24,1.17,1.85,.82,1.04-.62,2.05-1.29,3.24-2.04-.49-.5-.86-.89-1.26-1.3-1.34,.89-2.54,1.67-3.83,2.52Zm187.61,122.19c.33-.47,.54-.77,.78-1.11-.76-.7-1.43-1.32-2.11-1.94-.67-.6-1.35-1.19-2.06-1.81-.23,.3-.38,.46-.48,.65-.1,.18-.16,.39-.25,.62,1.35,1.17,2.66,2.32,4.12,3.59Zm-11.36-3.35c-.04,.1-.08,.2-.12,.3,.98,.86,1.97,1.72,3,2.63,.67-1,1.39-1.79,1.11-2.94h-3.99ZM71.14,126.03c.64-.42,1.2-.79,1.92-1.26-1.49-.99-2.8-1.86-4.11-2.71-.35-.23-.66-.17-.85,.41,.97,1.13,1.98,2.32,3.05,3.56Zm-52.65,5.81c-.07,.09-.15,.18-.22,.27,.54,.97,1.09,1.95,1.62,2.91,1.35-.52,2.39-1.27,2.85-2.04-1.43-.38-2.84-.76-4.26-1.14Zm222.67,68.81c.1,.04,.2,.09,.3,.13,.77-.91,1.54-1.82,2.31-2.73-.95-1.12-2.07-1.12-3.34-1.16,.27,1.39,.5,2.58,.73,3.76Zm23.61,13.58c-1.15-1.04-2.24-2.03-3.31-3-.53,.24-.86,.49-.48,1.02,.35,.5,.76,.97,1.03,1.51,.26,.53,.38,1.13,.56,1.7,.96,0,1.7-.24,2.2-1.24ZM98.8,140.25c-.52-.9-.91-1.58-1.31-2.25-.39-.65-.8-1.28-1.28-2.05-.6,.8-1.07,1.41-1.56,2.06,1.26,.97,2.32,2.01,4.15,2.24Zm-44.56,10.14c.47-1.36,.61-4.08,.32-4.77-.85,.53-1.7,1.05-2.65,1.64,.65,.81,1.22,1.51,1.78,2.23,.18,.24,.32,.51,.56,.9Zm170.93,67.01c.04-.12,.07-.24,.11-.37-.91-.83-1.75-1.74-2.88-2.44-.62,.97-.95,1.88-.99,3.1,1.32-.1,2.54-.19,3.77-.29Zm32.45-1.89c.05,.1,.1,.19,.14,.29,1.23-.02,2.47,.06,3.75-.2-.05-1.31-.82-1.98-1.63-2.75-.8,.94-1.53,1.8-2.27,2.67Zm-68.39-10.51c1.45,1.81,1.6,1.91,3.91,2.69,1.19,.4,1.22,.39,1.87-.99-1.84-.54-3.65-1.08-5.78-1.71Zm69.86,6.2c-.34-.93-.65-1.88-1.02-2.8-.23-.56-.62-.69-1.01-.29-.78,.79-1.61,1.55-2.3,2.73,1.6-.33,2.99-.49,4.33,.36Zm-157.74-32.56c1.12,1.11,2,1.99,3.02,3,.59-.69,1.05-1.22,1.46-1.7-1.1-1.75-2.62-1.5-4.48-1.31Zm140.61,54.6c-.13-.05-.25-.11-.38-.16-.8,.9-1.59,1.8-2.43,2.75,.9,.88,1.84,1.16,3.08,1.06-.09-1.26-.18-2.45-.27-3.65Zm-6.23-7.63c.85,.79,1.47,1.4,2.13,1.95,.15,.13,.6,.16,.7,.05,.68-.8,1.43-1.57,1.83-2.75-1.56,.25-2.96,.47-4.65,.75ZM74.29,85.06c-.45-.59-.84-1.11-1.27-1.67-.97,.58-1.82,1.09-2.77,1.65,.45,.63,.82,1.14,1.26,1.76,.93-.58,1.77-1.11,2.77-1.74ZM242.83,237.05c1.1-.49,1.99-.88,3.08-1.37-1.11-1.01-1.96-1.91-3.2-2.71-.28,1.46,.2,2.65,.11,4.08Zm-17.34-18.98c-1.48-.08-2.65,0-3.85,.21,.06,1.18,.45,2.05,1.19,2.91,.88-.99,1.81-1.82,2.66-3.12Zm17.82,5.67c.05,.08,.1,.17,.14,.25,1.32-.27,2.71-.23,4.12-.81-.73-.89-1.27-1.71-2.35-2.1-.66,.92-1.29,1.79-1.92,2.66ZM52.78,95.03c-.43-.89-.79-1.65-1.2-2.51-.78,.47-1.39,.84-2.11,1.28,.49,.87,.92,1.64,1.39,2.48,.7-.46,1.24-.81,1.92-1.26ZM14.25,140.61c-.3-.05-.41-.11-.46-.07-2.88,1.87-5.75,3.74-8.61,5.64-.13,.09-.16,.33-.23,.5,3.33-1.66,6.3-3.73,9.3-6.06Zm36.13-44.03c-.5-.88-.93-1.63-1.42-2.48-.61,.35-1.12,.64-1.7,.98,.32,.99,.6,1.88,.93,2.9,.78-.5,1.4-.89,2.19-1.4Zm1.5,41.89c.55,1.75,1.74,2.85,2.52,4.21,.09-.04,.18-.08,.28-.11-.16-1.44-.32-2.88-.5-4.42-.81,.11-1.45,.2-2.3,.32Zm-2.83-37.67c1-.7,1.77-1.24,2.63-1.84-.39-.67-.73-1.24-1.1-1.87-.82,.54-1.5,.99-2.23,1.47,.23,.73,.43,1.37,.7,2.23Zm192.15,122.65l.3-.12c-.07-1.41,.01-2.84-.4-4.47-.9,.92-1.61,1.65-2.38,2.43,.91,.8,1.7,1.48,2.48,2.16ZM59.94,90.37c-.46-.76-.81-1.35-1.24-2.06-.75,.47-1.38,.87-2.06,1.29,.47,.78,.85,1.41,1.28,2.12,.71-.47,1.31-.87,2.02-1.35Zm14.16,1.46c-.61,.4-1.14,.75-1.76,1.16,.6,.88,1.13,1.65,1.75,2.55,.53-.73,.93-1.29,1.36-1.89-.47-.63-.88-1.18-1.36-1.82Zm-27.38-2.99c.46,.8,.82,1.42,1.21,2.1,.78-.48,1.4-.86,2.09-1.29-.46-.75-.84-1.36-1.25-2.03-.73,.44-1.32,.79-2.05,1.22Zm19.9,27.86c-.53,.35-1.01,.67-1.48,.98,.85,1.3,2.8,2.71,4.08,2.92-.87-1.31-1.69-2.54-2.6-3.9Zm-7.25-22.48c.74-.45,1.38-.85,2.1-1.29-.46-.73-.84-1.34-1.27-2.04-.72,.49-1.31,.9-1.97,1.35,.4,.68,.74,1.27,1.14,1.97Zm-5.6-9.63c.42,.72,.79,1.34,1.21,2.08,.71-.45,1.31-.83,2.02-1.28-.45-.73-.83-1.34-1.26-2.03-.7,.44-1.29,.8-1.98,1.23Zm-1.66,7.62c.41,.89,.77,1.65,1.17,2.52,.71-.47,1.24-.83,1.86-1.24-.44-.81-.83-1.52-1.26-2.31-.61,.35-1.09,.63-1.77,1.03Zm7.03,2.78c-.75,.48-1.32,.85-1.96,1.25,.41,.75,.76,1.38,1.16,2.11,.73-.45,1.34-.82,2.03-1.25-.42-.73-.79-1.35-1.23-2.12Zm11.58-13.56c-.75,.43-1.41,.8-2.18,1.23,.52,.71,.94,1.29,1.41,1.92,.7-.42,1.28-.76,1.94-1.15-.41-.7-.75-1.29-1.16-2Zm-49.84,17.39c.85-.6,1.51-1.06,2.21-1.56-.4-.62-.71-1.11-1.07-1.66-.81,.42-1.49,.77-2.25,1.17,.38,.7,.7,1.3,1.11,2.06Zm-10.99,31.35c.71,1.13,1.25,1.99,1.81,2.89,.91-.6,1.75-1,2.4-1.9-1.4-.33-2.65-.63-4.21-1Zm29.5,4.91c2.52,1.39,3.07,1.16,3.78,0-.41-.49-.84-1.01-1.3-1.56-.86,.54-1.59,1-2.48,1.57Zm7.97-49.92c-.73,.43-1.31,.78-2,1.18,.44,.72,.8,1.33,1.2,1.98,.72-.46,1.3-.82,1.95-1.23-.4-.67-.73-1.22-1.15-1.93Zm9.94,.7c-.78,.52-1.38,.92-2.03,1.35,.42,.68,.76,1.22,1.14,1.85,.72-.45,1.34-.83,2.01-1.25-.39-.67-.71-1.22-1.12-1.95Zm-2.95,5.02c.6,.75,.63,1.7,1.51,2.19,.53-.36,1.02-.7,1.57-1.08-.46-.78-.86-1.43-1.28-2.15-.63,.37-1.15,.66-1.8,1.04Zm6.08-10.37c-.71,.45-1.24,.78-1.85,1.16,.46,.73,.84,1.33,1.26,2.01,.66-.4,1.2-.73,1.84-1.12-.43-.71-.81-1.32-1.25-2.06Zm-1.94-8.41c.5,.68,.9,1.23,1.36,1.84,.67-.43,1.24-.79,1.91-1.22-.48-.68-.86-1.23-1.28-1.83-.69,.42-1.24,.76-1.99,1.21Zm-.98,13.03c.68-.43,1.21-.77,1.82-1.16-.46-.73-.85-1.34-1.27-2-.66,.42-1.19,.75-1.78,1.12,.43,.72,.78,1.31,1.23,2.05Zm11.13,3.22c-.43-.65-.81-1.21-1.23-1.84-.72,.4-1.32,.72-2.05,1.12,.44,.65,.82,1.21,1.23,1.81,.73-.39,1.33-.71,2.04-1.09Zm-20.46,3.09c.4,.7,.7,1.22,1.04,1.82,.76-.45,1.42-.84,2.17-1.29-.4-.66-.73-1.19-1.11-1.81-.74,.45-1.36,.82-2.11,1.28Zm14.32-2.04c-.67,.47-1.19,.83-1.77,1.24,.46,.71,.85,1.31,1.28,1.98,.64-.39,1.15-.7,1.75-1.07-.42-.72-.78-1.35-1.25-2.16Zm-11.13-13.64c-.48-.74-.84-1.31-1.25-1.93-.71,.47-1.27,.84-1.9,1.25,.46,.71,.82,1.27,1.2,1.87,.69-.42,1.24-.76,1.94-1.18Zm13.67,11.36c.74-.4,1.34-.72,2.05-1.1-.43-.66-.81-1.23-1.24-1.89-.68,.4-1.25,.75-1.88,1.12,.37,.66,.67,1.18,1.06,1.87Zm-13.42-10.85c-.69,.43-1.3,.81-1.98,1.23,.44,.68,.8,1.25,1.2,1.88,.71-.45,1.28-.82,1.91-1.22-.4-.68-.73-1.23-1.13-1.89Zm4.81,19.71c-.36-.69-.68-1.29-1.03-1.97-.67,.44-1.24,.81-1.9,1.25,.33,.66,.61,1.25,.94,1.91,.7-.42,1.25-.75,2-1.19Zm-3.37-17.31c-.74,.44-1.33,.79-2,1.19,.38,.65,.7,1.2,1.07,1.85,.72-.44,1.34-.81,2-1.21-.37-.64-.67-1.16-1.06-1.83Zm1.36,2.34c-.72,.44-1.33,.81-2,1.21,.38,.66,.7,1.21,1.08,1.85,.71-.44,1.33-.81,2.01-1.23-.38-.64-.7-1.19-1.08-1.84Zm7.09,5.65c.46,.73,.82,1.3,1.24,1.96,.67-.47,1.22-.86,1.8-1.27-.41-.67-.74-1.21-1.12-1.81-.67,.39-1.22,.71-1.92,1.12Zm-12.21,.65c.44,.73,.81,1.34,1.24,2.05,.65-.44,1.2-.8,1.78-1.18-.44-.71-.8-1.29-1.22-1.97-.64,.39-1.18,.72-1.8,1.1Zm11.97-1.15c.68-.42,1.26-.78,1.9-1.17-.43-.69-.79-1.27-1.19-1.92-.68,.41-1.22,.74-1.87,1.13,.41,.69,.76,1.28,1.16,1.96Zm-4.34,9.53c.71-.46,1.29-.82,1.94-1.24-.42-.68-.77-1.26-1.17-1.92-.66,.43-1.19,.77-1.8,1.17,.35,.68,.64,1.25,1.03,1.99Zm-46.29-10.93c.66-.75,1.14-1.29,1.6-1.82-.48-.55-.89-1.03-1.38-1.6-.64,.72-1.14,1.28-1.55,1.75,.47,.59,.84,1.06,1.33,1.67Zm35.39,3.86c-.42-.74-.76-1.34-1.15-2.03-.65,.38-1.2,.7-1.82,1.07,.43,.72,.78,1.31,1.19,2.01,.6-.35,1.11-.66,1.78-1.05Zm15.02-1.71c-.7,.44-1.23,.78-1.84,1.16,.47,.73,.86,1.34,1.28,2,.63-.42,1.12-.76,1.72-1.16-.38-.66-.72-1.25-1.16-2Zm-5.14-13.91c-.43-.72-.78-1.3-1.18-1.96-.69,.42-1.26,.78-1.93,1.19,.46,.64,.86,1.19,1.33,1.83,.6-.36,1.11-.66,1.78-1.06Zm5.03,7.22c.44,.71,.81,1.33,1.25,2.05,.63-.38,1.16-.71,1.79-1.1-.46-.71-.86-1.31-1.3-1.99-.62,.37-1.13,.67-1.74,1.04Zm-3.19,5.38c.47,.73,.83,1.29,1.24,1.92,.65-.42,1.18-.76,1.75-1.13-.41-.69-.73-1.24-1.12-1.9-.63,.37-1.17,.69-1.87,1.1Zm-12-3.21c-.45-.73-.79-1.27-1.17-1.88-.66,.39-1.21,.72-1.86,1.11,.41,.68,.76,1.25,1.15,1.9,.66-.4,1.21-.73,1.89-1.13Zm18.51-.74c-.68,.43-1.18,.74-1.79,1.13,.43,.69,.81,1.29,1.23,1.95,.67-.41,1.22-.74,1.83-1.11-.43-.68-.8-1.25-1.26-1.97Zm-.14,9.38c.67-.52,1.21-.93,1.85-1.43-.37-.56-.74-1.1-1.15-1.72-.68,.47-1.22,.86-1.82,1.27,.41,.68,.74,1.23,1.12,1.87Zm167.96,111.24c.06-.12,.12-.24,.19-.36-.7-.47-1.2-1.29-2.11-1.37-1.24-.1-2.49-.03-3.74-.03-.01,.06-.03,.12-.04,.17,1.9,.53,3.8,1.06,5.7,1.58ZM47.29,78.92c.42,.66,.78,1.23,1.19,1.87,.67-.42,1.2-.76,1.78-1.13-.41-.69-.74-1.24-1.13-1.9-.66,.42-1.19,.76-1.83,1.17Zm25.99,48.7c.66-.45,1.28-.88,2.02-1.38-.69-.44-1.2-.76-1.76-1.12-.63,.43-1.21,.82-1.93,1.31,.64,.46,1.13,.8,1.67,1.19Zm-20.04-49.72c.64-.41,1.2-.77,1.82-1.17-.43-.69-.77-1.23-1.13-1.82-.4,.21-.68,.33-.93,.49-.28,.18-.54,.4-.87,.66,.38,.62,.71,1.18,1.11,1.83Zm3.2,1.26c-.39-.66-.73-1.23-1.11-1.87-.67,.4-1.21,.72-1.83,1.1,.4,.67,.72,1.2,1.1,1.84,.65-.38,1.19-.69,1.84-1.07Zm-3.18,5.72c-.66,.42-1.15,.74-1.71,1.09,.46,.72,.84,1.32,1.27,1.99,.61-.38,1.1-.69,1.64-1.03-.42-.72-.77-1.31-1.21-2.06Zm-4.28,1.95c.67-.42,1.2-.75,1.78-1.11-.41-.68-.75-1.22-1.14-1.86-.64,.38-1.17,.69-1.77,1.05,.39,.66,.71,1.21,1.13,1.93Zm3.3-14.29c-.6,.39-1.07,.69-1.63,1.05,.42,.66,.78,1.24,1.19,1.88,.65-.4,1.18-.73,1.79-1.11-.48-.65-.87-1.17-1.35-1.83Zm-5.24,12.12c-.37-.61-.67-1.13-1.04-1.73-.68,.42-1.26,.78-1.89,1.17,.35,.61,.64,1.13,.98,1.73,.71-.43,1.3-.78,1.95-1.17Zm-7.99-4.07c.39,.72,.71,1.3,1.07,1.96,.65-.4,1.16-.71,1.77-1.09-.37-.66-.69-1.26-1.08-1.96-.6,.37-1.1,.68-1.76,1.08Zm15.35-6.02c.45,.72,.81,1.29,1.21,1.92,.66-.41,1.16-.73,1.75-1.1-.44-.67-.81-1.24-1.21-1.85-.62,.36-1.1,.65-1.75,1.03Zm1.58,8.01c.68-.42,1.22-.75,1.84-1.13-.41-.65-.74-1.19-1.11-1.77-.66,.39-1.21,.71-1.82,1.06,.38,.65,.69,1.17,1.08,1.84Zm11.66-.1c-.47-.75-.84-1.33-1.28-2.03-.54,.32-1.04,.62-1.64,.98,.49,.7,.9,1.29,1.33,1.92,.58-.32,1.02-.57,1.58-.87Zm24.69,21.82c.55,.39,.89,.75,1.42,.44,.92-.56,1.83-1.14,2.76-1.72-.74-.82-.76-.84-1.33-.5-.89,.53-1.77,1.1-2.85,1.79Zm-24.32-21.38c-.63,.35-1.11,.62-1.7,.96,.49,.68,.9,1.26,1.36,1.9,.63-.35,1.13-.63,1.72-.96-.51-.7-.91-1.26-1.38-1.9Zm-16.14,8.78c.67-.4,1.17-.7,1.78-1.06-.4-.69-.73-1.26-1.1-1.89-.66,.43-1.19,.77-1.76,1.14,.39,.65,.69,1.16,1.07,1.81Zm5.78-15.79c-.65,.41-1.18,.74-1.78,1.11,.4,.67,.72,1.21,1.1,1.86,.66-.41,1.19-.74,1.8-1.11-.4-.67-.73-1.21-1.12-1.86Zm-5.49,22.75c.61-.41,1.14-.75,1.71-1.13-.31-.69-.57-1.26-.89-1.95-.66,.43-1.22,.8-1.86,1.21,.36,.65,.67,1.2,1.04,1.87Zm.83-14.28c-.42-.69-.75-1.24-1.13-1.87-.63,.38-1.14,.68-1.75,1.04,.42,.67,.78,1.24,1.17,1.87,.6-.36,1.07-.66,1.7-1.05Zm.11,4.07c.36,.68,.68,1.27,1.03,1.92,.64-.39,1.14-.69,1.73-1.05-.42-.69-.77-1.25-1.15-1.86-.6,.37-1.07,.65-1.62,.99Zm-6.3-9.23c-.59,.35-1.12,.67-1.73,1.04,.41,.67,.75,1.22,1.15,1.87,.62-.41,1.14-.74,1.72-1.12-.41-.65-.73-1.17-1.13-1.8Zm1.93,2.06c.4,.65,.72,1.17,1.09,1.77,.65-.39,1.16-.69,1.77-1.06-.37-.62-.69-1.16-1.06-1.8-.64,.39-1.17,.71-1.8,1.09Zm192.43,113.24c.99,.8,1.88,1.52,2.77,2.24,.48,.38,.79,.24,.98-.4-.8-.72-1.62-1.46-2.43-2.19-.51-.46-.85-.18-1.32,.36Zm36.86-16.96c-.14,0-.28-.02-.42-.02-.52,1.85-1.69,3.47-1.68,5.51,.91-1.6,1.69-3.24,2.43-4.91,.05-.12-.22-.38-.33-.57Zm.99,.57c-.83,1.76-1.64,3.47-2.45,5.18,.09,.05,.18,.09,.26,.14,1.07-1.57,2.13-3.13,3.24-4.77-.41-.22-.67-.36-1.06-.56ZM84.03,100.29c.23,1.2,.83,2.12,1.6,3.08,.54-.38,1.03-.71,1.69-1.17-1.22-.71-2.26-1.32-3.3-1.92ZM12.51,83.51c-.61,.69-1.02,1.15-1.47,1.66,.88,.82,1.63,1.51,2.38,2.21,.08-.05,.15-.09,.23-.14-.35-1.14-.69-2.28-1.13-3.73Zm45.78-2.33c.66-.42,1.21-.77,1.84-1.17-.39-.63-.71-1.13-1.07-1.71-.66,.4-1.2,.72-1.8,1.08,.34,.6,.62,1.09,1.03,1.79Zm-4.04-10.5c-1.2-.63-2.04-1.48-3.25-1.62-.07,0-.16,.18-.3,.36,.56,.76,1.12,1.52,1.74,2.35,.6-.36,1.11-.66,1.81-1.09Zm41.39,30.22c-.86-1.3-1.65-2.65-2.73-3.86-.5,.38-.87,.66-1.26,.96,1.41,1.03,2.7,1.97,3.99,2.91Zm-49.15-18.27c.39,.66,.7,1.17,1.06,1.77,.63-.39,1.14-.7,1.75-1.07-.38-.62-.72-1.15-1.08-1.74-.61,.36-1.09,.65-1.73,1.03Zm157.06,124.42c.44-.48,.81-.89,1.25-1.37-.54-.49-1.02-.91-1.58-1.41-.46,.51-.86,.96-1.35,1.51,.56,.42,1.03,.78,1.68,1.28ZM59.58,78.02c.36,.61,.67,1.12,1.04,1.74,.62-.4,1.15-.74,1.72-1.11-.42-.62-.75-1.1-1.12-1.64-.61,.38-1.08,.67-1.64,1.01Zm-1.48-2.4c.45,.72,.79,1.27,1.17,1.89,.58-.35,1.06-.63,1.65-.98-.46-.65-.85-1.21-1.29-1.83-.52,.32-.96,.58-1.52,.92Zm200.27,136.35c-1.33-1.4-2.78-.61-4.16-.54-.32,.02-.62,.26-.57,.81,1.61-.09,3.17-.18,4.73-.26ZM46.01,92.74c.37,.64,.69,1.18,1.05,1.8,.6-.36,1.07-.64,1.63-.97-.36-.64-.67-1.18-1.02-1.81-.61,.37-1.09,.65-1.66,.99Zm-.13-18.48c-.94,.99-1.86,1.95-2.94,3.09,1.35-.42,3.36-1.68,4.05-2.47-.35-.19-.68-.38-1.12-.62Zm149.38,120.3c-.72-.23-1.35-.44-2.02-.65-.13,.24-.24,.38-.29,.53-.1,.32-.18,.65-.3,1.13,.74,.2,1.41,.39,2.15,.59,.17-.6,.3-1.05,.45-1.6ZM46.02,92.05c.49-.3,.88-.53,1.39-.83-.43-.73-.8-1.37-1.21-2.07-.5,.33-.86,.56-1.3,.84,.37,.68,.72,1.31,1.12,2.06Zm9.65-22.43c-1.05-.56-2-1.08-2.96-1.58-.48-.25-.82-.16-.99,.52,.86,.5,1.73,.99,2.58,1.5,.52,.31,.89,.15,1.37-.44Zm-26.88,49.86c.81-.35,1.52-.75,2.2-1.4-.34-.44-.62-.81-.9-1.17q-1.59,.95-1.3,2.56Zm49.07,272.22c-.71,.3-1.32,.56-2.02,.86,.29,.63,.52,1.11,.78,1.66,.74-.39,1.33-.71,2.01-1.07-.29-.55-.5-.95-.77-1.45Zm-9.96-305.46c.49,.71,.87,1.26,1.29,1.87,.55-.31,.98-.56,1.51-.86-.48-.64-.86-1.14-1.29-1.72-.48,.23-.89,.42-1.51,.71Zm-10.05-11.09c.56-.37,.97-.64,1.44-.94-.48-.67-.86-1.19-1.29-1.79-.47,.3-.85,.54-1.31,.84,.4,.65,.74,1.2,1.16,1.89Zm20.03,19.78c-.63-1.44-1.48-2.71-2.45-4.17-.22,.45-.47,.75-.4,.85,.81,1.22,1.5,2.55,2.85,3.32Zm-21.86,51.25c.95-.62,1.73-1.14,2.57-1.7-.29-.4-.48-.67-.72-.99-.92,.67-2.23,.92-1.85,2.69Zm178.96,77.6c-1.07,.2-1.61,.77-1.7,1.75,.54,.47,.98,.65,1.51,.05,.74-.84,.78-.88,.19-1.79ZM56.33,70.07c-.43,.3-.73,.5-1.1,.76,.41,.67,.77,1.24,1.17,1.88,.46-.31,.81-.54,1.22-.81-.44-.62-.81-1.14-1.29-1.83ZM250.07,225.42c.24-.36,.42-.62,.61-.91-.69-.63-1.29-1.19-1.98-1.82-.29,.36-.51,.63-.76,.93,.72,.61,1.35,1.14,2.13,1.79ZM69.69,79.84c-.76,.5-1.41,.93-2.15,1.41,.27,.34,.48,.6,.72,.9,.74-.43,1.4-.82,2.09-1.21-.11-.29-.16-.46-.25-.6-.09-.14-.21-.26-.41-.5Zm-10.25,34.61c1.45,1.43,1.72,1.48,2.44,.46-.34-.45-.7-.91-1.13-1.46-.5,.38-.9,.69-1.31,1Zm42.83-5.37c-.42-.52-.85-1.04-1.28-1.58-.34,.2-.57,.32-.77,.47-.19,.14-.35,.31-.54,.48q1.83,1.3,2.59,.63Zm93.49,83.66c-.74-.19-1.4-.36-2.19-.56-.08,.46-.13,.81-.2,1.21,.74,.21,1.36,.38,2.03,.57,.14-.46,.23-.78,.36-1.22ZM4.43,147.13c-1.1,.02-3.26,1.49-3.53,2.4,1.28-.79,2.51-1.44,3.53-2.4Zm85.48-12.47c.07-.05,.14-.11,.2-.16-.27-.64-.53-1.27-.88-2.11-.42,.49-.68,.8-1.01,1.19,.64,.41,1.17,.74,1.69,1.08ZM3.49,126.46c.7,.21,1.17,.35,1.78,.53,.12-.68,.21-1.23,.3-1.77-.09-.04-.17-.08-.26-.12-.54,.4-1.08,.8-1.82,1.35Zm28.24-8.7c-.06,.06-.11,.11-.17,.17,.5,.85,1.01,1.7,1.55,2.63,.29-.23,.47-.38,.7-.56-.73-.79-1.41-1.51-2.08-2.24Zm45.46,276.74c.78,.55,1.43,.65,2.29,.35-.26-.45-.46-.8-.69-1.19-.57,.3-1.02,.53-1.61,.83Zm5.41-294.88c-.12,.07-.24,.14-.36,.2,.77,1.21,1.55,2.42,2.32,3.63,.09-.05,.17-.1,.26-.16-.74-1.23-1.48-2.45-2.22-3.68Zm147.76,44.58c.77,.63,1.55,1.26,2.32,1.88,.06-.07,.12-.15,.18-.22-.43-1.02-1.13-1.71-2.5-1.66Zm-179.66-13.88c-1.03,.41-1.96,.97-2.67,1.82,1.04-.39,1.98-.94,2.67-1.82Zm160.05,56.17c.08,.07,.17,.14,.25,.21,.51-.57,1.02-1.14,1.52-1.69-.31-.46-.6-.65-.88-.22-.35,.54-.6,1.13-.9,1.69Zm48.39,22.88c-.06,.94,.46,1.44,1.15,1.85,.54-.69,.4-.92-1.15-1.85Zm-16.46-12.88c-.74-.58-1.25-.99-1.9-1.51v1.24c.4,.1,.73,.2,1.07,.26,.16,.03,.33,0,.83,0ZM19.56,72.04c-.06-.06-.13-.13-.19-.19-1.15,.64-1.69,1.29-1.7,2.27,.71-.78,1.3-1.43,1.9-2.08ZM241.27,216.01c-.54,.91-.51,1.08,.1,1.44,.57,.34,.77,.02,.93-.53-.31-.27-.63-.55-1.03-.91Zm-3.03-19.54c.06,.1,.11,.19,.17,.29,.46-.17,.92-.34,1.42-.53-.11-.43-.19-.74-.32-1.22-.5,.57-.89,1.02-1.27,1.47Zm-10.87,21.25c-.4-.34-.68-.57-.96-.81q-.72,.89,.17,1.52c.21-.19,.43-.39,.79-.71Zm14.09,14.28c.3,.25,.55,.47,.87,.74,.23-.3,.43-.55,.64-.83-.31-.29-.55-.52-.84-.79-.23,.31-.43,.57-.67,.88ZM102.29,110.05c.73,.4,1.4,.76,2.06,1.13q-1.2-1.66-2.06-1.13ZM27.22,69.96c-.07,.06-.13,.11-.2,.17,.66,.74,1.28,1.51,2.27,2.13-.76-.85-1.42-1.57-2.07-2.3Zm76.34,46.91c.4-.49,.69-.86,.98-1.22-.08-.09-.15-.18-.23-.26-.44,.23-.88,.46-1.42,.74,.26,.29,.39,.44,.66,.75Zm130.6,86.67c.85,1.22,.86,1.23,1.72,1.55-.63-.57-1.18-1.06-1.72-1.55Zm39.24-15.09c-.09-.06-.18-.13-.27-.19-.28,.67-1.06,1.02-.95,1.95,.41-.59,.81-1.17,1.22-1.76ZM61.65,116.12c.56,.35,.93,.58,1.49,.93q-.63-1.24-1.49-.93Zm1.86,20.9s0-.05,0-.08h-1.63s0,.05,0,.08h1.63Zm-10.33-24.52c.64-.31,.5-.57,.05-.79-.09-.04-.21-.02-.44-.03,.16,.34,.27,.57,.39,.82Zm14.47,9.2l.22-.27-.59-.39c-.04,.06-.09,.12-.13,.19,.17,.16,.34,.32,.51,.48ZM.26,149.78l-.16-.16c-.11,.04-.25,.04-.32,.11-.1,.09-.14,.24-.27,.47,.26-.04,.39-.02,.47-.08,.12-.09,.19-.22,.29-.34Zm50.54-41.7c-.17-.19-.27-.3-.37-.41-.08,.08-.22,.16-.22,.23,0,.1,.1,.23,.2,.29,.06,.03,.18-.04,.39-.11Zm60.33,27.05c-.11,0-.22,0-.32,0,.02,.19,.02,.37,.06,.55,0,.02,.21-.01,.33-.02-.02-.18-.04-.36-.07-.54Z"/></svg>