<?xml version="1.0" encoding="UTF-8"?><svg id="Capa_1" xmlns="http://www.w3.org/2000/svg" xmlns:xlink="http://www.w3.org/1999/xlink" viewBox="0 0 14.37 190.35"><defs><style>.cls-1{fill:#fafafa;}.cls-2{fill:#282828;}.cls-3{clip-path:url(#clippath);}.cls-4{fill:none;}</style><clipPath id="clippath"><polygon class="cls-4" points="-1148.67 411.48 -519.67 411.48 -522.67 -113.33 -1146.67 -113.33 -1148.67 411.48"/></clipPath></defs><g class="cls-3"><path class="cls-2" d="M-964.24-135.63c32.5,21.28,26.1,23.1,96.02,76.2,55.64,42.25,65.48,45.02,72.93,47.14,51.39,14.64,28.61,3.23,79.07,10,41.22,5.53,38.17,32.48,133.41,90.53,40.74,24.84,62.23,32.66,86.06,30.41,30.47-2.88,35.48-19.47,62.42-24.23,60.97-10.76,60.07-4.89,135.25,71.03,51.7,52.21,36.92,87.43,87.93,118.39,18.51,11.24,19.62,6.55,63.53,27.95,62.13,30.28,71.33,47.02,88.59,43.65,8.17-1.6,122.19-111.45,141.81-135.71l-60.72-13.92s-113.28-52.06-203.36-102.95C-314.29,27.72-290.79,14.98-385.3-30.78c-99.71-48.27-116.6-29.61-233.35-86.78-51.43-25.18-106.51-57.38-153.52-84.87-92.06-53.82-181.52-87.1-228.12-102.69-11.27-3.77-35.54,11.27-80.74,58.92-2.56,2.69-96.18,39.69-107.15,50.18-22.48,21.51,163.47,20.8,223.94,60.39Z"/></g><g><g><path class="cls-1" d="M1.55,18.21H11.52v1.47H2.51v2.3h-.97v-3.77Z"/><path class="cls-1" d="M1.47,24.37c0-.64,.2-1.1,.6-1.39s.95-.43,1.66-.43h.83c.37,0,.68,.08,.93,.24,.25,.16,.45,.39,.62,.68,.17,.29,.32,.64,.45,1.03,.13,.4,.28,.83,.43,1.3h.66c.36,0,.66-.01,.88-.04s.39-.1,.5-.22c.11-.12,.16-.3,.16-.56s-.05-.44-.16-.56c-.11-.12-.27-.21-.5-.24-.23-.04-.52-.06-.88-.06h-.29v-1.44h.24c.36,0,.7,.03,1.01,.08s.58,.17,.81,.33,.41,.4,.54,.7,.2,.72,.2,1.22-.06,.87-.18,1.17c-.12,.29-.3,.52-.54,.68-.24,.16-.53,.27-.88,.32-.35,.06-.75,.08-1.21,.08H1.55v-1.46h.74c-.11-.04-.23-.13-.36-.25-.13-.12-.23-.28-.32-.48s-.13-.44-.13-.72Zm.94,.41c0,.25,.07,.47,.2,.66s.26,.31,.39,.37h3.23c-.13-.36-.24-.66-.35-.9-.1-.23-.21-.42-.33-.55-.11-.13-.25-.22-.41-.27-.16-.05-.36-.08-.6-.08h-.79c-.48,0-.82,.05-1.03,.16-.21,.1-.31,.31-.31,.61Z"/><path class="cls-1" d="M1.55,31.94H11.52v2.51c0,.5-.07,.9-.2,1.21-.13,.31-.32,.55-.57,.71-.25,.17-.55,.28-.9,.34-.35,.06-.75,.09-1.18,.09h-.15c-.67,0-1.23-.06-1.68-.19-.45-.13-.79-.36-1.02-.7-.23-.34-.34-.82-.34-1.45v-1.04H1.55v-1.47Zm4.89,1.47v.89c0,.29,.06,.5,.2,.65s.35,.25,.65,.3c.3,.05,.71,.08,1.23,.08h.19c.64,0,1.12-.06,1.42-.18,.31-.12,.46-.39,.46-.81v-.93H6.43Z"/><path class="cls-1" d="M1.55,37.93H11.62v1.45H1.55v-1.45Z"/><path class="cls-1" d="M1.47,42.72c0-.64,.2-1.1,.6-1.39s.95-.43,1.66-.43h.83c.37,0,.68,.08,.93,.24,.25,.16,.45,.39,.62,.68,.17,.29,.32,.64,.45,1.03,.13,.4,.28,.83,.43,1.3h.66c.36,0,.66-.01,.88-.04s.39-.1,.5-.22c.11-.12,.16-.3,.16-.56s-.05-.44-.16-.56c-.11-.12-.27-.21-.5-.24-.23-.04-.52-.06-.88-.06h-.29v-1.44h.24c.36,0,.7,.03,1.01,.08s.58,.17,.81,.33,.41,.4,.54,.7,.2,.72,.2,1.22-.06,.87-.18,1.17c-.12,.29-.3,.52-.54,.68-.24,.16-.53,.27-.88,.32-.35,.06-.75,.08-1.21,.08H1.55v-1.46h.74c-.11-.04-.23-.13-.36-.25-.13-.12-.23-.28-.32-.48s-.13-.44-.13-.72Zm.94,.41c0,.25,.07,.47,.2,.66s.26,.31,.39,.37h3.23c-.13-.36-.24-.66-.35-.9-.1-.23-.21-.42-.33-.55-.11-.13-.25-.22-.41-.27-.16-.05-.36-.08-.6-.08h-.79c-.48,0-.82,.05-1.03,.16-.21,.1-.31,.31-.31,.61Z"/><path class="cls-1" d="M1.49,49.01c0-.45,.04-.8,.13-1.03,.09-.23,.23-.39,.42-.47,.19-.08,.45-.12,.77-.12h6.31v-.97h.86v.97h1.54v1.45h-1.54v1.15h-.86v-1.15H2.91c-.14,0-.25,.02-.32,.07-.07,.05-.12,.15-.14,.32-.02,.17-.03,.42-.03,.77h-.92v-1Z"/><path class="cls-1" d="M1.47,52.6c0-.64,.2-1.1,.6-1.39s.95-.43,1.66-.43h.83c.37,0,.68,.08,.93,.24,.25,.16,.45,.39,.62,.68,.17,.29,.32,.64,.45,1.03,.13,.4,.28,.83,.43,1.3h.66c.36,0,.66-.01,.88-.04s.39-.1,.5-.22c.11-.12,.16-.3,.16-.56s-.05-.44-.16-.56c-.11-.12-.27-.21-.5-.24-.23-.04-.52-.06-.88-.06h-.29v-1.44h.24c.36,0,.7,.03,1.01,.08s.58,.17,.81,.33,.41,.4,.54,.7,.2,.72,.2,1.22-.06,.87-.18,1.17c-.12,.29-.3,.52-.54,.68-.24,.16-.53,.27-.88,.32-.35,.06-.75,.08-1.21,.08H1.55v-1.46h.74c-.11-.04-.23-.13-.36-.25-.13-.12-.23-.28-.32-.48s-.13-.44-.13-.72Zm.94,.41c0,.25,.07,.47,.2,.66s.26,.31,.39,.37h3.23c-.13-.36-.24-.66-.35-.9-.1-.23-.21-.42-.33-.55-.11-.13-.25-.22-.41-.27-.16-.05-.36-.08-.6-.08h-.79c-.48,0-.82,.05-1.03,.16-.21,.1-.31,.31-.31,.61Z"/><path class="cls-1" d="M.84,60.38H11.95v1.4H.84v-1.4Z"/><path class="cls-1" d="M1.55,66.74H11.52v2.25c0,.64-.08,1.13-.23,1.48-.15,.35-.39,.59-.72,.74s-.76,.21-1.3,.22h-.22c-.56,0-1.01-.06-1.36-.19-.35-.13-.6-.38-.76-.75-.09,.3-.26,.53-.49,.69-.23,.17-.52,.28-.84,.35s-.68,.1-1.06,.1h-.21c-.65,0-1.18-.09-1.59-.24s-.71-.41-.91-.76c-.19-.35-.29-.84-.29-1.45v-2.44Zm.95,1.47v.9c0,.28,.05,.49,.16,.64,.11,.15,.3,.26,.58,.32,.27,.06,.65,.09,1.14,.09h.35c.62,0,1.06-.06,1.33-.18,.27-.12,.41-.39,.41-.79v-.98H2.49Zm4.86,0v.83c0,.2,.02,.36,.05,.48,.04,.12,.11,.22,.22,.29,.11,.07,.27,.11,.49,.14,.22,.02,.5,.04,.87,.04h.28c.38,0,.66-.04,.84-.11s.31-.18,.37-.34c.06-.15,.09-.36,.09-.61v-.72h-3.21Z"/><path class="cls-1" d="M1.43,74.6c0-.32,.06-.61,.19-.88s.33-.49,.6-.65c.28-.17,.64-.25,1.09-.25h6.73v1.45H3.44c-.33,0-.58,.07-.75,.22-.17,.15-.26,.38-.26,.69,0,.35,.1,.61,.29,.78,.19,.17,.44,.25,.74,.25h6.57v1.46H1.55v-1.46h.87c-.26-.1-.49-.29-.69-.56-.19-.27-.29-.62-.29-1.06Z"/><path class="cls-1" d="M1.44,81.55c0-.51,.07-.92,.21-1.23,.14-.31,.34-.54,.6-.71,.26-.16,.57-.27,.94-.32,.36-.05,.77-.08,1.21-.08h3c.4,0,.77,.04,1.1,.11,.33,.07,.62,.19,.87,.37,.24,.17,.43,.42,.57,.73,.13,.31,.2,.71,.2,1.19s-.07,.88-.2,1.18c-.14,.3-.33,.52-.58,.68-.25,.15-.54,.26-.88,.31s-.72,.08-1.12,.08h-1.6v-3.17h-1.69c-.54,0-.95,.05-1.23,.14-.28,.09-.42,.34-.42,.75,0,.27,.07,.46,.2,.58,.13,.12,.32,.19,.57,.21s.53,.04,.86,.04h.69v1.42h-.36c-.44,0-.84-.02-1.2-.07s-.67-.14-.92-.29c-.26-.15-.45-.37-.59-.68-.14-.3-.21-.72-.21-1.24Zm5.1-.89v1.73h1.08c.34,0,.63-.01,.86-.04s.41-.1,.53-.21c.12-.11,.18-.29,.18-.54,0-.28-.07-.48-.2-.62-.14-.13-.32-.22-.56-.26s-.52-.06-.84-.06h-1.04Z"/><path class="cls-1" d="M1.55,85.24H10.04v1.45h-.9c.26,.09,.5,.3,.7,.61,.2,.31,.31,.68,.31,1.11,0,.53-.15,.95-.45,1.25-.3,.3-.76,.45-1.38,.45H1.55v-1.45h6.77c.3,0,.52-.08,.66-.25,.14-.17,.2-.39,.2-.65,0-.19-.03-.37-.1-.53-.07-.16-.17-.29-.32-.38-.14-.09-.33-.14-.56-.14H1.55v-1.45Z"/><path class="cls-1" d="M1.44,93.98c0-.5,.07-.91,.21-1.22,.14-.31,.33-.55,.59-.72,.26-.17,.56-.28,.92-.34s.76-.09,1.2-.09h3.01c.53,0,1.01,.06,1.43,.19,.42,.13,.75,.36,.99,.7s.36,.83,.36,1.48c0,.48-.07,.88-.21,1.18-.14,.31-.33,.55-.58,.72-.25,.17-.55,.29-.88,.35-.34,.06-.71,.1-1.11,.1h-3.01c-.43,0-.83-.03-1.18-.08s-.66-.17-.92-.33c-.26-.16-.46-.4-.6-.71-.14-.31-.21-.72-.21-1.22Zm.97,0c0,.25,.07,.44,.2,.57,.14,.12,.33,.21,.57,.25s.53,.06,.85,.06h3.56c.32,0,.59-.02,.83-.06,.24-.04,.42-.13,.55-.25s.2-.32,.2-.57c0-.26-.07-.46-.2-.6s-.32-.22-.55-.26c-.24-.04-.51-.06-.83-.06h-3.56c-.32,0-.6,.02-.85,.06s-.43,.13-.57,.26c-.14,.13-.2,.33-.2,.6Z"/><path class="cls-1" d="M1.43,99.87c0-.76,.19-1.33,.57-1.72,.38-.39,1.01-.59,1.89-.59h.64v1.41h-.63c-.48,0-.84,.06-1.09,.19s-.38,.34-.38,.64,.08,.52,.23,.66,.43,.21,.83,.21c.2,0,.4-.04,.6-.11s.4-.19,.59-.35,.38-.36,.57-.6l.57-.75c.34-.45,.71-.79,1.1-1.03,.39-.24,.8-.35,1.23-.35,.69,0,1.19,.2,1.52,.61,.32,.41,.48,.97,.48,1.68,0,.48-.08,.88-.25,1.2-.17,.33-.44,.57-.83,.74-.39,.17-.91,.25-1.58,.25h-.41v-1.38h.59c.48,0,.84-.06,1.09-.17,.25-.12,.38-.32,.38-.62s-.07-.5-.2-.65c-.13-.14-.38-.22-.73-.24-.18,0-.36,.02-.55,.09-.19,.06-.37,.17-.55,.31-.18,.15-.36,.34-.53,.57l-.57,.77c-.37,.5-.76,.87-1.18,1.12-.42,.25-.87,.38-1.33,.38-.64,0-1.15-.18-1.51-.55-.37-.37-.55-.94-.55-1.71Z"/><path class="cls-1" d="M1.55,105.71l9.97,1.89v1.76l-9.97,2.06v-1.38l1.9-.35v-2.26l-1.9-.33v-1.4Zm2.86,1.88v1.91l5.27-.98v-.02l-5.27-.91Z"/><path class="cls-1" d="M1.55,112.48H10.04v1.46H1.55v-1.46Zm9.28,0h1.06v1.46h-1.06v-1.46Z"/><path class="cls-1" d="M1.55,116.04H10.04v1.46h-.95c.33,.12,.59,.34,.77,.64s.28,.69,.28,1.17c0,0-.05,.02-.15,.02s-.21,0-.34,0h-.49c0-.23-.02-.45-.06-.68s-.12-.44-.22-.64c-.1-.2-.24-.37-.42-.51H1.55v-1.46Z"/><path class="cls-1" d="M1.44,122.76c0-.51,.07-.92,.21-1.23,.14-.31,.34-.54,.6-.71,.26-.16,.57-.27,.94-.32,.36-.05,.77-.08,1.21-.08h3c.4,0,.77,.04,1.1,.11,.33,.07,.62,.19,.87,.37,.24,.17,.43,.42,.57,.73,.13,.31,.2,.71,.2,1.19s-.07,.88-.2,1.18c-.14,.3-.33,.52-.58,.68s-.54,.26-.88,.31-.72,.08-1.12,.08h-1.6v-3.17h-1.69c-.54,0-.95,.05-1.23,.14-.28,.09-.42,.34-.42,.75,0,.27,.07,.46,.2,.58,.13,.12,.32,.19,.57,.21s.53,.04,.86,.04h.69v1.42h-.36c-.44,0-.84-.02-1.2-.07s-.67-.14-.92-.29c-.26-.15-.45-.37-.59-.68-.14-.3-.21-.72-.21-1.24Zm5.1-.89v1.73h1.08c.34,0,.63-.01,.86-.04s.41-.1,.53-.21c.12-.11,.18-.29,.18-.54,0-.28-.07-.48-.2-.62-.14-.13-.32-.22-.56-.26s-.52-.06-.84-.06h-1.04Z"/><path class="cls-1" d="M1.43,128.8c0-.76,.19-1.33,.57-1.72,.38-.39,1.01-.59,1.89-.59h.64v1.41h-.63c-.48,0-.84,.06-1.09,.19s-.38,.34-.38,.64,.08,.52,.23,.66,.43,.21,.83,.21c.2,0,.4-.04,.6-.11s.4-.19,.59-.35,.38-.36,.57-.6l.57-.75c.34-.45,.71-.79,1.1-1.03,.39-.24,.8-.35,1.23-.35,.69,0,1.19,.2,1.52,.61,.32,.41,.48,.97,.48,1.68,0,.48-.08,.88-.25,1.2-.17,.33-.44,.57-.83,.74-.39,.17-.91,.25-1.58,.25h-.41v-1.38h.59c.48,0,.84-.06,1.09-.17,.25-.12,.38-.32,.38-.62s-.07-.5-.2-.65c-.13-.14-.38-.22-.73-.24-.18,0-.36,.02-.55,.09-.19,.06-.37,.17-.55,.31-.18,.15-.36,.34-.53,.57l-.57,.77c-.37,.5-.76,.87-1.18,1.12-.42,.25-.87,.38-1.33,.38-.64,0-1.15-.18-1.51-.55-.37-.37-.55-.94-.55-1.71Z"/><path class="cls-1" d="M.84,135.85H11.95v1.4H.84v-1.4Z"/><path class="cls-1" d="M1.55,141.55l9.97,1.89v1.76l-9.97,2.06v-1.38l1.9-.35v-2.26l-1.9-.33v-1.4Zm2.86,1.88v1.91l5.27-.98v-.02l-5.27-.91Z"/><path class="cls-1" d="M1.55,148.31H10.04v1.46h-.95c.33,.12,.59,.34,.77,.64s.28,.69,.28,1.17c0,0-.05,.02-.15,.02s-.21,0-.34,0h-.49c0-.23-.02-.45-.06-.68s-.12-.44-.22-.64c-.1-.2-.24-.37-.42-.51H1.55v-1.46Z"/><path class="cls-1" d="M.25,154.61c-.01-.49,.03-.92,.13-1.31,.1-.39,.24-.72,.41-1l.79,.52c-.11,.21-.21,.45-.3,.74s-.13,.61-.12,.98c0,.33,.11,.59,.3,.77,.19,.18,.45,.27,.77,.27h.81c-.28-.14-.47-.33-.56-.57-.09-.24-.14-.51-.14-.82,0-.5,.11-.88,.35-1.15s.55-.46,.95-.57,.85-.16,1.36-.16h2.44c.52,0,.98,.06,1.39,.19s.74,.33,.98,.63c.24,.29,.36,.69,.35,1.19,0,.3-.06,.56-.18,.78-.12,.22-.3,.38-.54,.48h.62v1.45H2.34c-.24,0-.48-.04-.73-.11s-.46-.2-.67-.38c-.2-.18-.37-.42-.49-.74-.13-.31-.2-.71-.21-1.2Zm3.01,.14c0,.19,.05,.34,.14,.47,.09,.12,.26,.21,.51,.27s.6,.09,1.07,.09h2.62c.52,0,.91-.06,1.18-.17,.27-.12,.4-.36,.4-.73,0-.27-.07-.47-.2-.6-.13-.13-.32-.21-.55-.25-.23-.04-.51-.06-.82-.06h-2.65c-.56,0-.99,.06-1.27,.19s-.43,.39-.43,.79Z"/><path class="cls-1" d="M1.44,160.9c0-.51,.07-.92,.21-1.23,.14-.31,.34-.54,.6-.71,.26-.16,.57-.27,.94-.32,.36-.05,.77-.08,1.21-.08h3c.4,0,.77,.04,1.1,.11,.33,.07,.62,.19,.87,.37,.24,.17,.43,.42,.57,.73,.13,.31,.2,.71,.2,1.19s-.07,.88-.2,1.18c-.14,.3-.33,.52-.58,.68s-.54,.26-.88,.31-.72,.08-1.12,.08h-1.6v-3.17h-1.69c-.54,0-.95,.05-1.23,.14-.28,.09-.42,.34-.42,.75,0,.27,.07,.46,.2,.58,.13,.12,.32,.19,.57,.21s.53,.04,.86,.04h.69v1.42h-.36c-.44,0-.84-.02-1.2-.07s-.67-.14-.92-.29c-.26-.15-.45-.37-.59-.68-.14-.3-.21-.72-.21-1.24Zm5.1-.89v1.73h1.08c.34,0,.63-.01,.86-.04s.41-.1,.53-.21c.12-.11,.18-.29,.18-.54,0-.28-.07-.48-.2-.62-.14-.13-.32-.22-.56-.26s-.52-.06-.84-.06h-1.04Z"/><path class="cls-1" d="M1.55,164.57H10.04v1.45h-.9c.26,.09,.5,.3,.7,.61,.2,.31,.31,.68,.31,1.11,0,.53-.15,.95-.45,1.25-.3,.3-.76,.45-1.38,.45H1.55v-1.45h6.77c.3,0,.52-.08,.66-.25,.14-.17,.2-.39,.2-.65,0-.19-.03-.37-.1-.53-.07-.16-.17-.29-.32-.38-.14-.09-.33-.14-.56-.14H1.55v-1.45Z"/><path class="cls-1" d="M1.49,172.96c0-.45,.04-.8,.13-1.03,.09-.23,.23-.39,.42-.47,.19-.08,.45-.12,.77-.12h6.31v-.97h.86v.97h1.54v1.45h-1.54v1.15h-.86v-1.15H2.91c-.14,0-.25,.02-.32,.07-.07,.05-.12,.15-.14,.32-.02,.17-.03,.42-.03,.77h-.92v-1Z"/><path class="cls-1" d="M1.55,174.98H10.04v1.46H1.55v-1.46Zm9.28,0h1.06v1.46h-1.06v-1.46Z"/><path class="cls-1" d="M1.55,178.15H10.04v1.45h-.9c.26,.09,.5,.3,.7,.61,.2,.31,.31,.68,.31,1.11,0,.53-.15,.95-.45,1.25-.3,.3-.76,.45-1.38,.45H1.55v-1.45h6.77c.3,0,.52-.08,.66-.25,.14-.17,.2-.39,.2-.65,0-.19-.03-.37-.1-.53-.07-.16-.17-.29-.32-.38-.14-.09-.33-.14-.56-.14H1.55v-1.45Z"/><path class="cls-1" d="M1.47,186.26c0-.64,.2-1.1,.6-1.39s.95-.43,1.66-.43h.83c.37,0,.68,.08,.93,.24,.25,.16,.45,.39,.62,.68,.17,.29,.32,.64,.45,1.03,.13,.4,.28,.83,.43,1.3h.66c.36,0,.66-.01,.88-.04s.39-.1,.5-.22c.11-.12,.16-.3,.16-.56s-.05-.44-.16-.56c-.11-.12-.27-.21-.5-.24-.23-.04-.52-.06-.88-.06h-.29v-1.44h.24c.36,0,.7,.03,1.01,.08s.58,.17,.81,.33,.41,.4,.54,.7,.2,.72,.2,1.22-.06,.87-.18,1.17c-.12,.29-.3,.52-.54,.68-.24,.16-.53,.27-.88,.32-.35,.06-.75,.08-1.21,.08H1.55v-1.46h.74c-.11-.04-.23-.13-.36-.25-.13-.12-.23-.28-.32-.48s-.13-.44-.13-.72Zm.94,.41c0,.25,.07,.47,.2,.66s.26,.31,.39,.37h3.23c-.13-.36-.24-.66-.35-.9-.1-.23-.21-.42-.33-.55-.11-.13-.25-.22-.41-.27-.16-.05-.36-.08-.6-.08h-.79c-.48,0-.82,.05-1.03,.16-.21,.1-.31,.31-.31,.61Z"/></g><g><polygon class="cls-1" points="8.68 1.13 14.23 1.13 14.23 7.22 8.68 7.22 2.92 4.18 8.68 1.13"/><path class="cls-1" d="M1.58,7.66V.7l3.47,3.1v.77L1.58,7.66ZM1.98,1.57V6.79l2.69-2.4v-.42L1.98,1.57Z"/></g></g></svg>